<svg xmlns="http://www.w3.org/2000/svg" width="55" height="55" viewBox="0 0 55 55"><path d="M27.5,0A27.5,27.5,0,1,0,55,27.5,27.5,27.5,0,0,0,27.5,0Z" fill="#00b2ff"/><path d="M36.59,13.81H31.54a4.04,4.04,0,0,0-8.08,0H18.41a3.034,3.034,0,0,0-3.03,3.03V39.06a3.034,3.034,0,0,0,3.03,3.03H36.59a3.034,3.034,0,0,0,3.03-3.03V16.84A3.028,3.028,0,0,0,36.59,13.81ZM27.5,12.29a1.52,1.52,0,1,1-1.52,1.52A1.519,1.519,0,0,1,27.5,12.29Zm7.65,14.64-9.03,8.95a.749.749,0,0,1-1.07-.01l-5.21-5.26a.749.749,0,0,1,.01-1.07l1.79-1.78a.749.749,0,0,1,1.07.01l2.9,2.93,6.69-6.64a.749.749,0,0,1,1.07.01l1.78,1.79A.749.749,0,0,1,35.15,26.93Z" fill="#fff"/></svg>