<svg xmlns="http://www.w3.org/2000/svg" width="55" height="55" viewBox="0 0 55 55"><g transform="translate(23)"><g transform="translate(-23)"><path d="M27.5,0A27.5,27.5,0,1,0,55,27.5,27.5,27.5,0,0,0,27.5,0Z" fill="#00b2ff"/><path d="M37.91,19.27,32.4,13.76a1.362,1.362,0,0,0-.96-.39H31.1v7.2h7.2v-.34A1.345,1.345,0,0,0,37.91,19.27ZM29.3,21.01V13.36H18.05a1.344,1.344,0,0,0-1.35,1.35v26.1a1.344,1.344,0,0,0,1.35,1.35h18.9a1.344,1.344,0,0,0,1.35-1.35V22.36H30.65A1.357,1.357,0,0,1,29.3,21.01Zm3.6,9v2.7a.448.448,0,0,1-.45.45H29.3v3.15a.448.448,0,0,1-.45.45h-2.7a.448.448,0,0,1-.45-.45V33.16H22.55a.448.448,0,0,1-.45-.45v-2.7a.448.448,0,0,1,.45-.45H25.7V26.41a.448.448,0,0,1,.45-.45h2.7a.448.448,0,0,1,.45.45v3.15h3.15A.448.448,0,0,1,32.9,30.01Z" fill="#fff"/></g></g></svg>