<svg xmlns="http://www.w3.org/2000/svg" width="70" height="70" viewBox="0 0 70 70"><g transform="translate(-513 -1807)"><circle cx="35" cy="35" r="35" transform="translate(513 1807)" fill="#f46e33"/></g><path d="M56.89,35.63l-3.47-13.9a6.722,6.722,0,0,0-8.66-4.75l-1.17.39a1.219,1.219,0,0,0-.77,1.55l.39,1.16a1.219,1.219,0,0,0,1.55.77l1.01-.34a3.291,3.291,0,0,1,2.54.13,3.029,3.029,0,0,1,1.56,1.98l2.94,11.77a21.227,21.227,0,0,0-6.21-.95,20.082,20.082,0,0,0-8.79,2.05h-5.6a20.082,20.082,0,0,0-8.79-2.05,21.172,21.172,0,0,0-6.21.95l2.94-11.77a3,3,0,0,1,1.56-1.97,3.245,3.245,0,0,1,2.54-.13l1.01.34a1.231,1.231,0,0,0,1.55-.77l.39-1.16a1.231,1.231,0,0,0-.77-1.55l-1.17-.39a6.722,6.722,0,0,0-8.66,4.75l-3.47,13.9a4.773,4.773,0,0,0-.15,1.18v5.37a8.764,8.764,0,0,0,8.81,8.71h2.84a8.775,8.775,0,0,0,8.79-8.06l.22-2.96h2.73l.22,2.96a8.768,8.768,0,0,0,8.79,8.06h2.84a8.758,8.758,0,0,0,8.81-8.71V36.82A5.169,5.169,0,0,0,56.89,35.63ZM28.53,42.47A3.893,3.893,0,0,1,24.62,46H21.78a3.874,3.874,0,0,1-3.92-3.82V39.31a16.522,16.522,0,0,1,5.55-.99,14.915,14.915,0,0,1,5.35.99l-.23,3.16Zm23.61-.28a3.88,3.88,0,0,1-3.92,3.82H45.38a3.894,3.894,0,0,1-3.91-3.54l-.24-3.15a14.955,14.955,0,0,1,5.35-.99,16.522,16.522,0,0,1,5.55.99l.01,2.87Z" fill="#fff"/></svg>