<svg xmlns="http://www.w3.org/2000/svg" width="70" height="70" viewBox="0 0 70 70"><g transform="translate(-513 -1807)"><circle cx="35" cy="35" r="35" transform="translate(513 1807)" fill="#00b2ff"/></g><path d="M35,7.51a6.8,6.8,0,1,0,6.8,6.8A6.8,6.8,0,0,0,35,7.51Zm0,9.3a2.5,2.5,0,1,1,2.5-2.5A2.5,2.5,0,0,1,35,16.81Z" fill="#fff"/><path d="M49.14,14.31H39.72c0,1.3-3.41,4.71-4.71,4.71s-4.71-3.41-4.71-4.71H20.88a4.724,4.724,0,0,0-4.71,4.71V52.01a4.724,4.724,0,0,0,4.71,4.71H49.15a4.724,4.724,0,0,0,4.71-4.71V19.03A4.742,4.742,0,0,0,49.14,14.31Zm0,37.7H20.86V19.03H49.13V52.01Z" fill="#fff"/><path d="M44.42,21.38a2.231,2.231,0,0,1-2.36,2.36H27.93a2.231,2.231,0,0,1-2.36-2.36V19.02H44.42Z" fill="#fff"/><path d="M33.12,42.23H25.09a.4.4,0,0,1-.4-.4V39.69a.4.4,0,0,1,.4-.4h8.03a.4.4,0,0,1,.4.4v2.14A.4.4,0,0,1,33.12,42.23Z" fill="#fff"/><path d="M44.9,42.23H36.87a.4.4,0,0,1-.4-.4V39.69a.4.4,0,0,1,.4-.4H44.9a.4.4,0,0,1,.4.4v2.14A.4.4,0,0,1,44.9,42.23Z" fill="#fff"/><path d="M44.9,48.12H25.08a.4.4,0,0,1-.4-.4V45.58a.4.4,0,0,1,.4-.4H44.9a.4.4,0,0,1,.4.4v2.14A.4.4,0,0,1,44.9,48.12Z" fill="#fff"/><path d="M29.2,36.34H25.08a.4.4,0,0,1-.4-.4V33.8a.4.4,0,0,1,.4-.4H29.2a.4.4,0,0,1,.4.4v2.14A.4.4,0,0,1,29.2,36.34Z" fill="#fff"/><path d="M27.22,30.44H25.08a.4.4,0,0,1-.4-.4V27.9a.4.4,0,0,1,.4-.4h2.14a.4.4,0,0,1,.4.4v2.14A.389.389,0,0,1,27.22,30.44Z" fill="#fff"/><path d="M33.12,30.44H30.98a.4.4,0,0,1-.4-.4V27.9a.4.4,0,0,1,.4-.4h2.14a.4.4,0,0,1,.4.4v2.14A.4.4,0,0,1,33.12,30.44Z" fill="#fff"/><path d="M39.01,30.44H36.87a.4.4,0,0,1-.4-.4V27.9a.4.4,0,0,1,.4-.4h2.14a.4.4,0,0,1,.4.4v2.14A.4.4,0,0,1,39.01,30.44Z" fill="#fff"/><path d="M37.05,36.34H32.93a.4.4,0,0,1-.4-.4V33.8a.4.4,0,0,1,.4-.4h4.12a.4.4,0,0,1,.4.4v2.14A.4.4,0,0,1,37.05,36.34Z" fill="#fff"/><path d="M44.92,36.34H40.8a.4.4,0,0,1-.4-.4V33.8a.4.4,0,0,1,.4-.4h4.12a.4.4,0,0,1,.4.4v2.14A.4.4,0,0,1,44.92,36.34Z" fill="#fff"/><path d="M44.9,30.44H42.76a.4.4,0,0,1-.4-.4V27.9a.4.4,0,0,1,.4-.4H44.9a.4.4,0,0,1,.4.4v2.14A.4.4,0,0,1,44.9,30.44Z" fill="#fff"/></svg>