<svg xmlns="http://www.w3.org/2000/svg" width="55" height="55" viewBox="0 0 55 55"><g transform="translate(-193 -30)"><circle cx="27.5" cy="27.5" r="27.5" transform="translate(193 30)" fill="#8d5fd6"/></g><path d="M37.54,12.49l-2.32,2.7-3.28-2.7a.96.96,0,0,0-1.16,0l-3.28,2.7-3.28-2.7a.96.96,0,0,0-1.16,0l-3.28,2.7-2.32-2.7a.969.969,0,0,0-1.55.77V42.23a.966.966,0,0,0,1.55.77l2.32-2.7L23.06,43a.96.96,0,0,0,1.16,0l3.28-2.7L30.78,43a.96.96,0,0,0,1.16,0l3.28-2.7L37.54,43a.97.97,0,0,0,1.55-.77V13.26A.969.969,0,0,0,37.54,12.49ZM35.23,34.03a.48.48,0,0,1-.48.48H20.26a.48.48,0,0,1-.48-.48v-.97a.48.48,0,0,1,.48-.48H34.74a.48.48,0,0,1,.48.48v.97Zm0-5.8a.48.48,0,0,1-.48.48H20.26a.48.48,0,0,1-.48-.48v-.97a.48.48,0,0,1,.48-.48H34.74a.48.48,0,0,1,.48.48v.97Zm0-5.79a.48.48,0,0,1-.48.48H20.26a.48.48,0,0,1-.48-.48v-.97a.48.48,0,0,1,.48-.48H34.74a.48.48,0,0,1,.48.48v.97Z" fill="#fff"/></svg>