<svg xmlns="http://www.w3.org/2000/svg" width="70" height="70" viewBox="0 0 70 70"><g transform="translate(23)"><g transform="translate(-23)"><path d="M35,0A35,35,0,1,0,70,35,35,35,0,0,0,35,0Z" fill="#00b2ff"/><path d="M55.12,34.53,47.03,31.5V22.41a3.005,3.005,0,0,0-1.96-2.82l-8.38-3.14a2.978,2.978,0,0,0-2.12,0l-8.38,3.14a3.015,3.015,0,0,0-1.96,2.82V31.5l-8.09,3.03a3.02,3.02,0,0,0-1.95,2.82v9.22a3.027,3.027,0,0,0,1.67,2.7l8.38,4.19a2.987,2.987,0,0,0,2.7,0l8.7-4.36,8.7,4.36a2.987,2.987,0,0,0,2.7,0l8.38-4.19a3.027,3.027,0,0,0,1.67-2.7V37.35A3.049,3.049,0,0,0,55.12,34.53ZM44.18,31.57l-7.12,2.67V28.53l7.12-3.1ZM27.09,22.29l8.55-3.2,8.55,3.2v.05l-8.55,3.47-8.55-3.47Zm7.04,24.39-7.12,3.56V43.61l7.12-3.25Zm0-9.38-8.55,3.47L17.03,37.3v-.05l8.55-3.2,8.55,3.2Zm20.1,9.38-7.12,3.56V43.61l7.12-3.25Zm0-9.38-8.55,3.47L37.13,37.3v-.05l8.55-3.2,8.55,3.2Z" fill="#fff"/></g></g></svg>