<svg xmlns="http://www.w3.org/2000/svg" width="55.18" height="55.18" viewBox="0 0 55.18 55.18"><path d="M27.59,0A27.59,27.59,0,1,0,55.18,27.59,27.587,27.587,0,0,0,27.59,0Z" fill="#8d5fd6"/><path d="M45,23.2H37.36V13.76a1.351,1.351,0,0,0-1.35-1.35H27.92a1.351,1.351,0,0,0-1.35,1.35V17.8h-3.6V13.31a.9.9,0,0,0-.9-.9h-.9a.9.9,0,0,0-.9.9V17.8h-3.6V13.31a.9.9,0,0,0-.9-.9h-.9a.9.9,0,0,0-.9.9V17.8H11.72a1.351,1.351,0,0,0-1.35,1.35V39.37a1.805,1.805,0,0,0,1.8,1.8H44.53a1.805,1.805,0,0,0,1.8-1.8V24.55A1.315,1.315,0,0,0,45,23.2ZM17.59,35.11a.67.67,0,0,1-.67.67H14.67a.67.67,0,0,1-.67-.67V32.86a.67.67,0,0,1,.67-.67h2.25a.67.67,0,0,1,.67.67Zm0-5.39a.67.67,0,0,1-.67.67H14.67a.67.67,0,0,1-.67-.67V27.47a.67.67,0,0,1,.67-.67h2.25a.67.67,0,0,1,.67.67Zm0-5.39a.67.67,0,0,1-.67.67H14.67a.67.67,0,0,1-.67-.67V22.08a.67.67,0,0,1,.67-.67h2.25a.67.67,0,0,1,.67.67Zm7.19,10.78a.67.67,0,0,1-.67.67H21.86a.67.67,0,0,1-.67-.67V32.86a.67.67,0,0,1,.67-.67h2.25a.67.67,0,0,1,.67.67Zm0-5.39a.67.67,0,0,1-.67.67H21.86a.67.67,0,0,1-.67-.67V27.47a.67.67,0,0,1,.67-.67h2.25a.67.67,0,0,1,.67.67Zm0-5.39a.67.67,0,0,1-.67.67H21.86a.67.67,0,0,1-.67-.67V22.08a.67.67,0,0,1,.67-.67h2.25a.67.67,0,0,1,.67.67Zm8.99,5.39a.67.67,0,0,1-.67.67H30.85a.67.67,0,0,1-.67-.67V27.47a.67.67,0,0,1,.67-.67H33.1a.67.67,0,0,1,.67.67Zm0-5.39a.67.67,0,0,1-.67.67H30.85a.67.67,0,0,1-.67-.67V22.08a.67.67,0,0,1,.67-.67H33.1a.67.67,0,0,1,.67.67Zm0-5.4a.67.67,0,0,1-.67.67H30.85a.67.67,0,0,1-.67-.67V16.68a.67.67,0,0,1,.67-.67H33.1a.67.67,0,0,1,.67.67Zm8.98,16.18a.67.67,0,0,1-.67.67H39.83a.67.67,0,0,1-.67-.67V32.86a.67.67,0,0,1,.67-.67h2.25a.67.67,0,0,1,.67.67Zm0-5.39a.67.67,0,0,1-.67.67H39.83a.67.67,0,0,1-.67-.67V27.47a.67.67,0,0,1,.67-.67h2.25a.67.67,0,0,1,.67.67Z" fill="#fff"/></svg>