<svg xmlns="http://www.w3.org/2000/svg" width="70" height="70" viewBox="0 0 70 70"><path d="M35,0A35,35,0,1,0,70,35,35,35,0,0,0,35,0Z" fill="#fd2f58"/><path d="M19.33,32.56H50.91a3.956,3.956,0,0,0,3.96-3.96c0-7.21-9.88-12.78-19.75-12.78S15.37,21.4,15.37,28.6h0A3.969,3.969,0,0,0,19.33,32.56ZM45,21.75a1.96,1.96,0,1,1-1.96,1.96A1.963,1.963,0,0,1,45,21.75Zm-9.88-1.97a1.96,1.96,0,1,1-1.96,1.96A1.963,1.963,0,0,1,35.12,19.78Zm-9.87,1.97a1.96,1.96,0,1,1-1.96,1.96A1.963,1.963,0,0,1,25.25,21.75Z" fill="#fff"/><path d="M53.52,44.4H16.72a1.357,1.357,0,0,0-1.35,1.35v2.14h0a3.963,3.963,0,0,0,3.96,3.96H50.89a3.973,3.973,0,0,0,3.97-3.97V45.74A1.34,1.34,0,0,0,53.52,44.4Z" fill="#fff"/><path d="M53.12,34.76H48.95l-9.17,5.23-9.17-5.23H17.13a3.73,3.73,0,0,0,0,7.46h36a3.73,3.73,0,1,0-.01-7.46Z" fill="#fff"/></svg>