<svg xmlns="http://www.w3.org/2000/svg" width="55" height="55" viewBox="0 0 55 55"><path d="M27.5,0A27.5,27.5,0,1,0,55,27.5,27.5,27.5,0,0,0,27.5,0Z" fill="#f46e33"/><path d="M38.01,13.36H18.56a2.722,2.722,0,0,0-2.65,2.65V38.99a2.722,2.722,0,0,0,2.65,2.65H38a2.722,2.722,0,0,0,2.65-2.65V16.01A2.706,2.706,0,0,0,38.01,13.36ZM22.98,37.4a.764.764,0,0,1-.71.71H20.15a.764.764,0,0,1-.71-.71V35.28a.764.764,0,0,1,.71-.71h2.12a.764.764,0,0,1,.71.71Zm0-7.07a.764.764,0,0,1-.71.71H20.15a.764.764,0,0,1-.71-.71V28.21a.764.764,0,0,1,.71-.71h2.12a.764.764,0,0,1,.71.71Zm7.07,7.07a.764.764,0,0,1-.71.71H27.22a.764.764,0,0,1-.71-.71V35.28a.764.764,0,0,1,.71-.71h2.12a.764.764,0,0,1,.71.71V37.4Zm0-7.07a.764.764,0,0,1-.71.71H27.22a.764.764,0,0,1-.71-.71V28.21a.764.764,0,0,1,.71-.71h2.12a.764.764,0,0,1,.71.71v2.12Zm7.07,7.07a.764.764,0,0,1-.71.71H34.3a.764.764,0,0,1-.71-.71V28.21a.764.764,0,0,1,.71-.71h2.12a.764.764,0,0,1,.71.71V37.4Zm0-14.14a.764.764,0,0,1-.71.71H20.15a.764.764,0,0,1-.71-.71V17.6a.764.764,0,0,1,.71-.71H36.41a.764.764,0,0,1,.71.71Z" fill="#fff"/></svg>