<svg xmlns="http://www.w3.org/2000/svg" width="55.62" height="55.62" viewBox="0 0 55.62 55.62"><path d="M27.81,0A27.81,27.81,0,1,0,55.62,27.81,27.809,27.809,0,0,0,27.81,0Z" fill="#00b2ff"/><path d="M38.44,13.51H18.77a2.747,2.747,0,0,0-2.68,2.68V39.43a2.747,2.747,0,0,0,2.68,2.68H38.44a2.747,2.747,0,0,0,2.68-2.68V16.19A2.747,2.747,0,0,0,38.44,13.51ZM23.24,37.82a.774.774,0,0,1-.72.72H20.37a.774.774,0,0,1-.72-.72V35.67a.774.774,0,0,1,.72-.72h2.15a.774.774,0,0,1,.72.72Zm0-7.15a.774.774,0,0,1-.72.72H20.37a.774.774,0,0,1-.72-.72V28.52a.774.774,0,0,1,.72-.72h2.15a.774.774,0,0,1,.72.72Zm7.16,7.15a.774.774,0,0,1-.72.72H27.53a.774.774,0,0,1-.72-.72V35.67a.774.774,0,0,1,.72-.72h2.15a.774.774,0,0,1,.72.72v2.15Zm0-7.15a.774.774,0,0,1-.72.72H27.53a.774.774,0,0,1-.72-.72V28.52a.774.774,0,0,1,.72-.72h2.15a.774.774,0,0,1,.72.72v2.15Zm7.15,7.15a.774.774,0,0,1-.72.72H34.68a.774.774,0,0,1-.72-.72v-9.3a.774.774,0,0,1,.72-.72h2.15a.774.774,0,0,1,.72.72v9.3Zm0-14.3a.774.774,0,0,1-.72.72H20.38a.774.774,0,0,1-.72-.72V17.8a.774.774,0,0,1,.72-.72H36.83a.774.774,0,0,1,.72.72v5.72Z" fill="#fff"/></svg>