<svg xmlns="http://www.w3.org/2000/svg" width="55" height="55" viewBox="0 0 55 55"><path d="M27.5,0A27.5,27.5,0,1,0,55,27.5,27.5,27.5,0,0,0,27.5,0Z" fill="#8d5fd6"/><path d="M14.13,39.21A2.87,2.87,0,0,0,17,42.08H38.02a2.87,2.87,0,0,0,2.87-2.87V22.97H14.13Zm19.1-11.7a.723.723,0,0,1,.72-.72h2.39a.723.723,0,0,1,.72.72V29.9a.723.723,0,0,1-.72.72H33.95a.723.723,0,0,1-.72-.72Zm0,7.64a.723.723,0,0,1,.72-.72h2.39a.723.723,0,0,1,.72.72v2.39a.723.723,0,0,1-.72.72H33.95a.723.723,0,0,1-.72-.72Zm-7.64-7.64a.723.723,0,0,1,.72-.72H28.7a.723.723,0,0,1,.72.72V29.9a.723.723,0,0,1-.72.72H26.31a.723.723,0,0,1-.72-.72Zm0,7.64a.723.723,0,0,1,.72-.72H28.7a.723.723,0,0,1,.72.72v2.39a.723.723,0,0,1-.72.72H26.31a.723.723,0,0,1-.72-.72Zm-7.64-7.64a.723.723,0,0,1,.72-.72h2.39a.723.723,0,0,1,.72.72V29.9a.723.723,0,0,1-.72.72H18.67a.723.723,0,0,1-.72-.72Zm0,7.64a.723.723,0,0,1,.72-.72h2.39a.723.723,0,0,1,.72.72v2.39a.723.723,0,0,1-.72.72H18.67a.723.723,0,0,1-.72-.72ZM38.01,15.33H35.14V12.46a.96.96,0,0,0-.96-.96H32.27a.96.96,0,0,0-.96.96v2.87H23.67V12.46a.96.96,0,0,0-.96-.96H20.8a.96.96,0,0,0-.96.96v2.87H16.97A2.87,2.87,0,0,0,14.1,18.2v2.87H40.85V18.2A2.832,2.832,0,0,0,38.01,15.33Z" fill="#fff"/></svg>