<svg xmlns="http://www.w3.org/2000/svg" width="55" height="55" viewBox="0 0 55 55"><path d="M27.5,0A27.5,27.5,0,1,0,55,27.5,27.5,27.5,0,0,0,27.5,0Z" fill="#00b2ff"/><path d="M43.68,28.96h-.85V25.55a1.7,1.7,0,0,0-1.7-1.7H38.57l-5.79-7.24a3.414,3.414,0,0,0-2.66-1.28H24.09a1.7,1.7,0,0,0-1.7,1.7v6.81H13.87a1.7,1.7,0,0,0-1.7,1.7v3.41h-.85a.849.849,0,0,0-.85.85v1.7a.849.849,0,0,0,.85.85h2.64a5.963,5.963,0,1,0,11.74,0h3.58a5.963,5.963,0,1,0,11.74,0h2.64a.849.849,0,0,0,.85-.85V29.8A.818.818,0,0,0,43.68,28.96ZM25.8,18.74h4.32l4.09,5.11H25.8ZM19.84,35.77a2.56,2.56,0,1,1,2.56-2.56A2.565,2.565,0,0,1,19.84,35.77Zm15.33,0a2.56,2.56,0,1,1,2.56-2.56A2.565,2.565,0,0,1,35.17,35.77Z" fill="#fff"/></svg>