<svg xmlns="http://www.w3.org/2000/svg" width="55" height="55" viewBox="0 0 55 55"><path d="M27.5,0A27.5,27.5,0,1,0,55,27.5,27.5,27.5,0,0,0,27.5,0Z" fill="#8d5fd6"/><path d="M42.12,22.71H38.53l-1-2.49A6.653,6.653,0,0,0,31.3,16H23.69a6.678,6.678,0,0,0-6.23,4.22l-1,2.49H12.87a.72.72,0,0,0-.7.89l.36,1.44a.718.718,0,0,0,.7.54h1.2a3.812,3.812,0,0,0-1.32,2.88v2.88a3.779,3.779,0,0,0,.96,2.51v3.24a1.92,1.92,0,0,0,1.92,1.92h1.92a1.92,1.92,0,0,0,1.92-1.92V35.17H35.17v1.92a1.92,1.92,0,0,0,1.92,1.92H39a1.92,1.92,0,0,0,1.92-1.92V33.85a3.8,3.8,0,0,0,.96-2.51V28.46a3.844,3.844,0,0,0-1.32-2.88h1.2a.718.718,0,0,0,.7-.54l.36-1.44a.72.72,0,0,0-.7-.89Zm-21.1-1.07a2.88,2.88,0,0,1,2.67-1.81H31.3a2.88,2.88,0,0,1,2.67,1.81l1.19,2.99H19.83Zm-3.11,9.68a1.91,1.91,0,1,1,0-3.82,3.693,3.693,0,0,1,2.88,2.87c0,1.15-1.73.95-2.88.95Zm19.18,0c-1.15,0-2.88.19-2.88-.96a3.693,3.693,0,0,1,2.88-2.87,1.915,1.915,0,1,1,0,3.83Z" fill="#fff"/></svg>