<svg xmlns="http://www.w3.org/2000/svg" width="70" height="70" viewBox="0 0 70 70"><path d="M35,0A35,35,0,1,0,70,35,35,35,0,0,0,35,0Z" fill="#00c389"/><path d="M54.93,41.64h-1V34.85a3.005,3.005,0,0,0-.89-2.13l-6.27-6.27a3.005,3.005,0,0,0-2.13-.89H41.87V22.55a3.013,3.013,0,0,0-3.01-3.01H22.78a3.013,3.013,0,0,0-3.01,3.01v3.01H16.25a.5.5,0,0,0-.5.5v1a.5.5,0,0,0,.5.5H33.33a.5.5,0,0,1,.5.5v1a.5.5,0,0,1-.5.5H18.26a.5.5,0,0,0-.5.5v1a.5.5,0,0,0,.5.5H31.32a.5.5,0,0,1,.5.5v1a.5.5,0,0,1-.5.5H16.25a.5.5,0,0,0-.5.5v1a.5.5,0,0,0,.5.5H29.31a.5.5,0,0,1,.5.5v1a.5.5,0,0,1-.5.5H19.77V45.6a6.03,6.03,0,0,0,12.06,0h8.04a6.03,6.03,0,1,0,12.06,0h3.01a1,1,0,0,0,1-1V42.59A1.017,1.017,0,0,0,54.93,41.64ZM25.79,48.68a3.01,3.01,0,1,1,3.01-3.02A3.013,3.013,0,0,1,25.79,48.68Zm20.09,0a3.01,3.01,0,1,1,3.01-3.01A3.013,3.013,0,0,1,45.88,48.68Zm5.03-13.06H41.87V28.59h2.77l6.27,6.27Z" fill="#fff"/></svg>