<svg xmlns="http://www.w3.org/2000/svg" width="55" height="55" viewBox="0 0 55 55"><path d="M27.5,0A27.5,27.5,0,1,0,55,27.5,27.5,27.5,0,0,0,27.5,0Z" fill="#ffad22"/><path d="M42.3,35.37a2.474,2.474,0,0,1-2.14,3.71H15.41a2.476,2.476,0,0,1-2.14-3.71L25.64,13.92a2.478,2.478,0,0,1,4.29,0L42.3,35.37ZM27.78,30.93a2.37,2.37,0,1,0,2.37,2.37A2.369,2.369,0,0,0,27.78,30.93Zm-2.25-8.52.38,7.01a.616.616,0,0,0,.62.58h2.5a.623.623,0,0,0,.62-.58l.38-7.01a.618.618,0,0,0-.62-.65H26.14a.616.616,0,0,0-.61.65Z" fill="#fff"/></svg>