<svg xmlns="http://www.w3.org/2000/svg" width="55" height="55" viewBox="0 0 55 55"><g transform="translate(-193 -30)"><circle cx="27.5" cy="27.5" r="27.5" transform="translate(193 30)" fill="#00c389"/></g><g transform="translate(1379.91 -1603.555)"><path d="M-1338.35,1646l-2.63-2.43a12.215,12.215,0,0,0-8.39-3.28h-14.86a2.032,2.032,0,0,1-2.03-2.03v-17.37a2.032,2.032,0,0,1,2.03-2.03h23.85a2.032,2.032,0,0,1,2.03,2.03" fill="#fff"/><circle cx="1.88" cy="1.88" r="1.88" transform="translate(-1346.72 1627.5)" fill="#00c389"/><circle cx="1.88" cy="1.88" r="1.88" transform="translate(-1354.2 1627.5)" fill="#00c389"/><circle cx="1.88" cy="1.88" r="1.88" transform="translate(-1361.85 1627.5)" fill="#00c389"/></g></svg>