<svg xmlns="http://www.w3.org/2000/svg" width="55" height="55" viewBox="0 0 55 55"><g transform="translate(450.74 813.43)"><path d="M-423.24-813.43a27.5,27.5,0,0,0-27.5,27.5,27.5,27.5,0,0,0,27.5,27.5,27.5,27.5,0,0,0,27.5-27.5A27.5,27.5,0,0,0-423.24-813.43Z" fill="#8d5fd6"/><path d="M-424.12-768.73c-10.09-14.63-11.97-16.14-11.97-21.51a13.337,13.337,0,0,1,13.34-13.34,13.337,13.337,0,0,1,13.34,13.34c0,5.38-1.87,6.88-11.97,21.51a1.673,1.673,0,0,1-2.74,0Zm1.37-15.96a5.561,5.561,0,0,0,5.56-5.56,5.561,5.561,0,0,0-5.56-5.56,5.561,5.561,0,0,0-5.56,5.56A5.561,5.561,0,0,0-422.75-784.69Z" fill="#fff"/></g></svg>