<svg xmlns="http://www.w3.org/2000/svg" width="70" height="70" viewBox="0 0 70 70"><g transform="translate(-513 -1807)"><circle cx="35" cy="35" r="35" transform="translate(513 1807)" fill="#00c389"/></g><path d="M49.28,14.23H41.87a6.87,6.87,0,1,0-13.74,0H20.72a4.771,4.771,0,0,0-4.76,4.76V52.32a4.771,4.771,0,0,0,4.76,4.76H49.29a4.771,4.771,0,0,0,4.76-4.76V18.99A4.78,4.78,0,0,0,49.28,14.23ZM35,11.71a2.52,2.52,0,1,1-2.52,2.52A2.522,2.522,0,0,1,35,11.71ZM49.28,52.32H20.72V18.99h4.76v2.38a2.246,2.246,0,0,0,2.38,2.38H42.14a2.246,2.246,0,0,0,2.38-2.38V18.99h4.76Z" fill="#fff"/><path d="M43.57,42.8H33.58a.96.96,0,0,0-.96.96v1.06a.96.96,0,0,0,.96.96h9.99a.96.96,0,0,0,.96-.96V43.76A.973.973,0,0,0,43.57,42.8Z" fill="#fff"/><circle cx="2.38" cy="2.38" r="2.38" transform="translate(25.48 41.9)" fill="#fff"/><path d="M43.57,35.65H33.58a.96.96,0,0,0-.96.96v1.06a.96.96,0,0,0,.96.96h9.99a.96.96,0,0,0,.96-.96V36.61A.973.973,0,0,0,43.57,35.65Z" fill="#fff"/><circle cx="2.38" cy="2.38" r="2.38" transform="translate(25.48 34.76)" fill="#fff"/><path d="M27.31,32.01a.7.7,0,0,0,1,0l.5-.5,3.61-3.61a.7.7,0,0,0,0-1l-.5-.5a.7.7,0,0,0-1,0l-3.11,3.11-1.02-1.02a.7.7,0,0,0-1,0l-.5.5a.7.7,0,0,0,0,1l1.52,1.52Z" fill="#fff"/><path d="M43.57,28.51H37l-3.22,2.98h9.79a.96.96,0,0,0,.96-.96V29.47A.973.973,0,0,0,43.57,28.51Z" fill="#fff"/></svg>