<svg xmlns="http://www.w3.org/2000/svg" width="55.18" height="55.18" viewBox="0 0 55.18 55.18"><g transform="translate(-513 -1807)"><circle cx="27.59" cy="27.59" r="27.59" transform="translate(513 1807)" fill="#00b2ff"/></g><path d="M33,27.81H22.17v3.61H33Zm5.03-8.52L32.5,13.76a1.371,1.371,0,0,0-.96-.4H31.2v7.23h7.23v-.34A1.416,1.416,0,0,0,38.03,19.29Zm-8.64,1.75V13.36H18.1a1.344,1.344,0,0,0-1.35,1.35V40.9a1.344,1.344,0,0,0,1.35,1.35H37.07a1.344,1.344,0,0,0,1.35-1.35V22.39H30.74A1.357,1.357,0,0,1,29.39,21.04Zm-9.03-3.61a.448.448,0,0,1,.45-.45h4.52a.448.448,0,0,1,.45.45v.9a.448.448,0,0,1-.45.45H20.81a.448.448,0,0,1-.45-.45Zm0,3.61a.448.448,0,0,1,.45-.45h4.52a.448.448,0,0,1,.45.45v.9a.448.448,0,0,1-.45.45H20.81a.448.448,0,0,1-.45-.45ZM34.81,38.2a.448.448,0,0,1-.45.45H29.84a.448.448,0,0,1-.45-.45v-.9a.448.448,0,0,1,.45-.45h4.52a.448.448,0,0,1,.45.45Zm0-11.29v5.42a.9.9,0,0,1-.9.9H21.26a.9.9,0,0,1-.9-.9V26.91a.9.9,0,0,1,.9-.9H33.9A.9.9,0,0,1,34.81,26.91Z" fill="#fff"/></svg>