<svg xmlns="http://www.w3.org/2000/svg" width="55" height="55" viewBox="0 0 55 55"><path d="M27.5,0A27.5,27.5,0,1,0,55,27.5,27.5,27.5,0,0,0,27.5,0Z" fill="#f46e33"/><g transform="translate(-604.089 -3539.556)"><path d="M647.75,3558.16a5.138,5.138,0,0,0-5.14-5.14H620.56a5.16,5.16,0,0,0-5.14,5.15v16.06a5.16,5.16,0,0,0,5.14,5.15h13.78a8.017,8.017,0,0,1,5.51,2.15l3.13,2.9a2.714,2.714,0,0,0,1.92.75,2.83,2.83,0,0,0,2.85-2.82v-24.2Zm-3.21,23.04-2.42-2.23a11.291,11.291,0,0,0-7.72-3.02H620.73a1.88,1.88,0,0,1-1.87-1.87V3558.1a1.88,1.88,0,0,1,1.87-1.87h21.94a1.874,1.874,0,0,1,1.87,1.87v23.1Z" fill="#fff"/><path d="M631.61,3567.03a3.908,3.908,0,0,0-3.83,3.13.637.637,0,0,0,.52.74.614.614,0,0,0,.14.01h6.4a.662.662,0,0,0,.66-.67.22.22,0,0,0-.01-.08A4.048,4.048,0,0,0,631.61,3567.03Z" fill="#fff"/><circle cx="1.73" cy="1.73" r="1.73" transform="translate(637.54 3562.41)" fill="#fff"/><circle cx="1.73" cy="1.73" r="1.73" transform="translate(622.22 3562.41)" fill="#fff"/></g></svg>