<svg xmlns="http://www.w3.org/2000/svg" width="55" height="55" viewBox="0 0 55 55"><path d="M27.5,0A27.5,27.5,0,1,0,55,27.5,27.5,27.5,0,0,0,27.5,0Z" fill="#f46e33"/><path d="M40.18,34.19V15.17a1.361,1.361,0,0,0-1.36-1.36H20.25a5.439,5.439,0,0,0-5.44,5.44V37.37a5.439,5.439,0,0,0,5.44,5.44H38.82a1.361,1.361,0,0,0,1.36-1.36v-.91a1.4,1.4,0,0,0-.5-1.06,12.516,12.516,0,0,1,0-4.23,1.348,1.348,0,0,0,.5-1.06ZM22.06,21.4a.337.337,0,0,1,.34-.34h12a.337.337,0,0,1,.34.34v1.13a.337.337,0,0,1-.34.34h-12a.337.337,0,0,1-.34-.34V21.4Zm0,3.62a.337.337,0,0,1,.34-.34h12a.337.337,0,0,1,.34.34v1.13a.337.337,0,0,1-.34.34h-12a.337.337,0,0,1-.34-.34V25.02ZM36.41,39.18H20.25a1.81,1.81,0,0,1,0-3.62H36.41A21.878,21.878,0,0,0,36.41,39.18Z" fill="#fff"/></svg>