<svg xmlns="http://www.w3.org/2000/svg" width="136.766" height="102.277" viewBox="0 0 136.766 102.277"><path d="M71.614,79.921a1.8,1.8,0,0,1,.563,2.31C68,90,63.1,97.745,58.389,102.808a67.463,67.463,0,0,0,9.855,11.76,9.1,9.1,0,0,0,11.6.6A93.3,93.3,0,0,0,94.352,101.85c-4.455-4.92-9.026-12.378-12.95-19.7a2.045,2.045,0,0,1,.482-2.546,8.485,8.485,0,0,0-4.8-15.029C68.57,64.046,64.734,74.994,71.614,79.921Z" transform="translate(-42.792 -64.556)" fill="#f9bb4b"/><path d="M79.883,96.52c1.772-2.415,3.534-5.011,5.264-7.72C83.853,86.62,82.6,84.376,81.4,82.144a2.038,2.038,0,0,1,.485-2.541,8.485,8.485,0,0,0-4.8-15.029c-8.512-.53-12.348,10.419-5.469,15.345a1.8,1.8,0,0,1,.563,2.31C68,90,63.1,97.744,58.39,102.807a67.464,67.464,0,0,0,9.855,11.76,9.1,9.1,0,0,0,11.6.6c.4-.293.816-.607,1.244-.934q-.34-.4-.675-.8A13.725,13.725,0,0,1,79.883,96.52Z" transform="translate(-42.793 -64.556)" fill="#f2aa36"/><path d="M330.615,79.189a3,3,0,0,1,.605,3.62C327.4,89.8,323,97.013,318.7,101.771a93.27,93.27,0,0,0,14.581,13.405,9.1,9.1,0,0,0,11.6-.6,67.3,67.3,0,0,0,9.793-11.668c-4.656-4.988-9.5-12.628-13.65-20.256a2.3,2.3,0,0,1,.585-2.907,8.472,8.472,0,1,0-11-.552Z" transform="translate(-233.568 -64.561)" fill="#f9bb4b"/><path d="M342.046,94.355c1.01-1.516,2.009-3.1,2.987-4.73-1.385-2.275-2.73-4.626-4.008-6.976a2.32,2.32,0,0,1,.626-2.938,8.472,8.472,0,1,0-11.022-.509,2.955,2.955,0,0,1,.613,3.57c-3.825,7-8.235,14.233-12.541,19a93.269,93.269,0,0,0,14.581,13.405,9.1,9.1,0,0,0,11.6-.6c.8-.739,1.589-1.517,2.357-2.322-1.047-.862-2.149-1.808-3.289-2.84A11.621,11.621,0,0,1,342.046,94.355Z" transform="translate(-233.568 -64.562)" fill="#f2aa36"/><path d="M1.078,83.087c3.6,7.284,1.832,13.307,2.285,38.763v38.207h130.1V93.995a24.6,24.6,0,0,1,2.325-11c2.2-4.9.474-13.528-4.093-13.528-3.9,0-5.854,6.38-4.809,11.3.488,2.285,2.384,5.21.783,9.805-3.82,7.271-9.422,16.281-16.323,22.627a9.1,9.1,0,0,1-11.6.6A93.64,93.64,0,0,1,72.924,82.754a2.361,2.361,0,0,1,.693-2.982,8.478,8.478,0,0,0-5.186-15.21h-.041A8.479,8.479,0,0,0,63.268,79.82a2.258,2.258,0,0,1,.667,2.863A93.636,93.636,0,0,1,37.082,113.8a9.1,9.1,0,0,1-11.6-.6c-6.9-6.346-12.5-15.357-16.323-22.627A11.393,11.393,0,0,1,9.392,82.6c2.194-5.494-.129-13.137-4.26-13.137C.573,69.467-1.312,78.24,1.078,83.087Z" transform="translate(-0.028 -64.56)" fill="#f9c85d"/><path d="M17.246,117.213a109.421,109.421,0,0,1-8.089-13.187,11.393,11.393,0,0,1,.234-7.966c2.194-5.494-.129-13.137-4.26-13.137-4.558,0-6.443,8.773-4.053,13.621,3.6,7.284,1.832,13.307,2.285,38.763v38.207h13.9V135.307C17.126,127.739,17.187,121.89,17.246,117.213Z" transform="translate(-0.028 -78.017)" fill="#f9bb4b"/><ellipse cx="6.201" cy="6.201" rx="6.201" ry="6.201" transform="translate(96.668 63.346)" fill="#f96989"/><path d="M368.08,307.9a6.2,6.2,0,0,1,0-6.2,6.2,6.2,0,1,0,5.37,9.3A6.2,6.2,0,0,1,368.08,307.9Z" transform="translate(-265.212 -238.353)" fill="#ed5a81"/><ellipse cx="9.45" cy="11.27" rx="9.45" ry="11.27" transform="translate(58.933 58.392)" fill="#f96989"/><path d="M236.4,302.5c-5.22,0-9.451-5.046-9.451-11.27a12.382,12.382,0,0,1,2.84-8.051c-5.089.178-9.17,5.15-9.17,11.262,0,6.224,4.231,11.27,9.451,11.27a8.71,8.71,0,0,0,6.611-3.219C236.587,302.5,236.494,302.5,236.4,302.5Z" transform="translate(-161.687 -224.782)" fill="#ed5a81"/><path d="M133.051,416.912H3.715a4.1,4.1,0,0,0,0,8.156H133.051a4.1,4.1,0,0,0,0-8.156Z" transform="translate(0 -322.79)" fill="#f4a32c"/><path d="M13.76,420.99a3.909,3.909,0,0,1,3.715-4.078H3.715a4.1,4.1,0,0,0,0,8.156h13.76A3.909,3.909,0,0,1,13.76,420.99Z" transform="translate(0 -322.79)" fill="#ed9015"/><ellipse cx="6.201" cy="6.201" rx="6.201" ry="6.201" transform="translate(27.03 63.346)" fill="#f96989"/><path d="M107.38,307.9a6.2,6.2,0,0,1,0-6.2,6.2,6.2,0,1,0,5.37,9.3A6.2,6.2,0,0,1,107.38,307.9Z" transform="translate(-74.15 -238.353)" fill="#ed5a81"/></svg>