<svg xmlns="http://www.w3.org/2000/svg" width="127.497" height="136.766" viewBox="0 0 127.497 136.766"><path d="M157.238,19.451C164.1,12.526,167,2.781,163.745.475c-2.553-1.807-7.91,1.692-11.967,7.814a32.956,32.956,0,0,0-3.1,5.658A19.049,19.049,0,0,1,157.238,19.451Z" transform="translate(-113.597 0)" fill="#967d74"/><path d="M156.181,11.154c2.782-4.2,6.176-7.162,8.857-8.028A3.541,3.541,0,0,0,163.745.477c-2.553-1.807-7.91,1.692-11.967,7.814a32.975,32.975,0,0,0-3.1,5.658,18.58,18.58,0,0,1,4.685,2.19A36.076,36.076,0,0,1,156.181,11.154Z" transform="translate(-113.597 -0.001)" fill="#7c6359"/><path d="M56.667,19.451a19.044,19.044,0,0,1,8.56-5.5,32.95,32.95,0,0,0-3.1-5.659C58.071,2.167,52.713-1.331,50.16.475,46.872,2.8,49.853,12.577,56.667,19.451Z" transform="translate(-40.413 0)" fill="#967d74"/><path d="M53.383.306A3.5,3.5,0,0,0,50.16.481c-3.289,2.327-.307,12.1,6.507,18.976a19.673,19.673,0,0,1,3.5-3.064C55.17,10.886,52.531,3.929,53.383.306Z" transform="translate(-40.413 -0.005)" fill="#7c6359"/><path d="M191.112,248.251c-1.375-3.067-7.709-8.756-9.822-10.586-5.226,5.489-4.916,5.134-5.181,5.455.729,1.211,4.089,6.318,7.431,7.236,0,0-6.812,4.007-9.609,7.366h-.235a17.7,17.7,0,0,0,1.577,5.617,33.176,33.176,0,0,0,14.886-9.252C190.868,253.265,192.722,251.843,191.112,248.251Z" transform="translate(-131.932 -174.18)" fill="#e8c842"/><path d="M186.4,259.592a2.157,2.157,0,0,0,.035-3.589,34.319,34.319,0,0,1-7.689-8.353c-2.579,2.7-2.428,2.532-2.64,2.788.729,1.211,4.089,6.318,7.431,7.236,0,0-6.812,4.007-9.609,7.366H173.7a18.581,18.581,0,0,0,.875,3.894C177.643,265.523,182.979,261.811,186.4,259.592Z" transform="translate(-131.933 -181.497)" fill="#dbbc3b"/><path d="M35.146,258.215c-2.8-3.357-9.6-7.358-9.6-7.358,3.429-.942,6.861-6.277,7.482-7.321l-5.442-5.188c-2.278,1.984-8.279,7.432-9.612,10.4-1.307,2.915-.232,4.545.3,5.119.22.237.439.471.653.717A33.136,33.136,0,0,0,34.013,263.9l1.133.2S35.146,258.215,35.146,258.215Z" transform="translate(-17.35 -174.68)" fill="#e8c842"/><path d="M37.436,257.633c3.429-.942,6.861-6.277,7.482-7.321L42.067,247.6a34.59,34.59,0,0,1-7.5,8.113,2.3,2.3,0,0,0,.05,3.812c3.685,2.394,9.435,6.42,12.423,10v-4.53C44.238,261.634,37.436,257.633,37.436,257.633Z" transform="translate(-29.242 -181.457)" fill="#dbbc3b"/><path d="M75.12,48.152c-10.939,0-19.807,9.454-19.807,22.461,0,5.645,1.671,13.108,4.456,19.747a2.467,2.467,0,0,0,2.277,1.507H88.194a2.467,2.467,0,0,0,2.277-1.507c2.785-6.64,4.456-14.1,4.456-19.747C94.927,57.606,86.059,48.152,75.12,48.152Z" transform="translate(-45.172 -35.29)" fill="#cc9d72"/><path d="M71.877,90.3c-2.785-6.9-5.557-14.655-5.557-20.522,0-9.952,4.81-17.9,11.711-21.4a18.623,18.623,0,0,0-2.912-.23c-10.939,0-19.807,9.454-19.807,22.461,0,5.645,1.671,13.108,4.456,19.747a2.467,2.467,0,0,0,2.277,1.507H74.154A2.468,2.468,0,0,1,71.877,90.3Z" transform="translate(-45.171 -35.29)" fill="#c19067"/><path d="M95.006,384.847a4.475,4.475,0,0,1,3.61,1.845l.079-31-12.171-7.93,3.74,39.228C91.877,384.374,94.706,384.912,95.006,384.847Z" transform="translate(-68.046 -254.866)" fill="#e8c842"/><path d="M92.464,351.633l-5.941-3.871,3.74,39.228a4.389,4.389,0,0,1,3.491-2.12Z" transform="translate(-68.045 -254.868)" fill="#dbbc3b"/><path d="M176.079,372.947c-3.414-4.613-3.3-4.529-3.859-4.986-2.756-2.233-1.689-1.828-19.653-26.982-.231.393.555-.42-9.758,9.378l20.517,20.757a5.7,5.7,0,0,1,1.6,2.191c.512,1.345,1.208,1.621,4.585,5.309a4.342,4.342,0,0,0,6.132.163A4.424,4.424,0,0,0,176.079,372.947Z" transform="translate(-109.297 -249.896)" fill="#e8c842"/><path d="M172.808,391.96c-3.4-3.97-4.121-4.283-4.611-5.706a5.957,5.957,0,0,0-1.6-2.345l-19.933-21.533c-1.073,1.018-2.346,2.225-3.858,3.663L163.325,386.8a5.7,5.7,0,0,1,1.6,2.191c.512,1.345,1.208,1.621,4.585,5.309a4.342,4.342,0,0,0,6.132.163,4.187,4.187,0,0,0,.77-.984A4.531,4.531,0,0,1,172.808,391.96Z" transform="translate(-109.295 -265.578)" fill="#dbbc3b"/><path d="M67.761,202.537c-4.624,1.229-6.661,1.165-9.307,2.924l-5.787,3.847a1.9,1.9,0,0,0-.22,2.926l6.645,6.335a3.447,3.447,0,0,1,1.069,2.5v19.051a2.106,2.106,0,0,0,.956,1.765l12.171,7.93a2.213,2.213,0,0,0,2.671-.194l9.665-9.177a2.287,2.287,0,0,0,.658-2.784c-3.431-7.082-.848-15.294-.456-17.254a6.056,6.056,0,0,1,1.508-3.026l5.537-5.806a1.613,1.613,0,0,0-.232-2.428l-5.784-3.832a7.173,7.173,0,0,0-2.233-.982l-7.207-1.789" transform="translate(-42.64 -148.435)" fill="#967d74"/><path d="M67.944,247.564a2.232,2.232,0,0,1-1.014-1.871V225.5a3.655,3.655,0,0,0-1.133-2.645l-7.045-6.716a2.011,2.011,0,0,1-.446-2.282L52.669,217.6a1.9,1.9,0,0,0-.22,2.926l6.645,6.335a3.447,3.447,0,0,1,1.069,2.5v19.051a2.106,2.106,0,0,0,.956,1.765L73.29,258.1a2.213,2.213,0,0,0,2.671-.194l3.2-3.038Z" transform="translate(-42.641 -156.728)" fill="#7c6359"/><path d="M102.967,484.538h0a4.959,4.959,0,0,0-4.944,4.944V490a1.87,1.87,0,0,0,1.87,1.87h6.013a2.006,2.006,0,0,0,2.006-2.006v-.386A4.959,4.959,0,0,0,102.967,484.538Z" transform="translate(-76.473 -355.108)" fill="#656566"/><path d="M102.2,490v-.521a4.956,4.956,0,0,1,2.857-4.473,4.891,4.891,0,0,0-2.087-.471h0a4.959,4.959,0,0,0-4.944,4.944V490a1.87,1.87,0,0,0,1.87,1.87h4.174A1.87,1.87,0,0,1,102.2,490Z" transform="translate(-76.473 -355.108)" fill="#545456"/><path d="M228.99,450.919l3.682,3.875a4.342,4.342,0,0,0,6.132.163,4.423,4.423,0,0,0,.435-5.832l-3.11-4.2-.539,1.311C233.754,450.7,229.269,450.8,228.99,450.919Z" transform="translate(-172.456 -326.076)" fill="#656566"/><path d="M235.969,464.6c-1.238-1.444-2.119-2.4-2.764-3.108a9.212,9.212,0,0,1-4.214,1.569l0,0,.917.965c.641.656,1.519,1.55,2.761,2.906a4.342,4.342,0,0,0,6.132.163h0c.09-.085.174-.174.255-.265.03-.034.058-.069.087-.1q.072-.086.138-.175c.033-.044.065-.088.1-.133s.07-.107.1-.161.061-.1.09-.146h0A4.53,4.53,0,0,1,235.969,464.6Z" transform="translate(-172.456 -338.219)" fill="#545456"/><path d="M111.391,190.511v5.482a4.827,4.827,0,0,0,9.654,0v-5.482A15.069,15.069,0,0,1,111.391,190.511Z" transform="translate(-86.271 -139.622)" fill="#e8c842"/><path d="M116.219,195.993V191.3a14.992,14.992,0,0,1-4.827-.793v5.482a4.821,4.821,0,0,0,7.241,4.176A4.82,4.82,0,0,1,116.219,195.993Z" transform="translate(-86.271 -139.622)" fill="#dbbc3b"/><path d="M104.233,97.032a4.378,4.378,0,0,0-3.048-4.181,36.156,36.156,0,0,1-15.191-9.236.245.245,0,0,0-.393.046c-.729,1.3-3.933,6.357-9.993,7.31-.376.163-.266-.267-.266,9.193,0,7.683,6.558,13.94,14.6,13.841,7.808-.068,14.288-6.157,14.288-13.857C104.233,99.962,104.233,98.631,104.233,97.032Z" transform="translate(-59.839 -61.222)" fill="#f4d44e"/><path d="M82.221,111.844c0-5.045-.031-9.389,0-12.371a13.069,13.069,0,0,1-6.61,3.178c-.376.162-.266-.267-.266,9.193,0,7.683,6.558,13.94,14.6,13.841a14.947,14.947,0,0,0,3.269-.394A13.992,13.992,0,0,1,82.221,111.844Z" transform="translate(-59.84 -72.902)" fill="#e8c842"/><g transform="translate(22.058 33.624)"><path d="M112.27,159.329a5.2,5.2,0,0,0,9.074.244.613.613,0,0,0-.527-.924h-8.134A.466.466,0,0,0,112.27,159.329Z" transform="translate(-108.933 -149.895)" fill="#656566"/><ellipse cx="2.165" cy="2.165" rx="2.165" ry="2.165" transform="translate(11.45)" fill="#656566"/><ellipse cx="2.165" cy="2.165" rx="2.165" ry="2.165" fill="#656566"/></g><path d="M381.187,19.451c6.864-6.925,9.765-16.67,6.507-18.976-2.553-1.807-7.91,1.692-11.967,7.814a32.959,32.959,0,0,0-3.1,5.658A19.048,19.048,0,0,1,381.187,19.451Z" transform="translate(-277.724 0)" fill="#967d74"/><path d="M388.987,3.126c-.617-5.9-7.825-3.038-13.26,5.165a32.972,32.972,0,0,0-3.1,5.658,18.58,18.58,0,0,1,4.685,2.19C379.34,11.562,384.24,4.659,388.987,3.126Z" transform="translate(-277.724 -0.002)" fill="#7c6359"/><path d="M280.616,19.451a19.044,19.044,0,0,1,8.56-5.5,32.95,32.95,0,0,0-3.1-5.659c-4.057-6.122-9.414-9.62-11.967-7.814C270.821,2.8,273.8,12.577,280.616,19.451Z" transform="translate(-204.54 0)" fill="#967d74"/><path d="M277.332.306a3.5,3.5,0,0,0-3.223.175c-3.289,2.327-.307,12.1,6.507,18.976a19.673,19.673,0,0,1,3.5-3.064C279.119,10.886,276.481,3.929,277.332.306Z" transform="translate(-204.54 -0.005)" fill="#7c6359"/><path d="M415.062,248.251c-1.375-3.067-7.709-8.756-9.822-10.586-5.226,5.489-4.916,5.134-5.181,5.455.729,1.211,4.089,6.318,7.431,7.236,0,0-6.812,4.007-9.609,7.366h-.235a17.7,17.7,0,0,0,1.577,5.617,33.176,33.176,0,0,0,14.886-9.252C414.817,253.265,416.672,251.843,415.062,248.251Z" transform="translate(-296.06 -174.18)" fill="#e8c842"/><path d="M410.353,259.592a2.157,2.157,0,0,0,.035-3.589,34.32,34.32,0,0,1-7.689-8.353c-2.579,2.7-2.428,2.532-2.64,2.788.729,1.211,4.089,6.318,7.431,7.236,0,0-6.812,4.007-9.609,7.366h-.235a18.581,18.581,0,0,0,.875,3.894C401.593,265.523,406.928,261.811,410.353,259.592Z" transform="translate(-296.06 -181.497)" fill="#dbbc3b"/><path d="M259.1,258.215c-2.8-3.357-9.6-7.358-9.6-7.358,3.429-.942,6.861-6.277,7.482-7.321l-5.442-5.188c-2.278,1.984-8.279,7.432-9.612,10.4-1.307,2.915-.232,4.545.3,5.119.22.237.439.471.653.717a33.136,33.136,0,0,0,15.087,9.312l1.133.2v-5.888Z" transform="translate(-181.478 -174.68)" fill="#e8c842"/><path d="M261.385,257.633c3.429-.942,6.861-6.277,7.482-7.321l-2.851-2.718a34.591,34.591,0,0,1-7.5,8.113,2.3,2.3,0,0,0,.05,3.812c3.685,2.394,9.435,6.42,12.423,10v-4.53C268.188,261.634,261.385,257.633,261.385,257.633Z" transform="translate(-193.37 -181.457)" fill="#dbbc3b"/><path d="M299.069,48.152c-10.939,0-19.807,9.454-19.807,22.461,0,5.645,1.671,13.108,4.456,19.747A2.467,2.467,0,0,0,286,91.867h26.147a2.468,2.468,0,0,0,2.277-1.507c2.785-6.64,4.456-14.1,4.456-19.747C318.876,57.606,310.008,48.152,299.069,48.152Z" transform="translate(-209.3 -35.29)" fill="#cc9d72"/><path d="M295.827,90.3c-2.785-6.9-5.557-14.655-5.557-20.522,0-9.952,4.81-17.9,11.711-21.4-11.8-1.867-22.719,7.69-22.719,22.231,0,5.645,1.671,13.108,4.456,19.747A2.467,2.467,0,0,0,286,91.862H298.1A2.467,2.467,0,0,1,295.827,90.3Z" transform="translate(-209.3 -35.284)" fill="#c19067"/><path d="M318.955,384.847a4.476,4.476,0,0,1,3.61,1.845l.079-31-12.171-7.93,3.74,39.228C315.826,384.374,318.655,384.912,318.955,384.847Z" transform="translate(-232.173 -254.866)" fill="#e8c842"/><path d="M316.415,351.633l-5.941-3.871,3.74,39.228a4.389,4.389,0,0,1,3.491-2.12Z" transform="translate(-232.174 -254.868)" fill="#dbbc3b"/><path d="M400.029,372.947c-3.414-4.613-3.3-4.529-3.859-4.986-2.756-2.233-1.689-1.828-19.653-26.982-.231.393.555-.42-9.758,9.378l20.517,20.757a5.7,5.7,0,0,1,1.6,2.191c.512,1.345,1.208,1.621,4.585,5.309a4.342,4.342,0,0,0,6.132.163A4.424,4.424,0,0,0,400.029,372.947Z" transform="translate(-273.424 -249.896)" fill="#e8c842"/><path d="M396.758,391.96c-3.4-3.97-4.121-4.283-4.611-5.706a5.957,5.957,0,0,0-1.6-2.345l-19.933-21.533c-1.073,1.018-2.346,2.225-3.858,3.663L387.275,386.8a5.7,5.7,0,0,1,1.6,2.191c.512,1.345,1.208,1.621,4.585,5.309a4.342,4.342,0,0,0,6.132.163,4.187,4.187,0,0,0,.77-.984A4.531,4.531,0,0,1,396.758,391.96Z" transform="translate(-273.423 -265.578)" fill="#dbbc3b"/><path d="M291.712,202.537c-4.624,1.229-6.661,1.165-9.307,2.924l-5.787,3.847a1.9,1.9,0,0,0-.22,2.926l6.645,6.335a3.447,3.447,0,0,1,1.069,2.5v19.051a2.106,2.106,0,0,0,.956,1.765l12.171,7.93a2.213,2.213,0,0,0,2.671-.194l9.665-9.177a2.287,2.287,0,0,0,.658-2.784c-3.431-7.082-.848-15.294-.456-17.254a6.056,6.056,0,0,1,1.508-3.026l5.537-5.806a1.613,1.613,0,0,0-.232-2.428l-5.784-3.832a7.173,7.173,0,0,0-2.233-.982l-7.207-1.789" transform="translate(-206.769 -148.435)" fill="#967d74"/><path d="M291.894,247.564a2.232,2.232,0,0,1-1.014-1.871V225.5a3.655,3.655,0,0,0-1.133-2.645l-7.045-6.716a2.011,2.011,0,0,1-.446-2.282l-5.638,3.748a1.9,1.9,0,0,0-.22,2.926l6.645,6.335a3.447,3.447,0,0,1,1.069,2.5v19.051a2.106,2.106,0,0,0,.956,1.765l12.171,7.93a2.213,2.213,0,0,0,2.671-.194l3.2-3.038Z" transform="translate(-206.769 -156.728)" fill="#7c6359"/><path d="M326.916,484.538h0a4.959,4.959,0,0,0-4.944,4.944V490a1.87,1.87,0,0,0,1.87,1.87h6.013a2.006,2.006,0,0,0,2.006-2.006v-.386A4.959,4.959,0,0,0,326.916,484.538Z" transform="translate(-240.601 -355.108)" fill="#656566"/><path d="M326.146,490v-.521A4.956,4.956,0,0,1,329,485.009a4.891,4.891,0,0,0-2.087-.471h0a4.959,4.959,0,0,0-4.944,4.944V490a1.87,1.87,0,0,0,1.87,1.87h4.174A1.87,1.87,0,0,1,326.146,490Z" transform="translate(-240.601 -355.108)" fill="#545456"/><path d="M452.94,450.919l3.682,3.875a4.342,4.342,0,0,0,6.132.163,4.423,4.423,0,0,0,.435-5.832l-3.11-4.2-.539,1.311C457.7,450.7,453.219,450.8,452.94,450.919Z" transform="translate(-336.584 -326.076)" fill="#656566"/><path d="M459.919,464.6c-1.238-1.444-2.119-2.4-2.764-3.108a9.212,9.212,0,0,1-4.214,1.569l0,0,.917.965c.641.656,1.519,1.55,2.761,2.906a4.342,4.342,0,0,0,6.132.163h0c.09-.085.174-.174.255-.265.03-.034.058-.069.087-.1q.072-.086.138-.175c.033-.044.065-.088.1-.133s.07-.107.1-.161.061-.1.09-.146h0A4.529,4.529,0,0,1,459.919,464.6Z" transform="translate(-336.584 -338.219)" fill="#545456"/><path d="M335.342,190.511v5.482a4.827,4.827,0,0,0,9.654,0v-5.482A15.069,15.069,0,0,1,335.342,190.511Z" transform="translate(-250.399 -139.622)" fill="#e8c842"/><path d="M340.168,195.993V191.3a14.992,14.992,0,0,1-4.827-.793v5.482a4.821,4.821,0,0,0,7.241,4.176A4.821,4.821,0,0,1,340.168,195.993Z" transform="translate(-250.399 -139.622)" fill="#dbbc3b"/><path d="M328.184,97.032a4.378,4.378,0,0,0-3.048-4.181,36.156,36.156,0,0,1-15.191-9.236.245.245,0,0,0-.393.046c-.729,1.3-3.933,6.357-9.993,7.31-.376.163-.266-.267-.266,9.193,0,7.683,6.558,13.94,14.6,13.841,7.808-.068,14.288-6.157,14.288-13.857C328.184,99.962,328.184,98.631,328.184,97.032Z" transform="translate(-223.968 -61.222)" fill="#f4d44e"/><path d="M306.171,111.844c0-5.045-.031-9.389,0-12.371a13.07,13.07,0,0,1-6.61,3.178c-.376.162-.266-.267-.266,9.193,0,7.683,6.558,13.94,14.6,13.841a14.947,14.947,0,0,0,3.269-.394A13.992,13.992,0,0,1,306.171,111.844Z" transform="translate(-223.968 -72.902)" fill="#e8c842"/><g transform="translate(81.879 33.624)"><path d="M336.22,159.329a5.2,5.2,0,0,0,9.074.244.613.613,0,0,0-.527-.924h-8.134A.466.466,0,0,0,336.22,159.329Z" transform="translate(-332.883 -149.895)" fill="#656566"/><ellipse cx="2.165" cy="2.165" rx="2.165" ry="2.165" transform="translate(11.45)" fill="#656566"/><ellipse cx="2.165" cy="2.165" rx="2.165" ry="2.165" fill="#656566"/></g></svg>