<svg xmlns="http://www.w3.org/2000/svg" width="55" height="55" viewBox="0 0 55 55"><g transform="translate(-193 -30)"><circle cx="27.5" cy="27.5" r="27.5" transform="translate(193 30)" fill="#ffad22"/></g><path d="M28.07,19.38a8.942,8.942,0,0,1,2.98.54,5.019,5.019,0,0,0,1.66-2.3,11.725,11.725,0,0,0-9.27-.01,5.071,5.071,0,0,0,1.66,2.3A9.135,9.135,0,0,1,28.07,19.38ZM21.06,37.8a5.125,5.125,0,0,0,1.38-2.39,8.929,8.929,0,0,1-3.32-6.18,4.667,4.667,0,0,0-1.49-.26,4.921,4.921,0,0,0-1.27.17A11.728,11.728,0,0,0,21.06,37.8ZM33.7,35.4a5.243,5.243,0,0,0,1.38,2.4,11.725,11.725,0,0,0,4.68-8.66,4.828,4.828,0,0,0-1.25-.17,4.736,4.736,0,0,0-1.5.27A8.933,8.933,0,0,1,33.7,35.4Zm6.4-11.56a8.946,8.946,0,0,0-3.12-1.12,9.64,9.64,0,0,0-1.75-9.5.433.433,0,0,0-.56-.1.462.462,0,0,0-.2.55,7.013,7.013,0,0,1,.37,2.17,6.772,6.772,0,1,1-13.54,0,7.061,7.061,0,0,1,.37-2.17.475.475,0,0,0-.2-.55.433.433,0,0,0-.56.1,9.64,9.64,0,0,0-1.75,9.5,9.367,9.367,0,0,0-3.12,1.12,9.687,9.687,0,0,0-4.19,5.21.467.467,0,0,0,.2.55.442.442,0,0,0,.56-.09A6.6,6.6,0,0,1,23.5,30.63a7.023,7.023,0,0,1-2.48,9.47,6.794,6.794,0,0,1-2.02.76.472.472,0,0,0-.36.46.453.453,0,0,0,.37.45,9.186,9.186,0,0,0,9.06-3.37,9.186,9.186,0,0,0,9.06,3.37.466.466,0,0,0,.01-.91,6.29,6.29,0,0,1-2.02-.76,7.041,7.041,0,0,1-2.48-9.47,6.6,6.6,0,0,1,10.89-1.12.444.444,0,0,0,.56.09.475.475,0,0,0,.2-.55,9.528,9.528,0,0,0-4.19-5.21ZM28.07,31.11a2.71,2.71,0,1,1,2.71-2.71A2.712,2.712,0,0,1,28.07,31.11Z" fill="#fff"/></svg>