<svg xmlns="http://www.w3.org/2000/svg" width="70" height="70" viewBox="0 0 70 70"><g transform="translate(-513 -1807)"><circle cx="35" cy="35" r="35" transform="translate(513 1807)" fill="#ffad22"/></g><path d="M53.57,18.18V52.22a4.643,4.643,0,0,1-4.64,4.64H21.07a4.643,4.643,0,0,1-4.64-4.64V18.18a4.643,4.643,0,0,1,4.64-4.64h7.74a6.19,6.19,0,1,1,12.38,0h7.74A4.643,4.643,0,0,1,53.57,18.18ZM35,11.22a2.32,2.32,0,1,0,2.32,2.32A2.322,2.322,0,0,0,35,11.22m9.28,11.03V20.32a.58.58,0,0,0-.58-.58H26.3a.58.58,0,0,0-.58.58v1.93a.58.58,0,0,0,.58.58H43.7A.58.58,0,0,0,44.28,22.25Z" fill="#fff"/></svg>