<svg xmlns="http://www.w3.org/2000/svg" width="55" height="55" viewBox="0 0 55 55"><path d="M27.5,0A27.5,27.5,0,1,0,55,27.5,27.5,27.5,0,0,0,27.5,0Z" fill="#00b2ff"/><path d="M25.2,25.81,29.32,31s-.79,4.86-3.64,7.13-12.67,1.62-12.67,1.62.18-1.1.52-2.63l4.5-5.33a.285.285,0,0,0-.32-.45l-2.87,1.05c.69-1.98,1.55-3.8,2.59-4.63,2.86-2.28,7.77-1.95,7.77-1.95Zm18.06-8.83-.94-1.19a.751.751,0,0,0-1.06-.12L30.2,24.12l-1.62-2.04a.519.519,0,0,0-.88.11l-1.2,2.59,4.12,5.19,2.79-.59a.525.525,0,0,0,.3-.84L32.09,26.5l11.05-8.45a.771.771,0,0,0,.12-1.07Z" fill="#fff"/></svg>