<svg xmlns="http://www.w3.org/2000/svg" width="55" height="55" viewBox="0 0 55 55"><path d="M27.5,0A27.5,27.5,0,1,0,55,27.5,27.5,27.5,0,0,0,27.5,0Z" fill="#8d5fd6"/><path d="M43.71,21.99,29.76,17.7a4.054,4.054,0,0,0-2.34,0L13.47,21.99a1.177,1.177,0,0,0,0,2.28l2.43.75a3.936,3.936,0,0,0-.89,2.35,1.583,1.583,0,0,0-.82,1.37,1.56,1.56,0,0,0,.69,1.28L13.6,35.77a.8.8,0,0,0,.78.97h2.81a.8.8,0,0,0,.78-.97l-1.28-5.75a1.537,1.537,0,0,0-.09-2.62,2.374,2.374,0,0,1,1.03-1.84l9.78,3.01a4.011,4.011,0,0,0,2.34,0L43.7,24.28a1.182,1.182,0,0,0,.01-2.29Zm-13.48,8.1a5.548,5.548,0,0,1-3.28,0L19.7,27.86l-.71,5.67c0,1.77,4.3,3.2,9.6,3.2s9.6-1.43,9.6-3.2l-.71-5.67Z" fill="#fff"/></svg>