<svg xmlns="http://www.w3.org/2000/svg" xmlns:xlink="http://www.w3.org/1999/xlink" width="27" height="27" viewBox="0 0 27 27"><defs><clipPath id="a"><circle cx="13.5" cy="13.5" r="13.5" transform="translate(290.089 11966.556)" fill="none"/></clipPath></defs><g transform="translate(-290.089 -11966.556)"><g clip-path="url(#a)"><circle cx="15.689" cy="15.689" r="15.689" transform="translate(287.9 11964.366)" fill="#00b2ff"/><path d="M298.56,11979.2l-11.286-11.286,3.467-2.688,11.286,11.286Z" fill="#fff"/><path d="M305.517,11976.146l10.946-10.946,3.442,2.713-10.946,10.945Z" fill="#fff"/><rect width="14.964" height="1.377" transform="translate(289.117 11966.068) rotate(45)" fill="#fd2f58"/><rect width="15.48" height="1.377" transform="translate(318.306 11967.043) rotate(135)" fill="#fd2f58"/><path d="M308.619,11980.523l11.286,11.286-3.467,2.688-11.286-11.286Z" fill="#fff"/><path d="M301.662,11983.577l-10.946,10.945-3.442-2.713,10.946-10.945Z" fill="#fff"/><rect width="14.964" height="1.377" transform="translate(318.062 11993.653) rotate(-135)" fill="#fd2f58"/><rect width="15.48" height="1.377" transform="translate(288.873 11992.68) rotate(-45)" fill="#fd2f58"/><rect width="27" height="6.568" transform="translate(290.089 11976.771)" fill="#fff"/><rect width="27" height="6.568" transform="translate(306.873 11966.556) rotate(90)" fill="#fff"/><rect width="27" height="3.728" transform="translate(290.089 11978.191)" fill="#fd2f58"/><rect width="27" height="3.728" transform="translate(305.453 11966.556) rotate(90)" fill="#fd2f58"/></g></g></svg>