<svg xmlns="http://www.w3.org/2000/svg" width="55" height="55" viewBox="0 0 55 55"><circle cx="27.5" cy="27.5" r="27.5" fill="#f46e33"/><path d="M41.19,30.99s-3.67,5.31-3.67,7.33a3.67,3.67,0,0,0,7.34,0C44.86,36.29,41.19,30.99,41.19,30.99Zm-.53-5.9-11.9-11.9a1.835,1.835,0,0,0-2.6,0l-4.67,4.67-4.94-4.94a.917.917,0,0,0-1.3,0l-1.3,1.3a.917.917,0,0,0,0,1.3l4.94,4.94-5.43,5.43a5.5,5.5,0,0,0,0,7.78l6.71,6.71a5.5,5.5,0,0,0,7.78,0L40.64,27.69A1.835,1.835,0,0,0,40.66,25.09ZM34,29.16H15.64a1.716,1.716,0,0,1,.43-.68l.75-.75,4.67-4.67,3.36,3.36a1.831,1.831,0,0,0,2.59-2.59l-3.36-3.36,3.38-3.38,9.31,9.31L34,29.16Z" fill="#fff"/></svg>