<svg xmlns="http://www.w3.org/2000/svg" width="55" height="55" viewBox="0 0 55 55"><path d="M27.5,0A27.5,27.5,0,1,0,55,27.5,27.5,27.5,0,0,0,27.5,0Z" fill="#00b2ff"/><path d="M39.86,15.32,30.6,16.86c-.62.1-.55.74-.55.97H26.83a3.088,3.088,0,1,0-5.84.23c-2.87.72-4.16,2.99-4.96,5.01a1.324,1.324,0,1,0,2.46.98c1.59-3.96,3.34-3.58,6.71-3.58v1.49a5.361,5.361,0,0,0-3.97,5.19v13.6a1.319,1.319,0,0,0,1.32,1.32h7.94a1.319,1.319,0,0,0,1.32-1.32V27.1a5.3,5.3,0,0,0-3.97-5.13V20.48h2.21c0,.16-.09.87.55.97L39.86,23a.659.659,0,0,0,.77-.65V15.97A.655.655,0,0,0,39.86,15.32ZM23.88,17.83a.88.88,0,1,1,.88-.88A.881.881,0,0,1,23.88,17.83Z" fill="#fff"/></svg>