<svg xmlns="http://www.w3.org/2000/svg" width="55" height="55" viewBox="0 0 55 55"><g transform="translate(23)"><g transform="translate(-23)"><path d="M27.5,0A27.5,27.5,0,1,0,55,27.5,27.5,27.5,0,0,0,27.5,0Z" fill="#00c389"/></g></g><path d="M42.31,18.1H12.69a1.652,1.652,0,0,0-1.65,1.65V36.2a1.652,1.652,0,0,0,1.65,1.65H42.32a1.652,1.652,0,0,0,1.65-1.65V19.74A1.658,1.658,0,0,0,42.31,18.1ZM13.51,35.38V32.09a3.286,3.286,0,0,1,3.29,3.29Zm0-11.52V20.57H16.8A3.286,3.286,0,0,1,13.51,23.86ZM27.5,32.91c-2.27,0-4.11-2.21-4.11-4.94s1.84-4.94,4.11-4.94,4.11,2.21,4.11,4.94S29.77,32.91,27.5,32.91Zm13.99,2.47H38.2a3.286,3.286,0,0,1,3.29-3.29Zm0-11.52a3.286,3.286,0,0,1-3.29-3.29h3.29Z" fill="#fff"/></svg>