<svg xmlns="http://www.w3.org/2000/svg" width="55.18" height="55.18" viewBox="0 0 55.18 55.18"><g transform="translate(-513 -1807)"><circle cx="27.59" cy="27.59" r="27.59" transform="translate(513 1807)" fill="#f46e33"/></g><path d="M40.76,24.69l-6.03-.85,2.29-5.72a1.006,1.006,0,0,0-1.46-1.24L30.4,20.16l-1.87-5.88a.995.995,0,0,0-1.9,0l-1.87,5.88L19.6,16.88a1.007,1.007,0,0,0-1.46,1.24l2.29,5.72-6.03.85a1.017,1.017,0,0,0-.33,1.9l5.38,2.89-4.08,4.58a1.021,1.021,0,0,0,.73,1.7,1.635,1.635,0,0,0,.22-.02l5.95-1.3-.23,6.17a1,1,0,0,0,1.01,1.05.978.978,0,0,0,.78-.39l3.74-4.87,3.74,4.87a.978.978,0,0,0,.78.39,1.011,1.011,0,0,0,1.01-1.05l-.23-6.17,5.95,1.3a1.011,1.011,0,0,0,.95-1.67l-4.08-4.58,5.38-2.89a1.018,1.018,0,0,0-.31-1.91Zm-8.65,5.99-2.85-.62.11,2.95-1.79-2.33-1.79,2.33.11-2.95-2.85.62L25,28.49l-2.57-1.38,2.88-.4-1.1-2.73,2.46,1.57.89-2.81.89,2.81,2.46-1.57-1.1,2.73,2.88.4-2.57,1.38Z" fill="#fff"/></svg>