<svg xmlns="http://www.w3.org/2000/svg" width="55" height="55" viewBox="0 0 55 55"><circle cx="27.5" cy="27.5" r="27.5" fill="#fd2f58"/><path d="M27.5,13.03A14.71,14.71,0,1,0,42.21,27.74,14.709,14.709,0,0,0,27.5,13.03ZM20.85,26.8a1.882,1.882,0,0,1,.62-1.39l-1.84-.55a.946.946,0,1,1,.55-1.81l4.75,1.42a.938.938,0,0,1,.63,1.18.951.951,0,0,1-.91.68c-.03,0-.07-.01-.1-.01a1.938,1.938,0,0,1,.1.49,1.9,1.9,0,0,1-1.9,1.9A1.921,1.921,0,0,1,20.85,26.8Zm9.97,9.15a4.465,4.465,0,0,0-6.65,0,.951.951,0,0,1-1.46-1.22,6.22,6.22,0,0,1,9.56,0A.947.947,0,0,1,30.82,35.95Zm4.55-11.09-1.84.55a1.9,1.9,0,1,1-3.18,1.39,1.644,1.644,0,0,1,.1-.49.375.375,0,0,1-.1.01.951.951,0,0,1-.28-1.86l4.75-1.42a.954.954,0,0,1,1.18.63.945.945,0,0,1-.63,1.19Z" fill="#fff"/></svg>