<svg xmlns="http://www.w3.org/2000/svg" width="70" height="70" viewBox="0 0 70 70"><path d="M35,0A35,35,0,1,0,70,35,35,35,0,0,0,35,0Z" fill="#00c389"/><path d="M35,16.8A18.34,18.34,0,1,0,53.34,35.14,18.339,18.339,0,0,0,35,16.8ZM23.66,28.7l2.58-.37,1.15-2.34a.572.572,0,0,1,1.03,0l1.15,2.34,2.58.37a.578.578,0,0,1,.32.98L30.59,31.5l.44,2.58a.55.55,0,0,1-.81.58l-2.31-1.2L25.6,34.67a.55.55,0,0,1-.81-.58l.44-2.58-1.88-1.82a.579.579,0,0,1,.31-.99ZM35,48.15c-4.48,0-9.95-2.83-10.63-6.9a1.185,1.185,0,0,1,1.53-1.32A31.841,31.841,0,0,0,35,41.05a32.2,32.2,0,0,0,9.1-1.12,1.185,1.185,0,0,1,1.53,1.32c-.68,4.07-6.15,6.9-10.63,6.9ZM46.66,29.68,44.78,31.5l.44,2.58a.55.55,0,0,1-.81.58l-2.31-1.2-2.31,1.21a.55.55,0,0,1-.81-.58l.44-2.58-1.88-1.82a.582.582,0,0,1,.32-.98l2.58-.37L41.58,26a.572.572,0,0,1,1.03,0l1.15,2.34,2.58.37a.569.569,0,0,1,.32.97Z" fill="#fff"/></svg>