<svg xmlns="http://www.w3.org/2000/svg" width="55" height="55" viewBox="0 0 55 55"><circle cx="27.5" cy="27.5" r="27.5" fill="#00c389"/><path d="M27.5,13.03A14.71,14.71,0,1,0,42.21,27.74,14.709,14.709,0,0,0,27.5,13.03ZM19.43,25.81c.2-2.5,1.91-4.24,3.32-4.24s3.13,1.74,3.32,4.24a.471.471,0,0,1-.88.27l-.56-1.01a2.228,2.228,0,0,0-1.87-1.28,2.228,2.228,0,0,0-1.87,1.28l-.56,1.01A.482.482,0,0,1,19.43,25.81ZM34.31,33.1a8.864,8.864,0,0,1-13.62,0,.951.951,0,0,1,1.46-1.22,6.975,6.975,0,0,0,10.7,0,.951.951,0,0,1,1.46,1.22Zm.37-7.02-.56-1.01a2.006,2.006,0,0,0-3.74,0l-.56,1.01a.472.472,0,0,1-.88-.27c.2-2.5,1.91-4.24,3.32-4.24s3.13,1.74,3.32,4.24a.483.483,0,0,1-.9.27Z" fill="#fff"/></svg>