<svg xmlns="http://www.w3.org/2000/svg" width="70" height="70" viewBox="0 0 70 70"><path d="M35,0A35,35,0,1,0,70,35,35,35,0,0,0,35,0Z" fill="#8d5fd6"/><path d="M57.1,29.44H47.4V17.46a1.709,1.709,0,0,0-1.71-1.71H35.43a1.709,1.709,0,0,0-1.71,1.71v5.13H29.16v-5.7a1.139,1.139,0,0,0-1.14-1.14H26.88a1.139,1.139,0,0,0-1.14,1.14v5.7H21.18v-5.7a1.139,1.139,0,0,0-1.14-1.14H18.9a1.139,1.139,0,0,0-1.14,1.14v5.7H14.9a1.709,1.709,0,0,0-1.71,1.71V49.96a2.279,2.279,0,0,0,2.28,2.28H56.53a2.279,2.279,0,0,0,2.28-2.28V31.15A1.709,1.709,0,0,0,57.1,29.44ZM22.31,44.55a.86.86,0,0,1-.86.86H18.6a.86.86,0,0,1-.86-.86V41.7a.86.86,0,0,1,.86-.86h2.85a.86.86,0,0,1,.86.86Zm0-6.84a.86.86,0,0,1-.86.86H18.6a.86.86,0,0,1-.86-.86V34.86A.86.86,0,0,1,18.6,34h2.85a.86.86,0,0,1,.86.86Zm0-6.85a.86.86,0,0,1-.86.86H18.6a.86.86,0,0,1-.86-.86V28.01a.86.86,0,0,1,.86-.86h2.85a.86.86,0,0,1,.86.86Zm9.13,13.69a.86.86,0,0,1-.86.86H27.73a.86.86,0,0,1-.86-.86V41.7a.86.86,0,0,1,.86-.86h2.85a.86.86,0,0,1,.86.86Zm0-6.84a.86.86,0,0,1-.86.86H27.73a.86.86,0,0,1-.86-.86V34.86a.86.86,0,0,1,.86-.86h2.85a.86.86,0,0,1,.86.86Zm0-6.85a.86.86,0,0,1-.86.86H27.73a.86.86,0,0,1-.86-.86V28.01a.86.86,0,0,1,.86-.86h2.85a.86.86,0,0,1,.86.86Zm11.4,6.85a.86.86,0,0,1-.86.86H39.13a.86.86,0,0,1-.86-.86V34.86a.86.86,0,0,1,.86-.86h2.85a.86.86,0,0,1,.86.86Zm0-6.85a.86.86,0,0,1-.86.86H39.13a.86.86,0,0,1-.86-.86V28.01a.86.86,0,0,1,.86-.86h2.85a.86.86,0,0,1,.86.86Zm0-6.84a.86.86,0,0,1-.86.86H39.13a.86.86,0,0,1-.86-.86V21.17a.86.86,0,0,1,.86-.86h2.85a.86.86,0,0,1,.86.86ZM54.25,44.55a.86.86,0,0,1-.86.86H50.54a.86.86,0,0,1-.86-.86V41.7a.86.86,0,0,1,.86-.86h2.85a.86.86,0,0,1,.86.86Zm0-6.84a.86.86,0,0,1-.86.86H50.54a.86.86,0,0,1-.86-.86V34.86a.86.86,0,0,1,.86-.86h2.85a.86.86,0,0,1,.86.86Z" fill="#fff"/></svg>