<svg xmlns="http://www.w3.org/2000/svg" viewBox="0 0 523.44 515.37"><defs><style>.cls-1{isolation:isolate;}.cls-2{fill:#00b2ff;}.cls-10,.cls-11,.cls-12,.cls-13,.cls-14,.cls-15,.cls-16,.cls-17,.cls-18,.cls-19,.cls-2,.cls-20,.cls-21,.cls-22,.cls-3,.cls-4,.cls-5,.cls-6,.cls-7,.cls-8,.cls-9{mix-blend-mode:screen;}.cls-3{fill:#fd2f58;}.cls-4{fill:#ffad22;}.cls-5{fill:#ffbc6e;}.cls-6{fill:#00c389;}.cls-7{fill:#00edff;}.cls-8{fill:#ffec99;}.cls-9{fill:#dcfff1;}.cls-10{fill:#ffefbc;}.cls-11{fill:#fff5f4;}.cls-12{fill:#8d5fd6;}.cls-13{fill:#8dcfff;}.cls-14{fill:#fe7ce4;}.cls-15{fill:#fed7ff;}.cls-16{fill:#ffd5e8;}.cls-17{fill:#fef6ff;}.cls-18{fill:#8df4ff;}.cls-19{fill:#fffbff;}.cls-20{fill:#fffaff;}.cls-21{fill:#fff2ff;}.cls-22{fill:#fff;}</style></defs><title>Artboard 44_1</title><g class="cls-1"><g id="Layer_1" data-name="Layer 1"><path class="cls-2" d="M411,219.76A160.35,160.35,0,0,1,483.62,329,160.15,160.15,0,0,0,391.79,65.77,160.33,160.33,0,0,1,411,219.76Z"/><path class="cls-3" d="M113.75,219.77A160.49,160.49,0,0,1,125,77.89,160.15,160.15,0,0,0,39.77,339.75,160.13,160.13,0,0,1,113.75,219.77Z"/><path class="cls-4" d="M170.24,393.94c-3.35.21-6.71.33-10.11.33A159.78,159.78,0,0,1,39.77,339.75c-.49,5.1-.75,10.26-.75,15.49A160.2,160.2,0,0,0,262.39,502.39a160.4,160.4,0,0,1-92.15-108.45Z"/><path class="cls-5" d="M160.13,394.27c3.4,0,6.76-.12,10.11-.33A160.68,160.68,0,0,1,177,295.61a160.77,160.77,0,0,1-63.24-75.84,160.13,160.13,0,0,0-74,120A159.78,159.78,0,0,0,160.13,394.27Z"/><path class="cls-6" d="M363.32,383.5c-2.18,0-4.35-.06-6.5-.14a160.39,160.39,0,0,1-94.43,119A160.17,160.17,0,0,0,483.62,329,159.72,159.72,0,0,1,363.32,383.5Z"/><path class="cls-7" d="M411,219.76a160.74,160.74,0,0,1-63.24,75.85,159.71,159.71,0,0,1,11.48,59.63,161.85,161.85,0,0,1-2.46,28.12c2.15.08,4.32.14,6.5.14A159.72,159.72,0,0,0,483.62,329,160.35,160.35,0,0,0,411,219.76Z"/><path class="cls-8" d="M356.82,383.36a159.31,159.31,0,0,1-88.56-31.12,159.53,159.53,0,0,1-98,41.7,160.4,160.4,0,0,0,92.15,108.45A160.39,160.39,0,0,0,356.82,383.36Z"/><path class="cls-9" d="M347.8,295.61a159.25,159.25,0,0,1-50.25,20.75,160.84,160.84,0,0,1-29.29,35.88,159.31,159.31,0,0,0,88.56,31.12,161.85,161.85,0,0,0,2.46-28.12A159.71,159.71,0,0,0,347.8,295.61Z"/><path class="cls-10" d="M233.93,317.71A159.19,159.19,0,0,1,177,295.61a160.68,160.68,0,0,0-6.75,98.33,159.53,159.53,0,0,0,98-41.7A161,161,0,0,1,233.93,317.71Z"/><path class="cls-11" d="M297.55,316.36a160.93,160.93,0,0,1-63.62,1.35,161,161,0,0,0,34.33,34.53A160.84,160.84,0,0,0,297.55,316.36Z"/><path class="cls-12" d="M255.19,105.27a160.36,160.36,0,0,1,136.6-39.5A160.25,160.25,0,0,0,125,77.89,161.1,161.1,0,0,1,160.13,74,159.45,159.45,0,0,1,255.19,105.27Z"/><path class="cls-13" d="M255.19,105.27a160.31,160.31,0,0,1,60.35,90.17A160,160,0,0,1,411,219.76a160.33,160.33,0,0,0-19.25-154,160.36,160.36,0,0,0-136.6,39.5Z"/><path class="cls-14" d="M113.75,219.77a159.41,159.41,0,0,1,85.4-24.66c2.18,0,4.34.06,6.5.15a159.85,159.85,0,0,1,49.54-90A159.45,159.45,0,0,0,160.13,74,161.1,161.1,0,0,0,125,77.89,160.49,160.49,0,0,0,113.75,219.77Z"/><path class="cls-15" d="M315.54,195.44a160.31,160.31,0,0,0-60.35-90.17,159.85,159.85,0,0,0-49.54,90,159.29,159.29,0,0,1,56.74,12.84A160,160,0,0,1,315.54,195.44Z"/><path class="cls-16" d="M203.19,223.37a160.68,160.68,0,0,1,2.46-28.11c-2.16-.09-4.32-.15-6.5-.15a159.41,159.41,0,0,0-85.4,24.66A160.77,160.77,0,0,0,177,295.61a159.21,159.21,0,0,1,28.34-46A161.69,161.69,0,0,1,203.19,223.37Z"/><path class="cls-17" d="M205.33,249.58c2.27-2.58,4.62-5.11,7.08-7.57a159.59,159.59,0,0,1,50-33.91,159.29,159.29,0,0,0-56.74-12.84,161.71,161.71,0,0,0-.32,54.32Z"/><path class="cls-18" d="M319.51,249.63a160.31,160.31,0,0,1,28.29,46A160.74,160.74,0,0,0,411,219.76a160,160,0,0,0-95.5-24.32,160.72,160.72,0,0,1,4.72,38.7C320.26,239.37,320,244.53,319.51,249.63Z"/><path class="cls-19" d="M319.51,249.63c.49-5.1.75-10.26.75-15.49a160.72,160.72,0,0,0-4.72-38.7,160,160,0,0,0-53.15,12.66A160.59,160.59,0,0,1,319.51,249.63Z"/><path class="cls-20" d="M297.55,316.36a159.25,159.25,0,0,0,50.25-20.75,160.31,160.31,0,0,0-28.29-46A159.07,159.07,0,0,1,297.55,316.36Z"/><path class="cls-21" d="M205.33,249.58a159.21,159.21,0,0,0-28.34,46,159.19,159.19,0,0,0,56.94,22.1A159.34,159.34,0,0,1,205.33,249.58Z"/><path class="cls-22" d="M262.39,208.1a159.59,159.59,0,0,0-50,33.91c-2.46,2.46-4.81,5-7.08,7.57a159.34,159.34,0,0,0,28.6,68.13,160.93,160.93,0,0,0,63.62-1.35,159.07,159.07,0,0,0,22-66.73A160.59,160.59,0,0,0,262.39,208.1Z"/></g></g></svg>