<svg xmlns="http://www.w3.org/2000/svg" width="54.92" height="54.92" viewBox="0 0 54.92 54.92"><path d="M27.46,0A27.46,27.46,0,1,0,54.92,27.46,27.455,27.455,0,0,0,27.46,0Z" fill="#fd2f58"/><path d="M39.8,15.29l-9.25,1.54c-.62.1-.55.74-.55.97H26.79a3.078,3.078,0,1,0-5.82.23c-2.86.72-4.15,2.98-4.96,5a1.324,1.324,0,1,0,2.46.98c1.58-3.96,3.34-3.57,6.7-3.57v1.49a5.349,5.349,0,0,0-3.96,5.18V40.7a1.319,1.319,0,0,0,1.32,1.32h7.93a1.319,1.319,0,0,0,1.32-1.32V27.05a5.29,5.29,0,0,0-3.96-5.12V20.44H30c0,.16-.09.87.55.97l9.25,1.54a.659.659,0,0,0,.77-.65V15.93A.668.668,0,0,0,39.8,15.29ZM23.84,17.81a.88.88,0,1,1,.88-.88A.881.881,0,0,1,23.84,17.81Z" fill="#fff"/></svg>