<svg xmlns="http://www.w3.org/2000/svg" width="108.982" height="136.766" viewBox="0 0 108.982 136.766"><path d="M154.9,74.578c-2.85-3.112-7.281-7.312-9.166,2.172a21.977,21.977,0,0,1-3.422,7.711c-1.383-7-5.546-14.249-9.468-19.135-1.468-1.828-6.675-9.1-7.675-21.254a2.187,2.187,0,0,0-3.653-1.443c-12.884,11.7-19.956,27.781-20.218,45.89a31.591,31.591,0,0,1-8.279-12.935,2.891,2.891,0,0,0-5.14-.695c-.253.385-.488.77-.7,1.144-9.94,17.577-14.722,38.921-10.3,58.779,7.391,33.256,56.284,42.553,82.167,21.651C184.369,136.013,176.319,97.952,154.9,74.578Z" transform="translate(-69.022 -30.821)" fill="#ed694a"/><g transform="translate(6.202 11.182)"><path d="M83.759,223.471c-4.369-20.07.256-41.622,9.963-59.474-.245-.592-.482-1.2-.7-1.842a2.891,2.891,0,0,0-5.14-.695c-.253.385-.487.77-.7,1.144-9.94,17.577-14.722,38.921-10.3,58.778,3.371,15.169,15.378,25.35,29.9,29.957C95.449,245.854,86.58,236.449,83.759,223.471Z" transform="translate(-75.225 -128.574)" fill="#d8553a"/><path d="M179.747,88.043c.537-16.435,6.481-31.172,17.121-42.493-.073-.623-.127-1.181-.162-1.6a2.154,2.154,0,0,0-3.571-1.535c-12.444,11.251-20.029,27.173-20.3,45.965l2.329,1.809a3.136,3.136,0,0,0,3.8.036A2.85,2.85,0,0,0,179.747,88.043Z" transform="translate(-146.76 -41.861)" fill="#d8553a"/></g><path d="M182.781,188.91c-2.1-2.3-5.378-5.4-6.77,1.6a16.243,16.243,0,0,1-2.527,5.7c-1.022-5.172-4.1-10.525-6.993-14.134-1.084-1.35-4.93-6.718-5.669-15.7a1.615,1.615,0,0,0-2.7-1.066c-9.516,8.638-14.74,20.52-14.933,33.9a23.33,23.33,0,0,1-6.115-9.554,2.135,2.135,0,0,0-3.8-.513c-.187.284-.36.569-.516.845-7.342,12.982-10.874,28.747-7.609,43.415,5.459,24.563,41.572,31.431,60.691,15.992C204.549,234.287,198.6,206.174,182.781,188.91Z" transform="translate(-104.719 -120.843)" fill="#f4a32c"/><path d="M131.961,299.27c-2.891-14.338.1-29.723,6.452-42.534a24.642,24.642,0,0,1-1.339-3.14,2.135,2.135,0,0,0-3.8-.513c-.187.284-.36.569-.516.845-7.342,12.982-10.874,28.747-7.609,43.415,2.539,11.424,11.71,19.018,22.716,22.322A28.949,28.949,0,0,1,131.961,299.27Z" transform="translate(-104.718 -184.786)" fill="#e89528"/><path d="M208.234,293.288c-1.425-1.556-3.641-3.656-4.583,1.086a10.985,10.985,0,0,1-1.711,3.856,23.922,23.922,0,0,0-4.734-9.568,19.844,19.844,0,0,1-3.838-10.627,1.093,1.093,0,0,0-1.826-.721,30.97,30.97,0,0,0-10.109,22.945,15.793,15.793,0,0,1-4.14-6.467,1.445,1.445,0,0,0-2.57-.347c-.127.192-.244.385-.35.572-4.97,8.788-7.361,19.46-5.151,29.389,3.7,16.628,28.142,21.277,41.084,10.826a20.814,20.814,0,0,0,7.737-14.2C218.884,311.581,215.633,301.362,208.234,293.288Z" transform="translate(-137.306 -203.027)" fill="#f4d44e"/><path d="M231.856,390.149c-.794-.867-2.028-2.037-2.553.6a6.116,6.116,0,0,1-.953,2.148,13.329,13.329,0,0,0-2.637-5.33,11.056,11.056,0,0,1-2.138-5.921.609.609,0,0,0-1.017-.4,17.255,17.255,0,0,0-5.632,12.783,8.8,8.8,0,0,1-2.306-3.6.805.805,0,0,0-1.432-.193c-.071.107-.136.214-.194.319a23.5,23.5,0,0,0-2.87,16.374c2.8,12.616,25.79,12.234,27.2-1.88C237.79,400.341,235.978,394.647,231.856,390.149Z" transform="translate(-167.548 -279.293)" fill="#eae9e8"/><path d="M215.458,409.433c-1.231-4.948.1-10.267,2.87-14.647.059-.093.124-.189.194-.285a.847.847,0,0,1,1.432.173,7.915,7.915,0,0,0,2.306,3.223,14.606,14.606,0,0,1,3.87-9.773,11.116,11.116,0,0,1-2.557-6.472.609.609,0,0,0-1.017-.4,17.255,17.255,0,0,0-5.632,12.783,8.8,8.8,0,0,1-2.306-3.6.8.8,0,0,0-1.431-.193c-.071.107-.136.215-.194.319a23.5,23.5,0,0,0-2.87,16.374c1.14,5.127,5.821,8.209,11,8.953A10.034,10.034,0,0,1,215.458,409.433Z" transform="translate(-167.548 -279.294)" fill="#f7e7a1"/><g transform="translate(0)"><path d="M172.725,18.176a11.707,11.707,0,0,0,0-18.176A11.706,11.706,0,0,0,172.725,18.176Z" transform="translate(-137.306)" fill="#d8553a"/><path d="M434.866,159.344a11.706,11.706,0,0,0,0-18.176C432.226,143.315,429.1,154.657,434.866,159.344Z" transform="translate(-330.211 -103.459)" fill="#d8553a"/><path d="M54.351,186.665a8.437,8.437,0,0,0,0-13.1C52.449,175.112,50.2,183.286,54.351,186.665Z" transform="translate(-52.006 -127.202)" fill="#d8553a"/><path d="M322.152,81.145a8.437,8.437,0,0,0,0-13.1A8.437,8.437,0,0,0,322.152,81.145Z" transform="translate(-247.705 -49.869)" fill="#d8553a"/></g><path d="M201.338,197.059c.956-11.286,5.266-21.322,12.5-28.972q-.11-.832-.183-1.709a1.615,1.615,0,0,0-2.7-1.066A45,45,0,0,0,196.8,191.089h0c-.132.745-.3,1.831-.4,2.684v0a51.091,51.091,0,0,0-.369,5.434C196.227,199.247,200.787,201.59,201.338,197.059Z" transform="translate(-157.555 -120.843)" fill="#e89528"/><g transform="translate(31.09 73.999)"><path d="M175.884,369.049c-1.965-9.276-.291-19.167,3.6-27.738a16.76,16.76,0,0,1-2.187-4.235,1.446,1.446,0,0,0-2.57-.347c-.126.192-.244.385-.35.572-4.97,8.788-7.361,19.46-5.151,29.389,1.731,7.787,8.013,12.947,15.533,15.159A20.224,20.224,0,0,1,175.884,369.049Z" transform="translate(-168.396 -320.312)" fill="#e8c842"/><path d="M224.3,296.205a33.335,33.335,0,0,1,5.552-14.071,22.971,22.971,0,0,1-.708-4.1,1.093,1.093,0,0,0-1.826-.721,30.3,30.3,0,0,0-8.531,13.2h0c-.258.8-.622,2.113-.842,3.153h.006a33.966,33.966,0,0,0-.736,6.591C220.808,300.708,223.789,299.815,224.3,296.205Z" transform="translate(-204.166 -277.026)" fill="#e8c842"/></g></svg>