<svg xmlns="http://www.w3.org/2000/svg" width="55" height="55" viewBox="0 0 55 55"><path d="M27.5,0A27.5,27.5,0,1,0,55,27.5,27.5,27.5,0,0,0,27.5,0Z" fill="#fd2f58"/><path d="M33,16.19a32.771,32.771,0,0,0-3.1,3.31,42.886,42.886,0,0,0-5.49-6.14c-5.43,5.03-9.28,11.59-9.28,15.55A12.547,12.547,0,0,0,27.5,41.63,12.553,12.553,0,0,0,39.87,28.91c0-2.94-2.87-9.01-6.87-12.72ZM31.92,35a7.4,7.4,0,0,1-4.26,1.33c-3.98,0-7.23-2.64-7.23-6.92,0-2.13,1.34-4.01,4.02-7.22.38.44,5.46,6.92,5.46,6.92l3.24-3.69c.23.38.44.75.62,1.1A6.6,6.6,0,0,1,31.92,35Z" fill="#fff"/></svg>