<svg xmlns="http://www.w3.org/2000/svg" width="55" height="55" viewBox="0 0 55 55"><path d="M27.5,0A27.5,27.5,0,1,0,55,27.5,27.5,27.5,0,0,0,27.5,0Z" fill="#00b2ff"/><path d="M14.09,33.5a.788.788,0,0,0,.97.56l10.75-2.88a.788.788,0,0,0,.56-.97L23.9,20.99a.788.788,0,0,0-.97-.56l-3.84,1.03,1.23,4.61-3.07.82-1.23-4.61-3.84,1.03a.788.788,0,0,0-.56.97C11.63,24.28,14.09,33.5,14.09,33.5ZM30.68,14.83a1.588,1.588,0,0,0-1.59,1.59V32.5l-17.2,4.69a.4.4,0,0,0-.28.49l.63,2.3a.4.4,0,0,0,.49.28l19.56-5.34a5.552,5.552,0,0,0,11.1-.21V14.83Zm7.15,22.26a2.38,2.38,0,1,1,2.38-2.38A2.379,2.379,0,0,1,37.83,37.09Z" fill="#fff"/></svg>