<svg xmlns="http://www.w3.org/2000/svg" width="55" height="55" viewBox="0 0 55 55"><path d="M27.5,0A27.5,27.5,0,1,0,55,27.5,27.5,27.5,0,0,0,27.5,0Z" fill="#fd2f58"/><path d="M38.68,16.51a9.168,9.168,0,0,0-12.95,0,10.361,10.361,0,0,0-3.42,7.7v4.64l-2.2,2.19a1.811,1.811,0,0,1-1.99.32A3.265,3.265,0,0,0,14.6,36.7a3.2,3.2,0,0,0,3.03.81,3.2,3.2,0,0,0,.82,3.03,3.262,3.262,0,0,0,5.34-3.51,1.814,1.814,0,0,1,.32-1.99l2.2-2.19h4.64a10.049,10.049,0,0,0,3.35-.54,5.929,5.929,0,0,1,.06-8.17,5.868,5.868,0,0,1,6.96-.91A8.964,8.964,0,0,0,38.68,16.51Z" fill="#fff"/></svg>