<svg xmlns="http://www.w3.org/2000/svg" width="55" height="55" viewBox="0 0 55 55"><path d="M27.5,0A27.5,27.5,0,1,0,55,27.5,27.5,27.5,0,0,0,27.5,0Z" fill="#00b2ff"/><path d="M38,22.76a8.928,8.928,0,0,0-5.53-8.25L30.58,18.3V13.1a.738.738,0,0,0-.74-.74H25.38a.738.738,0,0,0-.74.74v5.2l-1.89-3.79a8.9,8.9,0,0,0-5.53,8.25v2.97H38Zm.75,4.46H16.46a.738.738,0,0,0-.74.74v1.49a.738.738,0,0,0,.74.74H38.74a.738.738,0,0,0,.74-.74V27.96A.724.724,0,0,0,38.75,27.22Z" fill="#fff"/><path d="M37.19,33.39a11.6,11.6,0,0,0-3.38-.52,10.909,10.909,0,0,0-4.78,1.11H25.98a10.909,10.909,0,0,0-4.78-1.11,11.6,11.6,0,0,0-3.38.52l-2.23.68a2.8,2.8,0,0,0-.08.64v2.92a4.77,4.77,0,0,0,4.8,4.74h1.55a4.771,4.771,0,0,0,4.78-4.39l.12-1.61h1.49l.12,1.61a4.779,4.779,0,0,0,4.78,4.39H34.7a4.77,4.77,0,0,0,4.8-4.74V34.71a2.89,2.89,0,0,0-.08-.65Zm-13.21,4.4a2.117,2.117,0,0,1-2.13,1.92H20.3a2.1,2.1,0,0,1-2.13-2.08V36.07a9.025,9.025,0,0,1,3.02-.54,8.11,8.11,0,0,1,2.91.54l-.12,1.72Zm12.85-.15a2.109,2.109,0,0,1-2.13,2.08H33.15a2.132,2.132,0,0,1-2.13-1.92l-.13-1.72a8.11,8.11,0,0,1,2.91-.54,9.025,9.025,0,0,1,3.02.54l.01,1.56Z" fill="#fff"/></svg>