<svg xmlns="http://www.w3.org/2000/svg" width="55" height="55" viewBox="0 0 55 55"><path d="M27.5,0A27.5,27.5,0,1,0,55,27.5,27.5,27.5,0,0,0,27.5,0Z" fill="#fd2f58"/><path d="M31.37,38.9H29.22V32.6a7.758,7.758,0,0,0,5.98-8.28l-.13-1.45L32.81,21.3l-1.26,2.47-5.44-5.08,5.13,2.1.56-2.09,3.04,1.61-.5-5.57a.855.855,0,0,0-.84-.78h-12a.848.848,0,0,0-.84.78L19.8,24.3a7.774,7.774,0,0,0,5.98,8.28v6.29H23.63a2.147,2.147,0,0,0-2.15,2.15.427.427,0,0,0,.43.43H33.08a.427.427,0,0,0,.43-.43A2.138,2.138,0,0,0,31.37,38.9Z" fill="#fff"/></svg>