<svg xmlns="http://www.w3.org/2000/svg" width="55.18" height="55.18" viewBox="0 0 55.18 55.18"><g transform="translate(-513 -1807)"><circle cx="27.59" cy="27.59" r="27.59" transform="translate(513 1807)" fill="#f46e33"/></g><path d="M44.84,28.08,42.1,17.12a5.3,5.3,0,0,0-6.82-3.74l-.92.31a.962.962,0,0,0-.61,1.22l.31.92a.958.958,0,0,0,1.22.61l.79-.26a2.568,2.568,0,0,1,2,.1,2.391,2.391,0,0,1,1.23,1.56l2.32,9.27a16.716,16.716,0,0,0-4.9-.75,15.753,15.753,0,0,0-6.92,1.61H25.39a15.793,15.793,0,0,0-6.93-1.61,16.771,16.771,0,0,0-4.9.75l2.32-9.27a2.414,2.414,0,0,1,1.23-1.56,2.568,2.568,0,0,1,2-.1l.79.26a.958.958,0,0,0,1.22-.61l.31-.92a.958.958,0,0,0-.61-1.22l-.92-.31a5.3,5.3,0,0,0-6.82,3.74L10.35,28.08a3.694,3.694,0,0,0-.11.93v4.24a6.912,6.912,0,0,0,6.95,6.87h2.24a6.926,6.926,0,0,0,6.93-6.35l.18-2.33H28.7l.18,2.33a6.912,6.912,0,0,0,6.93,6.35H38a6.906,6.906,0,0,0,6.95-6.87V29.01A4.149,4.149,0,0,0,44.84,28.08ZM22.48,33.47a3.074,3.074,0,0,1-3.08,2.79H17.16a3.057,3.057,0,0,1-3.09-3.01V30.99a13.123,13.123,0,0,1,4.38-.78,11.812,11.812,0,0,1,4.22.78l-.19,2.48Zm18.61-.22A3.05,3.05,0,0,1,38,36.26H35.76a3.066,3.066,0,0,1-3.08-2.79l-.19-2.49a11.812,11.812,0,0,1,4.22-.78,13.059,13.059,0,0,1,4.37.78l.01,2.27Z" fill="#fff"/></svg>