<svg xmlns="http://www.w3.org/2000/svg" width="55" height="55" viewBox="0 0 55 55"><path d="M27.5,0A27.5,27.5,0,1,0,55,27.5,27.5,27.5,0,0,0,27.5,0Z" fill="#00b2ff"/><path d="M28.04,30.9a8.135,8.135,0,0,1,2.73,1.36l8.92-2.97a.892.892,0,0,0,.56-1.12L36.91,18.16a.892.892,0,0,0-1.12-.56l-3.38,1.13,1.83,5.49-3.35,1.11-1.83-5.49-3.4,1.13a.892.892,0,0,0-.56,1.12l2.94,8.81Zm15.52,2.69L43,31.91a.892.892,0,0,0-1.12-.56L30.09,35.28a5.253,5.253,0,0,0-4.06-2.04L20.54,16.77a1.775,1.775,0,0,0-1.68-1.21H12.67a.881.881,0,0,0-.88.88v1.77a.881.881,0,0,0,.88.88h4.91l5.09,15.29a5.284,5.284,0,0,0-1.99,5,5.3,5.3,0,0,0,10.53-.74L43,34.71A.888.888,0,0,0,43.56,33.59Zm-17.63,7.6a2.65,2.65,0,1,1,2.65-2.65A2.655,2.655,0,0,1,25.93,41.19Z" fill="#fff"/></svg>