<svg xmlns="http://www.w3.org/2000/svg" width="277" height="21.131" viewBox="0 0 277 21.131"><g transform="translate(-143 -1324.466)"><g transform="translate(143 1324.466)"><path d="M149,1336.682v3.8h8.357c1.121,0,3.017-.321,3.017-1.792,0-1.754-1.905-2.011-3.282-2.011Zm0-7.1v2.451h7.493c.83,0,2.67-.067,2.67-1.27,0-1.107-1.637-1.181-2.407-1.181Zm34.2,7.142h-6.085l2.769-5.615c.114-.232.215-.466.307-.7a7.616,7.616,0,0,0,.325.7l2.684,5.611Zm104.017,0h-6.085l2.767-5.615c.117-.232.215-.466.307-.7a7.632,7.632,0,0,0,.326.7l2.684,5.611Zm76.883-1.667a5.65,5.65,0,0,0-.908-3.152,7.663,7.663,0,0,0-11.685.034,5.916,5.916,0,0,0,0,6.237,7.663,7.663,0,0,0,11.685.034,5.65,5.65,0,0,0,.908-3.152m14.513-5.474h8c.855,0,2.446.087,2.446,1.266,0,1.366-2.022,1.4-2.97,1.4h-7.472v-2.663Zm-215,4.192a5.579,5.579,0,0,1,3.223,5.121c0,4.793-3.908,6.367-8.077,6.367H143v-20.413h15.144c3.475,0,7.463.969,7.463,5.18a4.513,4.513,0,0,1-1.994,3.745m21.669,7.557,1.9,3.931h6.445l-10.186-20.413h-6.392l-10.456,20.413h6.447l1.944-3.931Zm31.209-10.073-6.558.922-.108-.149a5.855,5.855,0,0,0-5.2-2.815c-3.52,0-6.149,2.111-6.149,5.751,0,3.663,2.56,5.884,6.149,5.884a5.958,5.958,0,0,0,3.7-1.15,7.118,7.118,0,0,0,1.7-1.958l.112-.174,6.186,1.119-.181.367c-2.35,4.806-6.315,6.542-11.566,6.542-6.674,0-12.345-3.569-12.345-10.762a9.78,9.78,0,0,1,1.71-5.732c2.471-3.5,6.956-4.637,11.03-4.637,5.265,0,8.765,1.792,11.3,6.4l.215.392Zm16.934.559,9.544-6.968h-8.925l-9.267,6.643v-6.643h-6v20.413h6V1338l3.764-2.581,6.354,9.838h7.484l-8.955-13.445Zm15.314,5.71h-5.874v-5.579h5.874Zm9.425-7.988v2.326h12.256v4.69H258.165v8.706h-6V1324.8h21.014l-1.66,4.733Zm31.175,11.792,1.856,3.931h6.445l-10.182-20.413h-6.393l-10.456,20.413h6.447l1.944-3.931Zm31.869-10.073-6.558.922-.11-.149a5.854,5.854,0,0,0-5.2-2.815c-3.52,0-6.148,2.111-6.148,5.751,0,3.663,2.562,5.884,6.148,5.884a5.96,5.96,0,0,0,3.716-1.15,7.15,7.15,0,0,0,1.691-1.958l.112-.174,6.184,1.119-.179.367c-2.35,4.806-6.317,6.542-11.568,6.542-6.674,0-12.345-3.569-12.345-10.762a9.793,9.793,0,0,1,1.71-5.732c2.471-3.5,6.957-4.637,11.03-4.637,5.265,0,8.765,1.792,11.3,6.4l.216.392Zm14.93-1.719v15.722h-6.085v-15.722h-7.9V1324.8h21.89v4.733Zm34.026,5.517a9.767,9.767,0,0,1-1.778,5.8c-2.524,3.512-7.051,4.745-11.183,4.745-4,0-8.357-1.121-10.872-4.463a10.532,10.532,0,0,1-.083-11.978c2.533-3.47,7.025-4.69,11.132-4.69,4.007,0,8.357,1.143,10.871,4.494a9.971,9.971,0,0,1,1.914,6.1m13.695,1.667,5.423,8.5h6.856l-5.723-8.872a7.718,7.718,0,0,0,3.025-1.41,5.216,5.216,0,0,0,2.045-4.249c0-4.3-3.725-5.883-7.509-5.883H372.57v20.413h6.085v-8.5Zm26.831,1.742v6.753H404.6v-6.406l-9.256-14.007h6.961l5.334,8.375,5.208-8.375H420l-9.31,13.66Z" transform="translate(-143 -1324.466)" fill="#fd2f58" fill-rule="evenodd"/></g></g></svg>