<svg xmlns="http://www.w3.org/2000/svg" width="55" height="55" viewBox="0 0 55 55"><path d="M27.5,0A27.5,27.5,0,1,0,55,27.5,27.5,27.5,0,0,0,27.5,0Z" fill="#00c389"/><path d="M35.99,24.76H28.31v2.83a3.64,3.64,0,0,1-7.28,0V21.45l-3.28,1.97a3.218,3.218,0,0,0-1.57,2.77v2.39l-4.04,2.33a1.617,1.617,0,0,0-.59,2.21l4.04,7a1.617,1.617,0,0,0,2.21.59l5.22-3.02h6.9a3.235,3.235,0,0,0,3.23-3.23h.81a1.62,1.62,0,0,0,1.62-1.62V29.61h.4a1.208,1.208,0,0,0,1.21-1.21V25.97A1.2,1.2,0,0,0,35.99,24.76Zm7.46-1.88-4.04-7a1.617,1.617,0,0,0-2.21-.59l-5.22,3.02H26.82a3.21,3.21,0,0,0-1.71.49l-1.69,1.06a1.611,1.611,0,0,0-.76,1.37v6.38a2.02,2.02,0,1,0,4.04,0V23.16H36a2.834,2.834,0,0,1,2.83,2.83v1.44l4.04-2.33A1.642,1.642,0,0,0,43.45,22.88Z" fill="#fff"/></svg>