<svg xmlns="http://www.w3.org/2000/svg" width="70" height="70" viewBox="0 0 70 70"><g transform="translate(0 0)"><rect width="2.88" height="2.865" rx="1.411" transform="translate(28.218 36.721)" fill="#00b2ff"/><rect width="2.88" height="2.865" rx="1.411" transform="translate(34 36.721)" fill="#00b2ff"/><rect width="2.88" height="2.865" rx="1.411" transform="translate(31.109 32.385)" fill="#00b2ff"/><path d="M955.713,12305.669h2.865v.007h2.88v-2.864h-8.61v2.864h2.865Z" transform="translate(-929.3 -12282.006)" fill="#00b2ff"/><rect width="2.88" height="2.865" rx="1.411" transform="translate(36.891 32.385)" fill="#00b2ff"/><rect width="2.88" height="2.865" rx="1.411" transform="translate(25.327 32.385)" fill="#00b2ff"/><rect width="2.88" height="2.865" rx="1.411" transform="translate(39.782 36.721)" fill="#00b2ff"/><rect width="2.88" height="2.865" rx="1.411" transform="translate(42.672 32.385)" fill="#00b2ff"/><rect width="14.341" height="2.865" rx="1.411" transform="translate(28.27 43.948)" fill="#00b2ff"/><path d="M959.288,12277.556a35,35,0,1,0,35,35A35,35,0,0,0,959.288,12277.556Zm18.14,48.28a1.438,1.438,0,0,1-1.44,1.438H943.467a1.438,1.438,0,0,1-1.44-1.438v-7.245h0l2.614-10.47a1.439,1.439,0,0,1,1.4-1.09H950.7v-2.89h-4.343a1.436,1.436,0,0,1-1.436-1.437v-5.811a1.437,1.437,0,0,1,1.436-1.437h11.591a1.438,1.438,0,0,1,1.436,1.438v5.811a1.437,1.437,0,0,1-1.436,1.437h-4.358v2.89h19.826a1.439,1.439,0,0,1,1.4,1.09l2.614,10.47h0Z" transform="translate(-924.288 -12277.556)" fill="#00b2ff"/></g></svg>