<svg xmlns="http://www.w3.org/2000/svg" width="55" height="55" viewBox="0 0 55 55"><path d="M27.5,0A27.5,27.5,0,1,0,55,27.5,27.5,27.5,0,0,0,27.5,0Z" fill="#8d5fd6"/><path d="M25.57,13.84l-9.73,7.28a3.225,3.225,0,0,0-1.3,2.59V38.25a3.235,3.235,0,0,0,3.23,3.23H37.24a3.235,3.235,0,0,0,3.23-3.23h0V23.71a3.225,3.225,0,0,0-1.3-2.59l-9.73-7.28A3.255,3.255,0,0,0,25.57,13.84ZM24.22,38.42H21.03a1.624,1.624,0,0,1-1.62-1.61h0V33.62A1.624,1.624,0,0,1,21.02,32h3.19a1.609,1.609,0,0,1,1.61,1.61h0V36.8A1.6,1.6,0,0,1,24.22,38.42Zm0-9H21.03a1.62,1.62,0,0,1-1.62-1.62V24.61a1.62,1.62,0,0,1,1.62-1.62h3.19a1.611,1.611,0,0,1,1.61,1.62V27.8A1.618,1.618,0,0,1,24.22,29.42Zm9.75,9H30.78a1.624,1.624,0,0,1-1.62-1.61h0V33.62A1.624,1.624,0,0,1,30.77,32h3.19a1.609,1.609,0,0,1,1.61,1.61h0V36.8A1.6,1.6,0,0,1,33.97,38.42Z" fill="#fff"/></svg>