<svg xmlns="http://www.w3.org/2000/svg" width="55" height="55" viewBox="0 0 55 55"><circle cx="27.5" cy="27.5" r="27.5" fill="#00b2ff"/><g transform="translate(-223.089 -3412.556)"><path d="M248.58,3424.88l-10.1,7.55a3.334,3.334,0,0,0-1.34,2.68v15.08a3.35,3.35,0,0,0,3.35,3.35h20.2a3.35,3.35,0,0,0,3.35-3.35h0v-15.08a3.348,3.348,0,0,0-1.34-2.68l-10.1-7.55A3.36,3.36,0,0,0,248.58,3424.88Zm-1.4,25.49h-3.31a1.675,1.675,0,0,1-1.68-1.67h0v-3.31a1.675,1.675,0,0,1,1.67-1.68h3.31a1.667,1.667,0,0,1,1.67,1.67h0v3.31A1.648,1.648,0,0,1,247.18,3450.37Zm0-9.33h-3.31a1.677,1.677,0,0,1-1.68-1.68v-3.31a1.677,1.677,0,0,1,1.68-1.68h3.31a1.669,1.669,0,0,1,1.67,1.68v3.31A1.662,1.662,0,0,1,247.18,3441.04Zm10.12,9.33H254a1.675,1.675,0,0,1-1.68-1.67h0v-3.31a1.675,1.675,0,0,1,1.67-1.68h3.31a1.667,1.667,0,0,1,1.67,1.67h0v3.31A1.662,1.662,0,0,1,257.3,3450.37Z" fill="#fff"/></g></svg>