<svg xmlns="http://www.w3.org/2000/svg" width="70" height="70" viewBox="0 0 70 70"><path d="M35,0A35,35,0,1,0,70,35,35,35,0,0,0,35,0Z" fill="#fd2f58"/><path d="M32.54,17.62,20.15,26.88a4.116,4.116,0,0,0-1.65,3.29v18.5a4.11,4.11,0,0,0,4.11,4.11H47.39a4.11,4.11,0,0,0,4.11-4.11h0V30.17a4.087,4.087,0,0,0-1.65-3.29L37.46,17.62A4.11,4.11,0,0,0,32.54,17.62ZM30.82,48.89H26.76a2.061,2.061,0,0,1-2.06-2.05h0V42.78a2.055,2.055,0,0,1,2.05-2.06h4.06a2.053,2.053,0,0,1,2.05,2.05h0v4.06A2.028,2.028,0,0,1,30.82,48.89Zm0-11.45H26.76a2.057,2.057,0,0,1-2.06-2.06V31.32a2.057,2.057,0,0,1,2.06-2.06h4.06a2.049,2.049,0,0,1,2.05,2.06v4.06A2.042,2.042,0,0,1,30.82,37.44ZM43.24,48.89H39.18a2.061,2.061,0,0,1-2.06-2.05h0V42.78a2.055,2.055,0,0,1,2.05-2.06h4.06a2.053,2.053,0,0,1,2.05,2.05h0v4.06A2.04,2.04,0,0,1,43.24,48.89Z" fill="#fff"/></svg>