<svg xmlns="http://www.w3.org/2000/svg" width="39" height="39" viewBox="0 0 39 39"><g transform="translate(-0.5 -0.5)"><circle cx="19.5" cy="19.5" r="19.5" transform="translate(0.5 0.5)" fill="#9690a5"/><path d="M25.885,22.276l-7.232,5.956v6.429a.629.629,0,0,0,.63.63l4.4-.011a.628.628,0,0,0,.624-.63V30.9a.629.629,0,0,1,.63-.63h2.513a.629.629,0,0,1,.63.63v3.75a.628.628,0,0,0,.624.63h0l4.4.011a.629.629,0,0,0,.63-.63V28.227l-7.243-5.95a.477.477,0,0,0-.6,0Zm11.421,4.05-3.282-2.7V18.192a.467.467,0,0,0-.468-.468h-2.2a.467.467,0,0,0-.468.468v2.847l-3.51-2.892a1.874,1.874,0,0,0-2.39,0l-9.939,8.179a.469.469,0,0,0-.061.663h0L16,28.2a.475.475,0,0,0,.663.067h0l9.226-7.6a.485.485,0,0,1,.6,0l9.226,7.6a.469.469,0,0,0,.663-.061h0l1-1.215a.476.476,0,0,0-.072-.669Z" transform="translate(-6.591 -7.846)" fill="#fff"/></g></svg>