<svg xmlns="http://www.w3.org/2000/svg" width="70" height="70" viewBox="0 0 70 70"><path d="M35,0A35,35,0,1,0,70,35,35,35,0,0,0,35,0Z" fill="#8d5fd6"/><path d="M54.34,25.63l-4.27-6.82a2.111,2.111,0,0,0-1.78-.99H21.71a2.111,2.111,0,0,0-1.78.99l-4.27,6.82c-2.2,3.52-.25,8.42,3.87,8.98a6.8,6.8,0,0,0,.9.06,6.522,6.522,0,0,0,4.86-2.18,6.507,6.507,0,0,0,9.72,0,6.507,6.507,0,0,0,9.72,0,6.543,6.543,0,0,0,5.76,2.12C54.59,34.05,56.56,29.15,54.34,25.63ZM49.57,36.77a8.386,8.386,0,0,1-1.94-.25v6.57H22.36V36.52a8.965,8.965,0,0,1-1.94.25,9.23,9.23,0,0,1-1.18-.08,7.686,7.686,0,0,1-1.08-.24V49.4a2.11,2.11,0,0,0,2.11,2.11H49.75a2.11,2.11,0,0,0,2.11-2.11V36.46a6.729,6.729,0,0,1-1.08.24,9.819,9.819,0,0,1-1.21.07Z" fill="#fff"/></svg>