<svg xmlns="http://www.w3.org/2000/svg" width="55" height="55" viewBox="0 0 55 55"><g transform="translate(-193 -30)"><circle cx="27.5" cy="27.5" r="27.5" transform="translate(193 30)" fill="#8d5fd6"/></g><path d="M41.39,28.42H37.3v4.9l-1.63-1.09-1.63,1.09v-4.9H29.95a.824.824,0,0,0-.82.82v9.81a.824.824,0,0,0,.82.82H41.39a.824.824,0,0,0,.82-.82V29.24A.824.824,0,0,0,41.39,28.42ZM21.78,25.15H33.22a.824.824,0,0,0,.82-.82V14.52a.824.824,0,0,0-.82-.82H29.13v4.9L27.5,17.51,25.87,18.6V13.7H21.78a.824.824,0,0,0-.82.82v9.81A.824.824,0,0,0,21.78,25.15Zm3.27,3.27H20.96v4.9l-1.63-1.09L17.7,33.32v-4.9H13.61a.824.824,0,0,0-.82.82v9.81a.824.824,0,0,0,.82.82H25.05a.824.824,0,0,0,.82-.82V29.24A.824.824,0,0,0,25.05,28.42Z" fill="#fff"/></svg>