<svg xmlns="http://www.w3.org/2000/svg" width="69.78" height="69.78" viewBox="0 0 69.78 69.78"><path d="M34.89,0A34.89,34.89,0,1,0,69.78,34.89,34.889,34.889,0,0,0,34.89,0Z" fill="#ff8500"/><path d="M52.17,35.37a14.816,14.816,0,0,0-9.19-13.7l-3.15,6.29V19.32a1.229,1.229,0,0,0-1.23-1.23H31.2a1.229,1.229,0,0,0-1.23,1.23v8.64l-3.15-6.29a14.806,14.806,0,0,0-9.19,13.7v4.94H52.18V35.37Zm1.23,7.4H16.38A1.229,1.229,0,0,0,15.15,44v2.47a1.229,1.229,0,0,0,1.23,1.23H53.4a1.229,1.229,0,0,0,1.23-1.23V44A1.229,1.229,0,0,0,53.4,42.77Z" fill="#fff"/></svg>