<svg xmlns="http://www.w3.org/2000/svg" width="55.18" height="55.18" viewBox="0 0 55.18 55.18"><g transform="translate(-513 -1807)"><circle cx="27.59" cy="27.59" r="27.59" transform="translate(513 1807)" fill="#00c389"/></g><path d="M17.82,30.95a3.052,3.052,0,0,0-.89,2.15v2.16l-1.52,2.66,1.52,1.52,2.66-1.52h2.16a3.034,3.034,0,0,0,2.15-.89l6.02-6.02-6.09-6.09ZM38.43,16.43a4.575,4.575,0,0,0-6.46,0L28.3,20.1l-.62-.62a1.138,1.138,0,0,0-1.61,0l-1.95,1.95a1.129,1.129,0,0,0,0,1.61l7.7,7.7a1.138,1.138,0,0,0,1.61,0l1.95-1.95a1.129,1.129,0,0,0,0-1.61l-.62-.62,3.67-3.67A4.575,4.575,0,0,0,38.43,16.43Z" fill="#fff"/></svg>