<svg xmlns="http://www.w3.org/2000/svg" width="55" height="55" viewBox="0 0 55 55"><g transform="translate(23)"><g transform="translate(-23)"><path d="M27.5,0A27.5,27.5,0,1,0,55,27.5,27.5,27.5,0,0,0,27.5,0Z" fill="#f46e33"/></g></g><path d="M38.08,16.11H16.92a2.437,2.437,0,0,0-2.44,2.44v17.9a2.437,2.437,0,0,0,2.44,2.44H38.08a2.437,2.437,0,0,0,2.44-2.44V18.55A2.437,2.437,0,0,0,38.08,16.11ZM25.87,35.64H17.73V30.76h8.14v4.88Zm0-8.14H17.73V22.62h8.14V27.5Zm11.4,8.14H29.13V30.76h8.14Zm0-8.14H29.13V22.62h8.14Z" fill="#fff"/></svg>