<svg xmlns="http://www.w3.org/2000/svg" width="70" height="70" viewBox="0 0 70 70"><g transform="translate(-193 -30)"><circle cx="35" cy="35" r="35" transform="translate(193 30)" fill="#fd2f58"/><g transform="translate(216.055 54.055)"><g transform="translate(-12.477 -12.477)"><rect width="47.64" height="47.64" transform="translate(0.12 0.09)" fill="none"/><rect width="47.64" height="47.64" transform="translate(0.12 0.09)" fill="none"/><g transform="translate(8.913 4.224)"><circle cx="3.89" cy="3.89" r="3.89" transform="translate(11.62 -0.25)" fill="#fff"/><path d="M23.62,12.36a6.341,6.341,0,0,0-4.83-2.27h-5.2A10.276,10.276,0,0,1,3.53,1.6a2.049,2.049,0,0,0-2-1.74h0A2.053,2.053,0,0,0-.54,1.89c0,.1.01.21.02.31A14.391,14.391,0,0,0,9.52,13.59V38.73a2.036,2.036,0,0,0,2.04,2.04h0a2.036,2.036,0,0,0,2.04-2.04V28.51h4.09V38.74a2.036,2.036,0,0,0,2.04,2.04h0a2.036,2.036,0,0,0,2.04-2.04V16.34l6.63,6.63a2.028,2.028,0,0,0,2.88,0h0a2.028,2.028,0,0,0,0-2.88Z" fill="#fff"/></g></g></g></g></svg>