<svg xmlns="http://www.w3.org/2000/svg" width="55.18" height="55.18" viewBox="0 0 55.18 55.18"><g transform="translate(-513 -1807)"><circle cx="27.59" cy="27.59" r="27.59" transform="translate(513 1807)" fill="#8d5fd6"/></g><g transform="translate(23)"><g transform="translate(-23)"><path d="M37.22,13.36H32.23a4.64,4.64,0,1,0-9.28,0H17.96a3.22,3.22,0,0,0-3.21,3.21V39.05a3.22,3.22,0,0,0,3.21,3.21H37.23a3.22,3.22,0,0,0,3.21-3.21V16.57A3.242,3.242,0,0,0,37.22,13.36Zm-9.64-1.7a1.69,1.69,0,1,1-.02,0ZM22.3,36.45a2.17,2.17,0,1,1,2.17-2.17h0a2.168,2.168,0,0,1-2.17,2.17Zm0-6.4a2.17,2.17,0,1,1,2.17-2.17,2.168,2.168,0,0,1-2.17,2.17Zm10.23,4.76a.95.95,0,0,1-.95.95H27.84a.95.95,0,0,1-.95-.95V33.75a.95.95,0,0,1,.95-.95h3.74a.95.95,0,0,1,.95.95Zm4-6.31a.95.95,0,0,1-.95.95H27.84a.95.95,0,0,1-.95-.95V27.44a.95.95,0,0,1,.95-.95h7.74a.95.95,0,0,1,.95.95ZM22.3,23.83a2.17,2.17,0,1,1,2.17-2.17h0a2.168,2.168,0,0,1-2.17,2.17Zm13.23-1.64a.95.95,0,0,1-.95.95H27.84a.95.95,0,0,1-.95-.95V21.13a.95.95,0,0,1,.95-.95h6.74a.95.95,0,0,1,.95.95Z" fill="#fff"/></g></g></svg>