<svg xmlns="http://www.w3.org/2000/svg" width="55" height="55" viewBox="0 0 55 55"><g transform="translate(23)"><g transform="translate(-23)"><path d="M27.5,0A27.5,27.5,0,1,0,55,27.5,27.5,27.5,0,0,0,27.5,0Z" fill="#00b2ff"/><path d="M37.65,13.36H32.66a4.64,4.64,0,1,0-9.28,0H18.39a3.22,3.22,0,0,0-3.21,3.21V39.05a3.22,3.22,0,0,0,3.21,3.21H37.66a3.22,3.22,0,0,0,3.21-3.21V16.57A3.242,3.242,0,0,0,37.65,13.36Zm-9.64-1.7a1.69,1.69,0,1,1-.02,0Zm-7.62,9.31.47-.46a.676.676,0,0,1,.95,0l.96.96,2.94-2.95a.676.676,0,0,1,.95,0l.46.48a.676.676,0,0,1,0,.95l-3.4,3.4-.48.47a.676.676,0,0,1-.95,0l-.47-.47-1.43-1.43A.676.676,0,0,1,20.39,20.97Zm2.34,15.48a2.17,2.17,0,1,1,2.17-2.17h0a2.168,2.168,0,0,1-2.17,2.17Zm0-6.4a2.17,2.17,0,1,1,2.17-2.17,2.168,2.168,0,0,1-2.17,2.17Zm13.23,4.76a.95.95,0,0,1-.95.95H28.27a.95.95,0,0,1-.95-.95V33.75a.95.95,0,0,1,.95-.95h6.74a.95.95,0,0,1,.95.95Zm0-6.31a.95.95,0,0,1-.95.95H28.27a.95.95,0,0,1-.95-.95V27.44a.95.95,0,0,1,.95-.95h6.74a.95.95,0,0,1,.95.95Zm0-6.05a.95.95,0,0,1-.95.95H28.17l3.21-2.97H35a.939.939,0,0,1,.94.94v1.08Z" fill="#fff"/></g></g></svg>