<svg xmlns="http://www.w3.org/2000/svg" width="55" height="55" viewBox="0 0 55 55"><path d="M27.5,0A27.5,27.5,0,1,0,55,27.5,27.5,27.5,0,0,0,27.5,0Z" fill="#f46e33"/><path d="M30.05,16.45a2.59,2.59,0,1,1-2.59-2.59A2.591,2.591,0,0,1,30.05,16.45ZM27.46,36.3a2.59,2.59,0,1,0,2.59,2.59A2.591,2.591,0,0,0,27.46,36.3ZM38.68,25.08a2.59,2.59,0,1,0,2.59,2.59A2.591,2.591,0,0,0,38.68,25.08ZM18.83,27.67a2.59,2.59,0,1,0-2.59,2.59A2.591,2.591,0,0,0,18.83,27.67Zm.7,5.34a2.59,2.59,0,1,0,2.59,2.59A2.591,2.591,0,0,0,19.53,33.01Zm15.86,0a2.59,2.59,0,1,0,2.59,2.59A2.591,2.591,0,0,0,35.39,33.01ZM19.53,17.15a2.59,2.59,0,1,0,2.59,2.59A2.591,2.591,0,0,0,19.53,17.15Z" fill="#fff"/></svg>