<svg xmlns="http://www.w3.org/2000/svg" width="55" height="55" viewBox="0 0 55 55"><g transform="translate(-1356.09 -3665.56)"><circle cx="27.5" cy="27.5" r="27.5" transform="translate(1356.09 3665.56)" fill="#8d5fd6"/><g transform="translate(373 -5)"><path d="M1008.26,3707.21h16.04a1.541,1.541,0,0,1,1.54,1.54v1.7a1.541,1.541,0,0,1-1.54,1.54h-16.04a1.541,1.541,0,0,1-1.54-1.54v-1.7A1.54,1.54,0,0,1,1008.26,3707.21Z" fill="#fff"/><circle cx="3.82" cy="3.82" r="3.82" transform="translate(995.26 3705.78)" fill="#fff"/><path d="M1008.26,3695.74h16.04a1.541,1.541,0,0,1,1.54,1.54v1.7a1.541,1.541,0,0,1-1.54,1.54h-16.04a1.541,1.541,0,0,1-1.54-1.54v-1.7A1.54,1.54,0,0,1,1008.26,3695.74Z" fill="#fff"/><circle cx="3.82" cy="3.82" r="3.82" transform="translate(995.26 3694.31)" fill="#fff"/><path d="M1008.26,3684.27h16.04a1.541,1.541,0,0,1,1.54,1.54v1.71a1.541,1.541,0,0,1-1.54,1.54h-16.04a1.541,1.541,0,0,1-1.54-1.54v-1.71A1.54,1.54,0,0,1,1008.26,3684.27Z" fill="#fff"/><circle cx="3.82" cy="3.82" r="3.82" transform="translate(995.26 3682.84)" fill="#fff"/></g></g></svg>