<svg xmlns="http://www.w3.org/2000/svg" width="70" height="70" viewBox="0 0 70 70"><path d="M35,0A35,35,0,1,0,70,35,35,35,0,0,0,35,0Z" fill="#8d5fd6"/><path d="M53.14,25.39a1.2,1.2,0,0,0-.11-.59,1.153,1.153,0,0,0-1.54-.53l-12.2,6.65V25.39a1.32,1.32,0,0,0-.11-.59,1.153,1.153,0,0,0-1.54-.53l-12.2,6.65V16.83a1.007,1.007,0,0,0-1.01-1.01H18.89a1.007,1.007,0,0,0-1.01,1.01V50.68h0a1.007,1.007,0,0,0,1.01,1.01H52.02a1.211,1.211,0,0,0,1.15-1.25ZM27.91,42.89a1.229,1.229,0,0,1-1.23,1.23H24.13a1.229,1.229,0,0,1-1.23-1.23V40.36a1.229,1.229,0,0,1,1.23-1.23h2.55a1.229,1.229,0,0,1,1.23,1.23Zm10.08,0a1.229,1.229,0,0,1-1.23,1.23H34.21a1.229,1.229,0,0,1-1.23-1.23V40.36a1.229,1.229,0,0,1,1.23-1.23h2.55a1.229,1.229,0,0,1,1.23,1.23Zm10.07,0a1.229,1.229,0,0,1-1.23,1.23H44.28a1.229,1.229,0,0,1-1.23-1.23V40.36a1.229,1.229,0,0,1,1.23-1.23h2.55a1.229,1.229,0,0,1,1.23,1.23Z" fill="#fff"/></svg>