<svg xmlns="http://www.w3.org/2000/svg" width="72" height="72" viewBox="0 0 72 72"><circle cx="36" cy="36" r="36" fill="#00b2ff"/><g transform="translate(13.082 16.349)"><g transform="translate(0 0)"><path d="M278.881,3559.328a7.277,7.277,0,0,0-7.277-7.277H240.369a7.31,7.31,0,0,0-7.28,7.3V3582.1a7.31,7.31,0,0,0,7.28,7.3h19.521a11.34,11.34,0,0,1,7.81,3.051l4.433,4.113a3.79,3.79,0,0,0,2.714,1.062,4.015,4.015,0,0,0,4.036-4.047Zm-4.546,32.643-3.427-3.162a15.973,15.973,0,0,0-10.938-4.281H240.607a2.654,2.654,0,0,1-2.645-2.646v-22.637a2.654,2.654,0,0,1,2.645-2.647h31.081a2.654,2.654,0,0,1,2.647,2.647Z" transform="translate(-233.089 -3552.051)" fill="#fff"/><path d="M5.448,0A5.54,5.54,0,0,0,.023,4.431a.9.9,0,0,0,.926,1.06h9.064a.939.939,0,0,0,.926-1.06A5.725,5.725,0,0,0,5.448,0Z" transform="translate(28.42 25.334) rotate(180)" fill="#fff"/><ellipse cx="2.448" cy="2.448" rx="2.448" ry="2.448" transform="translate(31.324 13.295)" fill="#fff"/><ellipse cx="2.448" cy="2.448" rx="2.448" ry="2.448" transform="translate(9.624 13.295)" fill="#fff"/></g></g></svg>