<svg xmlns="http://www.w3.org/2000/svg" width="72" height="72" viewBox="0 0 72 72"><circle cx="36" cy="36" r="36" fill="#00b2ff"/><path d="M25.208-369.85H-4.161a3.682,3.682,0,0,0-3.671,3.671v18.355a3.682,3.682,0,0,0,3.671,3.671H25.208a3.682,3.682,0,0,0,3.671-3.671v-18.355A3.682,3.682,0,0,0,25.208-369.85Zm-.586,7.113L11.414-355.4a1.824,1.824,0,0,1-.89.231,1.836,1.836,0,0,1-.892-.231l-13.209-7.342a1.836,1.836,0,0,1-.714-2.5,1.834,1.834,0,0,1,2.5-.712L10.523-359.1l12.318-6.845a1.833,1.833,0,0,1,2.495.712A1.835,1.835,0,0,1,24.622-362.737Z" transform="translate(25.477 393.001)" fill="#fff"/></svg>