<svg xmlns="http://www.w3.org/2000/svg" width="69.92" height="69.92" viewBox="0 0 69.92 69.92"><g transform="translate(-193 -30)"><circle cx="34.96" cy="34.96" r="34.96" transform="translate(193 30)" fill="#f46e33"/></g><g transform="translate(1379.91 -1603.555)"><path d="M-1327.07,1657.52l-3.34-3.09a15.589,15.589,0,0,0-10.67-4.18h-18.89a2.593,2.593,0,0,1-2.58-2.58v-22.08a2.586,2.586,0,0,1,2.58-2.58h30.32a2.586,2.586,0,0,1,2.58,2.58" fill="#fff"/><circle cx="2.39" cy="2.39" r="2.39" transform="translate(-1337.71 1634)" fill="#f46e33"/><circle cx="2.39" cy="2.39" r="2.39" transform="translate(-1347.22 1634)" fill="#f46e33"/><circle cx="2.39" cy="2.39" r="2.39" transform="translate(-1356.95 1634)" fill="#f46e33"/></g></svg>