<svg xmlns="http://www.w3.org/2000/svg" width="55" height="55" viewBox="0 0 55 55"><g transform="translate(23)"><g transform="translate(-23)"><path d="M27.5,0A27.5,27.5,0,1,0,55,27.5,27.5,27.5,0,0,0,27.5,0Z" fill="#00b2ff"/></g></g><path d="M28.02,13.78A13.868,13.868,0,0,0,16.03,34.62a1.522,1.522,0,0,0,1.32.73H38.68A1.522,1.522,0,0,0,40,34.62,13.868,13.868,0,0,0,28.02,13.78Zm0,3.09a1.521,1.521,0,0,1,1.46,1.14,3.239,3.239,0,0,0-.17.32l-.44,1.33a1.5,1.5,0,0,1-.85.29,1.54,1.54,0,0,1,0-3.08ZM18.78,30.73a1.54,1.54,0,1,1,1.54-1.54A1.541,1.541,0,0,1,18.78,30.73Zm2.31-7.7a1.54,1.54,0,1,1,1.54-1.54A1.541,1.541,0,0,1,21.09,23.03Zm11.88-3.49L30.02,28.4a3.064,3.064,0,0,1,1.09,2.33,3,3,0,0,1-.43,1.54H25.37a3.124,3.124,0,0,1-.43-1.54,3.074,3.074,0,0,1,2.88-3.06l2.95-8.86a1.159,1.159,0,0,1,2.2.73Zm.71,2.76.75-2.24a1.567,1.567,0,0,1,.53-.11,1.54,1.54,0,1,1,0,3.08,1.509,1.509,0,0,1-1.28-.73Zm3.59,8.43a1.54,1.54,0,1,1,1.54-1.54A1.541,1.541,0,0,1,37.27,30.73Z" fill="#fff"/></svg>