<svg xmlns="http://www.w3.org/2000/svg" width="72" height="72" viewBox="0 0 72 72"><circle cx="36" cy="36" r="36" fill="#ff8500"/><path d="M14.962-381.909A14.949,14.949,0,0,0,.013-366.96,14.952,14.952,0,0,0,14.962-352.01,14.949,14.949,0,0,0,29.912-366.96,14.947,14.947,0,0,0,14.962-381.909Zm2.365,23.283a1.882,1.882,0,0,1-1.881,1.885h-.965a1.885,1.885,0,0,1-1.885-1.885v-.965a1.882,1.882,0,0,1,1.885-1.881h.965a1.878,1.878,0,0,1,1.881,1.881Zm0-8.515a1.882,1.882,0,0,1-1.881,1.885h-.965a1.885,1.885,0,0,1-1.885-1.885V-375.3a1.882,1.882,0,0,1,1.885-1.881h.965a1.879,1.879,0,0,1,1.881,1.881Z" transform="translate(20.987 402.909)" fill="#fff"/></svg>