<svg xmlns="http://www.w3.org/2000/svg" width="84.811" height="136.584" viewBox="0 0 84.811 136.584"><path d="M211.536,54.688l10.564,9.6-.019.164c7.013,4.684,15.357,16.614,16.946,19.932l.055.115c-1-13.962-5.006-26.35-9.094-34.213l-7.746-6.662a8.047,8.047,0,0,0-11.287.8h0A7.332,7.332,0,0,0,211.536,54.688Z" transform="translate(-179.232 -30.568)" fill="#e8c842"/><path d="M226.466,60.493l-10.555-9.685a7.321,7.321,0,0,1-2.357-6.2,8.014,8.014,0,0,0-2.6,1.963h0a7.331,7.331,0,0,0,.58,10.259l10.564,9.6-.019.164c7.013,4.684,15.357,16.614,16.946,19.932l.055.115a97.855,97.855,0,0,0-2.54-16.158C233.469,66.644,229.817,62.732,226.466,60.493Z" transform="translate(-179.233 -32.705)" fill="#dbbc3b"/><path d="M180.265,57.076S176.184,23.123,157.3,2.813a8.8,8.8,0,0,0-11.685-1.081h0a8.264,8.264,0,0,0-2.031,11.1,84.86,84.86,0,0,1,12.85,37.32c.076,1.788-.819.36-.819.36l0,0c-7.643-11.848-16.326-17.925-21.757-20.18a7.04,7.04,0,0,0-3.83-.432c-4.595.745-17.267,2.93-23.682,9.345-8.078,8.078-.441,15.281,5.292,15.281,3.789,0,10.275-2.568,14.238-4.31a4.963,4.963,0,0,1,5.835,1.4l7.4,9.032a7.329,7.329,0,0,1,1.655,4.386l.57,16.109a4.376,4.376,0,0,1-1.492,3.448l-5.761,5.041a6.649,6.649,0,0,1-8.589.868c-1.167-1.022-4.442-2.166-5.189-6.068a125.549,125.549,0,0,0-4.177-16.12c-2.663-6.135-7.839-10.089-14.306-7.692C92.176,64.2,99.929,70,100.992,94.029a14.637,14.637,0,0,0,3.705,9.123c4.735,5.308,8.3,10.449,15.789,20.427a17.184,17.184,0,0,1,1.913,3.262h0a8.623,8.623,0,0,1,.747,3.662,6.081,6.081,0,0,0,6.081,6.081h35.232a5.661,5.661,0,0,0,5.661-5.661c.327-13.316-.9-16.443,1.515-20.991a48.84,48.84,0,0,0,3.371-8.2c.894-2.827,2.067-5.833,3.229-9.14A64.58,64.58,0,0,0,180.265,57.076Z" transform="translate(-97.039 0)" fill="#f4d44e"/><g transform="translate(0 0.001)"><path d="M131.449,295.2a9.006,9.006,0,0,0-.78-3.825h0a17.954,17.954,0,0,0-2-3.406c-7.824-10.42-11.544-15.788-16.489-21.332a15.285,15.285,0,0,1-3.869-9.527c-.908-20.512-6.479-28.3-2.988-32.5a10.878,10.878,0,0,0-3.507.706c-9.641,3.573-1.889,9.374-.826,33.405a14.637,14.637,0,0,0,3.705,9.123c4.735,5.308,8.3,10.449,15.789,20.427a17.185,17.185,0,0,1,1.913,3.262h0a8.623,8.623,0,0,1,.747,3.662,6.081,6.081,0,0,0,6.081,6.081h6.706A6.355,6.355,0,0,1,131.449,295.2Z" transform="translate(-97.039 -164.694)" fill="#e8c842"/><path d="M165.772,154.23a7.655,7.655,0,0,0-1.728-4.58l-7.727-9.432a5.183,5.183,0,0,0-6.094-1.464c-4.138,1.819-10.912,4.5-14.868,4.5-7.033,0-14.662-9.193-3.555-17.67a27.639,27.639,0,0,0-9.529,5.745c-8.078,8.078-.441,15.281,5.292,15.281,3.789,0,10.275-2.568,14.238-4.31a4.963,4.963,0,0,1,5.835,1.4l7.4,9.032a7.329,7.329,0,0,1,1.655,4.386c.547,16.735.808,16.686.17,18.087-.542,1.18-.9,1.288-6.319,6.044h0a7.564,7.564,0,0,1-4.88,2.5v0a16.521,16.521,0,0,0,11.483-2.569c.733-.406-.041.229,7.666-6.531a4.569,4.569,0,0,0,1.557-3.6Z" transform="translate(-112.968 -92.084)" fill="#e8c842"/><path d="M290.014,42.353a88.615,88.615,0,0,0-12.9-34.719,8.614,8.614,0,0,1-.864-7.561,8.76,8.76,0,0,0-6.313,1.662h0a8.264,8.264,0,0,0-2.031,11.1,84.993,84.993,0,0,1,12.85,37.32,1.372,1.372,0,0,1-.118.84C291.2,51,290.014,42.353,290.014,42.353Z" transform="translate(-221.366 -0.006)" fill="#e8c842"/></g></svg>