<svg xmlns="http://www.w3.org/2000/svg" width="55" height="55" viewBox="0 0 55 55"><g transform="translate(23)"><g transform="translate(-23)"><path d="M27.5,0A27.5,27.5,0,1,0,55,27.5,27.5,27.5,0,0,0,27.5,0Z" fill="#8d5fd6"/><path d="M21.44,31.81H41.6a.845.845,0,0,0,.84-.84V17.53a.845.845,0,0,0-.84-.84H34.04v6.72l-2.52-1.68L29,23.41V16.69H21.44a.845.845,0,0,0-.84.84V30.97A.845.845,0,0,0,21.44,31.81Zm21.85,3.36H17.24V15.85a.845.845,0,0,0-.84-.84H11.36a.845.845,0,0,0-.84.84v1.68a.845.845,0,0,0,.84.84h2.52V37.69a.845.845,0,0,0,.84.84h4.35a2.6,2.6,0,0,0-.15.84,2.52,2.52,0,1,0,5.04,0,2.6,2.6,0,0,0-.15-.84H34.2a2.6,2.6,0,0,0-.15.84,2.52,2.52,0,0,0,5.04,0,2.6,2.6,0,0,0-.15-.84h4.35a.845.845,0,0,0,.84-.84V36.01A.845.845,0,0,0,43.29,35.17Z" fill="#fff"/></g></g></svg>