<svg xmlns="http://www.w3.org/2000/svg" width="55" height="55" viewBox="0 0 55 55"><path d="M27.5,0A27.5,27.5,0,1,0,55,27.5,27.5,27.5,0,0,0,27.5,0Z" fill="#f46e33"/><path d="M19.59,27.5H35.41a.717.717,0,0,0,.72-.72V16.71a.717.717,0,0,0-.72-.72H30.38v5.75L27.5,20.3l-2.88,1.44V16H19.59a.717.717,0,0,0-.72.72V26.79A.721.721,0,0,0,19.59,27.5Zm21.57,5.75a.717.717,0,0,0,.72-.72V31.1a.717.717,0,0,0-.72-.72H13.84a.717.717,0,0,0-.72.72v1.44a.717.717,0,0,0,.72.72H16v2.88H13.84a.717.717,0,0,0-.72.72V38.3a.717.717,0,0,0,.72.72H41.16a.717.717,0,0,0,.72-.72V36.86a.717.717,0,0,0-.72-.72H39V33.26h2.16Zm-15.1,2.88H18.87V33.25h7.19Zm10.07,0H28.94V33.25h7.19Z" fill="#fff"/></svg>