<svg xmlns="http://www.w3.org/2000/svg" width="55" height="55" viewBox="0 0 55 55"><g transform="translate(-513 -1807)"><circle cx="27.5" cy="27.5" r="27.5" transform="translate(513 1807)" fill="#00c389"/></g><path d="M42.14,28.74a1.807,1.807,0,0,1-1.81,1.73H37.25v.89a7.881,7.881,0,0,1-.76,3.4l3.35,3.35a1.775,1.775,0,0,1-2.51,2.51l-3.04-3.04a7.955,7.955,0,0,1-5.04,1.78V25.8a.67.67,0,0,0-.67-.67H27.25a.67.67,0,0,0-.67.67V39.36a8.013,8.013,0,0,1-5.04-1.78L18.5,40.62a1.775,1.775,0,0,1-2.51-2.51l3.35-3.35a8.028,8.028,0,0,1-.76-3.4v-.89H15.5a1.78,1.78,0,1,1-.03-3.56h3.11V23.65l-2.59-2.59a1.775,1.775,0,0,1,2.51-2.51l3.04,3.04H34.29l3.04-3.04a1.775,1.775,0,1,1,2.51,2.51l-2.59,2.59v3.26h3.11A1.776,1.776,0,0,1,42.14,28.74ZM27.97,12.68a6.22,6.22,0,0,0-6.22,6.22H34.2A6.235,6.235,0,0,0,27.97,12.68Z" fill="#fff"/></svg>