<svg xmlns="http://www.w3.org/2000/svg" width="70" height="70" viewBox="0 0 70 70"><path d="M35,0A35,35,0,1,0,70,35,35,35,0,0,0,35,0Z" fill="#f46e33"/><path d="M36.65,51.17a1.62,1.62,0,0,1-1.62,1.62H18.77a1.626,1.626,0,0,1-1.62-1.62v-4.3h8.74a1.007,1.007,0,0,0,1.01-1.01v-.49a1.007,1.007,0,0,0-1.01-1.01H17.15V41.85h8.74a1.007,1.007,0,0,0,1.01-1.01v-.49a1.007,1.007,0,0,0-1.01-1.01H17.15V36.83h8.74a1.007,1.007,0,0,0,1.01-1.01v-.49a1.007,1.007,0,0,0-1.01-1.01H17.15V31.81h8.74A1.007,1.007,0,0,0,26.9,30.8v-.49a1.007,1.007,0,0,0-1.01-1.01H17.15V26.8H36.64V51.17Zm2.02-28.49a1.626,1.626,0,0,1-1.62,1.62H16.75a1.626,1.626,0,0,1-1.62-1.62h0V19.41a1.62,1.62,0,0,1,1.62-1.62H37.04a1.626,1.626,0,0,1,1.62,1.62h0v3.27Zm6.75,20.37a4.923,4.923,0,0,1-4.87-4.25h9.74a4.94,4.94,0,0,1-4.87,4.25Zm-4.88-5.62a4.917,4.917,0,0,1,9.75,0Zm7.87-5.57a4.933,4.933,0,0,1-.44-6.45l6.89,6.89a4.911,4.911,0,0,1-6.45-.44Zm7.42-.52-6.89-6.89a4.915,4.915,0,0,1,6.89,6.89Z" fill="#fff"/></svg>