<svg xmlns="http://www.w3.org/2000/svg" width="82.534" height="136.766" viewBox="0 0 82.534 136.766"><path d="M172.443,68.131l-.023-59.09A8.968,8.968,0,0,0,164.1.035a8.864,8.864,0,0,0-9.41,8.846v43.2a8.9,8.9,0,0,0-8.874-8.874h0a8.9,8.9,0,0,0-8.874,8.874v.855a8.9,8.9,0,0,0-8.874-8.874h0a8.9,8.9,0,0,0-8.874,8.874v.345a8.9,8.9,0,0,0-8.806-7.794h0a8.9,8.9,0,0,0-8.874,8.874v40.49c.173,1.179-1.272,11.73,6.57,22.2a15.921,15.921,0,0,1,3.116,9.552v2.628a7.54,7.54,0,0,0,7.54,7.54H160.4a7.484,7.484,0,0,0,7.484-7.484v-4.005a7.227,7.227,0,0,1,2.64-5.573,30.292,30.292,0,0,0,10.792-17.6A147.9,147.9,0,0,0,184,83.159,14.2,14.2,0,0,0,172.443,68.131Z" transform="translate(-101.512 -0.013)" fill="#f4d44e"/><path d="M119.533,254v-2.628a15.921,15.921,0,0,0-3.116-9.552c-7.842-10.474-6.4-21.025-6.57-22.2v-40.49a8.9,8.9,0,0,1,4.709-7.827,8.786,8.786,0,0,0-4.163-1.047,8.9,8.9,0,0,0-8.874,8.874v40.49c.173,1.179-1.271,11.73,6.57,22.2,3.384,4.52,3.116,8.825,3.116,12.18a7.54,7.54,0,0,0,7.54,7.54h8.329A7.54,7.54,0,0,1,119.533,254Z" transform="translate(-101.513 -124.773)" fill="#e8c842"/><g transform="translate(0.005 43.197)"><path d="M176.592,164.914h0a8.9,8.9,0,0,0-8.875,8.874V197.1a8.9,8.9,0,0,0,8.874,8.874h0a8.9,8.9,0,0,0,8.874-8.874v-23.31A8.9,8.9,0,0,0,176.592,164.914Z" transform="translate(-150.037 -164.059)" fill="#f4d44e"/><path d="M110.4,170.251h0a8.9,8.9,0,0,0-8.874,8.874V201.01a8.9,8.9,0,0,0,8.874,8.874h0a8.9,8.9,0,0,0,8.874-8.874V179.125A8.9,8.9,0,0,0,110.4,170.251Z" transform="translate(-101.53 -167.97)" fill="#f4d44e"/><path d="M244.775,199.026c-5.688-3.119-9.044-8.47-6.154-14.5,2.55-5.32,5.418-4.936,13.29-2.181V170.586a8.874,8.874,0,0,0-17.749,0v24.166a8.879,8.879,0,0,0,15.03,6.374C246.62,200.021,245.043,199.173,244.775,199.026Z" transform="translate(-198.734 -161.712)" fill="#f4d44e"/></g><g transform="translate(0.005 0)"><path d="M176.111,197.1v-23.31a8.9,8.9,0,0,1,4.678-7.812,8.888,8.888,0,0,0-13.071,7.812V197.1a8.863,8.863,0,0,0,13.071,7.812A8.9,8.9,0,0,1,176.111,197.1Z" transform="translate(-150.037 -120.859)" fill="#dbbc3b"/><path d="M109.923,201V179.113A8.9,8.9,0,0,1,114.6,171.3a8.885,8.885,0,0,0-13.071,7.812V201a8.884,8.884,0,0,0,13.071,7.812A8.9,8.9,0,0,1,109.923,201Z" transform="translate(-101.53 -124.761)" fill="#dbbc3b"/><path d="M243.2,198.054c-4.7-3.194-7.2-8.089-4.583-13.541,1.118-2.334,2.3-3.569,3.935-3.989v-9.949a8.9,8.9,0,0,1,4.678-7.812,8.885,8.885,0,0,0-13.071,7.812V194.74a8.882,8.882,0,0,0,13.069,7.81A8.962,8.962,0,0,1,243.2,198.054Z" transform="translate(-198.733 -118.503)" fill="#dbbc3b"/><path d="M309.424,9.05a9.125,9.125,0,0,1,4.421-7.83,8.854,8.854,0,0,0-13.306,7.648v43.2c0-.21-.01-.417-.024-.623V63.829c2.466.814,5.388,1.766,8.887,2.619C309.4,66.419,309.424,9.022,309.424,9.05Z" transform="translate(-247.362 0)" fill="#dbbc3b"/></g><path d="M260.557,244.313c-6.2-3.205-9.954-8.625-7.271-14.773-2.129.252-3.737,1.494-5.2,4.36-3.268,6.424.527,12.122,6.957,15.444a87.939,87.939,0,0,0,17.96,6.417l.431-.832a4.553,4.553,0,0,0-2.548-6.411A78.488,78.488,0,0,1,260.557,244.313Z" transform="translate(-208.059 -168.225)" fill="#e8c842"/></svg>