<svg xmlns="http://www.w3.org/2000/svg" width="78.899" height="86.655" viewBox="0 0 78.899 86.655"><path d="M39.356,67.222,58.374,34.28H20.62Z" transform="translate(0.088 0.152)" fill="none" stroke="#4d4d4d" stroke-linecap="round" stroke-linejoin="round" stroke-miterlimit="10" stroke-width="3"/><path d="M58.288,34.432,77.225,23.059,39.27,1.5Z" transform="translate(0.175 0)" fill="none" stroke="#4d4d4d" stroke-linecap="round" stroke-linejoin="round" stroke-miterlimit="10" stroke-width="3"/><path d="M76.012,63,77.137,22.96,58.2,34.332Z" transform="translate(0.262 0.099)" fill="none" stroke="#4d4d4d" stroke-linecap="round" stroke-linejoin="round" stroke-miterlimit="10" stroke-width="3"/><path d="M20.437,34.432,1.5,23.059,39.445,1.5Z" transform="translate(0 0)" fill="none" stroke="#4d4d4d" stroke-linecap="round" stroke-linejoin="round" stroke-miterlimit="10" stroke-width="3"/><path d="M2.625,63,1.5,22.96,20.437,34.332Z" transform="translate(0 0.099)" fill="none" stroke="#4d4d4d" stroke-linecap="round" stroke-linejoin="round" stroke-miterlimit="10" stroke-width="3"/><path d="M39.358,1.5,20.35,34.432H58.375Z" transform="translate(0.087 0)" fill="none" stroke="#4d4d4d" stroke-linecap="round" stroke-linejoin="round" stroke-miterlimit="10" stroke-width="3"/><path d="M58.288,34.28,39.27,67.222l36.83-4.27Z" transform="translate(0.175 0.152)" fill="none" stroke="#4d4d4d" stroke-linecap="round" stroke-linejoin="round" stroke-miterlimit="10" stroke-width="3"/><path d="M20.7,34.28,39.44,67.222,2.62,62.952Z" transform="translate(0.005 0.152)" fill="none" stroke="#4d4d4d" stroke-linecap="round" stroke-linejoin="round" stroke-miterlimit="10" stroke-width="3"/><path d="M39.44,67.09,2.62,62.82,39.53,84.872Z" transform="translate(0.005 0.284)" fill="none" stroke="#4d4d4d" stroke-linecap="round" stroke-linejoin="round" stroke-miterlimit="10" stroke-width="3"/><path d="M76.1,62.82,39.27,67.09l.09,17.782Z" transform="translate(0.175 0.284)" fill="none" stroke="#4d4d4d" stroke-linecap="round" stroke-linejoin="round" stroke-miterlimit="10" stroke-width="3"/></svg>