<svg xmlns="http://www.w3.org/2000/svg" width="55" height="55" viewBox="0 0 55 55"><g transform="translate(-193 -30)"><circle cx="27.5" cy="27.5" r="27.5" transform="translate(193 30)" fill="#00b2ff"/></g><path d="M32.79,28.66a2.43,2.43,0,0,1-2.07-1.17l-3.21-5.33L24.3,27.49a2.426,2.426,0,0,1-2.73,1.08l-6.85-1.96v8.9a1.6,1.6,0,0,0,1.21,1.55l10.81,2.7a3.382,3.382,0,0,0,1.55,0l10.82-2.7a1.6,1.6,0,0,0,1.21-1.55v-8.9l-6.85,1.95A2.334,2.334,0,0,1,32.79,28.66Zm10.63-5.61-2.57-5.14a.8.8,0,0,0-.83-.44l-12.5,1.59,4.58,7.6a.822.822,0,0,0,.92.36l9.89-2.82a.823.823,0,0,0,.51-1.15ZM14.16,17.91l-2.57,5.14a.813.813,0,0,0,.5,1.15l9.89,2.82a.822.822,0,0,0,.92-.36l4.59-7.6L14.98,17.47A.815.815,0,0,0,14.16,17.91Z" fill="#fff"/></svg>