<svg xmlns="http://www.w3.org/2000/svg" width="70" height="70" viewBox="0 0 70 70"><path d="M35,0A35,35,0,1,0,70,35,35,35,0,0,0,35,0Z" fill="#00b2ff"/><path d="M52.99,42.4,51.13,31.24a2.233,2.233,0,0,0-2.2-1.86H31.84V24.91h6.7a1.125,1.125,0,0,0,1.12-1.12v-6.7a1.125,1.125,0,0,0-1.12-1.12H20.68a1.125,1.125,0,0,0-1.12,1.12v6.7a1.125,1.125,0,0,0,1.12,1.12h6.7v4.47H21.46a2.233,2.233,0,0,0-2.2,1.86L17.38,42.4a4.493,4.493,0,0,0-.06.73v6.33a2.232,2.232,0,0,0,2.23,2.23H50.81a2.232,2.232,0,0,0,2.23-2.23V43.13A3.636,3.636,0,0,0,52.99,42.4ZM36.86,33.28a1.125,1.125,0,0,1,1.12-1.12H39.1a1.125,1.125,0,0,1,1.12,1.12V34.4a1.125,1.125,0,0,1-1.12,1.12H37.98a1.125,1.125,0,0,1-1.12-1.12Zm-2.23,4.46h1.12a1.125,1.125,0,0,1,1.12,1.12v1.12a1.125,1.125,0,0,1-1.12,1.12H34.63a1.125,1.125,0,0,1-1.12-1.12V38.86A1.131,1.131,0,0,1,34.63,37.74ZM32.4,32.16a1.125,1.125,0,0,1,1.12,1.12V34.4a1.125,1.125,0,0,1-1.12,1.12H31.28a1.125,1.125,0,0,1-1.12-1.12V33.28a1.125,1.125,0,0,1,1.12-1.12Zm-9.49-10.6V19.33h13.4v2.23ZM25.7,35.51H24.58a1.125,1.125,0,0,1-1.12-1.12V33.27a1.125,1.125,0,0,1,1.12-1.12H25.7a1.125,1.125,0,0,1,1.12,1.12v1.12A1.125,1.125,0,0,1,25.7,35.51Zm1.12,4.47V38.86a1.125,1.125,0,0,1,1.12-1.12h1.12a1.125,1.125,0,0,1,1.12,1.12v1.12a1.125,1.125,0,0,1-1.12,1.12H27.94A1.131,1.131,0,0,1,26.82,39.98Zm15.07,7.81a.559.559,0,0,1-.56.56H29.05a.559.559,0,0,1-.56-.56V46.67a.559.559,0,0,1,.56-.56H41.33a.559.559,0,0,1,.56.56Zm1.67-7.81a1.125,1.125,0,0,1-1.12,1.12H41.32a1.125,1.125,0,0,1-1.12-1.12V38.86a1.125,1.125,0,0,1,1.12-1.12h1.12a1.125,1.125,0,0,1,1.12,1.12Zm3.35-5.59a1.125,1.125,0,0,1-1.12,1.12H44.67a1.125,1.125,0,0,1-1.12-1.12V33.27a1.125,1.125,0,0,1,1.12-1.12h1.12a1.125,1.125,0,0,1,1.12,1.12Z" fill="#fff"/></svg>