<svg xmlns="http://www.w3.org/2000/svg" width="55" height="55" viewBox="0 0 55 55"><g transform="translate(-193 -30)"><circle cx="27.5" cy="27.5" r="27.5" transform="translate(193 30)" fill="#f46e33"/></g><path d="M27.5,13.71A13.79,13.79,0,1,0,41.29,27.5,13.785,13.785,0,0,0,27.5,13.71Zm9.66,6.65-3.53,3.53a7.239,7.239,0,0,0-2.52-2.52l3.53-3.53A12.041,12.041,0,0,1,37.16,20.36ZM27.5,32.84a5.34,5.34,0,1,1,5.34-5.34A5.339,5.339,0,0,1,27.5,32.84Zm-7.14-15,3.53,3.53a7.239,7.239,0,0,0-2.52,2.52l-3.53-3.53A12.041,12.041,0,0,1,20.36,17.84Zm-2.52,16.8,3.53-3.53a7.239,7.239,0,0,0,2.52,2.52l-3.53,3.53A12.041,12.041,0,0,1,17.84,34.64Zm16.8,2.52-3.53-3.53a7.239,7.239,0,0,0,2.52-2.52l3.53,3.53A12.041,12.041,0,0,1,34.64,37.16Z" fill="#fff"/></svg>