<svg xmlns="http://www.w3.org/2000/svg" width="55" height="55" viewBox="0 0 55 55"><path d="M27.5,0A27.5,27.5,0,1,0,55,27.5,27.5,27.5,0,0,0,27.5,0Z" fill="#00c389"/><path d="M41.69,20.61l-3.13-5a1.543,1.543,0,0,0-1.31-.72H17.75a1.567,1.567,0,0,0-1.31.72l-3.13,5a4.3,4.3,0,0,0,2.84,6.58,4.872,4.872,0,0,0,.66.04,4.764,4.764,0,0,0,3.56-1.6,4.76,4.76,0,0,0,7.12,0,4.76,4.76,0,0,0,7.12,0,4.844,4.844,0,0,0,4.22,1.56A4.3,4.3,0,0,0,41.69,20.61Zm-3.5,8.17a6.138,6.138,0,0,1-1.42-.18v4.82H18.23V28.6a6.138,6.138,0,0,1-1.42.18,6.36,6.36,0,0,1-.87-.06,6.5,6.5,0,0,1-.79-.17v9.5a1.541,1.541,0,0,0,1.54,1.54H38.31a1.541,1.541,0,0,0,1.54-1.54v-9.5a4.279,4.279,0,0,1-.79.17,6.36,6.36,0,0,1-.87.06Z" fill="#fff"/></svg>