<svg xmlns="http://www.w3.org/2000/svg" width="123.123" height="136.766" viewBox="0 0 123.123 136.766"><path d="M144.974,71.083a32.881,32.881,0,0,0-24.458,8.283c-19.362-3.948-40.668-.4-55.813,12.687,2.424-15.944,1.872-42.894,1.872-42.894a8.646,8.646,0,0,1,4.292-6.882c9.095-5.384,10.013-9.193,15.822-11.115,6.156-2.037,11.617-4.02,12.433-6.42.978-2.874-.059-5.991-3.246-6.44a27.985,27.985,0,0,0-6.265.229l.3-.628c2.585-5.122,4.739-7.084,4.739-11.1h0c0-8.417-13.422-6.645-32.025-6.645-14.837,0-15.294,21.276-14.871,29.889a9.707,9.707,0,0,1-1.558,5.768c-3.624,5.6-.847,9.935-5.328,17.691C19.192,91.02,25.629,113.692,29.659,122.04a14.4,14.4,0,0,0,6.931,6.8,35.293,35.293,0,0,0,21.522,2.37c.076.34,33.536,11.074,86.028,1.769a6.386,6.386,0,0,0,4.52-6.031V75.09A4.009,4.009,0,0,0,144.974,71.083Z" transform="translate(-25.537 -0.001)" fill="#f4d44e"/><path d="M50.484,128.842a14.4,14.4,0,0,1-6.931-6.8c-4.03-8.348-10.468-31.02,11.206-68.536,4.481-7.757,1.7-12.1,5.328-17.691a9.711,9.711,0,0,0,1.558-5.768C61.222,21.433,61.679.157,76.516.157c2.133,0,4.2-.023,6.181-.052C77.324-.155,70.43.157,62.623.157c-14.837,0-15.294,21.276-14.871,29.889a9.707,9.707,0,0,1-1.558,5.768c-3.624,5.6-.847,9.935-5.328,17.691-21.674,37.516-15.236,60.188-11.206,68.536a14.4,14.4,0,0,0,6.931,6.8,35.46,35.46,0,0,0,21.381,2.407A33.037,33.037,0,0,1,50.484,128.842Z" transform="translate(-25.537 -0.001)" fill="#e8c842"/><path d="M188.376,37.191l-.113.346c-2.084,6.4,5.62,10.921,12.87,7.772l7.518-3.266-.036,0,.3-.627c1.114-2.208,2.148-3.828,2.965-5.28l-12.389,5.381a7.522,7.522,0,0,1-5.8.168,2.344,2.344,0,0,1-1.5-2.873l.113-.346c.614-1.886,3.068-1.613,8.214-2.264a2.065,2.065,0,1,0-.462-4.1l-5.538.624C191.482,33.035,189.187,34.7,188.376,37.191Z" transform="translate(-144.542 -23.518)" fill="#dbbc3b"/></svg>