<svg xmlns="http://www.w3.org/2000/svg" width="55" height="55" viewBox="0 0 55 55"><path d="M27.5,0A27.5,27.5,0,1,0,55,27.5,27.5,27.5,0,0,0,27.5,0Z" fill="#fd2f58"/><path d="M37.82,14.26a5.3,5.3,0,1,0,5.3,5.3A5.309,5.309,0,0,0,37.82,14.26Zm0,7.06a1.77,1.77,0,1,1,1.77-1.77A1.767,1.767,0,0,1,37.82,21.32Zm-8.83-.88a6.18,6.18,0,1,0-12.36,0v9.19a7.862,7.862,0,0,0-1.77,4.94,7.95,7.95,0,1,0,15.9,0,7.862,7.862,0,0,0-1.77-4.94V20.44ZM22.81,38.99a4.428,4.428,0,0,1-4.42-4.42,4.381,4.381,0,0,1,1.77-3.52V20.44a2.65,2.65,0,1,1,5.3,0V31.05a4.408,4.408,0,0,1-2.65,7.94Zm.88-6.91V20.44a.88.88,0,0,0-1.76,0V32.08a2.65,2.65,0,1,0,1.76,0Z" fill="#fff"/></svg>