<svg xmlns="http://www.w3.org/2000/svg" width="55" height="55" viewBox="0 0 55 55"><path d="M27.5,0A27.5,27.5,0,1,0,55,27.5,27.5,27.5,0,0,0,27.5,0Z" fill="#f46e33"/><path d="M40.41,34.91l-6.17-6.17a3.91,3.91,0,0,0-4.5-.73l-5.62-5.62V19.12l-6.74-5.06-3.37,3.37,5.06,6.74h3.27l5.62,5.62a3.928,3.928,0,0,0,.73,4.5l6.17,6.17a1.962,1.962,0,0,0,2.78,0l2.78-2.78a1.959,1.959,0,0,0-.01-2.77Zm-8.92-8.99a5.577,5.577,0,0,1,3.95,1.63l1.02,1.02a7.492,7.492,0,0,0,4.31-8.75.632.632,0,0,0-1.06-.29l-3.92,3.92-3.58-.6-.6-3.58,3.92-3.92a.631.631,0,0,0-.3-1.06,7.585,7.585,0,0,0-7.2,2,7.454,7.454,0,0,0-2.17,5.46l4.33,4.33a5.258,5.258,0,0,1,1.3-.16Zm-5.47,4.32-2.99-2.99L15,35.29a3.373,3.373,0,0,0,4.77,4.77l6.51-6.51a5.676,5.676,0,0,1-.26-3.31Zm-8.63,8.69a1.26,1.26,0,1,1,1.26-1.26A1.261,1.261,0,0,1,17.39,38.93Z" fill="#fff"/></svg>