<svg xmlns="http://www.w3.org/2000/svg" width="55.18" height="55.18" viewBox="0 0 55.18 55.18"><g transform="translate(-513 -1807)"><circle cx="27.59" cy="27.59" r="27.59" transform="translate(513 1807)" fill="#f46e33"/></g><path d="M43.38,23.06l-2.9-2.9a2.068,2.068,0,0,0-1.45-.6H35.78V14.44a3.071,3.071,0,0,0-3.07-3.07H22.46a3.071,3.071,0,0,0-3.07,3.07v5.12H16.14a2.086,2.086,0,0,0-1.45.6l-2.9,2.9a2.068,2.068,0,0,0-.6,1.45v5.3h8.2V28.79a1.018,1.018,0,0,1,1.02-1.02h2.05a1.018,1.018,0,0,1,1.02,1.02v1.02h8.2V28.79a1.018,1.018,0,0,1,1.02-1.02h2.05a1.018,1.018,0,0,1,1.02,1.02v1.02h8.2v-5.3A2,2,0,0,0,43.38,23.06Zm-11.7-3.5h-8.2v-4.1h8.2Zm4.1,13.32a1.018,1.018,0,0,1-1.02,1.02H32.71a1.018,1.018,0,0,1-1.02-1.02V31.86h-8.2v1.02a1.018,1.018,0,0,1-1.02,1.02H20.42a1.018,1.018,0,0,1-1.02-1.02V31.86H11.2V38a2.053,2.053,0,0,0,2.05,2.05H41.93A2.053,2.053,0,0,0,43.98,38V31.85h-8.2Z" fill="#fff"/></svg>