<svg xmlns="http://www.w3.org/2000/svg" width="55" height="55" viewBox="0 0 55 55"><path d="M27.5,0A27.5,27.5,0,1,0,55,27.5,27.5,27.5,0,0,0,27.5,0Z" fill="#00b2ff"/><path d="M43.81,33.49h-.8V28.12a2.392,2.392,0,0,0-.7-1.69l-4.97-4.97a2.375,2.375,0,0,0-1.69-.7H33.46V18.37a2.39,2.39,0,0,0-2.39-2.39H15.18a2.39,2.39,0,0,0-2.39,2.39V34.28a2.39,2.39,0,0,0,2.39,2.39h.8a4.77,4.77,0,1,0,9.54,0h6.36a4.77,4.77,0,1,0,9.54,0h2.39a.8.8,0,0,0,.8-.8V34.28A.807.807,0,0,0,43.81,33.49ZM20.74,39.06a2.39,2.39,0,1,1,2.39-2.39A2.39,2.39,0,0,1,20.74,39.06Zm15.91,0a2.39,2.39,0,1,1,2.39-2.39A2.39,2.39,0,0,1,36.65,39.06Zm3.98-10.34H33.47V23.15h2.19l4.97,4.97Z" fill="#fff"/></svg>