<svg xmlns="http://www.w3.org/2000/svg" width="70" height="70" viewBox="0 0 70 70"><g transform="translate(23)"><g transform="translate(-23)"><path d="M35,0A35,35,0,1,0,70,35,35,35,0,0,0,35,0Z" fill="#fd2f58"/></g></g><path d="M55.59,33.85l-3.61-3.61a3.951,3.951,0,0,0-2.79-1.15H46.88V23.16a1.967,1.967,0,0,0-1.97-1.97H33.97L37,25.7l-6.91,3.57L31.55,35l-3.43-5.73,4.74-3.85-3.63-4.24H19.24a1.967,1.967,0,0,0-1.97,1.97V43.88a4.927,4.927,0,0,0,8.89,2.94,4.927,4.927,0,0,0,8.89-2.94,5.36,5.36,0,0,0-.1-.99H45a4.619,4.619,0,0,0-.1.99,4.94,4.94,0,0,0,9.88,0,5.36,5.36,0,0,0-.1-.99h1.09a.992.992,0,0,0,.99-.99V36.62A4.029,4.029,0,0,0,55.59,33.85ZM22.19,45.86a1.97,1.97,0,1,1,1.97-1.97A1.974,1.974,0,0,1,22.19,45.86Zm7.9,0a1.97,1.97,0,1,1,1.97-1.97A1.974,1.974,0,0,1,30.09,45.86Zm19.74,0a1.97,1.97,0,1,1,1.97-1.97A1.974,1.974,0,0,1,49.83,45.86ZM46.87,35V32.04h2.31a.967.967,0,0,1,.7.29L52.55,35Z" fill="#fff"/></svg>