<svg xmlns="http://www.w3.org/2000/svg" width="55.18" height="55.18" viewBox="0 0 55.18 55.18"><path d="M27.59,0A27.59,27.59,0,1,0,55.18,27.59,27.587,27.587,0,0,0,27.59,0Z" fill="#ffad22"/><path d="M38.37,25h-3.6V22.87a5.379,5.379,0,0,0,3.6-5.06h-3.6v-1.8a1.805,1.805,0,0,0-1.8-1.8H22.19a1.805,1.805,0,0,0-1.8,1.8v1.8h-3.6a5.379,5.379,0,0,0,3.6,5.06V25h-3.6a5.379,5.379,0,0,0,3.6,5.06v2.13h-3.6a5.389,5.389,0,0,0,3.76,5.12,7.181,7.181,0,0,0,14.04,0,5.367,5.367,0,0,0,3.76-5.12h-3.6V30.06A5.357,5.357,0,0,0,38.37,25ZM27.59,37.58a2.7,2.7,0,1,1,2.7-2.7A2.7,2.7,0,0,1,27.59,37.58Zm0-7.19a2.7,2.7,0,1,1,2.7-2.7A2.7,2.7,0,0,1,27.59,30.39Zm0-7.19a2.7,2.7,0,1,1,2.7-2.7A2.7,2.7,0,0,1,27.59,23.2Z" fill="#fff"/></svg>