<svg xmlns="http://www.w3.org/2000/svg" width="55" height="55" viewBox="0 0 55 55"><g transform="translate(23)"><g transform="translate(-23)"><path d="M27.5,0A27.5,27.5,0,1,0,55,27.5,27.5,27.5,0,0,0,27.5,0Z" fill="#f46e33"/></g></g><path d="M43.03,20.59,33.37,15.8c-1,1.38-3.2,2.34-5.78,2.34s-4.78-.96-5.78-2.34l-9.66,4.79a.808.808,0,0,0-.36,1.07l2.84,5.68a.808.808,0,0,0,1.07.36l2.81-1.37a.788.788,0,0,1,1.14.71V39.62a1.588,1.588,0,0,0,1.59,1.59h12.7a1.588,1.588,0,0,0,1.59-1.59V27.03a.79.79,0,0,1,1.14-.71l2.81,1.37a.793.793,0,0,0,1.07-.36l2.84-5.68A.8.8,0,0,0,43.03,20.59Z" fill="#fff"/></svg>