<svg xmlns="http://www.w3.org/2000/svg" width="70" height="70" viewBox="0 0 70 70"><g transform="translate(-513 -1807)"><circle cx="35" cy="35" r="35" transform="translate(513 1807)" fill="#00b2ff"/></g><path d="M58.03,34.82A22.829,22.829,0,0,0,37.88,16.63V15.22a2.52,2.52,0,1,0-5.04,0v1.41A22.849,22.849,0,0,0,12.69,34.82c-.17.8.67,1.68,1.47.9,4.1-4.33,8.49-4.13,12.5,2.92a.828.828,0,0,0,1.55,0c1.59-2.79,3.54-5.77,7.15-5.77,4.61,0,6.95,5.42,7.15,5.77a.828.828,0,0,0,1.55,0c4.02-7.05,8.44-7.2,12.5-2.92C57.36,36.51,58.2,35.62,58.03,34.82Zm-25.2,2.51V47.6a1.261,1.261,0,0,1-2.45.42,2.518,2.518,0,1,0-4.75,1.67,6.3,6.3,0,0,0,12.24-2.1V37.33a3.884,3.884,0,0,0-2.52-1.07A3.592,3.592,0,0,0,32.83,37.33Z" fill="#fff"/></svg>