<svg xmlns="http://www.w3.org/2000/svg" width="55" height="55" viewBox="0 0 55 55"><path d="M27.5,0A27.5,27.5,0,1,0,55,27.5,27.5,27.5,0,0,0,27.5,0Z" fill="#00b2ff"/><path d="M23.12,27.7H15.53a.866.866,0,0,0-.86.86v1.73a.866.866,0,0,0,.86.86H23.2A1.8,1.8,0,0,1,25,32.58a1.727,1.727,0,0,1-3.34.84.841.841,0,0,0-.82-.54H19.07a.86.86,0,0,0-.86.99,5.176,5.176,0,0,0,10.21-1.68A5.292,5.292,0,0,0,23.12,27.7Zm-7.59-1.72H33.65a5.176,5.176,0,1,0-5.08-6.16.853.853,0,0,0,.85.99h1.77a.841.841,0,0,0,.82-.54,1.727,1.727,0,0,1,3.34.84,1.791,1.791,0,0,1-1.8,1.43H15.53a.866.866,0,0,0-.86.86v1.73A.858.858,0,0,0,15.53,25.98Zm20.7,1.72H27.8a6.868,6.868,0,0,1,2.15,3.45h6.28a2.59,2.59,0,1,1,0,5.18,2.55,2.55,0,0,1-2.24-1.32.9.9,0,0,0-.78-.41H31.39a.86.86,0,0,0-.82,1.14,6.034,6.034,0,1,0,5.66-8.04Z" fill="#fff"/></svg>