<svg xmlns="http://www.w3.org/2000/svg" width="55" height="55" viewBox="0 0 55 55"><path d="M27.5,0A27.5,27.5,0,1,0,55,27.5,27.5,27.5,0,0,0,27.5,0Z" fill="#8d5fd6"/><path d="M41.94,13.87H12.91a2.9,2.9,0,0,0-2.9,2.9V38.06a2.9,2.9,0,0,0,2.9,2.9H41.94a2.9,2.9,0,0,0,2.9-2.9V16.77A2.9,2.9,0,0,0,41.94,13.87Zm-21.29,5.8a3.87,3.87,0,1,1-3.87,3.87A3.879,3.879,0,0,1,20.65,19.67Zm6.78,14.32a1.264,1.264,0,0,1-1.35,1.16H15.24a1.264,1.264,0,0,1-1.35-1.16V32.83a3.806,3.806,0,0,1,4.06-3.48h.3a6.206,6.206,0,0,0,2.41.48,6.433,6.433,0,0,0,2.41-.48h.3a3.806,3.806,0,0,1,4.06,3.48v1.16ZM40.97,30.8a.48.48,0,0,1-.48.48H31.78a.48.48,0,0,1-.48-.48v-.97a.48.48,0,0,1,.48-.48h8.71a.48.48,0,0,1,.48.48Zm0-3.87a.48.48,0,0,1-.48.48H31.78a.48.48,0,0,1-.48-.48v-.97a.48.48,0,0,1,.48-.48h8.71a.48.48,0,0,1,.48.48Zm0-3.87a.48.48,0,0,1-.48.48H31.78a.48.48,0,0,1-.48-.48v-.97a.48.48,0,0,1,.48-.48h8.71a.48.48,0,0,1,.48.48Z" fill="#fff"/></svg>