<svg xmlns="http://www.w3.org/2000/svg" width="55" height="55" viewBox="0 0 55 55"><path d="M27.5,0A27.5,27.5,0,1,0,55,27.5,27.5,27.5,0,0,0,27.5,0Z" fill="#00c389"/><path d="M20.88,22.34h1.65V15.72H20.88a3.31,3.31,0,0,0,0,6.62ZM10.95,35.58a3.308,3.308,0,0,0,3.31,3.31h1.65V32.27H14.26A3.308,3.308,0,0,0,10.95,35.58ZM28.4,28.96a10.64,10.64,0,0,0-5.42,1.65,7.887,7.887,0,0,1-5.42,1.65v6.62l2.98.83a20.951,20.951,0,0,0,4.15.78,18.211,18.211,0,0,0,5.05-.32c5.66-1.22,7.68-3.91,7.68-6.25.01-3.31-4.34-4.96-9.02-4.96Zm7.97-14.52a17.814,17.814,0,0,0-5.05-.32,20.816,20.816,0,0,0-4.15.78l-2.98.83v6.62A7.978,7.978,0,0,1,29.61,24a10.545,10.545,0,0,0,5.42,1.65c4.67,0,9.03-1.65,9.03-4.96-.01-2.34-2.03-5.04-7.69-6.25Z" fill="#fff"/></svg>