<svg xmlns="http://www.w3.org/2000/svg" width="55" height="55" viewBox="0 0 55 55"><path d="M27.5,0A27.5,27.5,0,1,0,55,27.5,27.5,27.5,0,0,0,27.5,0Z" fill="#00b2ff"/><path d="M18.77,33.2a1.15,1.15,0,1,0,1.15,1.15A1.144,1.144,0,0,0,18.77,33.2Zm3.84,0a1.15,1.15,0,1,0,1.15,1.15A1.144,1.144,0,0,0,22.61,33.2Zm3.83,0a1.15,1.15,0,1,0,1.15,1.15A1.144,1.144,0,0,0,26.44,33.2Zm3.83,0a1.15,1.15,0,1,0,1.15,1.15A1.144,1.144,0,0,0,30.27,33.2Zm11.44,2.36a3.7,3.7,0,0,1-1.08-2.62V28.07a3.735,3.735,0,0,1,1.08-2.62l1.76-1.76a.76.76,0,0,0,0-1.08l-1.08-1.08a.76.76,0,0,0-1.08,0l-1.76,1.76a6.765,6.765,0,0,0-1.98,4.79v.9H34.5V26.54a3.157,3.157,0,0,0-.25-1.21L30.5,16.57a2.285,2.285,0,0,0-2.12-1.39H21.46a2.3,2.3,0,0,0-2.3,2.3v5.37h-.77a2.3,2.3,0,0,0-2.3,2.3v4.37a5.356,5.356,0,0,0,2.3,10.2H30.66a5.365,5.365,0,0,0,5.37-5.37,5.224,5.224,0,0,0-.54-2.3h2.07v.9a6.765,6.765,0,0,0,1.98,4.79L41.3,39.5a.76.76,0,0,0,1.08,0l1.08-1.08a.76.76,0,0,0,0-1.08ZM22.22,18.24h5.65l3.29,7.67H25.29l-3.07-3.07v-4.6Zm8.44,18.41H18.39a2.3,2.3,0,1,1,0-4.6H30.66a2.3,2.3,0,1,1,0,4.6Z" fill="#fff"/></svg>