<svg xmlns="http://www.w3.org/2000/svg" width="209.122" height="70" viewBox="0 0 209.122 70"><g transform="translate(0 0)"><path d="M192.469,0H16.663c-.641,0-1.274,0-1.913,0-.535,0-1.066.014-1.606.022a23.062,23.062,0,0,0-3.5.309,11.637,11.637,0,0,0-3.322,1.1A11.251,11.251,0,0,0,3.491,3.495,10.952,10.952,0,0,0,1.432,6.332,11.563,11.563,0,0,0,.34,9.663a22.768,22.768,0,0,0-.313,3.5C.01,13.7.009,14.241,0,14.778v40.45c.009.543.01,1.07.026,1.613a22.767,22.767,0,0,0,.313,3.5,11.539,11.539,0,0,0,1.092,3.333A10.863,10.863,0,0,0,3.491,66.5,10.965,10.965,0,0,0,6.32,68.564a11.7,11.7,0,0,0,3.322,1.1,23.481,23.481,0,0,0,3.5.309c.54.012,1.071.019,1.606.019.639,0,1.272,0,1.913,0H192.469c.628,0,1.266,0,1.894,0,.533,0,1.079-.007,1.611-.019a23.174,23.174,0,0,0,3.5-.309,11.879,11.879,0,0,0,3.335-1.1,10.972,10.972,0,0,0,2.826-2.063,11.19,11.19,0,0,0,2.065-2.825,11.568,11.568,0,0,0,1.082-3.333,23.666,23.666,0,0,0,.324-3.5c.007-.544.007-1.07.007-1.613.014-.636.014-1.268.014-1.914V16.688c0-.641,0-1.277-.014-1.911,0-.537,0-1.075-.007-1.612a23.666,23.666,0,0,0-.324-3.5A11.593,11.593,0,0,0,207.7,6.332a11.308,11.308,0,0,0-4.891-4.9,11.816,11.816,0,0,0-3.335-1.1,22.764,22.764,0,0,0-3.5-.309C195.442.017,194.9.007,194.364,0c-.628,0-1.266,0-1.894,0Z" transform="translate(0 0)" fill="#a6a6a6"/><path d="M14.105,67.817c-.532,0-1.052-.007-1.58-.019a22.141,22.141,0,0,1-3.266-.285,10.272,10.272,0,0,1-2.9-.959,9.447,9.447,0,0,1-2.441-1.779A9.311,9.311,0,0,1,2.139,62.33a10.024,10.024,0,0,1-.949-2.9A21.755,21.755,0,0,1,.9,56.149c-.011-.369-.026-1.6-.026-1.6V14.122s.015-1.21.026-1.566A21.68,21.68,0,0,1,1.188,9.28a10.083,10.083,0,0,1,.95-2.909A9.4,9.4,0,0,1,3.912,3.925,9.727,9.727,0,0,1,6.362,2.135a10.166,10.166,0,0,1,2.889-.952A21.964,21.964,0,0,1,12.529.9L14.106.875H193.7L195.3.9a21.613,21.613,0,0,1,3.248.285,10.367,10.367,0,0,1,2.92.959,9.783,9.783,0,0,1,4.22,4.235,10.1,10.1,0,0,1,.935,2.886,22.777,22.777,0,0,1,.3,3.3c.005.5.005,1.028.005,1.558.014.656.014,1.281.014,1.911V52.66c0,.636,0,1.256-.014,1.882,0,.569,0,1.09-.007,1.627a22.311,22.311,0,0,1-.3,3.244,10.054,10.054,0,0,1-.944,2.923,9.59,9.59,0,0,1-1.775,2.425,9.46,9.46,0,0,1-2.446,1.789,10.234,10.234,0,0,1-2.915.962,21.889,21.889,0,0,1-3.267.285c-.512.012-1.048.019-1.568.019l-1.894,0Z" transform="translate(0.653 0.654)"/><g transform="translate(17.426 15.295)"><path d="M35.831,25.031a8.648,8.648,0,0,1,4.118-7.256A8.853,8.853,0,0,0,32.974,14C30.04,13.7,27.195,15.76,25.7,15.76c-1.524,0-3.827-1.725-6.306-1.674a9.289,9.289,0,0,0-7.817,4.767C8.2,24.7,10.718,33.3,13.955,38.035c1.62,2.316,3.513,4.9,5.99,4.812,2.424-.1,3.329-1.546,6.255-1.546,2.9,0,3.748,1.546,6.276,1.487,2.6-.042,4.24-2.326,5.8-4.665a19.157,19.157,0,0,0,2.654-5.4A8.357,8.357,0,0,1,35.831,25.031Z" transform="translate(-9.972 -4.793)" fill="#fff"/><path d="M24.464,14.82a8.515,8.515,0,0,0,1.948-6.1,8.664,8.664,0,0,0-5.606,2.9,8.1,8.1,0,0,0-2,5.874A7.163,7.163,0,0,0,24.464,14.82Z" transform="translate(-3.379 -8.72)" fill="#fff"/><g transform="translate(42.738 15.992)"><path d="M48.189,33.914H39.917L37.931,39.78h-3.5l7.835-21.7H45.9l7.835,21.7H50.174Zm-7.415-2.707h6.557L44.1,21.688h-.09Z" transform="translate(-34.427 -17.716)" fill="#fff"/><path d="M61.535,29.426c0,4.917-2.632,8.076-6.6,8.076a5.364,5.364,0,0,1-4.978-2.768h-.075v7.837H46.631V21.514h3.144v2.632h.06a5.613,5.613,0,0,1,5.038-2.8C58.888,21.349,61.535,24.523,61.535,29.426Zm-3.338,0c0-3.2-1.655-5.309-4.181-5.309-2.481,0-4.15,2.15-4.15,5.309,0,3.188,1.669,5.323,4.15,5.323C56.542,34.749,58.2,32.659,58.2,29.426Z" transform="translate(-25.304 -15.273)" fill="#fff"/><path d="M71.5,29.426c0,4.917-2.632,8.076-6.6,8.076a5.364,5.364,0,0,1-4.978-2.768h-.075v7.837H56.6V21.514H59.74v2.632h.06a5.613,5.613,0,0,1,5.038-2.8C68.853,21.349,71.5,24.523,71.5,29.426Zm-3.338,0c0-3.2-1.655-5.309-4.181-5.309-2.481,0-4.15,2.15-4.15,5.309,0,3.188,1.669,5.323,4.15,5.323,2.526,0,4.181-2.091,4.181-5.323Z" transform="translate(-17.854 -15.273)" fill="#fff"/><path d="M73.133,33.888c.241,2.152,2.331,3.565,5.188,3.565,2.737,0,4.707-1.413,4.707-3.354,0-1.684-1.188-2.693-4-3.384l-2.812-.678c-3.985-.963-5.835-2.826-5.835-5.85,0-3.744,3.263-6.316,7.9-6.316,4.586,0,7.729,2.572,7.835,6.316H82.833c-.2-2.166-1.987-3.473-4.6-3.473s-4.406,1.323-4.406,3.248c0,1.534,1.143,2.437,3.941,3.128l2.391.587c4.453,1.053,6.3,2.842,6.3,6.016,0,4.06-3.234,6.6-8.378,6.6-4.813,0-8.062-2.483-8.272-6.408Z" transform="translate(-7.977 -17.871)" fill="#fff"/><path d="M85.726,19.3v3.744h3.009v2.572H85.726v8.723c0,1.355.6,1.987,1.925,1.987a10.149,10.149,0,0,0,1.068-.075v2.557a8.919,8.919,0,0,1-1.8.15c-3.2,0-4.453-1.2-4.453-4.272V25.616h-2.3V23.044h2.3V19.3Z" transform="translate(-0.236 -16.803)" fill="#fff"/><path d="M86.065,29.438c0-4.978,2.932-8.106,7.5-8.106,4.587,0,7.506,3.128,7.506,8.106s-2.9,8.106-7.506,8.106S86.065,34.429,86.065,29.438Zm11.7,0c0-3.415-1.565-5.43-4.2-5.43s-4.195,2.031-4.195,5.43c0,3.429,1.563,5.429,4.195,5.429s4.2-2,4.2-5.429Z" transform="translate(4.176 -15.284)" fill="#fff"/><path d="M96.186,21.514h3.1v2.693h.075a3.774,3.774,0,0,1,3.806-2.859,5.009,5.009,0,0,1,1.113.121v3.038a4.54,4.54,0,0,0-1.459-.2,3.273,3.273,0,0,0-3.384,3.64v9.385H96.186Z" transform="translate(11.742 -15.273)" fill="#fff"/><path d="M115.49,32.7c-.437,2.872-3.234,4.843-6.813,4.843-4.6,0-7.46-3.084-7.46-8.031,0-4.963,2.872-8.182,7.323-8.182,4.377,0,7.13,3.007,7.13,7.8v1.113H104.5v.2a4.121,4.121,0,0,0,4.256,4.482,3.58,3.58,0,0,0,3.654-2.225Zm-10.979-4.722h7.91a3.805,3.805,0,0,0-3.881-4.016,4.005,4.005,0,0,0-4.029,4.016Z" transform="translate(15.504 -15.284)" fill="#fff"/></g></g></g><g transform="translate(62.338 14.769)"><path d="M39.437,8.736a4.613,4.613,0,0,1,4.907,5.181c0,3.331-1.8,5.246-4.907,5.246H35.671V8.736ZM37.29,17.689h1.966a3.278,3.278,0,0,0,3.439-3.75,3.287,3.287,0,0,0-3.439-3.729H37.29Z" transform="translate(-35.671 -8.222)" fill="#fff"/><path d="M41.688,14.191a3.728,3.728,0,1,1,7.422,0,3.729,3.729,0,1,1-7.422,0Zm5.825,0c0-1.706-.766-2.7-2.111-2.7s-2.109,1-2.109,2.7S44.052,16.9,45.4,16.9s2.111-1,2.111-2.709Z" transform="translate(-31.186 -7.188)" fill="#fff"/><path d="M55.314,18.064H53.7l-1.626-5.8h-.123l-1.62,5.8h-1.6l-2.169-7.869h1.575l1.41,6h.116l1.618-6h1.49l1.618,6h.123l1.4-6h1.553Z" transform="translate(-27.523 -7.123)" fill="#fff"/><path d="M53.854,10.263h1.495v1.25h.116a2.356,2.356,0,0,1,2.348-1.4,2.559,2.559,0,0,1,2.724,2.927v5.094H58.984v-4.7c0-1.265-.55-1.894-1.7-1.894a1.805,1.805,0,0,0-1.879,1.994v4.6H53.854Z" transform="translate(-22.078 -7.191)" fill="#fff"/><path d="M59.094,8.437h1.553V19.378H59.094Z" transform="translate(-18.16 -8.437)" fill="#fff"/><path d="M61.225,14.191a3.728,3.728,0,1,1,7.423,0,3.729,3.729,0,1,1-7.423,0Zm5.825,0c0-1.706-.766-2.7-2.111-2.7s-2.109,1-2.109,2.7.759,2.709,2.109,2.709,2.111-1,2.111-2.709Z" transform="translate(-16.58 -7.188)" fill="#fff"/><path d="M66.4,15.9c0-1.417,1.055-2.233,2.927-2.349l2.132-.123v-.679c0-.831-.55-1.3-1.611-1.3-.867,0-1.468.318-1.64.875H66.7c.159-1.352,1.43-2.219,3.215-2.219,1.973,0,3.086.982,3.086,2.644v5.377H71.511V17.023h-.123a2.648,2.648,0,0,1-2.364,1.236A2.377,2.377,0,0,1,66.4,15.9Zm5.058-.672v-.658l-1.922.123c-1.084.073-1.575.441-1.575,1.135s.614,1.12,1.459,1.12a1.855,1.855,0,0,0,2.038-1.72Z" transform="translate(-12.698 -7.188)" fill="#fff"/><path d="M71.348,15.44c0-2.487,1.278-4.062,3.266-4.062a2.593,2.593,0,0,1,2.413,1.381h.116V8.437H78.7V19.378H77.209V18.135h-.123a2.731,2.731,0,0,1-2.471,1.373C72.613,19.508,71.348,17.933,71.348,15.44Zm1.6,0c0,1.669.787,2.673,2.1,2.673s2.118-1.019,2.118-2.667-.817-2.673-2.118-2.673-2.1,1.011-2.1,2.667Z" transform="translate(-8.999 -8.437)" fill="#fff"/><path d="M79.238,14.191a3.728,3.728,0,1,1,7.422,0,3.729,3.729,0,1,1-7.422,0Zm5.825,0c0-1.706-.766-2.7-2.111-2.7s-2.109,1-2.109,2.7S81.6,16.9,82.951,16.9,85.062,15.9,85.062,14.191Z" transform="translate(-3.115 -7.188)" fill="#fff"/><path d="M84.669,10.263h1.495v1.25h.116a2.356,2.356,0,0,1,2.348-1.4,2.559,2.559,0,0,1,2.724,2.927v5.094H89.8v-4.7c0-1.265-.55-1.894-1.7-1.894a1.805,1.805,0,0,0-1.879,1.994v4.6H84.669Z" transform="translate(0.959 -7.191)" fill="#fff"/><path d="M94.715,9.074v2h1.7v1.308h-1.7v4.046c0,.824.34,1.185,1.113,1.185a5.183,5.183,0,0,0,.592-.036v1.294a5.1,5.1,0,0,1-.845.079c-1.727,0-2.415-.608-2.415-2.125V12.377H91.911V11.069H93.16V9.074Z" transform="translate(6.373 -7.961)" fill="#fff"/><path d="M95.7,8.437h1.539v4.337h.123a2.421,2.421,0,0,1,2.4-1.41,2.592,2.592,0,0,1,2.71,2.934v5.081h-1.555v-4.7c0-1.257-.585-1.894-1.683-1.894a1.838,1.838,0,0,0-1.981,2v4.6H95.7Z" transform="translate(9.209 -8.437)" fill="#fff"/><path d="M107.789,16a3.2,3.2,0,0,1-3.41,2.277,3.574,3.574,0,0,1-3.635-4.062,3.629,3.629,0,0,1,3.628-4.111c2.19,0,3.51,1.5,3.51,3.967v.542h-5.557V14.7a2.08,2.08,0,0,0,2.1,2.254A1.886,1.886,0,0,0,106.294,16Zm-5.463-2.536H106.3a1.9,1.9,0,0,0-1.937-2.039,2.013,2.013,0,0,0-2.038,2.039Z" transform="translate(12.952 -7.188)" fill="#fff"/></g></svg>