<svg xmlns="http://www.w3.org/2000/svg" width="55" height="55" viewBox="0 0 55 55"><circle cx="27.5" cy="27.5" r="27.5" fill="#ff8500"/><g transform="translate(11.155 6.924)"><circle cx="5.846" cy="5.846" r="5.846" transform="translate(9.907 0)" fill="#fff"/><path d="M2.775,18.482a1.284,1.284,0,0,0,1.275-1.275v-2.09h9.4v2.09a1.275,1.275,0,1,0,2.549,0v-2.09h9.346v2.09a1.275,1.275,0,1,0,2.549,0V13.843a1.284,1.284,0,0,0-1.275-1.275H16V10.445a1.275,1.275,0,0,0-2.549,0v2.124H2.775A1.284,1.284,0,0,0,1.5,13.843v3.365A1.284,1.284,0,0,0,2.775,18.482Z" transform="translate(1.049 6.413)" fill="#fff"/><circle cx="3.824" cy="3.824" r="3.824" transform="translate(11.946 28.294)" fill="#fff"/><circle cx="3.824" cy="3.824" r="3.824" transform="translate(23.842 28.294)" fill="#fff"/><circle cx="3.824" cy="3.824" r="3.824" transform="translate(0 28.294)" fill="#fff"/></g></svg>