<svg xmlns="http://www.w3.org/2000/svg" width="55" height="55" viewBox="0 0 55 55"><g transform="translate(23)"><g transform="translate(-23)"><path d="M27.5,0A27.5,27.5,0,1,0,55,27.5,27.5,27.5,0,0,0,27.5,0Z" fill="#00b2ff"/><path d="M22.478,4.64H17.484a4.64,4.64,0,0,0-9.28,0H3.211A3.221,3.221,0,0,0,0,7.851V30.329A3.221,3.221,0,0,0,3.211,33.54H22.478a3.221,3.221,0,0,0,3.211-3.211V7.851A3.221,3.221,0,0,0,22.478,4.64Zm-9.633-1.7a1.7,1.7,0,1,1-1.7,1.7A1.693,1.693,0,0,1,12.844,2.938ZM5.218,12.25l.466-.466a.678.678,0,0,1,.947,0l.963.963,2.938-2.954a.678.678,0,0,1,.947,0l.466.482a.678.678,0,0,1,0,.947l-3.4,3.4-.482.466a.678.678,0,0,1-.947,0l-.466-.466L5.218,13.2A.678.678,0,0,1,5.218,12.25ZM7.562,27.728A2.167,2.167,0,1,1,9.73,25.56,2.169,2.169,0,0,1,7.562,27.728Zm0-6.406A2.167,2.167,0,1,1,9.73,19.154,2.169,2.169,0,0,1,7.562,21.322Zm13.23,4.768a.949.949,0,0,1-.947.947H13.1a.949.949,0,0,1-.947-.947V25.03a.949.949,0,0,1,.947-.947h6.743a.949.949,0,0,1,.947.947Zm0-6.31a.949.949,0,0,1-.947.947H13.1a.949.949,0,0,1-.947-.947v-1.06a.949.949,0,0,1,.947-.947h6.743a.949.949,0,0,1,.947.947Zm0-6.053a.949.949,0,0,1-.947.947H13l3.211-2.97h3.612a.949.949,0,0,1,.947.947v1.076Z" transform="translate(15.169 8.723)" fill="#fff"/></g></g></svg>