<svg xmlns="http://www.w3.org/2000/svg" width="206.617" height="168.564" viewBox="0 0 206.617 168.564"><g transform="translate(97.619 28.553)"><rect width="15.182" height="7.874" transform="translate(31.622 43.627)" fill="#3a3b39"/><path d="M206.118,105.75a.529.529,0,0,1-.528-.528V63.488a.529.529,0,0,1,.528-.528H280.3a.529.529,0,0,1,.528.528v41.739a.529.529,0,0,1-.528.528H206.118Z" transform="translate(-203.653 -61.023)" fill="#ededed"/><path d="M276.825,62.834V101.75H205.464V62.834h71.361m1.409-3.874H204.055a2.466,2.466,0,0,0-2.465,2.465v41.739a2.466,2.466,0,0,0,2.465,2.465h74.184a2.466,2.466,0,0,0,2.465-2.465V61.425a2.473,2.473,0,0,0-2.47-2.465Z" transform="translate(-201.59 -58.96)" fill="#565656"/><rect width="71.405" height="6.431" transform="translate(3.918 3.758)" fill="#fff"/><rect width="18.455" height="32.639" transform="translate(56.872 10.189)" fill="#fff"/><path d="M262.24,90.639H214.264a.486.486,0,0,1-.484-.484v-5.54a.486.486,0,0,1,.484-.484H262.24a.486.486,0,0,1,.484.484v5.54A.486.486,0,0,1,262.24,90.639Z" transform="translate(-207.877 -71.941)" fill="#fff" fill-rule="evenodd"/><path d="M226.587,93.861h-9.956a.442.442,0,0,1-.441-.441h0a.442.442,0,0,1,.441-.441h9.956a.442.442,0,0,1,.441.441h0A.442.442,0,0,1,226.587,93.861Z" transform="translate(-209.12 -76.505)" fill="#f2f2f2" fill-rule="evenodd"/><path d="M328.348,92.641h-4.538a.442.442,0,0,1-.441-.441h0a.442.442,0,0,1,.441-.441h4.538a.442.442,0,0,1,.441.441h0A.442.442,0,0,1,328.348,92.641Z" transform="translate(-264.396 -75.876)" fill="#f2f2f2" fill-rule="evenodd"/><path d="M349.883,92.641h-1.322a.442.442,0,0,1-.441-.441h0a.442.442,0,0,1,.441-.441h1.322a.442.442,0,0,1,.441.441h0A.442.442,0,0,1,349.883,92.641Z" transform="translate(-277.161 -75.876)" fill="#00c389" fill-rule="evenodd"/><path d="M349.883,96.481h-1.322a.442.442,0,0,1-.441-.441h0a.442.442,0,0,1,.441-.441h1.322a.442.442,0,0,1,.441.441h0A.442.442,0,0,1,349.883,96.481Z" transform="translate(-277.161 -77.857)" fill="#f2f2f2" fill-rule="evenodd"/><path d="M329.748,96.481h-5.937a.442.442,0,0,1-.441-.441h0a.442.442,0,0,1,.441-.441h5.937a.442.442,0,0,1,.441.441h0A.442.442,0,0,1,329.748,96.481Z" transform="translate(-264.396 -77.857)" fill="#f2f2f2" fill-rule="evenodd"/><path d="M217.1,71.218h-2.847a.486.486,0,0,1-.484-.484v-.8a.486.486,0,0,1,.484-.484H217.1a.486.486,0,0,1,.484.484v.8A.486.486,0,0,1,217.1,71.218Z" transform="translate(-207.872 -64.37)" fill="#ccc" fill-rule="evenodd"/><path d="M232.539,88.968H216.674a.486.486,0,0,1-.484-.484v-.8a.486.486,0,0,1,.484-.484h15.864a.486.486,0,0,1,.484.484v.8A.486.486,0,0,1,232.539,88.968Z" transform="translate(-209.12 -73.524)" fill="#ccc" fill-rule="evenodd"/><g transform="translate(5.903 20.944)"><path d="M262.24,116.961H214.264a.486.486,0,0,1-.484-.484v-8.092a.486.486,0,0,1,.484-.484H262.24a.486.486,0,0,1,.484.484v8.1A.482.482,0,0,1,262.24,116.961Z" transform="translate(-213.78 -105.145)" fill="#fff" fill-rule="evenodd"/><path d="M223.89,111.521h-7.259a.442.442,0,0,1-.441-.441h0a.442.442,0,0,1,.441-.441h7.259a.442.442,0,0,1,.441.441h0A.442.442,0,0,1,223.89,111.521Z" transform="translate(-215.023 -106.558)" fill="#f2f2f2" fill-rule="evenodd"/><path d="M223.89,117.151h-7.259a.442.442,0,0,1-.441-.441h0a.442.442,0,0,1,.441-.441h7.259a.442.442,0,0,1,.441.441h0A.442.442,0,0,1,223.89,117.151Z" transform="translate(-215.023 -109.461)" fill="#f2f2f2" fill-rule="evenodd"/><path d="M221.168,122.731h-4.538a.442.442,0,0,1-.441-.441h0a.442.442,0,0,1,.441-.441h4.538a.442.442,0,0,1,.441.441h0A.442.442,0,0,1,221.168,122.731Z" transform="translate(-215.023 -112.339)" fill="#f2f2f2" fill-rule="evenodd"/><path d="M302.535,111.488h-7.521a.486.486,0,0,1-.484-.484v-.8a.486.486,0,0,1,.484-.484h7.521a.486.486,0,0,1,.484.484v.8A.483.483,0,0,1,302.535,111.488Z" transform="translate(-255.426 -106.083)" fill="#f2f2f2" fill-rule="evenodd"/><path d="M302.535,117.058h-7.521a.486.486,0,0,1-.484-.484v-.8a.486.486,0,0,1,.484-.484h7.521a.486.486,0,0,1,.484.484v.8A.483.483,0,0,1,302.535,117.058Z" transform="translate(-255.426 -108.956)" fill="#f2f2f2" fill-rule="evenodd"/><path d="M302.535,122.7h-7.521a.486.486,0,0,1-.484-.484v-.8a.486.486,0,0,1,.484-.484h7.521a.486.486,0,0,1,.484.484v.8A.483.483,0,0,1,302.535,122.7Z" transform="translate(-255.426 -111.865)" fill="#f2f2f2" fill-rule="evenodd"/><path d="M257.217,103.978H216.674a.486.486,0,0,1-.484-.484v-.8a.486.486,0,0,1,.484-.484h40.542a.486.486,0,0,1,.484.484v.8A.483.483,0,0,1,257.217,103.978Z" transform="translate(-215.023 -102.21)" fill="#ccc" fill-rule="evenodd"/></g><g transform="translate(5.903 34.848)"><path d="M262.724,141.835H213.78v-4.751a.486.486,0,0,1,.484-.484H262.24a.486.486,0,0,1,.484.484Z" transform="translate(-213.78 -133.849)" fill="#fff" fill-rule="evenodd"/><path d="M223.89,140.221h-7.259a.442.442,0,0,1-.441-.441h0a.442.442,0,0,1,.441-.441h7.259a.442.442,0,0,1,.441.441h0A.442.442,0,0,1,223.89,140.221Z" transform="translate(-215.023 -135.262)" fill="#f2f2f2" fill-rule="evenodd"/><path d="M223.89,145.861h-7.259a.442.442,0,0,1-.441-.441h0a.442.442,0,0,1,.441-.441h7.259a.442.442,0,0,1,.441.441h0A.442.442,0,0,1,223.89,145.861Z" transform="translate(-215.023 -138.171)" fill="#f2f2f2" fill-rule="evenodd"/><path d="M302.535,140.188h-7.521a.486.486,0,0,1-.484-.484v-.8a.486.486,0,0,1,.484-.484h7.521a.486.486,0,0,1,.484.484v.8A.483.483,0,0,1,302.535,140.188Z" transform="translate(-255.426 -134.788)" fill="#f2f2f2" fill-rule="evenodd"/><path d="M302.535,145.646h-7.521a.486.486,0,0,1-.484-.484v-.688a.486.486,0,0,1,.484-.484h7.521a.486.486,0,0,1,.484.484v.688A.483.483,0,0,1,302.535,145.646Z" transform="translate(-255.426 -137.661)" fill="#f2f2f2" fill-rule="evenodd"/><path d="M225.919,132.688h-9.245a.486.486,0,0,1-.484-.484v-.8a.486.486,0,0,1,.484-.484h9.245a.486.486,0,0,1,.484.484v.8A.486.486,0,0,1,225.919,132.688Z" transform="translate(-215.023 -130.92)" fill="#ccc" fill-rule="evenodd"/></g><path d="M331.53,85.888h-7.676a.486.486,0,0,1-.484-.484v-.8a.486.486,0,0,1,.484-.484h7.676a.486.486,0,0,1,.484.484v.8A.483.483,0,0,1,331.53,85.888Z" transform="translate(-264.396 -71.936)" fill="#ccc" fill-rule="evenodd"/><path d="M344.594,76.478h-6.16a.486.486,0,0,1-.484-.484v-.8a.486.486,0,0,1,.484-.484h6.16a.486.486,0,0,1,.484.484v.8A.486.486,0,0,1,344.594,76.478Z" transform="translate(-271.916 -67.083)" fill="#8d5fd6" fill-rule="evenodd"/><path d="M324.7,76.478h-9.361a.486.486,0,0,1-.484-.484v-.8a.486.486,0,0,1,.484-.484H324.7a.486.486,0,0,1,.484.484v.8A.486.486,0,0,1,324.7,76.478Z" transform="translate(-260.002 -67.083)" fill="#8d5fd6" fill-rule="evenodd"/><path d="M308.243,76.478h-3.119a.486.486,0,0,1-.484-.484v-.8a.486.486,0,0,1,.484-.484h3.119a.486.486,0,0,1,.484.484v.8A.486.486,0,0,1,308.243,76.478Z" transform="translate(-254.737 -67.083)" fill="#f2f2f2" fill-rule="evenodd"/><path d="M328.439,102.978h-4.324a.486.486,0,0,1-.484-.484v-.8a.486.486,0,0,1,.484-.484h4.324a.486.486,0,0,1,.484.484v.8A.486.486,0,0,1,328.439,102.978Z" transform="translate(-264.531 -80.75)" fill="#8d5fd6" fill-rule="evenodd"/><g transform="translate(6.32 5.056)"><path d="M228.04,76.511H215.081a.442.442,0,0,1-.441-.441h0a.442.442,0,0,1,.441-.441H228.04a.442.442,0,0,1,.441.441h0A.442.442,0,0,1,228.04,76.511Z" transform="translate(-214.64 -72.613)" fill="#f2f2f2" fill-rule="evenodd"/><path d="M255.513,71.251H225.281a.442.442,0,0,1-.441-.441h0a.442.442,0,0,1,.441-.441h30.233a.442.442,0,0,1,.441.441h0A.442.442,0,0,1,255.513,71.251Z" transform="translate(-219.901 -69.9)" fill="#f2f2f2" fill-rule="evenodd"/><ellipse cx="0.441" cy="0.441" rx="0.441" ry="0.441" transform="translate(62.044 0.47)" fill="#f2f2f2"/><ellipse cx="0.91" cy="0.91" rx="0.91" ry="0.91" transform="translate(64.078)" fill="#00b2ff"/><path d="M296.681,140.223h-.639a.422.422,0,0,1-.421-.421h0a.422.422,0,0,1,.421-.421h.639a.422.422,0,0,1,.421.421h0A.428.428,0,0,1,296.681,140.223Z" transform="translate(-256.404 -105.491)" fill="#00c389" fill-rule="evenodd"/><path d="M300.591,140.223h-.639a.422.422,0,0,1-.421-.421h0a.422.422,0,0,1,.421-.421h.639a.422.422,0,0,1,.421.421h0A.422.422,0,0,1,300.591,140.223Z" transform="translate(-258.421 -105.491)" fill="#ffad22" fill-rule="evenodd"/><path d="M304.471,140.223h-.639a.422.422,0,0,1-.421-.421h0a.422.422,0,0,1,.421-.421h.639a.422.422,0,0,1,.421.421h0A.422.422,0,0,1,304.471,140.223Z" transform="translate(-260.422 -105.491)" fill="#fd2f58" fill-rule="evenodd"/><path d="M296.681,145.853h-.639a.422.422,0,0,1-.421-.421h0a.422.422,0,0,1,.421-.421h.639a.422.422,0,0,1,.421.421h0A.428.428,0,0,1,296.681,145.853Z" transform="translate(-256.404 -108.395)" fill="#00c389" fill-rule="evenodd"/><path d="M300.591,145.853h-.639a.422.422,0,0,1-.421-.421h0a.422.422,0,0,1,.421-.421h.639a.422.422,0,0,1,.421.421h0A.422.422,0,0,1,300.591,145.853Z" transform="translate(-258.421 -108.395)" fill="#ffad22" fill-rule="evenodd"/><path d="M304.471,145.853h-.639a.422.422,0,0,1-.421-.421h0a.422.422,0,0,1,.421-.421h.639a.422.422,0,0,1,.421.421h0A.422.422,0,0,1,304.471,145.853Z" transform="translate(-260.422 -108.395)" fill="#fd2f58" fill-rule="evenodd"/></g><g transform="translate(19.453 51.027)"><rect width="39.521" height="3.937" fill="#565656"/></g><ellipse cx="0.455" cy="0.455" rx="0.455" ry="0.455" transform="translate(45.535 27.705)" fill="#00b2ff"/><path d="M299.373,122.731h-3.312a.442.442,0,0,1-.441-.441h0a.442.442,0,0,1,.441-.441h3.312a.442.442,0,0,1,.441.441h0A.442.442,0,0,1,299.373,122.731Z" transform="translate(-250.085 -91.395)" fill="#8d5fd6" fill-rule="evenodd"/><ellipse cx="0.455" cy="0.455" rx="0.455" ry="0.455" transform="translate(45.535 25.007)" fill="#ffbc6e"/><ellipse cx="1.361" cy="1.361" rx="1.361" ry="1.361" transform="translate(71.308 38.887)" fill="#00c389"/></g><path d="M144.185,173.35H278.757v4.63H139.87Z" transform="translate(-72.14 -89.402)" fill="#89c5cc" fill-rule="evenodd"/><g transform="translate(0 0)"><g transform="translate(20.737 84.297)"><g transform="translate(0)"><g transform="translate(0 13.08)"><ellipse cx="37.288" cy="35.594" rx="37.288" ry="35.594" transform="translate(0 0)" fill="#c5cfd6"/></g><path d="M186.757,269.438c-6.2-13.734-10.693-25.69-12.494-32-3.085-10.8-5.429-20.31-6.024-23.86-1.414-8.465,10.877-8.959,12.5-4.751,2.46,6.368,6.751,27.288,11.908,58.892Zm-71.971-43.1c5.695-2.252,25.627-9.293,35.245-11.283,2.765-.571,5.443-1.1,7.956-1.584,7.482-1.429,11.361,12.073,4.155,13.109-17.952,2.581-43.4,5.249-45.574,5.55C113.518,232.547,111.208,227.753,114.786,226.339Z" transform="translate(-79.004 -190.663)" fill="#b28b67" fill-rule="evenodd"/><path d="M182.624,193.16,151.83,177.484V174.07h3.661q44.688,11.39,45.671,14.6c0,.024.015.048.019.068l.044.058c5.9,8.121,9.438,47.758,10.6,50.727l-11.312,1.69c-4.329-16.049-18.174-27.225-17.806-46.446A6.493,6.493,0,0,1,182.624,193.16Z" transform="translate(-99.045 -174.07)" fill="#1f28cf" fill-rule="evenodd"/><path d="M131.188,202.477c-2.818-.562-5.414-1.065-7.632-1.458-14.339-2.513-18.523-10.194-16.048-26.94h26.421c4.315,1.24,26.746,10.644,38.383,15.651,7.7,3.312,5.274,15.25.91,18.354a.428.428,0,0,1-.242.378c-23.463,9.724-42.029,4.625-48.228,6.252l-2.867-9.046Z" transform="translate(-75.842 -174.075)" fill="#2b44ff" fill-rule="evenodd"/><g transform="translate(40.023 32.212) rotate(64)"><path d="M.814,2.947A10.4,10.4,0,0,0,0,6.191a24.333,24.333,0,0,0,.436,3.821H27.748q1.068-3.523-1.23-3.8T22.707,5.7L10.01.041a.484.484,0,0,0-.639.247s0,.01,0,.015L8.547,2.283a8.745,8.745,0,0,1-3.453.993A7.805,7.805,0,0,1,2.116,2.4h0a.969.969,0,0,0-1.283.475A.14.14,0,0,1,.814,2.947Z" transform="translate(0 0)" fill="#e4e4e4" fill-rule="evenodd"/></g><g transform="translate(104.117 73.291)"><path d="M-4.356,196.352A10.4,10.4,0,0,0-5.17,199.6a24.333,24.333,0,0,0,.436,3.821H22.578q1.068-3.523-1.23-3.8t-3.811-.508L4.845,193.456a.484.484,0,0,0-.639.247s0,.01,0,.015L3.382,195.7a8.745,8.745,0,0,1-3.453.993,7.805,7.805,0,0,1-2.978-.872h0a.969.969,0,0,0-1.283.475C-4.337,196.308-4.347,196.328-4.356,196.352Z" transform="translate(5.17 -193.415)" fill="#e4e4e4" fill-rule="evenodd"/></g></g></g><g transform="translate(0 28.742)"><path d="M94.919,121.183l17.545-7.7a41.551,41.551,0,0,1,8.906-6.983c.857-.271,2.32-.354.76,1.923s-3.1,4.746-2.475,5.545,2.431-.082,3.143,1.216q.712,1.3-9.133,3.109l-13.143,10.078ZM23.98,123.3,33.9,125.27q-14.971,27.9-16.053,29.569c-1.627,2.508-.111,7.114.45,9.535-3.521.818-2.136-4.484-6.591-3.375-4.068,1.012-7.521,3.6-11.312.107-.465-.431-.809-1.772.785-2.465,3.961-1.719,9.816-4.935,10.765-6.184Q13.885,149.915,23.98,123.3Z" transform="translate(-0.007 -83.594)" fill="#b28b67" fill-rule="evenodd"/><path d="M125.645,63.917l4.189-.717c9.119,8.848,12.843,30.1,18.92,32.916,5.748,2.659,13.894.087,23.579-3.39L175.3,99.35c-8.8,9.521-27.54,17.559-35.138,12.969C128.013,104.982,125.209,78.764,125.645,63.917Z" transform="translate(-64.782 -61.336)" fill="#db2721" fill-rule="evenodd"/><path d="M88,114.556h37.051c1.695,0,1.375-2.446,1.128-3.68-2.823-14.237-13.85-29.584-13.85-49.85L101.642,59.35C92.8,73.568,89.743,91.069,88,114.556Z" transform="translate(-45.388 -59.35)" fill="#dde3e9" fill-rule="evenodd"/><path d="M51.814,100.14q-11.332,20.434-19.046,29.429L25,128.048q7.5-46.54,43.463-68.7H72.7q14.39,49.061,7.937,65.376H47.276A121.622,121.622,0,0,1,51.814,100.14Z" transform="translate(-12.897 -59.35)" fill="#ff4133" fill-rule="evenodd"/></g><g transform="translate(47.652)"><g transform="translate(8.19 1.067)"><path d="M67.993-12.862A13.114,13.114,0,0,1,65.916-22.7c2.228-10.145,16.17-5.792,18.184-.208S83.853-4.243,80.129-3.85c-1.487.16-4.4-1.2-7.23-3.521L72.816,6.692,61.32,5Z" transform="translate(-61.32 28.799)" fill="#b28b67" fill-rule="evenodd"/></g><path d="M110.008-22.734c-.242-.194-.741-.61-1-.77-.063-.039-.475-.436-.489-.436-.368.068-1.448.354-1.588.717-.019.024-.034.053-.053.073-.184.242-.354.489-.518.741-.363.552-.692,1.143-1.012,1.724-.62,1.138-1.186,2.31-1.719,3.487-.547,1.2-1.036,2.426-1.564,3.632-.76,1.739-1.651,3.414-2.407,5.153a10.672,10.672,0,0,0-.92,3.458c0,.015,0,.029,0,.044v.019c-.015.184-.019.373-.019.557v.484c.576-.823,1.065-1.758,1.564-2.634.048-.087.1-.174.14-.262.145-.169.291-.344.441-.513.935-1.065,1.869-2.131,2.775-3.225a64.468,64.468,0,0,1,5.094-5.734c.542-.518,1.1-1.027,1.637-1.55.305-.3.61-.6.9-.915.208-.223,1.094-.978.9-1.54A14.644,14.644,0,0,0,110.008-22.734Z" transform="translate(-81.13 25.907)" fill="#2c2c2c" fill-rule="evenodd"/><path d="M90.361-25.546c.242.126.2-.426-.024-.654-1.022-1.036-5.37-2-9.308-1.768a18.77,18.77,0,0,0-8.111,2.441,12.976,12.976,0,0,0-4.7,5.816,18.657,18.657,0,0,0-1.535,7.588c0,.576.1,1.138.121,1.7a12.8,12.8,0,0,0,.107,1.874c.068.387.228.78.276,1.167a2.566,2.566,0,0,1-.223,1.24,14.024,14.024,0,0,1-.877,1.99c-.528.949-1.123,1.826-1.564,2.828C63.935.009,61.663,4.295,62.656,5.7L84.942,8.982c-.334-1.613-1.753-3.661-1.855-5.351-.058-.993.155-3.119.145-3.2C83.242-3.1,82.5-4.9,81.978-5.589s-1.317-1-1.283-1.521c.14-2.179,1.3-4.116,2.228-6.029,1.1-2.286,2.01-4.659,3.133-6.93C86.545-21.081,89.1-26.19,90.361-25.546Z" transform="translate(-62.408 28.002)" fill="#8991dc" fill-rule="evenodd"/><path d="M89.774-20.273a18.3,18.3,0,0,0-1.981,7.608l-.412-.058c-.266-3.55.9-6.688,1.874-7.627Zm-12.291,5.22c1.007,4.029,1.39,6.378,5.312,10.1l-.373.189c-3.981-3.1-4.814-6.223-5.293-10.174Zm7.007-2.92c-.082,5.5-.329,8.61,2.508,15.056l-.412.063c-3.056-5.7-3.046-9.981-2.47-15.143ZM78.04-2.548l.4-.358C82.83-.786,81.876,2.115,87.232,5.98L86.7,6.2C81.934,3.36,81.406-1.309,78.04-2.548Z" transform="translate(-70.001 24.056)" fill="rgba(0,0,0,0.2)" fill-rule="evenodd"/></g></g><rect width="25.138" height="79.013" transform="translate(170.534 88.578)" fill="#89c5cc"/><rect width="25.138" height="8.794" transform="translate(170.534 88.578)" fill="#69a1ac"/><path d="M197.59,169.2h15.676s-.688-3.893-7.826-3.893S197.59,169.2,197.59,169.2Z" transform="translate(-101.908 -85.255)" fill="#c5cfd6"/></svg>