<svg xmlns="http://www.w3.org/2000/svg" width="70" height="70" viewBox="0 0 70 70"><g transform="translate(-513 -1807)"><circle cx="35" cy="35" r="35" transform="translate(513 1807)" fill="#f46e33"/><g transform="translate(1387.89 1909.628)"><path d="M-838.75-57.88h8.27a1.91,1.91,0,0,1,1.91,1.91v2.31a1.91,1.91,0,0,1-1.91,1.91h-8.27a1.91,1.91,0,0,1-1.91-1.91v-2.31A1.91,1.91,0,0,1-838.75-57.88Z" fill="#fff"/><path d="M-838.75-70.88h14.27a1.91,1.91,0,0,1,1.91,1.91v2.31a1.91,1.91,0,0,1-1.91,1.91h-14.27a1.91,1.91,0,0,1-1.91-1.91v-2.31A1.91,1.91,0,0,1-838.75-70.88Z" fill="#fff"/><path d="M-838.75-83.88h20.27a1.91,1.91,0,0,1,1.91,1.91v2.31a1.91,1.91,0,0,1-1.91,1.91h-20.27a1.91,1.91,0,0,1-1.91-1.91v-2.31A1.91,1.91,0,0,1-838.75-83.88Z" fill="#fff"/><path d="M-853.53-82.84a2.069,2.069,0,0,0-3.26,0l-7.05,9.12a2.073,2.073,0,0,0,1.66,3.33h3.53v17.82a1.191,1.191,0,0,0,1.2,1.2h4.53a1.191,1.191,0,0,0,1.2-1.2V-70.39h3.59a2.089,2.089,0,0,0,1.66-3.33Z" fill="#fff"/></g></g></svg>