<svg xmlns="http://www.w3.org/2000/svg" width="55" height="55" viewBox="0 0 55 55">
  <g id="Group_1260" data-name="Group 1260" transform="translate(-132 -1936)">
    <circle id="Ellipse_133" data-name="Ellipse 133" cx="27.5" cy="27.5" r="27.5" transform="translate(132 1936)" fill="#00b2ff"/>
    <g id="Group_1247" data-name="Group 1247" transform="translate(1265.241 1986.159)">
      <path id="Path_999" data-name="Path 999" d="M-1111.2-34.652a5.768,5.768,0,0,0-5.76,5.763,5.766,5.766,0,0,0,5.76,5.76,5.768,5.768,0,0,0,5.762-5.76A5.77,5.77,0,0,0-1111.2-34.652Z" transform="translate(5.615 6.334)" fill="#fff"/>
      <path id="Path_1000" data-name="Path 1000" d="M-1093.29-34.622h-4.365a5.969,5.969,0,0,0-5.969-5.967h-4.134a5.886,5.886,0,0,0-5.967,5.967h-4.367a4.146,4.146,0,0,0-4.134,4.134v16.535a4.146,4.146,0,0,0,4.134,4.134h24.8a4.146,4.146,0,0,0,4.134-4.134V-30.488A4.146,4.146,0,0,0-1093.29-34.622Zm-12.3,21.961a9.893,9.893,0,0,1-9.894-9.894,9.9,9.9,0,0,1,9.894-9.9,9.9,9.9,0,0,1,9.9,9.9A9.9,9.9,0,0,1-1105.589-12.661Z" fill="#fff"/>
    </g>
  </g>
</svg>
