<svg id="Group_2713" data-name="Group 2713" xmlns="http://www.w3.org/2000/svg" width="70" height="70" viewBox="0 0 70 70">
  <g id="Group_2713-2" data-name="Group 2713">
    <g id="Group_1372_1_" transform="translate(-193 -30)">
      <circle id="Ellipse_271_1_" cx="35" cy="35" r="35" transform="translate(193 30)" fill="#00b2ff"/>
    </g>
  </g>
  <path id="Path_2508" data-name="Path 2508" d="M50.04,17.72a3.239,3.239,0,0,1,3.24,3.24V40.4a3.239,3.239,0,0,1-3.24,3.24H30.6a3.239,3.239,0,0,1-3.24-3.24V20.96a3.239,3.239,0,0,1,3.24-3.24H50.04M30.6,45.8a5.4,5.4,0,0,1-5.4-5.4V26.36H21.96a3.239,3.239,0,0,0-3.24,3.24V49.04a3.239,3.239,0,0,0,3.24,3.24H41.4a3.239,3.239,0,0,0,3.24-3.24V45.8Z" fill="#fff"/>
</svg>
