<svg xmlns="http://www.w3.org/2000/svg" xmlns:xlink="http://www.w3.org/1999/xlink" width="385.44" height="400.375" viewBox="0 0 385.44 400.375"><defs><clipPath id="a"><circle cx="186.969" cy="186.969" r="186.969"/></clipPath></defs><circle cx="186.969" cy="186.969" r="186.969" transform="translate(11.501 26.437)" fill="rgba(141,95,214,0.1)"/><g transform="translate(11.501 26.437)"><g clip-path="url(#a)"><g transform="translate(-118.296 18.639)"><g transform="translate(0 452.447)"><path d="M105.57,445.56l61.46,280.756,38.323,210.8h38.457L205.42,445.56Z" transform="translate(12.313 -445.56)" fill="#fe7ce4" fill-rule="evenodd"/><path d="M80.673,445.56c5.684,145.855-16.571,225.4-17.844,238.647S54.331,786.2,5.11,941.547H45.119c65.189-149.026,87.946-237.776,95.416-257.34s29.557-99.124,61.795-238.647H80.673Z" transform="translate(0.596 -445.56)" fill="#fe7ce4" fill-rule="evenodd"/><path d="M104,445.56c21.194,96.611,37.832,250.819,89.945,462.633H250.2c4.154-217.409-13.522-360.495-44.129-462.633Z" transform="translate(12.13 -445.56)" fill="gray" fill-rule="evenodd"/><path d="M80.205,445.56C85.777,591.415,51.329,735.1,6.63,910.471H66.649c65.312-146.8,112.11-289.789,144.1-464.911H80.205Z" transform="translate(0.773 -445.56)" fill="#999" fill-rule="evenodd"/><g transform="translate(0 484.877)"><path d="M-84,720.821l2.211-35.587q19.379,5.678,48.562-4.444,31.372,22.227,78.98,30.35h0a4.452,4.452,0,0,1,3.64,5.136c-.022.156-.067.313-.1.469L46.244,727.51H-79.567Z" transform="translate(84 -680.79)" fill="#1a1a1a" fill-rule="evenodd"/></g><g transform="translate(209.079 484.877)"><path d="M9.24,720.821l2.211-35.587q19.379,5.678,48.562-4.444,31.372,22.227,78.98,30.35h0a4.452,4.452,0,0,1,3.64,5.136c-.022.156-.067.313-.1.469l-3.048,10.764H13.651Z" transform="translate(-9.24 -680.79)" fill="#1a1a1a" fill-rule="evenodd"/></g></g><g transform="translate(74.736 83.389)"><g transform="translate(259.335)"><path d="M388.8,115.675l-77.294,21.183a16.527,16.527,0,0,0-12.261,17.464L310.213,283.64a16.781,16.781,0,0,0,20.066,15.052l79.705-16.169A16.549,16.549,0,0,0,423.362,264.5L410.174,130.169C409.236,119.762,399.2,112.884,388.8,115.675Z" transform="translate(-299.176 -115.051)" fill="#e6e6e6"/><path d="M386.657,124.458l-72.648,20.066a10.481,10.481,0,0,0-7.615,10.965L317.917,280.72a10.187,10.187,0,0,0,12.261,9.1l74.882-15.231a10.109,10.109,0,0,0,8.174-11.144L399.666,133.391A10.345,10.345,0,0,0,386.657,124.458Z" transform="translate(-298.338 -113.996)" fill="#fff"/><path d="M330.52,146.364l39.752-10.954v6.5L330.52,152.874Z" transform="translate(-295.52 -112.676)" fill="#e6e6e6"/><g transform="translate(18.083 48.003)"><path d="M315.37,169.005l39.763-10.965.19,3.339L315.56,172.534Z" transform="translate(-315.37 -158.04)" fill="#e6e6e6"/><path d="M342.5,167.132l10.4-2.6.748,6.689-10.6,2.78Z" transform="translate(-312.206 -157.283)" fill="#fd2f58"/><path d="M329.02,170.792l10.407-2.6.737,6.689-10.586,2.6Z" transform="translate(-313.778 -156.856)" fill="#ffad22"/><path d="M315.37,174.282l10.6-2.6.558,6.689-10.407,2.6Z" transform="translate(-315.37 -156.449)" fill="#00c389"/><circle cx="3.529" cy="3.529" r="3.529" transform="translate(12.171 25.403)" fill="#f2f2f2"/><circle cx="3.529" cy="3.529" r="3.529" transform="translate(1.027 28.005)" fill="#f2f2f2"/></g><g transform="translate(22.17 89.252)"><path d="M319.03,205.945l39.763-10.965.19,3.339L319.22,209.474Z" transform="translate(-319.03 -194.98)" fill="#e6e6e6"/><path d="M345.99,204.072l10.586-2.6.558,6.689-10.586,2.78Z" transform="translate(-315.885 -194.223)" fill="#fd2f58"/><path d="M332.51,207.752l10.6-2.792.558,6.878-10.6,2.6Z" transform="translate(-317.458 -193.816)" fill="#ffad22"/><path d="M319.03,211.24l10.6-2.78.558,6.867-10.6,2.6Z" transform="translate(-319.03 -193.408)" fill="#00c389"/><circle cx="3.529" cy="3.529" r="3.529" transform="translate(11.993 25.403)" fill="#f2f2f2"/><circle cx="3.529" cy="3.529" r="3.529" transform="translate(0.837 27.994)" fill="#f2f2f2"/></g><g transform="translate(27.753 135.882)"><path d="M324.03,247.9l39.752-11.155v3.529L324.03,251.234Z" transform="translate(-324.03 -236.74)" fill="#e6e6e6"/><path d="M350.98,246.022l10.6-2.792.558,6.878-10.6,2.6Z" transform="translate(-320.887 -235.983)" fill="#fd2f58"/><path d="M337.5,249.492l10.6-2.6.558,6.689-10.6,2.792Z" transform="translate(-322.459 -235.556)" fill="#ffad22"/><path d="M324.03,252.992l10.4-2.6.748,6.689-10.586,2.78Z" transform="translate(-324.03 -235.148)" fill="#00c389"/><circle cx="3.529" cy="3.529" r="3.529" transform="translate(11.982 25.593)" fill="#f2f2f2"/><circle cx="3.529" cy="3.529" r="3.529" transform="translate(0.826 28.195)" fill="#f2f2f2"/></g></g><path d="M211.17,271.891l77.2-42.287c12.841-15.242,30.685-31.333,43.147-39.763,3.808-1.586,10.463-2.557,4.243,8.5s-17.475,27.2-14.3,30.607,11.077-1.351,14.862,4.31q3.785,5.661-40.545,17.877l-56.1,51.365Z" transform="translate(-50.106 -106.44)" fill="#b28b67" fill-rule="evenodd"/><g transform="translate(0 52.604)"><path d="M319.46,299.988l33.912-18.625q7.135-27.151,17.062-27.324c5.081-2.367-3.774,20.513,5.862,18.525s19.4-3.8,19.4-3.8c-.056,6.242,1.988,11.111-4.31,19.139-11.769,15-5.047,18.29-29.144,25q-18.893,5.276-40.858,21.116Z" transform="translate(-37.475 -151.464)" fill="#b28b67" fill-rule="evenodd"/><path d="M178.416,257.957c27.045-.29,63.1-6,101.58-30.417l15.108,33.7c-26.542,26.341-63.86,47.982-96.488,47.066C172.911,307.58,159.768,276.471,178.416,257.957Z" transform="translate(-54.949 -154.534)" fill="#c5cfd6" fill-rule="evenodd"/><path d="M226.81,319.628q43.063,10.736,144.426-25.325c16.761,34.672,22.288,48.272,21.015,63.045-57.965,30.283-124.148,30.987-167.462,24.745,1.3,24.287-2.792,78.444-12.73,99.559-20.412,43.415-97.706,3.2-137.9,11.122C48.986,411.025,97.649,377.8,97.693,325.49c-8.676-144.984,15.465-163.33,22.232-163.33l78.544,34.1C201.887,240,212.752,271.992,226.81,319.628Z" transform="translate(-66.929 -162.16)" fill="#dde3e9" fill-rule="evenodd"/></g></g><path d="M175.77,211.538c2.5-4.031,10.016-18.838,10.016-18.838l6.633,23.07-6.778,5.114Z" transform="translate(20.501 -22.605)" fill="#db2721" fill-rule="evenodd"/><path d="M184.61,218.475l12.261,91.475,16.214,3.707-21.7-100.307Z" transform="translate(21.532 -20.197)" fill="#ff4133" fill-rule="evenodd"/><g transform="translate(127.352)"><path d="M102.906,80.209c-6.555-14.762-9.078-31.221-3.149-47.077C116.842-12.55,178.737,16.941,184.4,44.22s-13.522,86.562-31.087,85.936c-7.012-.246-19.664-8.464-31.255-21.149l-9.692,65.3L60.05,158.82Z" transform="translate(-60.05 -9.372)" fill="#b28b67" fill-rule="evenodd"/></g><path d="M209.23,359.12h-7.761l-1.139,70.638,7.761,18.2L213,426.442Z" transform="translate(23.366 -3.195)" fill="#ff4133" fill-rule="evenodd"/><path d="M270.266,227.54l-17.2,9.8,8.6,43.951,23.706-20.055Z" transform="translate(29.517 -18.541)" fill="#fff" fill-rule="evenodd"/><path d="M341.819,280.49l-22.679,6.153s20.133,52.906,17.006,69.924l26.688-13.042C362.834,343.535,373.464,345.813,341.819,280.49Z" transform="translate(37.223 -12.366)" fill="#fff" fill-rule="evenodd"/></g></g></g><path d="M188.723,43.325C217.7,42,248.653,62.732,237.777,82.72c-6.99,12.841-24.89,14.985-42.667,17.688a14.044,14.044,0,0,0-9.737-10.15,13.834,13.834,0,0,0-17.3,9.112,13.362,13.362,0,0,0,.034,7.694c-6.61,3.015-11.937,7.414-14.952,14.282-8.464-2.5-14.8-31.411-3.294-53.666a35.56,35.56,0,0,1-3.663-.871,34.1,34.1,0,1,1,42.521-23.483Z" transform="translate(-92.592 -0.005)" fill="#191847" fill-rule="evenodd"/><path d="M195.132,197.212,122.35,153.92,95.64,172.2l87.086,51.2Z" transform="translate(-95.64 17.947)" fill="#fff" fill-rule="evenodd"/></svg>