<svg id="Group_2714" data-name="Group 2714" xmlns="http://www.w3.org/2000/svg" width="70" height="70" viewBox="0 0 70 70">
  <g id="Group_1372_1_" transform="translate(-193 -30)">
    <circle id="Ellipse_271_1_" cx="35" cy="35" r="35" transform="translate(193 30)" fill="#fd2f58"/>
  </g>
  <g id="Group_2714-2" data-name="Group 2714">
    <path id="Rectangle_956_4_" d="M32.64,50.5v-31a1.472,1.472,0,0,1,1.47-1.47h1.78a1.472,1.472,0,0,1,1.47,1.47v31a1.472,1.472,0,0,1-1.47,1.47H34.11A1.472,1.472,0,0,1,32.64,50.5Z" fill="#fff"/>
    <path id="Rectangle_956_2_" d="M47.25,44.79,20.4,29.29a1.48,1.48,0,0,1-.54-2.01l.89-1.54a1.48,1.48,0,0,1,2.01-.54L49.61,40.7a1.48,1.48,0,0,1,.54,2.01l-.89,1.54A1.465,1.465,0,0,1,47.25,44.79Z" fill="#fff"/>
    <path id="Rectangle_956_1_" d="M20.75,44.26l-.89-1.54a1.465,1.465,0,0,1,.54-2.01l26.85-15.5a1.465,1.465,0,0,1,2.01.54l.89,1.54a1.465,1.465,0,0,1-.54,2.01L22.76,44.8A1.478,1.478,0,0,1,20.75,44.26Z" fill="#fff"/>
  </g>
</svg>
