<svg xmlns="http://www.w3.org/2000/svg" width="112.9" height="269.302" viewBox="0 0 112.9 269.302"><g transform="translate(0 0.002)"><g transform="translate(0 24.673)"><g transform="translate(0 114.417)"><path d="M53,255.3l15.053,68.766L77.44,375.7h9.42l-9.4-120.4Z" transform="translate(-24.125 -255.3)" fill="#b26e40" fill-rule="evenodd"/><path d="M21.077,255.3c1.395,35.723-4.059,55.211-4.369,58.458S14.627,338.743,2.57,376.793h9.8c15.968-36.5,21.542-58.24,23.372-63.035s7.241-24.277,15.135-58.458h-29.8Z" transform="translate(-1.17 -255.3)" fill="#b26e40" fill-rule="evenodd"/><path d="M52.21,255.3c5.192,23.667,9.267,61.439,22.032,113.321H88.021c1.019-53.255-3.312-88.3-10.809-113.321Z" transform="translate(-23.765 -255.3)" fill="#69a1ac" fill-rule="evenodd"/><path d="M21.352,255.3c1.362,35.723-7.072,70.924-18.022,113.877h14.7A482.582,482.582,0,0,0,53.333,255.3Z" transform="translate(-1.516 -255.3)" fill="#89c5cc" fill-rule="evenodd"/><g transform="translate(0 118.769)"><path d="M-84,284.107l.539-8.717q4.748,1.389,11.893-1.09,7.682,5.443,19.346,7.431h0a1.1,1.1,0,0,1,.893,1.258.87.87,0,0,1-.027.114l-.746,2.637h-30.82Z" transform="translate(84 -274.3)" fill="#424242" fill-rule="evenodd"/></g><g transform="translate(51.212 118.769)"><path d="M-84,284.107l.539-8.717q4.748,1.389,11.893-1.09,7.682,5.443,19.346,7.431h0a1.1,1.1,0,0,1,.893,1.258.87.87,0,0,1-.027.114l-.746,2.637h-30.82Z" transform="translate(84 -274.3)" fill="#424242" fill-rule="evenodd"/></g></g><g transform="translate(31.812)"><g transform="translate(0 3.814)"><path d="M11.456,39.356A14.761,14.761,0,0,1,8.874,28.345c2.256-11.468,18.044-6.914,20.447-.681s.18,21-4,21.536c-1.667.212-4.98-1.237-8.216-3.781l.256,15.821L4.39,59.617Z" transform="translate(-4.39 -21.289)" fill="#bc7d4d" fill-rule="evenodd"/></g><path d="M65.743,69.648C65.018,62.2,61,56.682,62.109,53.533a4.956,4.956,0,0,1,4.282-3.558q2.386-6.219,10.918-4.184c8.532,2.038,13.359,6.287,10.1,13.909-2.1-.262-4.533-1.335-8.194-.474-1.16.272-2.114,1.455-2.86,3.536l-1.585-.2q-1.822-4.1-4.19-3.372t-1.629,4.783l-1.525,5.879Z" transform="translate(-59.995 -45.289)" fill="#443118" fill-rule="evenodd"/></g><g transform="translate(13.116 20.982)"><g transform="translate(67.236)"><path d="M170.953,83.964l-20.24,5.546a4.323,4.323,0,0,0-3.209,4.571l2.871,33.866a4.394,4.394,0,0,0,5.257,3.939l20.872-4.233a4.325,4.325,0,0,0,3.5-4.718l-3.454-35.179A4.389,4.389,0,0,0,170.953,83.964Z" transform="translate(-147.486 -83.801)" fill="#e6e6e6"/><path d="M172.372,88.759l-19.025,5.257a2.75,2.75,0,0,0-1.994,2.871l3.018,32.792a2.671,2.671,0,0,0,3.209,2.386l19.608-3.988a2.65,2.65,0,0,0,2.141-2.92L175.777,91.1A2.706,2.706,0,0,0,172.372,88.759Z" transform="translate(-149.243 -86.014)" fill="#fff"/><path d="M164.3,97.6l10.417-2.871v1.705L164.3,99.306Z" transform="translate(-155.139 -88.776)" fill="#e6e6e6"/><g transform="translate(4.737 12.574)"><path d="M156.18,109.751l10.411-2.871.049.877-10.411,2.915Z" transform="translate(-156.18 -106.88)" fill="#e6e6e6"/><path d="M170.73,111.041l2.73-.681.191,1.754-2.773.73Z" transform="translate(-162.803 -108.464)" fill="#fd2f58"/><path d="M163.5,113.011l2.724-.681.2,1.749-2.773.681Z" transform="translate(-159.512 -109.361)" fill="#ffad22"/><path d="M156.18,114.881l2.773-.681.147,1.754-2.73.681Z" transform="translate(-156.18 -110.212)" fill="#00c389"/><circle cx="0.926" cy="0.926" r="0.926" transform="translate(3.182 6.647)" fill="#f2f2f2"/><circle cx="0.926" cy="0.926" r="0.926" transform="translate(0.262 7.328)" fill="#f2f2f2"/></g><g transform="translate(5.805 23.372)"><path d="M158.14,129.571l10.411-2.871.049.877-10.411,2.92Z" transform="translate(-158.14 -126.7)" fill="#e6e6e6"/><path d="M172.61,130.871l2.773-.681.147,1.749-2.773.73Z" transform="translate(-164.727 -128.289)" fill="#fd2f58"/><path d="M165.38,132.79l2.773-.73.142,1.8-2.773.681Z" transform="translate(-161.436 -129.14)" fill="#ffad22"/><path d="M158.14,134.67l2.773-.73.147,1.8-2.773.681Z" transform="translate(-158.14 -129.996)" fill="#00c389"/><circle cx="0.926" cy="0.926" r="0.926" transform="translate(3.138 6.652)" fill="#f2f2f2"/><circle cx="0.926" cy="0.926" r="0.926" transform="translate(0.218 7.333)" fill="#f2f2f2"/></g><g transform="translate(7.265 35.587)"><path d="M160.82,152.04l10.411-2.92v.926l-10.411,2.871Z" transform="translate(-160.82 -149.12)" fill="#e6e6e6"/><path d="M175.29,153.33l2.773-.73.147,1.8-2.773.681Z" transform="translate(-167.407 -150.704)" fill="#fd2f58"/><path d="M168.06,155.251l2.773-.681.142,1.749-2.773.73Z" transform="translate(-164.116 -151.601)" fill="#ffad22"/><path d="M160.82,157.121l2.724-.681.2,1.754-2.773.73Z" transform="translate(-160.82 -152.452)" fill="#00c389"/><circle cx="0.926" cy="0.926" r="0.926" transform="translate(3.138 6.696)" fill="#f2f2f2"/><circle cx="0.926" cy="0.926" r="0.926" transform="translate(0.218 7.377)" fill="#f2f2f2"/></g></g><path d="M106.02,147.642l18.91-10.357a46.811,46.811,0,0,1,9.295-8.7c.932-.387,2.566-.627,1.041,2.081s-3.007,5.622-2.228,6.456,2.713-.332,3.639,1.057q.923,1.389-9.932,4.38L113,155.138Z" transform="translate(-61.375 -104.079)" fill="#b26e40" fill-rule="evenodd"/><path d="M140.73,137.275a46.81,46.81,0,0,1,9.295-8.7c.932-.387,2.566-.627,1.041,2.081s-3.007,5.622-2.228,6.456,2.713-.332,3.639,1.057q.923,1.389-9.932,4.38Z" transform="translate(-77.175 -104.074)" fill-rule="evenodd"/><g transform="translate(0 15.919)"><path d="M160.38,170.346l8.308-4.566q1.749-6.652,4.179-6.7c1.248-.578-.921,5.023,1.438,4.538s4.751-.932,4.751-.932c-.011,1.531.485,2.719-1.057,4.685-2.882,3.672-1.237,4.478-7.137,6.124a32.364,32.364,0,0,0-10.008,5.176Z" transform="translate(-86.119 -133.969)" fill="#b26e40" fill-rule="evenodd"/><path d="M175.63,165.791q1.749-6.652,4.179-6.7c1.248-.577-.921,5.023,1.438,4.538S186,162.7,186,162.7c-.011,1.531.485,2.719-1.057,4.685-2.882,3.672-1.237,4.478-7.137,6.124Z" transform="translate(-93.061 -133.974)" fill-rule="evenodd"/><path d="M87.317,153.293A46.48,46.48,0,0,0,112.2,145.84l3.7,8.254c-6.5,6.451-15.642,11.752-23.634,11.528A7.222,7.222,0,0,1,87.317,153.293Z" transform="translate(-51.885 -127.959)" fill="#c5cfd6" fill-rule="evenodd"/><path d="M68.425,151.593q10.55,2.631,35.375-6.205c4.108,8.494,5.459,11.822,5.148,15.44-14.2,7.415-30.411,7.589-41.019,6.064.316,5.949,8.194,83.144,5.764,88.32-5,10.635-39.717-.561-49.562,1.373C23.091,167.7,36.51,205.1,36.8,153.026,34.68,117.509,40.6,113.02,42.252,113.02L61.5,121.372C62.323,132.088,64.982,139.923,68.425,151.593Z" transform="translate(-24.074 -113.02)" fill="#dde3e9" fill-rule="evenodd"/></g></g><path d="M72.385,119.488,54.553,108.88l-6.543,4.478L69.345,125.9Z" transform="translate(-21.854 -74.235)" fill="#fff" fill-rule="evenodd"/><path d="M131.261,145.84l-4.211,2.4,2.108,10.766,5.808-4.914Z" transform="translate(-57.832 -91.059)" fill="#fff" fill-rule="evenodd"/><path d="M165.777,172.43l-5.557,1.509s4.931,12.961,4.168,17.129l6.538-3.193C170.926,187.87,173.524,188.431,165.777,172.43Z" transform="translate(-72.93 -103.162)" fill="#fff" fill-rule="evenodd"/></g><path d="M56.64,36.959l25.808-4L77.19,7.784s1.776.763,2.675-2.888S74.995-1.8,72.1,1.241s-3.808,3.345-7.453,2.435-5.475,1.52-6.385,3.04S56.15,8.76,54.21,8.237c-1.438-.387-4.62-.305-5,3.345s5,3.345,5,3.345Z" transform="translate(-22.393 0)" fill="#dde3e9" fill-rule="evenodd"/></g></svg>