<svg xmlns="http://www.w3.org/2000/svg" width="55" height="55" viewBox="0 0 55 55">
  <g id="Group_1268" data-name="Group 1268" transform="translate(-1603 -1806)">
    <circle id="Ellipse_223" data-name="Ellipse 223" cx="27.5" cy="27.5" r="27.5" transform="translate(1603 1806)" fill="#fd2f58"/>
    <g id="Group_1252" data-name="Group 1252" transform="translate(1693.03 2730.348)">
      <path id="Path_1003" data-name="Path 1003" d="M-61.67-907.232h-1.808v5.423a.906.906,0,0,0,.546.83l4.615,1.988.716-1.659L-61.67-902.4Z" transform="translate(13.021 5.78)" fill="#fff"/>
      <path id="Path_1004" data-name="Path 1004" d="M-49.184-906.349a9.922,9.922,0,0,0-1.495.125v-.935a3.626,3.626,0,0,0-3.615-3.615h-3.615v-1.808a1.708,1.708,0,0,0-1.808-1.808,1.708,1.708,0,0,0-1.808,1.808v1.808h-7.231v-1.808a1.708,1.708,0,0,0-1.808-1.808,1.708,1.708,0,0,0-1.808,1.808v1.808h-3.615a3.626,3.626,0,0,0-3.615,3.615v21.692a3.626,3.626,0,0,0,3.615,3.615h21.692a3.626,3.626,0,0,0,3.615-3.615v-1.213a9.914,9.914,0,0,0,1.495.125,9.9,9.9,0,0,0,9.9-9.9A9.9,9.9,0,0,0-49.184-906.349Zm-26.8-.81h3.615v1.808a1.708,1.708,0,0,0,1.808,1.808,1.708,1.708,0,0,0,1.808-1.808v-1.808h7.231v1.808a1.708,1.708,0,0,0,1.808,1.808,1.708,1.708,0,0,0,1.808-1.808v-1.808h3.615v2.242a9.909,9.909,0,0,0-4.147,4.989H-75.986Zm21.692,21.692H-75.986v-10.846h16.912a9.877,9.877,0,0,0,4.779,8.324Zm5.02-4.7a6.213,6.213,0,0,1-1.4-.172h0a6.263,6.263,0,0,1-3.615-2.368,6.216,6.216,0,0,1-1.247-3.6h0c0-.047-.014-.092-.014-.139a6.323,6.323,0,0,1,.114-1.133c.022-.116.051-.229.078-.343a6.473,6.473,0,0,1,.231-.745c.045-.114.085-.231.134-.343a6.356,6.356,0,0,1,.7-1.179,6.272,6.272,0,0,1,3.615-2.368h0a6.322,6.322,0,0,1,1.4-.17,6.281,6.281,0,0,1,6.282,6.281A6.282,6.282,0,0,1-49.274-890.171Z" transform="translate(0)" fill="#fff"/>
    </g>
  </g>
</svg>
