<svg xmlns="http://www.w3.org/2000/svg" width="70" height="70" viewBox="0 0 70 70"><g transform="translate(-513 -1807)"><circle cx="35" cy="35" r="35" transform="translate(513 1807)" fill="#8d5fd6"/><g transform="translate(1387.89 1909.628)"><path d="M-856.76-86.66h33.74a2.741,2.741,0,0,1,2.9,2.54v7.41a2.741,2.741,0,0,1-2.9,2.54h-33.74a2.741,2.741,0,0,1-2.9-2.54v-7.41A2.741,2.741,0,0,1-856.76-86.66Z" fill="#fff"/><path d="M-805.48-66.86h-52.27a1.91,1.91,0,0,0-1.91,1.91v2.31a1.91,1.91,0,0,0,1.91,1.91h52.18a35.219,35.219,0,0,0,.66-6.03A1.8,1.8,0,0,0-805.48-66.86Z" fill="#fff"/><path d="M-807.45-54.49h-50.3a1.91,1.91,0,0,0-1.91,1.91v2.31a1.91,1.91,0,0,0,1.91,1.91h47.08A35.065,35.065,0,0,0-807.45-54.49Z" fill="#fff"/></g></g></svg>