<svg xmlns="http://www.w3.org/2000/svg" width="55" height="55" viewBox="0 0 55 55"><circle cx="27.5" cy="27.5" r="27.5" fill="#ffad22"/><g transform="translate(5.241 9.983)"><path d="M3.67,20.115c0-4.24,3.933-7.029,9.121-8.4h0C7.6,13.087,3.67,15.9,3.67,20.115Z" transform="translate(0.932 12.951)" fill="#fff"/><path d="M46.331,20.179A4.323,4.323,0,1,1,42.008,24.5,4.309,4.309,0,0,1,46.331,20.179ZM29.4,13.206a8.507,8.507,0,1,1-8.507,8.507A8.505,8.505,0,0,1,29.4,13.206ZM12.443,20.179A4.309,4.309,0,1,1,8.119,24.5,4.309,4.309,0,0,1,12.443,20.179ZM8.761,39.118a21.947,21.947,0,0,1-1.59-7.308,16.13,16.13,0,0,1,10.627.223C13.475,33.539,10.351,36.022,8.761,39.118ZM46.108,45.5a22.249,22.249,0,0,1-34.335-1.171v-.39c0-6.276,8.591-9.4,17.153-9.4,8.591,0,17.153,3.124,17.153,9.4V45.5Zm-5.829-13.36a15.849,15.849,0,0,1,11.38-.112,22.348,22.348,0,0,1-2.064,8.172C48.284,36.607,44.992,33.818,40.279,32.145Z" transform="translate(-7.171 -13.206)" fill="#fff"/></g></svg>