<svg xmlns="http://www.w3.org/2000/svg" width="181.126" height="269.41" viewBox="0 0 181.126 269.41"><g transform="translate(-0.002 -0.009)"><g transform="translate(78.162 19.926)"><g transform="translate(65.933)"><path d="M266.605,37.9l-7.4,34.243a4.334,4.334,0,0,1-4.724,3.394L233.529,73.2a4.34,4.34,0,0,1-3.746-5.289l7.573-32.794a4.337,4.337,0,0,1,4.411-3.357l20.779.891A4.343,4.343,0,0,1,266.605,37.9Z" transform="translate(-229.671 -31.754)" fill="#e6e6e6"/><path d="M265.2,39.594l-6.97,33.214a2.677,2.677,0,0,1-2.924,2.114l-19.681-2.2a2.68,2.68,0,0,1-2.321-3.25l7.121-31.853a2.684,2.684,0,0,1,2.735-2.1l19.531.834A2.683,2.683,0,0,1,265.2,39.594Z" transform="translate(-230.999 -33.159)" fill="#fff"/><circle cx="0.922" cy="0.922" r="0.922" transform="translate(9.768 15.714)" fill="#ffe6bd"/><circle cx="0.922" cy="0.922" r="0.922" transform="translate(15.082 11.818)" fill="#ffe6bd"/><circle cx="0.922" cy="0.922" r="0.922" transform="translate(17.648 15.369)" fill="#ffe6bd"/><circle cx="0.922" cy="0.922" r="0.922" transform="translate(22.793 9.628)" fill="#ffe6bd"/><circle cx="0.922" cy="0.922" r="0.922" transform="translate(27.718 8.831)" fill="#ffe6bd"/><path d="M246.71,54.183l5.314-3.9,2.566,3.551,5.145-5.741,4.925-.8" transform="translate(-236.02 -37.546)" fill="none" stroke="#ffad22" stroke-linecap="round" stroke-linejoin="round" stroke-miterlimit="10" stroke-width="0.5"/><path d="M255.4,40.885l10.691.433.508-1.625-10.7-.433Z" transform="translate(-239.257 -34.551)" fill="#cecece"/><g transform="translate(5.395 21.869)"><path d="M257.09,67.457l10.691.433.238-.847-10.691-.433Z" transform="translate(-245.282 -66.61)" fill="#e6e6e6"/><path d="M254.69,76.793l10.7.433.238-.847-10.7-.439Z" transform="translate(-244.388 -70.086)" fill="#e6e6e6"/><path d="M254.21,79.773l10.7.433.238-.847-10.7-.439Z" transform="translate(-244.209 -71.197)" fill="#e6e6e6"/><path d="M253.55,82.7l10.7.433.238-.847-10.7-.433Z" transform="translate(-243.963 -72.288)" fill="#e6e6e6"/><path d="M253.3,85.753l10.7.433.238-.853-10.7-.433Z" transform="translate(-243.87 -73.425)" fill="#e6e6e6"/><path d="M252.62,88.457l6.067.345.238-.853-6.067-.339Z" transform="translate(-243.617 -74.435)" fill="#e6e6e6"/><path d="M239.11,79.307l4.31.144.238-.847-4.31-.144Z" transform="translate(-238.583 -71.025)" fill="#e6e6e6"/><path d="M256.03,71.183l2.817.176.389-1.719-2.817-.169Z" transform="translate(-244.887 -67.676)" fill="#ffad22"/><path d="M238.27,83.359l2.817.176.389-1.719-2.817-.176Z" transform="translate(-238.27 -72.21)" fill="#ffad22"/></g></g><g transform="translate(0 26.982)"><g transform="translate(0 0)"><g transform="translate(0 0)"><path d="M140.1-.82l19.769-8.752q8.2-10.164,9.248-8.533c1.054,1.638-1.079,3.156-.546,4.373s8.137,1.606,8.137,1.606a30.062,30.062,0,0,1-9.543,5.007L144.893,10.122Z" transform="translate(-91.464 28.312)" fill="#f7d8c1" fill-rule="evenodd"/><path d="M62.58-31.944l10.534-2.3c9.191,22.291,27.254,32.832,56.873,18.947l12.686,28.465C114.742,25.3,85.951,21.027,71.652-8.912,67.951-16.667,64.443-24.829,62.58-31.944Z" transform="translate(-62.58 34.24)" fill="#e87613" fill-rule="evenodd"/></g></g></g></g><g transform="translate(0.002 0.009)"><g transform="translate(59.112)"><g transform="translate(15.708 11.117)"><path d="M-51.092-10.033c-3.018-3.539-5.057-7.874-4.712-12.736.985-14,20.472-10.923,24.268-3.852s3.344,25-1.562,26.257c-1.951.5-6.117-.728-10.352-3.281l2.66,18.816H-56.5Z" transform="translate(56.5 32.6)" fill="#f7d8c1" fill-rule="evenodd"/></g><path d="M22.4-10.694A3.392,3.392,0,0,0,20.021-13.1a3.171,3.171,0,0,0-.872-.088c-.107.006-.138.038-.182-.038a.85.85,0,0,1-.05-.251,4.889,4.889,0,0,0-.176-.59,4.738,4.738,0,0,0-1.161-1.725,5.863,5.863,0,0,0-3.507-1.663,5.132,5.132,0,0,0-2.108.289,7.722,7.722,0,0,0-1.023.439c-.1.05-.427.295-.527.282s-.333-.295-.42-.364a6.2,6.2,0,0,0-3.877-1.18,7.109,7.109,0,0,0-4.379,1.041,7.854,7.854,0,0,0-.791.659c-.132.125-.257.251-.383.383-.075.082-.144.163-.213.245-.119.144-.1.188-.264.088A3.259,3.259,0,0,0-2-16.045a4.67,4.67,0,0,0-1.261.358c-.138.056-.452.295-.6.295a3.016,3.016,0,0,1-.609-.27,5,5,0,0,0-2.522-.232,6.539,6.539,0,0,0-2.472.972,3.324,3.324,0,0,0-.916.834c-.107.151-.207.307-.326.445-.069.082-.213.163-.251.264a5.289,5.289,0,0,0-1.048-.464,2.623,2.623,0,0,0-1.474.056,5.844,5.844,0,0,0-2.321,1.65,6.73,6.73,0,0,0-.86,1.154,6.274,6.274,0,0,0-.32.609,2.933,2.933,0,0,1-.144.32c-.082.119-.132.119-.282.169a4.5,4.5,0,0,0-1.932,1.292,4.427,4.427,0,0,0-1,2.121,1.111,1.111,0,0,1-.038.264c-.038.031-.188.019-.245.025a5.835,5.835,0,0,0-.577.1,4.965,4.965,0,0,0-1.023.364A5.347,5.347,0,0,0-24.837-2.6a6.319,6.319,0,0,0,.1,4.335,4,4,0,0,0,.32.634c.075.125.1.125.05.251-.056.144-.157.282-.226.427A6.405,6.405,0,0,0-25.057,4.5,6.863,6.863,0,0,0-25.139,7a3.427,3.427,0,0,0,.389,1.1,2.954,2.954,0,0,0,.339.489,2.444,2.444,0,0,0,.213.226.838.838,0,0,1,.132.125c.088.113.107.019.063.188a7.247,7.247,0,0,1-.295.684c-.088.232-.169.471-.245.7a10.013,10.013,0,0,0-.358,1.468,4.6,4.6,0,0,0,.326,2.855,2.843,2.843,0,0,0,.809.96,2.861,2.861,0,0,0,.533.32c.094.044.22.063.264.157s-.025.3-.038.408a6.873,6.873,0,0,0,.082,2.949A4.059,4.059,0,0,0-21.305,21.8a5.028,5.028,0,0,0,5.025.144,5.1,5.1,0,0,0,1.123-.772c.86,1.161,2.629,1.123,3.89.791a5.6,5.6,0,0,0,3.551-2.93,2.365,2.365,0,0,0,3.758-.5,3.119,3.119,0,0,0,.32-1.029c.025-.188.006-.376.031-.565a2.732,2.732,0,0,1,.276-.7,3.926,3.926,0,0,0,.295-1.393,7.472,7.472,0,0,0-.056-.747,2.948,2.948,0,0,1,.075-.659,2.994,2.994,0,0,1-1.267-.157,2.447,2.447,0,0,1-.979-.69A5.769,5.769,0,0,1-6.5,10.293c-.558-1.832-.333-4.022,1.512-5.025A9.419,9.419,0,0,1-.545,5.035c1.073.245,2.29,2.61,2.353,2.836.038.138.019.307.144.4.276.2.734-.151.941-.32a3.837,3.837,0,0,0,.828-1.1A13.524,13.524,0,0,0,4.851,4.075c.207-.74.345-1.506.615-2.221A3.384,3.384,0,0,1,6.834.091,12.163,12.163,0,0,1,9.186-.862a5.881,5.881,0,0,0,2.177-1.2,3.394,3.394,0,0,0,.376-.414c.088-.119.169-.345.3-.427.2-.119.5.188.671.3A7.6,7.6,0,0,1,14.877-.448a13.358,13.358,0,0,1,1.437,2.56,7.474,7.474,0,0,0,.966,2.133,4.1,4.1,0,0,0,2.434.182,3.089,3.089,0,0,0,1.33-1.148,1.75,1.75,0,0,0,.151-1.167c-.044-.238-.144-.458-.194-.69a2.221,2.221,0,0,0-.176-.558,1.381,1.381,0,0,0-.86-.684,4.039,4.039,0,0,0,.922-1.255,5.751,5.751,0,0,0,.458-1.612,2,2,0,0,0-.264-1.274A3.442,3.442,0,0,0,20-4.865a7.01,7.01,0,0,0,1.512-1.65A5.144,5.144,0,0,0,22.4-10.694Z" transform="translate(25.22 17.991)" fill="#f46e33" fill-rule="evenodd"/></g><g transform="translate(0 113.028)"><path d="M76.99-32.6l31.464,83.243L130.5,112h12.573L112.764-32.6Z" transform="translate(-7.356 32.6)" fill="#b3b3b3" fill-rule="evenodd"/><path d="M34.635-32.6c-.345,28.565-.094,67.018-.891,68.8q-.8,1.779-49.564,40.574L-9.339,87.8Q48.567,50.455,51.525,45.486C54.486,40.511,69.355-5.264,77.1-32.594H34.635Z" transform="translate(27.225 32.6)" fill="#ccc" fill-rule="evenodd"/><g transform="matrix(0.643, 0.766, -0.766, 0.643, 10.525, 107.956)"><path d="M0,13.74.652,0h13.74q9.769,6.87,25.516,11.124V13.74H15.045L6.537,12.429V13.74Z" transform="translate(0)" fill="#191847" fill-rule="evenodd"/></g><g transform="translate(121.979 142.642)"><path d="M-56.5.96l.652-13.74h13.74Q-32.33-5.919-16.585-1.663V.954H-41.449L-49.956-.358V.954H-56.5Z" transform="translate(56.5 12.78)" fill="#191847" fill-rule="evenodd"/></g></g><g transform="translate(22.619 42.127)"><path d="M1.472,64.41l13.671.056Q2.476,105.348,1.472,107.851C-.04,111.6,3.16,117.318,4.534,120.386c-4.461,2-3.984-5.4-9.618-2.779-5.138,2.39-9.047,6.719-14.982,3.062-.728-.452-1.531-2.146.4-3.47,4.812-3.3,11.751-9.078,12.692-10.979Q-5.062,102.314,1.472,64.41Z" transform="translate(20.869 -1.256)" fill="#f7d8c1" fill-rule="evenodd"/><path d="M37.36,41.991H87.42c2.29,0,1.857-3.3,1.525-4.969C85.13,17.786,70.236-2.956,70.236-30.335L55.793-32.6C43.847-13.389,39.719,10.257,37.36,41.991Z" transform="translate(-0.827 34.89)" fill="#f7f5fc" fill-rule="evenodd"/><path d="M24.11-15.075a8.256,8.256,0,0,1-4.982-4.216C13.852-28.815,15.759-34.06,21.4-35.779s10.672,1.826,19.656,1.826a8.839,8.839,0,0,1,1.343.094l4.524.257Q66.374,32.331,57.65,54.377H18.25a133.869,133.869,0,0,1-6.7,13.74H.808Q-.707,19.105,24.11-15.075Z" transform="translate(12.824 36.25)" fill="#ff9b21" fill-rule="evenodd"/><path d="M37.233,72.21Q39.1,87.766,43.275,94.784H28.65Q32.744,85.26,37.233,72.21Z" transform="translate(2.418 -4.163)" fill="rgba(0,0,0,0.1)" fill-rule="evenodd"/></g></g></g></svg>