<svg xmlns="http://www.w3.org/2000/svg" width="280.089" height="228.504" viewBox="0 0 280.089 228.504">
  <g id="Group_1960" data-name="Group 1960" transform="translate(-0.007 0.002)">
    <g id="Group_1949" data-name="Group 1949" transform="translate(132.339 38.704)">
      <rect id="Rectangle_1120" data-name="Rectangle 1120" width="20.58" height="10.674" transform="translate(42.867 59.141)" fill="#3a3b39"/>
      <g id="Group_1944" data-name="Group 1944">
        <path id="Path_1550" data-name="Path 1550" d="M206.306,120.965a.717.717,0,0,1-.716-.716V63.676a.717.717,0,0,1,.716-.716H306.869a.717.717,0,0,1,.716.716v56.581a.717.717,0,0,1-.716.716H206.306Z" transform="translate(-202.964 -60.334)" fill="#ededed"/>
        <path id="Path_1551" data-name="Path 1551" d="M303.578,64.212v52.754H206.842V64.212h96.737m1.91-5.252H204.931A3.342,3.342,0,0,0,201.59,62.3v56.574a3.342,3.342,0,0,0,3.341,3.341H305.5a3.342,3.342,0,0,0,3.341-3.341V62.3a3.352,3.352,0,0,0-3.348-3.341Z" transform="translate(-201.59 -58.96)" fill="#565656"/>
      </g>
      <rect id="Rectangle_1121" data-name="Rectangle 1121" width="96.796" height="8.718" transform="translate(5.311 5.094)" fill="#fff"/>
      <rect id="Rectangle_1122" data-name="Rectangle 1122" width="25.018" height="44.246" transform="translate(77.095 13.812)" fill="#fff"/>
      <path id="Path_1552" data-name="Path 1552" d="M279.472,92.953H214.436a.658.658,0,0,1-.656-.656v-7.51a.658.658,0,0,1,.656-.656h65.036a.658.658,0,0,1,.656.656V92.3A.658.658,0,0,1,279.472,92.953Z" transform="translate(-205.778 -67.607)" fill="#fff" fill-rule="evenodd"/>
      <path id="Path_1553" data-name="Path 1553" d="M230.284,94.175h-13.5a.6.6,0,0,1-.6-.6h0a.6.6,0,0,1,.6-.6h13.5a.6.6,0,0,1,.6.6h0A.6.6,0,0,1,230.284,94.175Z" transform="translate(-206.606 -70.647)" fill="#f2f2f2" fill-rule="evenodd"/>
      <path id="Path_1554" data-name="Path 1554" d="M330.118,92.955h-6.151a.6.6,0,0,1-.6-.6h0a.6.6,0,0,1,.6-.6h6.151a.6.6,0,0,1,.6.6h0A.6.6,0,0,1,330.118,92.955Z" transform="translate(-243.426 -70.228)" fill="#f2f2f2" fill-rule="evenodd"/>
      <path id="Path_1555" data-name="Path 1555" d="M350.51,92.955h-1.792a.6.6,0,0,1-.6-.6h0a.6.6,0,0,1,.6-.6h1.792a.6.6,0,0,1,.6.6h0A.6.6,0,0,1,350.51,92.955Z" transform="translate(-251.928 -70.228)" fill="#00c389" fill-rule="evenodd"/>
      <path id="Path_1556" data-name="Path 1556" d="M350.51,96.795h-1.792a.6.6,0,0,1-.6-.6h0a.6.6,0,0,1,.6-.6h1.792a.6.6,0,0,1,.6.6h0A.6.6,0,0,1,350.51,96.795Z" transform="translate(-251.928 -71.547)" fill="#f2f2f2" fill-rule="evenodd"/>
      <path id="Path_1557" data-name="Path 1557" d="M332.016,96.795h-8.048a.6.6,0,0,1-.6-.6h0a.6.6,0,0,1,.6-.6h8.048a.6.6,0,0,1,.6.6h0A.6.6,0,0,1,332.016,96.795Z" transform="translate(-243.426 -71.547)" fill="#f2f2f2" fill-rule="evenodd"/>
      <path id="Path_1558" data-name="Path 1558" d="M218.286,71.846h-3.86a.658.658,0,0,1-.656-.656V70.106a.658.658,0,0,1,.656-.656h3.86a.658.658,0,0,1,.656.656V71.19A.658.658,0,0,1,218.286,71.846Z" transform="translate(-205.774 -62.564)" fill="#ccc" fill-rule="evenodd"/>
      <path id="Path_1559" data-name="Path 1559" d="M238.352,89.6H216.846a.658.658,0,0,1-.656-.656V87.856a.658.658,0,0,1,.656-.656h21.506a.658.658,0,0,1,.656.656V88.94A.658.658,0,0,1,238.352,89.6Z" transform="translate(-206.606 -68.661)" fill="#ccc" fill-rule="evenodd"/>
      <g id="Group_1945" data-name="Group 1945" transform="translate(8.002 28.392)">
        <path id="Path_1560" data-name="Path 1560" d="M279.472,120.182H214.436a.658.658,0,0,1-.656-.656v-10.97a.658.658,0,0,1,.656-.656h65.036a.658.658,0,0,1,.656.656v10.976A.653.653,0,0,1,279.472,120.182Z" transform="translate(-213.78 -104.165)" fill="#fff" fill-rule="evenodd"/>
        <path id="Path_1561" data-name="Path 1561" d="M226.628,111.835h-9.84a.6.6,0,0,1-.6-.6h0a.6.6,0,0,1,.6-.6h9.84a.6.6,0,0,1,.6.6h0A.6.6,0,0,1,226.628,111.835Z" transform="translate(-214.608 -105.106)" fill="#f2f2f2" fill-rule="evenodd"/>
        <path id="Path_1562" data-name="Path 1562" d="M226.628,117.465h-9.84a.6.6,0,0,1-.6-.6h0a.6.6,0,0,1,.6-.6h9.84a.6.6,0,0,1,.6.6h0A.6.6,0,0,1,226.628,117.465Z" transform="translate(-214.608 -107.04)" fill="#f2f2f2" fill-rule="evenodd"/>
        <path id="Path_1563" data-name="Path 1563" d="M222.938,123.045h-6.151a.6.6,0,0,1-.6-.6h0a.6.6,0,0,1,.6-.6h6.151a.6.6,0,0,1,.6.6h0A.6.6,0,0,1,222.938,123.045Z" transform="translate(-214.608 -108.957)" fill="#f2f2f2" fill-rule="evenodd"/>
        <path id="Path_1564" data-name="Path 1564" d="M305.381,112.116H295.186a.658.658,0,0,1-.656-.656v-1.083a.658.658,0,0,1,.656-.656h10.195a.658.658,0,0,1,.656.656v1.083A.654.654,0,0,1,305.381,112.116Z" transform="translate(-241.52 -104.79)" fill="#f2f2f2" fill-rule="evenodd"/>
        <path id="Path_1565" data-name="Path 1565" d="M305.381,117.686H295.186a.658.658,0,0,1-.656-.656v-1.083a.658.658,0,0,1,.656-.656h10.195a.658.658,0,0,1,.656.656v1.083A.654.654,0,0,1,305.381,117.686Z" transform="translate(-241.52 -106.703)" fill="#f2f2f2" fill-rule="evenodd"/>
        <path id="Path_1566" data-name="Path 1566" d="M305.381,123.326H295.186a.658.658,0,0,1-.656-.656v-1.083a.658.658,0,0,1,.656-.656h10.195a.658.658,0,0,1,.656.656v1.083A.654.654,0,0,1,305.381,123.326Z" transform="translate(-241.52 -108.641)" fill="#f2f2f2" fill-rule="evenodd"/>
        <path id="Path_1567" data-name="Path 1567" d="M271.806,104.606H216.846a.658.658,0,0,1-.656-.656v-1.083a.658.658,0,0,1,.656-.656h54.959a.658.658,0,0,1,.656.656v1.083A.654.654,0,0,1,271.806,104.606Z" transform="translate(-214.608 -102.21)" fill="#ccc" fill-rule="evenodd"/>
      </g>
      <g id="Group_1946" data-name="Group 1946" transform="translate(8.002 47.239)">
        <path id="Path_1568" data-name="Path 1568" d="M280.129,143.7H213.78v-6.44a.658.658,0,0,1,.656-.656h65.036a.658.658,0,0,1,.656.656Z" transform="translate(-213.78 -132.871)" fill="#fff" fill-rule="evenodd"/>
        <path id="Path_1569" data-name="Path 1569" d="M226.628,140.535h-9.84a.6.6,0,0,1-.6-.6h0a.6.6,0,0,1,.6-.6h9.84a.6.6,0,0,1,.6.6h0A.6.6,0,0,1,226.628,140.535Z" transform="translate(-214.608 -133.813)" fill="#f2f2f2" fill-rule="evenodd"/>
        <path id="Path_1570" data-name="Path 1570" d="M226.628,146.175h-9.84a.6.6,0,0,1-.6-.6h0a.6.6,0,0,1,.6-.6h9.84a.6.6,0,0,1,.6.6h0A.6.6,0,0,1,226.628,146.175Z" transform="translate(-214.608 -135.75)" fill="#f2f2f2" fill-rule="evenodd"/>
        <path id="Path_1571" data-name="Path 1571" d="M305.381,140.816H295.186a.658.658,0,0,1-.656-.656v-1.083a.658.658,0,0,1,.656-.656h10.195a.658.658,0,0,1,.656.656v1.083A.654.654,0,0,1,305.381,140.816Z" transform="translate(-241.52 -133.497)" fill="#f2f2f2" fill-rule="evenodd"/>
        <path id="Path_1572" data-name="Path 1572" d="M305.381,146.235H295.186a.658.658,0,0,1-.656-.656v-.932a.658.658,0,0,1,.656-.656h10.195a.658.658,0,0,1,.656.656v.932A.654.654,0,0,1,305.381,146.235Z" transform="translate(-241.52 -135.41)" fill="#f2f2f2" fill-rule="evenodd"/>
        <path id="Path_1573" data-name="Path 1573" d="M229.378,133.316H216.846a.658.658,0,0,1-.656-.656v-1.083a.658.658,0,0,1,.656-.656h12.532a.658.658,0,0,1,.656.656v1.083A.658.658,0,0,1,229.378,133.316Z" transform="translate(-214.608 -130.92)" fill="#ccc" fill-rule="evenodd"/>
      </g>
      <path id="Path_1574" data-name="Path 1574" d="M334.431,86.516h-10.4a.658.658,0,0,1-.656-.656V84.776a.658.658,0,0,1,.656-.656h10.4a.658.658,0,0,1,.656.656V85.86A.654.654,0,0,1,334.431,86.516Z" transform="translate(-243.426 -67.603)" fill="#ccc" fill-rule="evenodd"/>
      <path id="Path_1575" data-name="Path 1575" d="M346.957,77.106h-8.35a.658.658,0,0,1-.656-.656V75.366a.658.658,0,0,1,.656-.656h8.35a.658.658,0,0,1,.656.656V76.45A.658.658,0,0,1,346.957,77.106Z" transform="translate(-248.434 -64.371)" fill="#8d5fd6" fill-rule="evenodd"/>
      <path id="Path_1576" data-name="Path 1576" d="M328.2,77.106H315.507a.658.658,0,0,1-.656-.656V75.366a.658.658,0,0,1,.656-.656H328.2a.658.658,0,0,1,.656.656V76.45A.658.658,0,0,1,328.2,77.106Z" transform="translate(-240.499 -64.371)" fill="#8d5fd6" fill-rule="evenodd"/>
      <path id="Path_1577" data-name="Path 1577" d="M309.524,77.106H305.3a.658.658,0,0,1-.656-.656V75.366a.658.658,0,0,1,.656-.656h4.228a.658.658,0,0,1,.656.656V76.45A.658.658,0,0,1,309.524,77.106Z" transform="translate(-236.991 -64.371)" fill="#f2f2f2" fill-rule="evenodd"/>
      <path id="Path_1578" data-name="Path 1578" d="M330.149,103.606h-5.862a.658.658,0,0,1-.656-.656v-1.083a.658.658,0,0,1,.656-.656h5.862a.658.658,0,0,1,.656.656v1.083A.658.658,0,0,1,330.149,103.606Z" transform="translate(-243.515 -73.474)" fill="#8d5fd6" fill-rule="evenodd"/>
      <g id="Group_1947" data-name="Group 1947" transform="translate(8.567 6.853)">
        <path id="Path_1579" data-name="Path 1579" d="M232.8,76.825H215.237a.6.6,0,0,1-.6-.6h0a.6.6,0,0,1,.6-.6H232.8a.6.6,0,0,1,.6.6h0A.6.6,0,0,1,232.8,76.825Z" transform="translate(-214.64 -71.54)" fill="#f2f2f2" fill-rule="evenodd"/>
        <path id="Path_1580" data-name="Path 1580" d="M266.42,71.565H225.437a.6.6,0,0,1-.6-.6h0a.6.6,0,0,1,.6-.6H266.42a.6.6,0,0,1,.6.6h0A.6.6,0,0,1,266.42,71.565Z" transform="translate(-218.144 -69.733)" fill="#f2f2f2" fill-rule="evenodd"/>
        <circle id="Ellipse_428" data-name="Ellipse 428" cx="0.597" cy="0.597" r="0.597" transform="translate(84.106 0.637)" fill="#f2f2f2"/>
        <circle id="Ellipse_429" data-name="Ellipse 429" cx="1.234" cy="1.234" r="1.234" transform="translate(86.863)" fill="#00b2ff"/>
        <path id="Path_1581" data-name="Path 1581" d="M297.058,140.522h-.867a.572.572,0,0,1-.571-.571h0a.572.572,0,0,1,.571-.571h.867a.572.572,0,0,1,.571.571h0A.58.58,0,0,1,297.058,140.522Z" transform="translate(-242.459 -93.441)" fill="#00c389" fill-rule="evenodd"/>
        <path id="Path_1582" data-name="Path 1582" d="M300.968,140.522H300.1a.572.572,0,0,1-.571-.571h0a.572.572,0,0,1,.571-.571h.867a.572.572,0,0,1,.571.571h0A.572.572,0,0,1,300.968,140.522Z" transform="translate(-243.803 -93.441)" fill="#ffad22" fill-rule="evenodd"/>
        <path id="Path_1583" data-name="Path 1583" d="M304.848,140.522h-.867a.572.572,0,0,1-.571-.571h0a.572.572,0,0,1,.571-.571h.867a.572.572,0,0,1,.571.571h0A.572.572,0,0,1,304.848,140.522Z" transform="translate(-245.136 -93.441)" fill="#fd2f58" fill-rule="evenodd"/>
        <path id="Path_1584" data-name="Path 1584" d="M297.058,146.152h-.867a.572.572,0,0,1-.571-.571h0a.572.572,0,0,1,.571-.571h.867a.572.572,0,0,1,.571.571h0A.58.58,0,0,1,297.058,146.152Z" transform="translate(-242.459 -95.375)" fill="#00c389" fill-rule="evenodd"/>
        <path id="Path_1585" data-name="Path 1585" d="M300.968,146.152H300.1a.572.572,0,0,1-.571-.571h0a.572.572,0,0,1,.571-.571h.867a.572.572,0,0,1,.571.571h0A.572.572,0,0,1,300.968,146.152Z" transform="translate(-243.803 -95.375)" fill="#ffad22" fill-rule="evenodd"/>
        <path id="Path_1586" data-name="Path 1586" d="M304.848,146.152h-.867a.572.572,0,0,1-.571-.571h0a.572.572,0,0,1,.571-.571h.867a.572.572,0,0,1,.571.571h0A.572.572,0,0,1,304.848,146.152Z" transform="translate(-245.136 -95.375)" fill="#fd2f58" fill-rule="evenodd"/>
      </g>
      <g id="Group_1948" data-name="Group 1948" transform="translate(26.37 69.172)">
        <rect id="Rectangle_1123" data-name="Rectangle 1123" width="53.574" height="5.337" fill="#565656"/>
      </g>
      <circle id="Ellipse_430" data-name="Ellipse 430" cx="0.617" cy="0.617" r="0.617" transform="translate(61.727 37.556)" fill="#00b2ff"/>
      <path id="Path_1587" data-name="Path 1587" d="M300.708,123.045h-4.49a.6.6,0,0,1-.6-.6h0a.6.6,0,0,1,.6-.6h4.49a.6.6,0,0,1,.6.6h0A.6.6,0,0,1,300.708,123.045Z" transform="translate(-233.893 -80.565)" fill="#8d5fd6" fill-rule="evenodd"/>
      <circle id="Ellipse_431" data-name="Ellipse 431" cx="0.617" cy="0.617" r="0.617" transform="translate(61.727 33.9)" fill="#ffbc6e"/>
      <circle id="Ellipse_432" data-name="Ellipse 432" cx="1.845" cy="1.845" r="1.845" transform="translate(96.664 52.714)" fill="#00c389"/>
    </g>
    <path id="Path_1588" data-name="Path 1588" d="M145.719,173.35H328.144v6.276H139.87Z" transform="translate(-48.048 -59.553)" fill="#fff2ff" fill-rule="evenodd"/>
    <g id="Group_1959" data-name="Group 1959" transform="translate(0.007 -0.002)">
      <g id="Group_1954" data-name="Group 1954" transform="translate(28.112 114.272)">
        <g id="Group_1953" data-name="Group 1953" transform="translate(0)">
          <g id="Group_1950" data-name="Group 1950" transform="translate(0 17.731)">
            <ellipse id="Ballsy-Ball_1_" cx="50.548" cy="48.25" rx="50.548" ry="48.25" fill="#c5cfd6"/>
          </g>
          <path id="Skin_2_" d="M213,291.91c-8.409-18.617-14.495-34.825-16.937-43.379-4.182-14.646-7.359-27.532-8.166-32.344-1.917-11.475,14.744-12.145,16.95-6.44,3.335,8.633,9.151,36.992,16.142,79.833Zm-97.564-58.425c7.72-3.053,34.74-12.6,47.778-15.3,3.748-.775,7.379-1.5,10.786-2.147,10.142-1.937,15.4,16.366,5.632,17.77-24.335,3.5-58.832,7.116-61.78,7.523C113.712,241.9,110.581,235.4,115.432,233.484Z" transform="translate(-66.926 -185.123)" fill="#b28b67" fill-rule="evenodd"/>
          <path id="Leg-Back_1_" d="M193.575,199.948,151.83,178.7V174.07h4.963q60.579,15.44,61.911,19.786c.007.033.02.066.026.092l.059.079c8,11.009,12.794,64.741,14.37,68.765l-15.335,2.291c-5.869-21.755-24.637-36.906-24.138-62.962A8.8,8.8,0,0,1,193.575,199.948Z" transform="translate(-80.275 -174.07)" fill="#1f28cf" fill-rule="evenodd"/>
          <path id="Leg-Front_1_" d="M139.847,212.575c-3.821-.762-7.339-1.444-10.346-1.976-19.438-3.407-25.11-13.819-21.755-36.519h35.817c5.849,1.681,36.257,14.429,52.031,21.217,10.444,4.49,7.149,20.672,1.234,24.88a.58.58,0,0,1-.328.512c-31.806,13.182-56.975,6.269-65.377,8.475L127.236,216.9Z" transform="translate(-64.819 -174.073)" fill="#2b44ff" fill-rule="evenodd"/>
          <g id="Group_1951" data-name="Group 1951" transform="translate(54.255 43.666) rotate(64)">
            <path id="shoe_1_" d="M1.1,3.995A14.1,14.1,0,0,0,0,8.393a32.986,32.986,0,0,0,.591,5.18H37.615Q39.063,8.8,35.948,8.419T30.782,7.73L13.569.056A.657.657,0,0,0,12.7.391C12.7.4,12.7.4,12.7.41L11.587,3.1A11.855,11.855,0,0,1,6.906,4.441,10.581,10.581,0,0,1,2.869,3.259h0a1.314,1.314,0,0,0-1.74.643A.19.19,0,0,1,1.1,3.995Z" transform="translate(0 0)" fill="#e4e4e4" fill-rule="evenodd"/>
          </g>
          <g id="Group_1952" data-name="Group 1952" transform="translate(141.14 99.353)">
            <path id="Path_1589" data-name="Path 1589" d="M-4.067,197.4a14.1,14.1,0,0,0-1.1,4.4,32.986,32.986,0,0,0,.591,5.18H32.445q1.448-4.776-1.667-5.153t-5.166-.689L8.406,193.471a.657.657,0,0,0-.867.335c0,.007-.007.013-.007.02L6.423,196.51a11.855,11.855,0,0,1-4.681,1.346,10.581,10.581,0,0,1-4.037-1.182h0a1.314,1.314,0,0,0-1.74.643C-4.041,197.337-4.054,197.364-4.067,197.4Z" transform="translate(5.17 -193.415)" fill="#e4e4e4" fill-rule="evenodd"/>
          </g>
        </g>
      </g>
      <g id="Group_1956" data-name="Group 1956" transform="translate(0 38.963)">
        <g id="Group_1955" data-name="Group 1955">
          <path id="Skin_1_" d="M128.67,126.454l23.784-10.444a56.328,56.328,0,0,1,12.072-9.466c1.162-.368,3.144-.479,1.031,2.606s-4.2,6.433-3.355,7.517,3.3-.112,4.26,1.648q.965,1.763-12.381,4.215L136.265,136.19ZM32.5,129.33l13.451,2.665Q25.66,169.817,24.193,172.079c-2.206,3.4-.151,9.643.611,12.926-4.773,1.109-2.9-6.079-8.934-4.576-5.514,1.372-10.195,4.884-15.335.144-.63-.584-1.1-2.4,1.063-3.341,5.37-2.33,13.307-6.689,14.593-8.383Q18.82,165.4,32.5,129.33Z" transform="translate(-0.007 -75.499)" fill="#b28b67" fill-rule="evenodd"/>
          <path id="Coat-Back_1_" d="M125.66,64.172l5.678-.972c12.361,11.994,17.409,40.806,25.648,44.62,7.792,3.6,18.834.118,31.963-4.6l4.018,8.98c-11.928,12.906-37.333,23.8-47.633,17.58C128.87,119.84,125.069,84.3,125.66,64.172Z" transform="translate(-43.154 -60.673)" fill="#0199db" fill-rule="evenodd"/>
          <path id="Shirt_1_" d="M88,134.187h50.226c2.3,0,1.864-3.315,1.53-4.989-3.827-19.3-18.775-40.1-18.775-67.576L106.493,59.35C94.512,78.624,90.363,102.348,88,134.187Z" transform="translate(-30.236 -59.35)" fill="#dde3e9" fill-rule="evenodd"/>
          <path id="Coat-Front_1_" d="M61.348,114.644q-15.361,27.7-25.819,39.893L25,152.476Q35.172,89.387,83.918,59.35h5.738q19.507,66.506,10.759,88.623H55.2A164.869,164.869,0,0,1,61.348,114.644Z" transform="translate(-8.593 -59.35)" fill="#00b2ff" fill-rule="evenodd"/>
        </g>
      </g>
      <g id="Group_1958" data-name="Group 1958" transform="translate(64.597)">
        <g id="Group_1957" data-name="Group 1957">
          <g id="Head_1_" transform="translate(11.102 1.446)">
            <path id="Path_1590" data-name="Path 1590" d="M70.366-7.2c-2.475-3.952-3.867-8.554-2.816-13.333,3.02-13.753,21.919-7.851,24.65-.282s-.335,25.3-5.383,25.832C84.8,5.238,80.85,3.4,77.016.249L76.9,19.313l-15.584-2.3Z" transform="translate(-61.32 28.799)" fill="#b28b67" fill-rule="evenodd"/>
          </g>
          <g id="Hijab_1_">
            <path id="Front_1_" d="M114.025-22.305c-.328-.263-1-.827-1.359-1.044-.085-.053-.643-.591-.663-.591-.5.092-1.963.479-2.153.972-.026.033-.046.072-.072.1-.249.328-.479.663-.7,1-.492.748-.939,1.549-1.372,2.337-.84,1.543-1.608,3.131-2.33,4.727-.742,1.628-1.4,3.289-2.12,4.923-1.031,2.357-2.239,4.628-3.263,6.985a14.466,14.466,0,0,0-1.247,4.687c0,.02-.007.039-.007.059v.026c-.02.249-.026.505-.026.755V3.29c.781-1.116,1.444-2.383,2.12-3.571.066-.118.131-.236.19-.354.2-.23.394-.466.6-.7,1.267-1.444,2.534-2.888,3.762-4.372a87.4,87.4,0,0,1,6.906-7.773c.735-.7,1.49-1.392,2.219-2.1.414-.407.827-.814,1.221-1.241.282-.3,1.484-1.326,1.214-2.088A19.852,19.852,0,0,0,114.025-22.305Z" transform="translate(-74.879 26.607)" fill="#2c2c2c" fill-rule="evenodd"/>
            <path id="Turban_1_" d="M100.3-24.672c.328.171.269-.578-.033-.886-1.385-1.4-7.28-2.711-12.617-2.4a25.445,25.445,0,0,0-11,3.309,17.59,17.59,0,0,0-6.374,7.884A25.292,25.292,0,0,0,68.2-6.475c0,.781.138,1.543.164,2.3a17.356,17.356,0,0,0,.144,2.541c.092.525.309,1.057.374,1.582a3.479,3.479,0,0,1-.3,1.681,19.01,19.01,0,0,1-1.188,2.7c-.716,1.287-1.523,2.475-2.12,3.834-.794,1.805-3.873,7.615-2.527,9.525l30.211,4.444c-.453-2.186-2.376-4.963-2.514-7.254-.079-1.346.21-4.228.2-4.333.013-4.792-.991-7.228-1.7-8.166S87.152,1.028,87.2.319c.19-2.954,1.766-5.58,3.02-8.173,1.49-3.1,2.724-6.315,4.247-9.394C95.128-18.62,98.587-25.546,100.3-24.672Z" transform="translate(-62.408 28.002)" fill="#8991dc" fill-rule="evenodd"/>
            <path id="Shade_1_" d="M94.27-20.245C92.6-16.8,92.071-14.9,91.585-9.932l-.558-.079c-.361-4.812,1.214-9.066,2.541-10.339ZM77.609-13.168c1.365,5.462,1.884,8.646,7.2,13.687l-.505.256c-5.4-4.2-6.525-8.436-7.175-13.792Zm9.5-3.958C87-9.676,86.662-5.455,90.509,3.283l-.558.085C85.808-4.359,85.822-10.162,86.6-17.16ZM78.364,3.782,78.9,3.3c5.954,2.875,4.661,6.808,11.921,12.046l-.716.3C83.642,11.791,82.927,5.462,78.364,3.782Z" transform="translate(-67.466 25.373)" fill="rgba(0,0,0,0.2)" fill-rule="evenodd"/>
          </g>
        </g>
      </g>
    </g>
    <rect id="Rectangle_1124" data-name="Rectangle 1124" width="34.077" height="107.109" transform="translate(231.183 120.073)" fill="#fff2ff"/>
    <rect id="Rectangle_1125" data-name="Rectangle 1125" width="34.077" height="11.921" transform="translate(231.183 120.073)" fill="#e0d5e0"/>
    <path id="Path_1591" data-name="Path 1591" d="M197.59,170.588h21.25s-.932-5.278-10.608-5.278S197.59,170.588,197.59,170.588Z" transform="translate(-67.877 -56.791)" fill="#3a3b39"/>
  </g>
</svg>
