<svg id="Group_1823" data-name="Group 1823" xmlns="http://www.w3.org/2000/svg" width="100.333" height="219.933" viewBox="0 0 100.333 219.933">
  <g id="Group_1814" data-name="Group 1814" transform="translate(14.618 104.194)">
    <g id="Group_1813" data-name="Group 1813">
      <path id="Leg_1_" d="M82.8,215.15,69.19,322.173h9.346l12.809-45.41L108.9,215.15Z" transform="translate(-50.304 -215.15)" fill="#191847" fill-rule="evenodd"/>
      <path id="Path_1339" data-name="Path 1339" d="M97.19,215.15c8.591,30.378,14.3,47.7,16.145,51.962s10.707,22.615,26.581,55.061h9.68q-18.7-50.732-19.341-55.061c-.426-2.886-1.811-20.2-2.218-51.962Z" transform="translate(-64.744 -215.15)" fill="#2f3676" fill-rule="evenodd"/>
      <g id="Group_1811" data-name="Group 1811" transform="translate(56.174 105.57)">
        <path id="Shoe_1_" d="M98.887,244.32v-.969l-6.3.969H74.19v-1.937q11.651-3.145,18.886-8.233h10.17l.484,10.17Z" transform="translate(-74.19 -234.15)" fill-rule="evenodd"/>
      </g>
      <g id="Group_1812" data-name="Group 1812" transform="translate(0 105.57)">
        <path id="Path_1340" data-name="Path 1340" d="M-133.113,244.32v-.969l-6.3.969h-18.4v-1.937q11.651-3.145,18.886-8.233h10.17l.484,10.17Z" transform="translate(157.81 -234.15)" fill-rule="evenodd"/>
      </g>
    </g>
  </g>
  <g id="Group_1822" data-name="Group 1822" transform="translate(0 0)">
    <g id="Group_1821" data-name="Group 1821" transform="translate(0 2.799)">
      <g id="Group_1820" data-name="Group 1820" transform="translate(80.948 106.881) rotate(180)">
        <g id="Group_1815" data-name="Group 1815" transform="translate(4.662 63.647)">
          <g id="Head_1_" transform="translate(4.341 0)">
            <path id="Path_1341" data-name="Path 1341" d="M4.838,19a13.142,13.142,0,0,0-3.07,9.584c-.755-6.586,9.792,19.346,18.1,2.053,2.571-5.356,1.646-18.615-2.024-19.39-1.462-.31-4.5.746-7.559,2.775L11.627,0,0,.523Z" transform="translate(0)" fill="#efd9ca" fill-rule="evenodd"/>
          </g>
          <path id="hair_1_" d="M1.2,16.271a3.635,3.635,0,0,0-.692,1.443,14.206,14.206,0,0,0-.412,1.622A3.54,3.54,0,0,0,.767,22.5a3.652,3.652,0,0,0,2.47.939,4.419,4.419,0,0,0,1.709-.3c.538-.2.993-.586,1.516-.828a6.967,6.967,0,0,0,.969,3.37,3.394,3.394,0,0,0,2.6,1.535,5.022,5.022,0,0,0,3.051-.76,7.91,7.91,0,0,0,.683-.45,1.989,1.989,0,0,1,.6-.363c.247-.068.378.068.547.242a4.062,4.062,0,0,0,.654.538,3.7,3.7,0,0,0,3.492.441,3.236,3.236,0,0,0,1.366-1.085c.305-.436-2.378-2.988-1.947-3.3.184-.136.324.024.5.14.266.174.523.363.789.533a3.425,3.425,0,0,0,1.215.484c.63.116,1.492.044,1.632-.78a3.439,3.439,0,0,0-.048-.944c-.048-.421-.1-.847-.155-1.269-.044-.32-.092-.63-.165-.944a1.422,1.422,0,0,1-.092-.649c.082-.213.5-.111.678-.131a2.668,2.668,0,0,0,1.017-.271,1.091,1.091,0,0,0,.6-.605,1.031,1.031,0,0,0,0-.542,1.54,1.54,0,0,1,.01-.557c.484.213,2.14.654,2.31-.2a1.331,1.331,0,0,0-.242-.828,7.5,7.5,0,0,0-.814-1.128c-.62-.731,1.54.518.765-.01a1.331,1.331,0,0,0,.247-2.242,1.655,1.655,0,0,0-1.225-.3,2.863,2.863,0,0,1-.5.063,1.7,1.7,0,0,0-.232-.068,6.677,6.677,0,0,0-1.845.32,6.079,6.079,0,0,0-2.765,1.608.869.869,0,0,1-.639.329c-.242.01-.484-.048-.731-.044a5.232,5.232,0,0,0-1.8.591,6.89,6.89,0,0,0-.707-2.4c-.3-.581-.862-.639-1.419-.668-1.777-.087-3.54.179-5.312.257,1.695-.465,3.458-.7,5.138-1.235.76-.242,1.157-4.814.814-5.157-.567-.567-2.01,2.8-2.324,2.044A3.7,3.7,0,0,1,9.6,9.53,2.59,2.59,0,0,1,7.9,5.859a4.793,4.793,0,0,1,2.252-1.588A8.372,8.372,0,0,1,8.873,1.883,1.746,1.746,0,0,0,7.958.925a1.046,1.046,0,0,1-.465-.16c-.16-.15-.2-.324-.4-.45A2.15,2.15,0,0,0,4.438.639,1.744,1.744,0,0,0,4.6,2.915c-.809.378-2.286.886-1.9,2.155-1.777.2-1.985,3.1.5,5.109-1.278.8-2.4,2.668-1.492,4.228.707,1.191-1.743,1.855-.5,1.864" transform="translate(0 15.991)" fill="#c9a54b" fill-rule="evenodd"/>
        </g>
        <g id="Group_1819" data-name="Group 1819" transform="translate(0 0)">
          <path id="Path_1342" data-name="Path 1342" d="M22.7,38.78l7.55-28.02A3.591,3.591,0,0,0,28.063,6.47L11.748.237a3.6,3.6,0,0,0-4.765,2.47L.111,29.724A3.59,3.59,0,0,0,2.087,33.87L17.724,41.1A3.581,3.581,0,0,0,22.7,38.78Z" transform="translate(50.572 53.816)" fill="#e6e6e6"/>
          <path id="Path_1343" data-name="Path 1343" d="M19.065,35.759l7.472-27.1a2.225,2.225,0,0,0-1.351-2.668L9.864.146A2.224,2.224,0,0,0,6.92,1.662L.072,27.817A2.228,2.228,0,0,0,1.288,30.4l14.7,6.794A2.229,2.229,0,0,0,19.065,35.759Z" transform="translate(52.306 55.588)" fill="#fff"/>
          <path id="Path_1344" data-name="Path 1344" d="M0,7.249l6.625,5.22q.567,6.094,2.693,6.489c1.007.693-.1-4.5,1.923-3.777,1.792.639,3.433,2.082,5.109,1.889,1.477-.915.077-3.065-.993-5.017-2-3.647-.755-3.743-5.7-6.048A28.926,28.926,0,0,1,1.622,0Z" transform="translate(60.408 42.451)" fill="#e8cebf" fill-rule="evenodd"/>
          <path id="Path_1345" data-name="Path 1345" d="M0,5.555,15.09,17.409a41.755,41.755,0,0,0,6.891,9c.76.479,2.16.925,1.216-1.676s-1.821-5.375-1.017-6,2.334.688,3.351-.392q1.017-1.082-8.077-5.293L7.225,0Z" transform="translate(38.8 52.727)" fill="#e8cebf" fill-rule="evenodd"/>
          <path id="Sleeve_1_" d="M1.236,10.17A41.315,41.315,0,0,1,21.991,20.345l4.455-6.707C21.681,7.022,14.432,1.037,7.381.064A6.428,6.428,0,0,0,1.236,10.17Z" transform="translate(23.472 43.559)" fill="#dd4b19" fill-rule="evenodd"/>
          <path id="Clothes_1_" d="M30.853,43.627c6.431-.513,20.1,2.809,33.772,10.4Q71.9,43.739,72.277,38.906C60.892,30.32,42.655,26.024,33.885,24.368c1.148-5.177,4.194-11.821,2.814-16.717C33.86-2.416,11.894,3.138,3.536,0c-8.339,16.683.939,25.569-.925,36.819-2.039,12.32,4.7,32.93,6.155,33.172L22.039,72.2C24.33,62.906,26.122,53.366,30.853,43.627Z" fill="#f46e33" fill-rule="evenodd"/>
          <path id="Path_1346" data-name="Path 1346" d="M.247,0,8.286,3.739l-.247,1.39L0,1.39Z" transform="translate(57.793 84.572)" fill="#e6e6e6"/>
          <g id="Group_1816" data-name="Group 1816" transform="translate(62.35 80.412)">
            <path id="Path_1347" data-name="Path 1347" d="M.145,0,8.184,3.739l-.145.717L0,.717Z" transform="translate(0 2.257)" fill="#e6e6e6"/>
            <path id="Path_1348" data-name="Path 1348" d="M.368,0l2.14.944L2.14,2.354,0,1.414Z" transform="translate(6.349 2.862)" fill="#00c389"/>
            <path id="Path_1349" data-name="Path 1349" d="M.363,0,2.5.939,2.136,2.354,0,1.409Z" transform="translate(3.303 1.482)" fill="#ffad22"/>
            <path id="Path_1350" data-name="Path 1350" d="M.368,0,2.5.944,2.14,2.354,0,1.414Z" transform="translate(0.237 0.121)" fill="#fd2f58"/>
            <ellipse id="Ellipse_384" data-name="Ellipse 384" cx="0.765" cy="0.765" rx="0.765" ry="0.765" transform="translate(7.661 0.939)" fill="#f2f2f2"/>
            <ellipse id="Ellipse_385" data-name="Ellipse 385" cx="0.765" cy="0.765" rx="0.765" ry="0.765" transform="translate(5.395 0)" fill="#f2f2f2"/>
          </g>
          <g id="Group_1817" data-name="Group 1817" transform="translate(64.645 71.821)">
            <path id="Path_1351" data-name="Path 1351" d="M.15,0,8.189,3.739l-.15.717L0,.717Z" transform="translate(0 2.257)" fill="#e6e6e6"/>
            <path id="Path_1352" data-name="Path 1352" d="M.363,0,2.5.939,2.14,2.354,0,1.409Z" transform="translate(6.354 2.862)" fill="#00c389"/>
            <path id="Path_1353" data-name="Path 1353" d="M.363,0,2.5.944,2.14,2.354,0,1.414Z" transform="translate(3.303 1.477)" fill="#ffad22"/>
            <path id="Path_1354" data-name="Path 1354" d="M.363,0,2.5.939,2.14,2.354,0,1.409Z" transform="translate(0.242 0.121)" fill="#fd2f58"/>
            <ellipse id="Ellipse_386" data-name="Ellipse 386" cx="0.765" cy="0.765" rx="0.765" ry="0.765" transform="translate(7.666 0.935)" fill="#f2f2f2"/>
            <ellipse id="Ellipse_387" data-name="Ellipse 387" cx="0.765" cy="0.765" rx="0.765" ry="0.765" transform="translate(5.395 0)" fill="#f2f2f2"/>
          </g>
          <g id="Group_1818" data-name="Group 1818" transform="translate(67.463 62.107)">
            <path id="Path_1355" data-name="Path 1355" d="M.15,0,8.189,3.739l-.15.717L0,.717Z" transform="translate(0 2.257)" fill="#e6e6e6"/>
            <path id="Path_1356" data-name="Path 1356" d="M.363,0,2.5.944,2.14,2.354,0,1.414Z" transform="translate(6.354 2.862)" fill="#00c389"/>
            <path id="Path_1357" data-name="Path 1357" d="M.363,0,2.5.939,2.14,2.354,0,1.409Z" transform="translate(3.303 1.482)" fill="#ffad22"/>
            <path id="Path_1358" data-name="Path 1358" d="M.363,0,2.5.944,2.136,2.354,0,1.414Z" transform="translate(0.242 0.121)" fill="#fd2f58"/>
            <ellipse id="Ellipse_388" data-name="Ellipse 388" cx="0.765" cy="0.765" rx="0.765" ry="0.765" transform="translate(7.666 0.939)" fill="#f2f2f2"/>
            <ellipse id="Ellipse_389" data-name="Ellipse 389" cx="0.765" cy="0.765" rx="0.765" ry="0.765" transform="translate(5.395 0)" fill="#f2f2f2"/>
          </g>
        </g>
      </g>
    </g>
    <path id="Path_1359" data-name="Path 1359" d="M127.11,151.714c6.349-.14,14.315,2.383,14.315,2.383l1,6.4-7.559-1.259-11.433.092Z" transform="translate(-63.659 -78.237)" fill="#fff"/>
    <path id="Path_1360" data-name="Path 1360" d="M141.011,124.047s8,.62,10.1,1.68l-.973-5.5L140.12,118.56Z" transform="translate(-72.267 -61.141)" fill="#fff" fill-rule="evenodd"/>
    <path id="Path_1361" data-name="Path 1361" d="M31.029,117.835,22.462,133.3l-4.542-3.264s3.1-13.588,7.651-15.119Z" transform="translate(-9.244 -59.264)" fill="#fff"/>
    <path id="Path_1362" data-name="Path 1362" d="M72.12,117.62" transform="translate(-37.197 -60.657)" fill="#fff"/>
    <path id="Path_1363" data-name="Path 1363" d="M68.535,94.52l-4.455,6.7,2.678,4,4.257-8.639Z" transform="translate(-33.05 -48.743)" fill="#ccc"/>
    <path id="Path_1364" data-name="Path 1364" d="M102.85,11.289c7.908.959,5.094,5.366,22.116,11.4.809.286,3.516,2.683,2.518-1.472,0,0,5.835-13.148-2.857-18.552-12.818-7.971-20.862,4.4-20.862,4.4l-4.5,1.8a.759.759,0,0,0-.155,1.453A15.116,15.116,0,0,0,102.85,11.289Z" transform="translate(-50.871 0.008)" fill="#ffad22" fill-rule="evenodd"/>
  </g>
</svg>
