<svg id="Group_2715" data-name="Group 2715" xmlns="http://www.w3.org/2000/svg" width="70" height="70" viewBox="0 0 70 70">
  <g id="Group_1372_1_" transform="translate(-193 -30)">
    <circle id="Ellipse_271_1_" cx="35" cy="35" r="35" transform="translate(193 30)" fill="#00c389"/>
  </g>
  <g id="Group_1257_1_" transform="translate(1379.91 -1603.555)">
    <g id="Group_972_2_">
      <path id="Path_882_2_" d="M-1327.01,1657.58l-3.35-3.09a15.614,15.614,0,0,0-10.68-4.18h-18.91a2.586,2.586,0,0,1-2.58-2.58v-22.1a2.58,2.58,0,0,1,2.58-2.58h30.35a2.58,2.58,0,0,1,2.58,2.58" fill="#fff"/>
      <circle id="Ellipse_135_4_" cx="2.39" cy="2.39" r="2.39" transform="translate(-1337.67 1634.04)" fill="#00c389"/>
      <circle id="Ellipse_135_3_" cx="2.39" cy="2.39" r="2.39" transform="translate(-1347.19 1634.04)" fill="#00c389"/>
      <circle id="Ellipse_136_2_" cx="2.39" cy="2.39" r="2.39" transform="translate(-1356.93 1634.04)" fill="#00c389"/>
    </g>
  </g>
</svg>
