<svg xmlns="http://www.w3.org/2000/svg" width="1556.236" height="300.926" viewBox="0 0 1556.236 300.926"><g transform="translate(-193 -499.854)"><g transform="translate(298.346 536.317)"><g transform="translate(0.002 0.009)"><g transform="translate(57.943)"><g transform="translate(15.397 10.898)"><path d="M-51.2-10.479c-2.958-3.469-4.957-7.718-4.619-12.484.966-13.727,20.067-10.707,23.788-3.776S-28.752-2.238-33.561-1c-1.913.492-6-.713-10.147-3.216L-41.1,14.225H-56.5Z" transform="translate(56.5 32.6)" fill="#b28b67" fill-rule="evenodd"/></g><path d="M21.458-10.838A3.324,3.324,0,0,0,19.127-13.2a3.108,3.108,0,0,0-.855-.086c-.1.006-.135.037-.178-.037a.833.833,0,0,1-.049-.246,4.793,4.793,0,0,0-.172-.578,4.644,4.644,0,0,0-1.138-1.691,5.747,5.747,0,0,0-3.438-1.63,5.031,5.031,0,0,0-2.066.283,7.568,7.568,0,0,0-1,.43c-.1.049-.418.289-.517.277s-.326-.289-.412-.357A6.073,6.073,0,0,0,5.5-17.99a6.969,6.969,0,0,0-4.293,1.021,7.7,7.7,0,0,0-.775.646c-.129.123-.252.246-.375.375-.074.08-.141.16-.209.24-.117.141-.1.184-.258.086a3.2,3.2,0,0,0-2.048-.461,4.578,4.578,0,0,0-1.236.351c-.135.055-.443.289-.59.289a2.956,2.956,0,0,1-.6-.264,4.9,4.9,0,0,0-2.472-.228,6.409,6.409,0,0,0-2.423.953,3.259,3.259,0,0,0-.9.818c-.1.148-.2.3-.32.437-.068.08-.209.16-.246.258a5.184,5.184,0,0,0-1.027-.455,2.571,2.571,0,0,0-1.445.055,5.729,5.729,0,0,0-2.275,1.617,6.6,6.6,0,0,0-.843,1.132,6.151,6.151,0,0,0-.314.6,2.874,2.874,0,0,1-.141.314c-.08.117-.129.117-.277.166a4.412,4.412,0,0,0-1.894,1.267A4.339,4.339,0,0,0-20.435-6.7a1.089,1.089,0,0,1-.037.258c-.037.031-.184.018-.24.025a5.72,5.72,0,0,0-.566.1,4.867,4.867,0,0,0-1,.357A5.241,5.241,0,0,0-24.845-2.9a6.194,6.194,0,0,0,.1,4.25,3.92,3.92,0,0,0,.314.621c.074.123.1.123.049.246-.055.141-.154.277-.221.418a6.279,6.279,0,0,0-.455,1.421A6.727,6.727,0,0,0-25.14,6.5a3.359,3.359,0,0,0,.381,1.076,2.9,2.9,0,0,0,.332.48,2.4,2.4,0,0,0,.209.221.822.822,0,0,1,.129.123c.086.111.1.018.062.184a7.1,7.1,0,0,1-.289.67c-.086.228-.166.461-.24.689a9.814,9.814,0,0,0-.351,1.439,4.507,4.507,0,0,0,.32,2.8,2.787,2.787,0,0,0,.793.941,2.8,2.8,0,0,0,.523.314c.092.043.215.061.258.154s-.025.3-.037.4a6.737,6.737,0,0,0,.08,2.89,3.979,3.979,0,0,0,1.587,2.128,4.929,4.929,0,0,0,4.926.141,5,5,0,0,0,1.1-.756c.843,1.138,2.577,1.1,3.813.775A5.493,5.493,0,0,0-8.062,18.3a2.319,2.319,0,0,0,3.684-.486,3.058,3.058,0,0,0,.314-1.009c.025-.184.006-.369.031-.553a2.678,2.678,0,0,1,.271-.683A3.849,3.849,0,0,0-3.474,14.2a7.324,7.324,0,0,0-.055-.732,2.89,2.89,0,0,1,.074-.646A2.935,2.935,0,0,1-4.7,12.673,2.4,2.4,0,0,1-5.657,12,5.654,5.654,0,0,1-6.869,9.734c-.547-1.8-.326-3.942,1.482-4.926A9.233,9.233,0,0,1-1.032,4.58c1.052.24,2.245,2.558,2.306,2.78.037.135.018.3.141.394.271.2.72-.148.922-.314a3.761,3.761,0,0,0,.812-1.076A13.257,13.257,0,0,0,4.256,3.639c.2-.726.338-1.476.6-2.177A3.317,3.317,0,0,1,6.2-.266,11.923,11.923,0,0,1,8.506-1.2,5.765,5.765,0,0,0,10.64-2.376a3.327,3.327,0,0,0,.369-.406c.086-.117.166-.338.3-.418.2-.117.486.184.658.3A7.454,7.454,0,0,1,14.084-.8a13.094,13.094,0,0,1,1.408,2.509,7.326,7.326,0,0,0,.947,2.091,4.015,4.015,0,0,0,2.386.178,3.028,3.028,0,0,0,1.3-1.125,1.716,1.716,0,0,0,.148-1.144c-.043-.234-.141-.449-.191-.676A2.177,2.177,0,0,0,19.914.49a1.354,1.354,0,0,0-.843-.67,3.959,3.959,0,0,0,.9-1.23,5.637,5.637,0,0,0,.449-1.581,1.964,1.964,0,0,0-.258-1.248A3.374,3.374,0,0,0,19.1-5.125a6.871,6.871,0,0,0,1.482-1.617A5.042,5.042,0,0,0,21.458-10.838Z" transform="translate(25.22 17.991)" fill="#191847" fill-rule="evenodd"/></g><g transform="translate(0 110.793)"><path d="M76.99-32.6,107.832,49l21.611,60.146h12.324L112.057-32.6Z" transform="translate(-8.733 32.6)" fill="#1f28cf" fill-rule="evenodd"/><path d="M33.638-32.6c-.338,28-.092,65.693-.873,67.44Q31.98,36.584-15.82,74.612l6.353,10.805q56.761-36.6,59.66-41.475C53.1,39.065,67.671-5.8,75.26-32.594H33.638Z" transform="translate(26.999 32.6)" fill="#2b44ff" fill-rule="evenodd"/><g transform="matrix(0.643, 0.766, -0.766, 0.643, 10.317, 105.822)"><path d="M0,13.468.64,0H14.108Q23.683,6.734,39.12,10.9v2.565H14.748L6.408,12.183v1.285Z" transform="translate(0)" fill="#191847" fill-rule="evenodd"/></g><g transform="translate(119.567 139.822)"><path d="M-56.5.688l.64-13.468h13.468q9.585,6.725,25.018,10.9V.682H-41.746L-50.086-.6V.682H-56.5Z" transform="translate(56.5 12.78)" fill="#191847" fill-rule="evenodd"/></g></g><g transform="translate(22.172 41.294)"><path d="M79.583,63.57l20.461,15.024a54.787,54.787,0,0,1,13.9,5.59c.879.8,1.943,2.423-1.7,2.146s-7.5-.412-8,.83,1.7,2.731.689,4.409q-1.015,1.679-9.612-8.419l-20.258-8.4ZM1.03,64.087l13.4.055Q2.014,104.215,1.03,106.669c-1.482,3.678,1.654,9.28,3,12.288-4.373,1.956-3.905-5.289-9.428-2.724-5.037,2.343-8.868,6.587-14.686,3-.713-.443-1.5-2.1.394-3.4,4.717-3.235,11.519-8.9,12.441-10.762Q-5.375,101.241,1.03,64.087Z" transform="translate(20.869 -2.182)" fill="#b28b67" fill-rule="evenodd"/><path d="M76.64-27.637l5.547-.953c20.578,17.773,29.028,51.924,54.255,70.017l-6.07,7.528C86.609,43.536,75.767,1.883,76.64-27.637Z" transform="translate(-16.655 33.301)" fill="#e87613" fill-rule="evenodd"/><path d="M37.36,40.516H86.43c2.245,0,1.82-3.235,1.494-4.871C84.185,16.79,69.586-3.542,69.586-30.38L55.428-32.6C43.719-13.769,39.672,9.41,37.36,40.516Z" transform="translate(-1.55 34.845)" fill="#dde3e9" fill-rule="evenodd"/><path d="M23.647-15.494a8.093,8.093,0,0,1-4.883-4.133c-5.172-9.336-3.3-14.477,2.226-16.162S31.452-34,40.258-34a8.664,8.664,0,0,1,1.316.092l4.434.252q19.068,64.629,10.516,86.24H17.9a131.223,131.223,0,0,1-6.568,13.468H.806Q-.679,18.011,23.647-15.494Z" transform="translate(12.557 36.25)" fill="#ff9b21" fill-rule="evenodd"/><path d="M37.063,72.21q1.827,15.249,5.922,22.127H28.65Q32.663,85,37.063,72.21Z" transform="translate(1.804 -5.508)" fill="rgba(0,0,0,0.1)" fill-rule="evenodd"/></g></g></g><g transform="translate(454.154 511.859)"><g transform="translate(255.914 -12.006)"><g transform="translate(-15.959 24.201)"><g transform="translate(0 0)"><g transform="translate(50.938 99.566)"><path d="M320.01-16.167l7.426,83.389,2.365,72.509,6.619-3.515L342.472-27.97Z" transform="translate(-311.211 29.18)" fill="#997659" fill-rule="evenodd"/><g transform="translate(15.075 161.446)"><path d="M305.319,23.248a13.546,13.546,0,0,0-1.039,4.205,28.752,28.752,0,0,0,.575,4.951h35.188c.923-2.995.4-4.664-1.553-4.9s-3.631-.458-4.9-.636L317.183,19.5a.641.641,0,0,0-.807.287h0l-1.039,2.537a10.989,10.989,0,0,1-4.431,1.265,10.218,10.218,0,0,1-3.857-1.094h0a1.262,1.262,0,0,0-1.669.636A.228.228,0,0,1,305.319,23.248Z" transform="translate(-304.28 -19.457)" fill="#e4e4e4" fill-rule="evenodd"/></g><path d="M320.4,125.655l16.185-5.012C339.18,98.009,350.811,4.6,339.235-29.95L306.467-12.671C301.168,19.461,322.359,102.966,320.4,125.655Z" transform="translate(-305.614 29.95)" fill="#00edff" fill-rule="evenodd"/></g><g transform="translate(33.602 99.566)"><path d="M291.56-16.167l7.481,83.389,2.365,72.509,6.62-3.515,5.99-164.186Z" transform="translate(-282.814 29.18)" fill="#997659" fill-rule="evenodd"/><g transform="translate(15.077 161.446)"><path d="M276.959,23.248a13.546,13.546,0,0,0-1.039,4.205,28.749,28.749,0,0,0,.575,4.951h35.188c.923-2.995.4-4.664-1.552-4.9s-3.631-.458-4.9-.636L288.823,19.5a.641.641,0,0,0-.807.287h0l-1.039,2.537a10.989,10.989,0,0,1-4.431,1.265,10.218,10.218,0,0,1-3.857-1.094h0a1.262,1.262,0,0,0-1.669.636A.182.182,0,0,0,276.959,23.248Z" transform="translate(-275.92 -19.457)" fill="#e4e4e4" fill-rule="evenodd"/></g><path d="M292.042,125.655l16.185-5.012C310.819,98.009,322.45,4.6,310.874-29.95L278.106-12.671C272.807,19.461,293.943,102.966,292.042,125.655Z" transform="translate(-277.251 29.95)" fill="#8df4ff" fill-rule="evenodd"/></g><g transform="translate(59.982 0) rotate(14)"><g transform="translate(0 0)"><path d="M7.17,20.744c-2.6-3.594-4.162-7.836-3.429-12.377C5.837-4.744,24.082-.19,27.132,6.753c3,6.98,1.143,23.819-3.643,24.571-1.889.281-5.758-1.186-9.578-3.924l1,17.927L0,44.019Z" fill="#db945e" fill-rule="evenodd"/></g></g><g transform="translate(2.001 32.214) rotate(1)"><path d="M97.614,0,117.54,14.51a52.153,52.153,0,0,1,13.532,5.415c.862.746,1.9,2.359-1.669,2.072s-7.316-.4-7.775.807,1.669,2.647.691,4.26c-.636,1.094-3.8-1.614-9.327-8.117L93.3,10.825ZM21.254.513,34.267.568Q22.174,39.35,21.254,41.746c-1.442,3.57,1.614,8.985,2.94,11.919-4.26,1.9-3.8-5.128-9.156-2.647C10.142,53.262,6.4,57.412.754,53.9c-.691-.4-1.442-2.017.4-3.282,4.609-3.111,11.228-8.637,12.1-10.421C14.4,37.719,17.1,24.473,21.254.513Z" transform="translate(0 59.417)" fill="#db945e" fill-rule="evenodd"/><path d="M.048.923,5.463,0c20.042,17.218,28.22,50.273,52.748,67.785L52.283,75.04C9.723,69.857-.814,29.485.048.923Z" transform="translate(58.234 4.529)" fill="#999" fill-rule="evenodd"/><path d="M0,70.779H47.743c2.188,0,1.785-3.111,1.442-4.725C45.554,47.8,31.331,28.1,31.331,2.133L17.567,0C6.161,18.2,2.243,40.658,0,70.779Z" transform="translate(34.787 2.17)" fill="#dde3e9" fill-rule="evenodd"/><path d="M22.26,20.079a7.778,7.778,0,0,1-4.725-3.973c-5.012-9.04-3.227-14,2.188-15.666,5.354-1.614,10.2,1.73,18.716,1.73a7.509,7.509,0,0,1,1.265.116l4.321.232Q62.6,65.055,54.276,85.962H16.728a130.044,130.044,0,0,1-6.393,13.013H.085Q-1.373,52.5,22.26,20.079Z" transform="translate(12.869 0)" fill="#b3b3b3" fill-rule="evenodd"/><path d="M8.178,0c1.21,9.847,3.111,16.986,5.758,21.423H0C2.6,15.378,5.36,8.294,8.178,0Z" transform="translate(29.542 64.539)" fill="rgba(0,0,0,0.1)" fill-rule="evenodd"/></g></g></g><g transform="translate(385.495 122.431)"><g transform="translate(68.457)"><rect width="19.162" height="9.938" transform="translate(39.913 55.065)" fill="#3a3b39"/><path d="M981.276,246.3a.668.668,0,0,1-.666-.666V192.956a.668.668,0,0,1,.666-.666h93.633a.668.668,0,0,1,.666.666v52.681a.668.668,0,0,1-.666.666Z" transform="translate(-978.165 -189.851)" fill="#ededed"/><path d="M1071.569,193.19v49.118H981.5V193.19h90.07m1.779-4.89H979.721a3.112,3.112,0,0,0-3.111,3.111v52.675a3.112,3.112,0,0,0,3.111,3.111h93.633a3.112,3.112,0,0,0,3.111-3.111V191.411a3.121,3.121,0,0,0-3.117-3.111Z" transform="translate(-976.61 -188.3)" fill="#565656"/><rect width="90.125" height="8.117" transform="translate(4.945 4.743)" fill="#fff"/><rect width="23.294" height="41.196" transform="translate(71.776 12.866)" fill="#fff"/><path d="M1049.965,221.685H989.411a.613.613,0,0,1-.611-.611v-6.992a.613.613,0,0,1,.611-.611h60.554a.613.613,0,0,1,.611.611v6.992A.613.613,0,0,1,1049.965,221.685Z" transform="translate(-981.349 -198.086)" fill="#fff" fill-rule="evenodd"/><path d="M1004.323,223.442H991.756a.558.558,0,0,1-.556-.556h0a.558.558,0,0,1,.556-.556h12.567a.558.558,0,0,1,.556.556h0A.55.55,0,0,1,1004.323,223.442Z" transform="translate(-982.282 -201.53)" fill="#f2f2f2" fill-rule="evenodd"/><path d="M1104.673,222.222h-5.727a.558.558,0,0,1-.556-.556h0a.558.558,0,0,1,.556-.556h5.727a.558.558,0,0,1,.556.556h0A.558.558,0,0,1,1104.673,222.222Z" transform="translate(-1023.955 -201.056)" fill="#f2f2f2" fill-rule="evenodd"/><path d="M1125.365,222.222H1123.7a.558.558,0,0,1-.556-.556h0a.558.558,0,0,1,.556-.556h1.669a.558.558,0,0,1,.556.556h0A.558.558,0,0,1,1125.365,222.222Z" transform="translate(-1033.578 -201.056)" fill="#00c389" fill-rule="evenodd"/><path d="M1125.365,226.052H1123.7a.558.558,0,0,1-.556-.556h0a.558.558,0,0,1,.556-.556h1.669a.558.558,0,0,1,.556.556h0A.554.554,0,0,1,1125.365,226.052Z" transform="translate(-1033.578 -202.545)" fill="#f2f2f2" fill-rule="evenodd"/><path d="M1106.43,226.052h-7.494a.558.558,0,0,1-.556-.556h0a.558.558,0,0,1,.556-.556h7.494a.558.558,0,0,1,.556.556h0A.547.547,0,0,1,1106.43,226.052Z" transform="translate(-1023.951 -202.545)" fill="#f2f2f2" fill-rule="evenodd"/><path d="M993,201.021H989.4a.613.613,0,0,1-.611-.611V199.4a.613.613,0,0,1,.611-.611H993a.613.613,0,0,1,.611.611v1.008A.609.609,0,0,1,993,201.021Z" transform="translate(-981.345 -192.378)" fill="#ccc" fill-rule="evenodd"/><path d="M1011.841,218.771h-20.03a.613.613,0,0,1-.611-.611v-1.008a.613.613,0,0,1,.611-.611h20.024a.613.613,0,0,1,.611.611v1.008A.6.6,0,0,1,1011.841,218.771Z" transform="translate(-982.282 -199.279)" fill="#ccc" fill-rule="evenodd"/><g transform="translate(7.451 26.441)"><path d="M1049.965,248.682H989.411a.613.613,0,0,1-.611-.611v-10.22a.613.613,0,0,1,.611-.611h60.554a.613.613,0,0,1,.611.611v10.22A.613.613,0,0,1,1049.965,248.682Z" transform="translate(-988.8 -233.768)" fill="#fff" fill-rule="evenodd"/><path d="M1000.918,241.092h-9.162a.558.558,0,0,1-.556-.556h0a.558.558,0,0,1,.556-.556h9.162a.558.558,0,0,1,.556.556h0A.554.554,0,0,1,1000.918,241.092Z" transform="translate(-989.733 -234.833)" fill="#f2f2f2" fill-rule="evenodd"/><path d="M1000.918,246.732h-9.162a.558.558,0,0,1-.556-.556h0a.558.558,0,0,1,.556-.556h9.162a.558.558,0,0,1,.556.556h0A.554.554,0,0,1,1000.918,246.732Z" transform="translate(-989.733 -237.026)" fill="#f2f2f2" fill-rule="evenodd"/><path d="M997.483,252.3h-5.727a.558.558,0,0,1-.556-.556h0a.558.558,0,0,1,.556-.556h5.727a.558.558,0,0,1,.556.556h0A.554.554,0,0,1,997.483,252.3Z" transform="translate(-989.733 -239.192)" fill="#f2f2f2" fill-rule="evenodd"/><path d="M1079.653,241.291h-9.492a.613.613,0,0,1-.611-.611v-1.009a.613.613,0,0,1,.611-.611h9.492a.613.613,0,0,1,.611.611v1.009A.613.613,0,0,1,1079.653,241.291Z" transform="translate(-1020.194 -234.476)" fill="#f2f2f2" fill-rule="evenodd"/><path d="M1079.653,246.861h-9.492a.613.613,0,0,1-.611-.611v-1.009a.613.613,0,0,1,.611-.611h9.492a.613.613,0,0,1,.611.611v1.009A.613.613,0,0,1,1079.653,246.861Z" transform="translate(-1020.194 -236.641)" fill="#f2f2f2" fill-rule="evenodd"/><path d="M1079.653,252.5h-9.492a.613.613,0,0,1-.611-.611v-1.009a.613.613,0,0,1,.611-.611h9.492a.613.613,0,0,1,.611.611v1.009A.613.613,0,0,1,1079.653,252.5Z" transform="translate(-1020.194 -238.834)" fill="#f2f2f2" fill-rule="evenodd"/><path d="M1042.983,233.791H991.811a.613.613,0,0,1-.611-.611v-1.009a.613.613,0,0,1,.611-.611h51.172a.613.613,0,0,1,.611.611v1.009A.613.613,0,0,1,1042.983,233.791Z" transform="translate(-989.733 -231.56)" fill="#ccc" fill-rule="evenodd"/></g><g transform="translate(7.445 43.984)"><path d="M1050.572,272.547H988.79v-6a.613.613,0,0,1,.611-.611h60.554a.613.613,0,0,1,.611.611v6Z" transform="translate(-988.79 -262.468)" fill="#fff" fill-rule="evenodd"/><path d="M1000.918,269.792h-9.162a.558.558,0,0,1-.556-.556h0a.558.558,0,0,1,.556-.556h9.162a.558.558,0,0,1,.556.556h0A.554.554,0,0,1,1000.918,269.792Z" transform="translate(-989.727 -263.534)" fill="#f2f2f2" fill-rule="evenodd"/><path d="M1000.918,275.432h-9.162a.558.558,0,0,1-.556-.556h0a.558.558,0,0,1,.556-.556h9.162a.558.558,0,0,1,.556.556h0A.554.554,0,0,1,1000.918,275.432Z" transform="translate(-989.727 -265.726)" fill="#f2f2f2" fill-rule="evenodd"/><path d="M1079.653,269.991h-9.492a.613.613,0,0,1-.611-.611v-1.008a.613.613,0,0,1,.611-.611h9.492a.613.613,0,0,1,.611.611v1.008A.609.609,0,0,1,1079.653,269.991Z" transform="translate(-1020.188 -263.176)" fill="#f2f2f2" fill-rule="evenodd"/><path d="M1079.653,275.42h-9.492a.613.613,0,0,1-.611-.611v-.868a.613.613,0,0,1,.611-.611h9.492a.613.613,0,0,1,.611.611v.868A.613.613,0,0,1,1079.653,275.42Z" transform="translate(-1020.188 -265.341)" fill="#f2f2f2" fill-rule="evenodd"/><path d="M1003.479,262.491H991.811a.613.613,0,0,1-.611-.611v-1.008a.613.613,0,0,1,.611-.611h11.668a.613.613,0,0,1,.611.611v1.008A.609.609,0,0,1,1003.479,262.491Z" transform="translate(-989.727 -260.26)" fill="#ccc" fill-rule="evenodd"/></g><path d="M1108.689,215.7H1099a.613.613,0,0,1-.611-.611v-1.008a.613.613,0,0,1,.611-.611h9.688a.613.613,0,0,1,.611.611v1.008A.613.613,0,0,1,1108.689,215.7Z" transform="translate(-1023.955 -198.086)" fill="#ccc" fill-rule="evenodd"/><path d="M1121.356,206.281h-7.775a.613.613,0,0,1-.611-.611v-1.008a.613.613,0,0,1,.611-.611h7.775a.613.613,0,0,1,.611.611v1.008A.609.609,0,0,1,1121.356,206.281Z" transform="translate(-1029.624 -194.423)" fill="#8d5fd6" fill-rule="evenodd"/><path d="M1102.3,206.281h-11.815a.613.613,0,0,1-.611-.611v-1.008a.613.613,0,0,1,.611-.611H1102.3a.613.613,0,0,1,.611.611v1.008A.609.609,0,0,1,1102.3,206.281Z" transform="translate(-1020.643 -194.423)" fill="#8d5fd6" fill-rule="evenodd"/><path d="M1084.2,206.281h-3.936a.613.613,0,0,1-.611-.611v-1.008a.613.613,0,0,1,.611-.611h3.936a.613.613,0,0,1,.611.611v1.008A.605.605,0,0,1,1084.2,206.281Z" transform="translate(-1016.67 -194.423)" fill="#f2f2f2" fill-rule="evenodd"/><path d="M1104.719,232.791h-5.458a.613.613,0,0,1-.611-.611v-1.009a.613.613,0,0,1,.611-.611h5.458a.613.613,0,0,1,.611.611v1.009A.613.613,0,0,1,1104.719,232.791Z" transform="translate(-1024.057 -204.73)" fill="#8d5fd6" fill-rule="evenodd"/><g transform="translate(7.97 6.381)"><path d="M1006.563,206.082H990.206a.558.558,0,0,1-.556-.556h0a.558.558,0,0,1,.556-.556h16.356a.558.558,0,0,1,.556.556h0A.55.55,0,0,1,1006.563,206.082Z" transform="translate(-989.65 -201.162)" fill="#f2f2f2" fill-rule="evenodd"/><path d="M1038.575,200.822h-38.159a.558.558,0,0,1-.556-.556h0a.558.558,0,0,1,.556-.556h38.159a.558.558,0,0,1,.556.556h0A.558.558,0,0,1,1038.575,200.822Z" transform="translate(-993.619 -199.117)" fill="#f2f2f2" fill-rule="evenodd"/><circle cx="0.556" cy="0.556" r="0.556" transform="translate(78.316 0.593)" fill="#f2f2f2"/><circle cx="1.149" cy="1.149" r="1.149" transform="translate(80.877)" fill="#00b2ff"/><path d="M1071.969,269.784h-.807a.532.532,0,0,1-.532-.532h0a.532.532,0,0,1,.532-.532h.807a.532.532,0,0,1,.532.532h0A.532.532,0,0,1,1071.969,269.784Z" transform="translate(-1021.133 -225.947)" fill="#00c389" fill-rule="evenodd"/><path d="M1075.889,269.784h-.807a.532.532,0,0,1-.532-.532h0a.532.532,0,0,1,.532-.532h.807a.532.532,0,0,1,.532.532h0A.532.532,0,0,1,1075.889,269.784Z" transform="translate(-1022.657 -225.947)" fill="#ffad22" fill-rule="evenodd"/><path d="M1079.769,269.784h-.807a.532.532,0,0,1-.532-.532h0a.532.532,0,0,1,.532-.532h.807a.532.532,0,0,1,.532.532h0A.532.532,0,0,1,1079.769,269.784Z" transform="translate(-1024.166 -225.947)" fill="#fd2f58" fill-rule="evenodd"/><path d="M1071.969,275.424h-.807a.532.532,0,0,1-.532-.532h0a.532.532,0,0,1,.532-.532h.807a.532.532,0,0,1,.532.532h0A.532.532,0,0,1,1071.969,275.424Z" transform="translate(-1021.133 -228.139)" fill="#00c389" fill-rule="evenodd"/><path d="M1075.889,275.424h-.807a.532.532,0,0,1-.532-.532h0a.532.532,0,0,1,.532-.532h.807a.532.532,0,0,1,.532.532h0A.532.532,0,0,1,1075.889,275.424Z" transform="translate(-1022.657 -228.139)" fill="#ffad22" fill-rule="evenodd"/><path d="M1079.769,275.424h-.807a.532.532,0,0,1-.532-.532h0a.532.532,0,0,1,.532-.532h.807a.532.532,0,0,1,.532.532h0A.532.532,0,0,1,1079.769,275.424Z" transform="translate(-1024.166 -228.139)" fill="#fd2f58" fill-rule="evenodd"/></g><g transform="translate(24.553 64.404)"><rect width="49.882" height="4.969" fill="#565656"/></g><circle cx="0.575" cy="0.575" r="0.575" transform="translate(57.467 34.968)" fill="#00b2ff"/><path d="M1075.377,252.3H1071.2a.558.558,0,0,1-.556-.556h0a.558.558,0,0,1,.556-.556h4.181a.558.558,0,0,1,.556.556h0A.558.558,0,0,1,1075.377,252.3Z" transform="translate(-1013.167 -212.75)" fill="#8d5fd6" fill-rule="evenodd"/><circle cx="0.575" cy="0.575" r="0.575" transform="translate(57.467 31.57)" fill="#ffbc6e"/><circle cx="1.718" cy="1.718" r="1.718" transform="translate(90.002 49.081)" fill="#00c389"/></g><rect width="178.697" height="5.843" transform="translate(0 69.918)" fill="#89c5cc"/><rect width="31.729" height="99.727" transform="translate(45.545 175.497) rotate(180)" fill="#89c5cc"/><rect width="31.729" height="11.1" transform="translate(45.545 86.87) rotate(180)" fill="#69a1ac"/><rect width="31.729" height="99.727" transform="translate(165.203 175.497) rotate(180)" fill="#89c5cc"/><rect width="31.729" height="11.1" transform="translate(165.203 86.87) rotate(180)" fill="#69a1ac"/></g><g transform="translate(40.229 11.74)"><g transform="translate(0 0)"><g transform="matrix(0.966, -0.259, 0.259, 0.966, 55.236, 10.337)"><g transform="translate(0 20.273)"><path d="M13.789,19.9c-1.65-4.376-2.1-9.174-.11-13.636,5.739-12.854,23.214-3.2,24.394,4.768s-5.4,24.712-10.495,24.2c-2.029-.2-5.568-2.806-8.716-6.681l-3.93,18.654L0,41.775Z" transform="translate(0 0)" fill="#f9e4d7" fill-rule="evenodd"/></g><path d="M30.339,21.908a20.971,20.971,0,0,0-6-2.958,11.226,11.226,0,0,0,2.72-5.11,17.52,17.52,0,0,0,.012-5.507,7.037,7.037,0,0,0-.568-2.488,4.7,4.7,0,0,0-1.7-1.889,6.1,6.1,0,0,0-2.427-.886c-.379-.055-.758-.012-1.137-.049s-.483-.318-.654-.636A4.806,4.806,0,0,0,18.6.649,6.38,6.38,0,0,0,15.847,0a5.49,5.49,0,0,0-2.7.593,3.762,3.762,0,0,0-1.021.758c-.116.128-.165.214-.336.214S11.465,1.5,11.3,1.5A6.013,6.013,0,0,0,6.96,3.253,9.814,9.814,0,0,0,5.053,6.9a17.606,17.606,0,0,0,.214,8.319,9.706,9.706,0,0,0,3.759,4.358A14.205,14.205,0,0,0,4.9,23.234a23.42,23.42,0,0,0-3.142,5.128A18.988,18.988,0,0,0,.053,33.924a6.3,6.3,0,0,0,1.265,4.823,13.619,13.619,0,0,0,1.705,1.705,14.658,14.658,0,0,0,1.87,1.442,4.535,4.535,0,0,0,4.327.611A8.022,8.022,0,0,0,10.8,41.54c.165-.134.263-.226.2-.44a3.275,3.275,0,0,0-.385-.721A5.669,5.669,0,0,1,10,36.167c.354-1.5,1.424-3.227,3.074-3.343,2.029-.141,3.631,1.455,4.884,2.854a9.035,9.035,0,0,1,6.131-3.942c2.781-.318,5.532.532,8.313.4a4.7,4.7,0,0,0,2.133-.465,2.4,2.4,0,0,0,.795-.63,1.38,1.38,0,0,0,.024-1.143C34.9,27.934,32.161,23.264,30.339,21.908Z" transform="translate(4.473 0)" fill="#f46e33" fill-rule="evenodd"/></g><g transform="translate(40.291 128.695)"><path d="M414.67-2.68l24,83.909,17.518,61.843h12.775L450.353-2.68Z" transform="translate(-377.595 2.68)" fill="#191847" fill-rule="evenodd"/><path d="M385.423-2.68c-.556,43.25-2.451,66.837-3.032,70.767S373,97.016,355.95,143.078h13.233q32.548-66.287,36.343-74.991c2.524-5.8,10.324-29.394,22.071-70.767H385.423Z" transform="translate(-354.766 2.68)" fill="#2f3676" fill-rule="evenodd"/><g transform="translate(0 143.826)"><path d="M276.02,31.805l.66-13.905h13.905q9.893,6.95,25.824,11.253V31.8H291.252l-8.606-1.326V31.8H276.02Z" transform="translate(-276.02 -17.9)" fill="#191847" fill-rule="evenodd"/></g><g transform="translate(76.802 143.826)"><path d="M276.02,31.805l.66-13.905h13.905q9.893,6.95,25.824,11.253V31.8H291.252l-8.606-1.326V31.8H276.02Z" transform="translate(-276.02 -17.9)" fill="#191847" fill-rule="evenodd"/></g></g><g transform="translate(0 74.746) rotate(-10)"><path d="M32.5,0,44.232,1.693Q25.354,42.455,23.988,44.809c-2.048,3.527.361,9.676,1.3,12.927-4.755,1.363-3.233-5.941-9.242-4.12C10.566,55.279,6.036,59.05.6,54.564c-.666-.55-1.229-2.353.892-3.4,5.287-2.616,13.056-7.408,14.26-9.168Q18.221,38.4,32.5,0Z" transform="translate(0 51.422)" fill="#f9e4d7" fill-rule="evenodd"/><path d="M0,8.093l26.007-2.72A57.032,57.032,0,0,1,40.5,0c1.222,0,3.154.5.171,2.812s-6.021,4.878-5.55,6.173,3.184.9,3.563,2.885q.376,1.98-13.153.244L4.242,19.749Z" transform="translate(141.318 7.555)" fill="#f9e4d7" fill-rule="evenodd"/><path d="M0,6.895,3.313,0C27.8,9.877,55.083,15.708,86.543,11.882L89.85,23.489C65.767,30.28,44.521,38.2,25.085,31.013,18.563,28.605,5.336,12.341,0,6.895Z" transform="translate(73.014 0.636)" fill="#c5cfd6" fill-rule="evenodd"/><path d="M0,71.348q31.218,3.291,49.148,0c1.479-.275,1.711-2.738,1.027-4.413C39.479,40.86,32.15,18.111,32.15,0Q29.207,1.476,21.845.44C8.667,19.107,2.6,40.524,0,71.348Z" transform="translate(56.56 1.461)" fill="#323337" fill-rule="evenodd"/><path d="M59.1.342h5.495C65.871,7.83,69.912,109.219,82.368,142.39H14.963C16.424,112.006,27.951,75.5,39.626,44.961q-15.485,14.1-27,47.791L0,89.526Q14.092,29.152,57.907.776c.061-.147.128-.287.189-.434h.489c.177-.116.361-.226.538-.342Z" transform="translate(16.03 0)" fill="#dde3e9" fill-rule="evenodd"/></g></g></g><g transform="translate(137.326 0)"><g transform="translate(124.538 0)"><g transform="translate(0)"><g transform="translate(0 122.63)"><path d="M683.96-31.81,690.1,134.956l6.723,3.563,2.4-73.64,7.542-84.7Z" transform="translate(-663.633 31.81)" fill="#997659" fill-rule="evenodd"/><g transform="translate(0 162.76)"><path d="M660.361,23.477a1.287,1.287,0,0,0-1.7-.642h0a10.409,10.409,0,0,1-3.918,1.112,11.1,11.1,0,0,1-4.5-1.29l-1.051-2.573h0a.65.65,0,0,0-.819-.293L631.7,27.279c-1.29.177-2.983.41-4.969.642s-2.512,1.931-1.577,4.969h35.738a29.337,29.337,0,0,0,.587-5.03,13.713,13.713,0,0,0-1.051-4.272C660.416,23.594,660.361,23.532,660.361,23.477Z" transform="translate(-624.705 -19.747)" fill="#e4e4e4" fill-rule="evenodd"/></g><path d="M714.485-12.262,681.2-29.81c-11.76,35.1.061,129.97,2.689,152.958l16.436,5.091C698.342,105.191,719.87,20.377,714.485-12.262Z" transform="translate(-660.57 31.032)" fill="#2f3676" fill-rule="evenodd"/></g><g transform="translate(17.6 121.402)"><path d="M712.86-31.81l6.082,166.766,6.73,3.563,2.4-73.64,7.6-84.7Z" transform="translate(-692.469 33.039)" fill="#997659" fill-rule="evenodd"/><g transform="translate(0 163.989)"><path d="M689.159,23.477a1.287,1.287,0,0,0-1.7-.642h0a10.409,10.409,0,0,1-3.918,1.112,11.1,11.1,0,0,1-4.5-1.29l-1.051-2.573h0a.65.65,0,0,0-.819-.293L660.5,27.279c-1.29.177-2.983.41-4.969.642s-2.518,1.931-1.577,4.969h35.738a29.336,29.336,0,0,0,.587-5.03,13.713,13.713,0,0,0-1.051-4.272A.293.293,0,0,0,689.159,23.477Z" transform="translate(-653.501 -19.747)" fill="#e4e4e4" fill-rule="evenodd"/></g><path d="M738.865-16.272,705.584-33.82c-11.76,35.1.061,129.97,2.689,152.958l16.436,5.091C722.784,101.181,744.25,16.367,738.865-16.272Z" transform="translate(-687.649 33.82)" fill="#3a4589" fill-rule="evenodd"/></g><g transform="translate(22.149 0) rotate(14)"><g transform="translate(0.589 17.034)"><path d="M42.005,34.479,29.219,42.687,21.652,26.093c-2.145,4.26-4.939,7.408-6.766,8.05C10.228,35.725.607,21.453.014,13.758c-.532-7.683,13.728-20.39,21.8-9.584,2.806,3.741,3.4,8.288,2.757,12.75Z" transform="translate(0 0)" fill="#68401f" fill-rule="evenodd"/></g><path d="M1.053,34.14c.086.2.251.636.471.379.134-.1.043-.587.012-.77a3.64,3.64,0,0,1,.428-2.182A8.129,8.129,0,0,1,5.87,27.422c-.061.7,1.467,1.5,1.944,1.815,1.015.648,2.084,1.363,3.1,2.011a11.006,11.006,0,0,0,4.022,1.809c1.039.177,2.4.226,2.983-.8,1.076-1.779-.434-5.116,2.182-5.862,1.742-.477,4.621,1.436,4.327,3.521a4.308,4.308,0,0,1-.544,1.449,3.563,3.563,0,0,0-.685,1.247c-.141,1.161.825.379,1.076-.055.831,2.1,1.95,3.893,4.279,4.169A10.858,10.858,0,0,0,34.628,35.2a10.6,10.6,0,0,0,4.7-4.957c.2-.44.367-.77.868-.923a5.412,5.412,0,0,0,1.522-.575,11.17,11.17,0,0,0,2.653-1.98,8.629,8.629,0,0,0,2.506-4.26,8.488,8.488,0,0,0-.446-5.415,7.767,7.767,0,0,0-2.207-2.39c-.575-.452-1.736-.947-1.956-1.754a5.068,5.068,0,0,1,.379-2.249,4.213,4.213,0,0,0,.086-2.243c-.709-4.211-4.6-6.833-8.313-7.995a9.5,9.5,0,0,0-9.364,2.029A14.69,14.69,0,0,0,21.59,7.539c-.709,1.718-1.284,4.052-2.989,5.012-1.51.868-3.484.238-5.183.128A10.834,10.834,0,0,0,7.96,13.713,13.968,13.968,0,0,0,1.1,21.983,21.8,21.8,0,0,0,0,28.083,15.949,15.949,0,0,0,.259,31.45a21.533,21.533,0,0,0,.794,2.689" transform="translate(0 0)" fill="#191847" fill-rule="evenodd"/></g><g transform="translate(18.76 52.808) rotate(1)"><path d="M29.95,0,16.057,2.653C16.98,29.015,3.24,49.515.2,68.176-.091,69.826-.391,73,1.828,72.919q15.522-.541,48.464-1.693C46.942,40.726,42.169,18.068,29.95,0Z" transform="translate(0 2.796)" fill="#dde3e9" fill-rule="evenodd"/><path d="M58.729,99.662l-10.4.361a134.377,134.377,0,0,1-6.95-12.982L3.261,88.373Q-5.9,67.451,10.705,3.3l4.376-.385a7.35,7.35,0,0,1,1.284-.159C25.014,2.46,29.806-1.1,35.3.345c5.556,1.5,7.543,6.467,2.775,15.825a7.883,7.883,0,0,1-4.651,4.2Q58.6,52.4,58.729,99.662Z" transform="translate(14.636 0)" fill="#191847" fill-rule="evenodd"/><path d="M14.144,21.454,0,21.949C2.53,17.353,4.205,10.036,5.085,0,8.245,8.319,11.3,15.409,14.144,21.454Z" transform="translate(41.924 65.587)" fill="rgba(0,0,0,0.1)" fill-rule="evenodd"/></g></g></g><g transform="translate(0 24.018)"><g transform="translate(0 128.363)"><path d="M527.95,237.3l16.888,77.155,10.531,57.925h10.574L555.388,237.3Z" transform="translate(-495.555 -237.3)" fill="#b26e40" fill-rule="evenodd"/><path d="M498.283,237.3c1.565,40.078-4.554,61.941-4.9,65.584s-2.335,28.031-15.861,70.718h11c17.915-40.952,24.168-65.34,26.221-70.718s8.123-27.236,16.98-65.584H498.283Z" transform="translate(-475.949 -237.3)" fill="#b26e40" fill-rule="evenodd"/><path d="M527.17,237.3c5.825,26.551,10.4,68.927,24.718,127.134h15.458c1.143-59.747-3.716-99.067-12.127-127.134Z" transform="translate(-495.252 -237.3)" fill="#69a1ac" fill-rule="evenodd"/><path d="M498.5,237.3c1.528,40.078-7.934,79.569-20.219,127.758h16.5a541.408,541.408,0,0,0,39.6-127.758Z" transform="translate(-476.245 -237.3)" fill="#89c5cc" fill-rule="evenodd"/><g transform="translate(0 133.246)"><path d="M390.95,267.3l.605-9.78q5.327,1.559,13.343-1.222,8.618,6.106,21.7,8.337h0a1.229,1.229,0,0,1,1,1.412.968.968,0,0,1-.031.128l-.837,2.958H392.16Z" transform="translate(-390.95 -256.3)" fill="#424242" fill-rule="evenodd"/></g><g transform="translate(57.455 133.246)"><path d="M390.95,267.3l.605-9.78q5.327,1.559,13.343-1.222,8.618,6.106,21.7,8.337h0a1.229,1.229,0,0,1,1,1.412.968.968,0,0,1-.031.128l-.837,2.958H392.16Z" transform="translate(-390.95 -256.3)" fill="#424242" fill-rule="evenodd"/></g></g><g transform="translate(14.721 0)"><g transform="translate(20.968)"><g transform="translate(0 4.279)"><path d="M487.274,23.558c-2.384-3.631-3.777-7.885-2.9-12.353,2.53-12.866,20.244-7.756,22.939-.764s.2,23.556-4.486,24.162c-1.87.238-5.587-1.387-9.217-4.242l.287,17.75L479.34,46.3Z" transform="translate(-479.34 -3.289)" fill="#bc7d4d" fill-rule="evenodd"/></g><path d="M541.159,54.617c-.813-8.355-5.324-14.547-4.077-18.08a5.56,5.56,0,0,1,4.8-3.991q2.677-6.977,12.249-4.694c9.572,2.286,14.987,7.054,11.326,15.6-2.353-.293-5.085-1.5-9.193-.532-1.3.306-2.371,1.632-3.209,3.967l-1.772-.22q-2.044-4.6-4.7-3.783t-1.828,5.367l-1.711,6.6Z" transform="translate(-534.711 -27.289)" fill="#443118" fill-rule="evenodd"/></g><g transform="translate(0 23.539)"><g transform="translate(75.425)"><path d="M648.764,65.984l-22.707,6.222a4.85,4.85,0,0,0-3.6,5.128l3.221,37.994a4.929,4.929,0,0,0,5.9,4.419L654.992,115a4.853,4.853,0,0,0,3.93-5.293l-3.875-39.467A4.92,4.92,0,0,0,648.764,65.984Z" transform="translate(-622.436 -65.801)" fill="#e6e6e6"/><path d="M649.885,70.771l-21.344,5.9a3.085,3.085,0,0,0-2.237,3.221l3.386,36.789a3,3,0,0,0,3.6,2.677l22-4.474a2.973,2.973,0,0,0,2.4-3.276L653.706,73.4A3.034,3.034,0,0,0,649.885,70.771Z" transform="translate(-623.936 -67.691)" fill="#fff"/><path d="M639.26,79.951l11.68-3.221v1.913l-11.68,3.221Z" transform="translate(-628.977 -70.05)" fill="#e6e6e6"/><g transform="translate(5.314 14.106)"><path d="M631.13,92.1l11.68-3.221.055.984-11.68,3.27Z" transform="translate(-631.13 -88.88)" fill="#e6e6e6"/><path d="M645.69,93.124l3.056-.764.22,1.968-3.111.819Z" transform="translate(-636.791 -90.233)" fill="#fd2f58"/><path d="M638.45,95.094l3.062-.764.214,1.962-3.111.764Z" transform="translate(-633.976 -90.999)" fill="#ffad22"/><path d="M631.13,96.964l3.111-.764.165,1.968-3.056.764Z" transform="translate(-631.13 -91.726)" fill="#00c389"/><circle cx="1.039" cy="1.039" r="1.039" transform="translate(3.576 7.457)" fill="#f2f2f2"/><circle cx="1.039" cy="1.039" r="1.039" transform="translate(0.299 8.221)" fill="#f2f2f2"/></g><g transform="translate(6.518 26.227)"><path d="M633.1,111.925l11.68-3.215.055.978-11.687,3.276Z" transform="translate(-633.1 -108.71)" fill="#e6e6e6"/><path d="M647.56,112.954l3.111-.764.165,1.962-3.111.819Z" transform="translate(-638.722 -110.063)" fill="#fd2f58"/><path d="M640.33,114.879l3.111-.819.165,2.023-3.111.764Z" transform="translate(-635.911 -110.79)" fill="#ffad22"/><path d="M633.1,116.759l3.111-.819.159,2.017-3.111.764Z" transform="translate(-633.1 -111.521)" fill="#00c389"/><circle cx="1.039" cy="1.039" r="1.039" transform="translate(3.515 7.457)" fill="#f2f2f2"/><circle cx="1.039" cy="1.039" r="1.039" transform="translate(0.238 8.221)" fill="#f2f2f2"/></g><g transform="translate(8.15 39.925)"><path d="M635.77,134.4l11.686-3.276v1.039L635.77,135.38Z" transform="translate(-635.77 -131.12)" fill="#e6e6e6"/><path d="M650.24,135.419l3.111-.819.165,2.023-3.111.764Z" transform="translate(-641.396 -132.473)" fill="#fd2f58"/><path d="M643.01,137.334l3.111-.764.165,1.962-3.111.819Z" transform="translate(-638.585 -133.239)" fill="#ffad22"/><path d="M635.77,139.2l3.062-.764.214,1.968-3.111.819Z" transform="translate(-635.77 -133.966)" fill="#00c389"/><circle cx="1.039" cy="1.039" r="1.039" transform="translate(3.521 7.518)" fill="#f2f2f2"/><circle cx="1.039" cy="1.039" r="1.039" transform="translate(0.244 8.282)" fill="#f2f2f2"/></g></g><path d="M580.97,131.993l21.216-11.619a52.516,52.516,0,0,1,10.427-9.761c1.045-.434,2.879-.7,1.167,2.335s-3.374,6.308-2.5,7.243,3.044-.373,4.083,1.186q1.036,1.559-11.143,4.914L588.806,140.4Z" transform="translate(-530.889 -83.12)" fill="#b26e40" fill-rule="evenodd"/><path d="M615.68,120.374a52.519,52.519,0,0,1,10.427-9.761c1.045-.434,2.879-.7,1.167,2.335s-3.374,6.308-2.5,7.243,3.044-.373,4.083,1.186q1.036,1.559-11.143,4.914Z" transform="translate(-544.384 -83.12)" fill-rule="evenodd"/><g transform="translate(0 17.859)"><path d="M635.33,153.734l9.321-5.122q1.962-7.463,4.688-7.512c1.4-.648-1.033,5.635,1.614,5.091s5.33-1.045,5.33-1.045c-.012,1.718.544,3.05-1.186,5.257-3.233,4.12-1.387,5.024-8.007,6.87a36.31,36.31,0,0,0-11.228,5.807Z" transform="translate(-552.023 -112.917)" fill="#b26e40" fill-rule="evenodd"/><path d="M650.58,148.612q1.962-7.463,4.688-7.512c1.4-.648-1.033,5.635,1.614,5.091s5.33-1.045,5.33-1.045c-.012,1.718.544,3.05-1.186,5.257-3.233,4.12-1.387,5.024-8.007,6.87Z" transform="translate(-557.952 -112.917)" fill-rule="evenodd"/><path d="M562.536,136.2a52.146,52.146,0,0,0,27.914-8.362l4.15,9.26c-7.292,7.237-17.548,13.184-26.515,12.933A8.1,8.1,0,0,1,562.536,136.2Z" transform="translate(-522.785 -107.78)" fill="#c5cfd6" fill-rule="evenodd"/><path d="M548.791,138.295q11.836,2.952,39.687-6.962c4.609,9.529,6.124,13.264,5.776,17.322-15.928,8.319-34.118,8.514-46.019,6.8.355,6.675,9.193,93.279,6.467,99.085-5.611,11.931-44.558-.63-55.6,1.54-1.167-99.721,13.887-57.76,14.217-116.181-2.384-39.846,4.254-44.882,6.112-44.882l21.588,9.37C541.939,116.413,544.922,125.2,548.791,138.295Z" transform="translate(-499.034 -95.02)" fill="#dde3e9" fill-rule="evenodd"/></g></g><path d="M550.31,102.784l-20-11.894-7.341,5.018,23.929,14.07Z" transform="translate(-508.34 -52.016)" fill="#fff" fill-rule="evenodd"/><path d="M606.731,127.84l-4.731,2.7,2.365,12.078,6.516-5.513Z" transform="translate(-539.065 -66.381)" fill="#fff" fill-rule="evenodd"/><path d="M641.4,154.43l-6.234,1.693s5.532,14.541,4.676,19.217l7.335-3.582C647.181,171.752,650.1,172.382,641.4,154.43Z" transform="translate(-551.961 -76.719)" fill="#fff" fill-rule="evenodd"/></g></g><g transform="translate(145.879 45.735)"><g transform="translate(0 0)"><g transform="translate(78.454)"><path d="M741.989,67.366c-6.986,0-9.529-8.362-13.5-12.952-2.842-3.282-7.683-2.3-9.12-6.9-3.606-11.558,6.045-19.694,18.642-19.694s21.087,7.133,22.921,17.86A18.769,18.769,0,0,1,741.989,67.366Z" transform="translate(-718.61 -27.82)" fill="#191847" fill-rule="evenodd"/><g transform="translate(1.986 11)"><path d="M688.482,35.893c2.818-3.307,4.725-7.359,4.407-11.894-.917-13.08-19.125-10.2-22.67-3.6s-3.123,23.349,1.455,24.528c1.828.471,5.715-.685,9.67-3.068l-2.482,17.579h14.669Z" transform="translate(-667.86 -14.816)" fill="#b28b67" fill-rule="evenodd"/></g><path d="M736.672,56a3.824,3.824,0,0,1,1.791-.44,3.719,3.719,0,0,1,3.765,3.667,3.6,3.6,0,0,1-.752,2.2,11.749,11.749,0,0,1,1.7,4.6c3.093,0,14.37-11.693,3.136-22.695s-27.474,4.706-22.6,5.617C726.519,49.482,732.167,52.159,736.672,56Z" transform="translate(-720.248 -32.337)" fill="#191847" fill-rule="evenodd"/></g><g transform="translate(44.379 106.346)"><path d="M826.587,14.81,803.587,90l-11.143,63.952H783.71L795.482,14.81Z" transform="translate(-759.965 -14.81)" fill="#997659" fill-rule="evenodd"/><path d="M845.276,14.81c-1.565,41.288.275,62.583.623,66.336s5.14,28.073,16.472,74.068l-9.309-3.2c-17.915-42.187-24.015-64.111-26.075-69.649S819.477,54.313,810.62,14.81Z" transform="translate(-770.427 -14.81)" fill="#b28b67" fill-rule="evenodd"/><g transform="translate(57.455 133.439)"><path d="M789.284,37.844a13.124,13.124,0,0,1,1.027,4.1,30.7,30.7,0,0,1-.55,4.823H755.288q-1.348-4.447,1.552-4.8t4.81-.642l16.026-7.145a.611.611,0,0,1,.807.312c0,.006.006.012.006.018l1.033,2.5a11.037,11.037,0,0,0,4.358,1.253,9.851,9.851,0,0,0,3.759-1.1h0a1.223,1.223,0,0,1,1.62.6C789.266,37.789,789.278,37.82,789.284,37.844Z" transform="translate(-754.861 -34.125)" fill="#e4e4e4" fill-rule="evenodd"/></g><g transform="translate(0 133.439)"><path d="M601.284,37.844a13.127,13.127,0,0,1,1.027,4.1,30.709,30.709,0,0,1-.55,4.823H567.288q-1.348-4.447,1.552-4.8t4.81-.642l16.026-7.145a.612.612,0,0,1,.807.312c0,.006.006.012.006.018l1.033,2.5a11.038,11.038,0,0,0,4.358,1.253,9.852,9.852,0,0,0,3.759-1.1h0a1.223,1.223,0,0,1,1.62.6C601.266,37.789,601.278,37.82,601.284,37.844Z" transform="translate(-566.861 -34.125)" fill="#e4e4e4" fill-rule="evenodd"/></g><path d="M833.64,14.81l-9.78,38.311H793.99l4.456-38.311Z" transform="translate(-763.961 -14.81)" fill="#69a1ac" fill-rule="evenodd"/><path d="M844.308,14.81q4.823,14.468,1.834,38.311H815.66L807.28,14.81Z" transform="translate(-769.128 -14.81)" fill="#89c5cc" fill-rule="evenodd"/></g><g transform="translate(0 30.575)"><path d="M869.315,146.885c.874,1.779,7.359,7.176,11.852,10.256,1.8,1.241,1.057,2.824.379,3.239-5.544,3.423-9.2-.623-14-2.854-5.256-2.445-4.816,4.462-8.985,2.6,1.277-2.867,4.272-8.209,2.86-11.711q-.944-2.338-12.774-40.524l12.774-.049Q867.531,143.248,869.315,146.885Z" transform="translate(-727.386 -39.384)" fill="#b28b67" fill-rule="evenodd"/><g transform="translate(0 0)"><path d="M688.245,7.8,664.664,2.411a52.441,52.441,0,0,0-12.7-6.54c-1.125-.134-2.958.11-.483,2.567s4.969,5.146,4.389,6.283-3.032.477-3.606,2.255q-.578,1.779,12.059,1.681l18.685,9.37Z" transform="translate(-650.254 4.158)" fill="#b28b67" fill-rule="evenodd"/><path d="M762.7,18.457l-2.1-4.933Q724.547,20.556,682.69,7.1L674.5,32.784C709.01,37.484,739.516,34.416,762.7,18.457Z" transform="translate(-659.68 -0.219)" fill="#191847" fill-rule="evenodd"/></g><path d="M817.924,84.489H770.86q16.357-39.763,16.356-67.564l14.2-2.115C812.57,32.755,815.724,54.845,817.924,84.489Z" transform="translate(-697.143 -3.216)" fill="#dde3e9" fill-rule="evenodd"/><path d="M811.3,14.822c0-.006-.006-.006-.006-.012h-.929c-1.106.037-2.8.11-5.067.208l-3.429,9.8q-.541,17.933-6.357,72.265h30.854q-.119,3.75-.4,7.573h22.939q-5.143-58.072-37.59-89.85Z" transform="translate(-706.726 -3.216)" fill="#2f3676" fill-rule="evenodd"/><path d="M838.455,97.04q-1.32,23.388-6.6,32.254h8.624A161.258,161.258,0,0,0,838.455,97.04Z" transform="translate(-720.858 -35.186)" fill="rgba(0,0,0,0.1)" fill-rule="evenodd"/><path d="M825.073,114.312,809.86,107.24v7.072Z" transform="translate(-712.305 -39.151)" fill="rgba(255,255,255,0.2)" fill-rule="evenodd"/></g></g></g><g transform="translate(115.959 20.945)"><g transform="translate(48.606 130.868)"><path d="M766.58,236.37l11.8,140.11,11.436-2.873,1.73-59.527,7.432-73.041Z" transform="translate(-752.895 -236.37)" fill="#191847" fill-rule="evenodd"/><g transform="translate(0 133.888)"><path d="M703.362,269.256v-1.222l-7.946,1.222H672.19v-2.445q14.706-3.97,23.838-10.391h12.836l.611,12.836Z" transform="translate(-672.19 -256.42)" fill-rule="evenodd"/></g></g><g transform="translate(0 0)"><g transform="translate(0 3.533)"><g transform="translate(100.573 134.907) rotate(180)"><g transform="translate(5.891 80.333)"><g transform="translate(5.473 0)"><path d="M6.112,23.984c-2.671,3.435-4.395,7.573-3.875,12.1C1.277,27.762,14.59,60.5,25.072,38.666c3.246-6.76,2.078-23.5-2.555-24.473-1.846-.391-5.684.941-9.541,3.5L14.675,0,0,.66Z" fill="#efd9ca" fill-rule="evenodd"/></g><path d="M1.512,20.537a4.588,4.588,0,0,0-.874,1.821,17.92,17.92,0,0,0-.52,2.048,4.468,4.468,0,0,0,.85,4,4.609,4.609,0,0,0,3.117,1.186,5.578,5.578,0,0,0,2.158-.373c.678-.257,1.253-.74,1.913-1.045a8.793,8.793,0,0,0,1.222,4.254,4.284,4.284,0,0,0,3.282,1.938,6.339,6.339,0,0,0,3.851-.96,9.98,9.98,0,0,0,.862-.568,2.511,2.511,0,0,1,.752-.458c.312-.086.477.086.691.306a5.128,5.128,0,0,0,.825.678,4.675,4.675,0,0,0,4.407.556,4.084,4.084,0,0,0,1.724-1.369c.385-.55-3-3.771-2.457-4.169.232-.171.41.031.636.177.336.22.66.458,1,.672a4.322,4.322,0,0,0,1.534.611c.795.147,1.883.055,2.06-.984a4.344,4.344,0,0,0-.061-1.192c-.061-.532-.122-1.07-.2-1.6-.055-.4-.116-.795-.208-1.192a1.8,1.8,0,0,1-.116-.819c.1-.269.636-.141.856-.165a3.368,3.368,0,0,0,1.284-.342,1.377,1.377,0,0,0,.752-.764,1.3,1.3,0,0,0-.006-.685,1.945,1.945,0,0,1,.012-.7c.611.269,2.7.825,2.916-.251a1.68,1.68,0,0,0-.306-1.045,9.471,9.471,0,0,0-1.027-1.424c-.782-.923,1.944.654.966-.012a1.68,1.68,0,0,0,.312-2.83,2.089,2.089,0,0,0-1.546-.373,3.614,3.614,0,0,1-.63.079,2.152,2.152,0,0,0-.293-.086,8.428,8.428,0,0,0-2.329.4,7.673,7.673,0,0,0-3.49,2.029,1.1,1.1,0,0,1-.807.416c-.306.012-.611-.061-.923-.055a6.6,6.6,0,0,0-2.268.746,8.7,8.7,0,0,0-.892-3.026c-.373-.733-1.088-.807-1.791-.843-2.243-.11-4.468.226-6.705.324,2.139-.587,4.364-.886,6.485-1.559.96-.306,1.461-6.076,1.027-6.51-.715-.715-2.537,3.533-2.934,2.579a4.671,4.671,0,0,1-4.5,2.072A3.27,3.27,0,0,1,9.965,7.4a6.05,6.05,0,0,1,2.842-2c-.831-.795-1.082-2-1.608-3.013a2.2,2.2,0,0,0-1.155-1.21,1.32,1.32,0,0,1-.587-.2C9.256.776,9.2.556,8.95.4A2.714,2.714,0,0,0,5.6.806a2.2,2.2,0,0,0,.2,2.873C4.782,4.156,2.918,4.8,3.4,6.4c-2.243.251-2.506,3.918.63,6.448C2.416,13.856,1,16.215,2.148,18.183c.892,1.5-2.2,2.341-.636,2.353" transform="translate(0 20.189)" fill="#c9a54b" fill-rule="evenodd"/></g><g transform="translate(0)"><path d="M0,9.15l8.362,6.589c.477,5.128,2,4.816,3.79,5.146,1.54,0,.275-.348,2.824.562,2.262.807,6.84,2.885,8.954,2.634,1.864-1.155-3.441-4.865-4.792-7.329,1.314-4.4-.7-6.265-6.943-9.174A36.509,36.509,0,0,1,2.054,0Z" transform="translate(76.251 53.586)" fill="#e8cebf" fill-rule="evenodd"/><path d="M38.948,55.071c8.117-.648,25.372,3.545,42.627,13.123q9.178-12.982,9.657-19.082C76.862,38.275,53.843,32.853,42.774,30.763c1.449-6.534.856-17.01-.886-23.19C38.306-5.134,15.019,3.967,4.463,0-6.062,21.057,5.649,32.273,3.3,46.471.722,62.021,9.224,88.034,11.064,88.34l16.754,2.787C30.715,79.4,32.976,67.363,38.948,55.071Z" fill="#f46e33" fill-rule="evenodd"/></g></g></g><path d="M790.105,173.985c8.013-.177,18.068,3.007,18.068,3.007l1.259,8.08-9.541-1.589-14.431.116Z" transform="translate(-711.629 -81.246)" fill="#fff"/><path d="M803.285,147.755s10.091.782,12.744,2.121l-1.229-6.943-12.64-2.1Z" transform="translate(-718.121 -68.358)" fill="#fff" fill-rule="evenodd"/><path d="M696.506,140.87l-10.813,19.522-5.733-4.12s3.918-17.151,9.657-19.082Z" transform="translate(-670.613 -66.943)" fill="#fff"/><path d="M734.16,139.89" transform="translate(-691.685 -67.993)" fill="#fff"/><path d="M766,36.52c9.981,1.21,6.43,6.772,27.914,14.394,1.021.361,4.438,3.386,3.178-1.858,0,0,7.365-16.595-3.606-23.416-16.179-10.061-26.331,5.55-26.331,5.55l-5.678,2.268a.958.958,0,0,0-.2,1.834A19.079,19.079,0,0,0,766,36.52Z" transform="translate(-701.993 -22.262)" fill="#f46e33" fill-rule="evenodd"/></g></g></g><g transform="translate(93.88 99.572)"><g transform="translate(0 0)"><g transform="translate(162.582 200.48) rotate(180)"><g transform="translate(79.415 151.528)"><g transform="translate(0.783 0)"><path d="M16.995,0,3.194,4.975l8.294,15.7c-4.535-.9-8.582-.666-10.14.391-3.906,2.659,1.375,18.557,6.943,23.569s23.679,1.546,20.1-11.069c-1.241-4.376-4.407-7.542-8.178-9.7Z" transform="translate(0)" fill="#b28b67" fill-rule="evenodd"/></g><path d="M14.728,21.993c-6.1,2.09-6.418,3.435-5.1,7.1,1.235.348,5.116.281,9.107-.782a10.626,10.626,0,0,0,6.393-2.848,9.055,9.055,0,0,0,4.138-7.9C30.693,9.713,25.4,3.98,20.712,3.057c-.587,1.583-1.057,3.081-1.449,4.5a3.663,3.663,0,0,1-.7,6.913Q14.633,4.53,12.429,1.718C10.15-1.191,3.481.3,1.256,1.1-.944,1.9.321,4.127.773,5.392c.275.764,2.207-1.057,2.671.232S1.305,8.76,1.006,9.8c-.354,1.271-.11,2.72.978,2.323,1.491-.538,3.6-3.735,7-4.963q3.4-1.229,8.172,9.529A11.977,11.977,0,0,1,14.728,21.993Z" transform="translate(0 19.668)" fill="#191847" fill-rule="evenodd"/></g><g transform="translate(0 0)"><path d="M27.242,82.686c2.39-3.875,8.068-14.877,14.125-27.719q5.308-11.25,13.6-38.574l-7.041-3.215q-19,30.54-28.306,47.266c.354-3.288.7-6.8,1.033-10.427,1.137-12.432,0-39.155-.611-46.868-.385-4.847-6.986-3.576-7.6.3S.018,68.737,0,81.677c-.006,4.926,10.965,8.869,15.354,2.916C18.96,87.123,24.082,87.808,27.242,82.686Z" transform="translate(13.443 7.036)" fill="#b28b67" fill-rule="evenodd"/><path d="M28.771,0C27.438,3.655,4.646,43.342.165,55.6-1.809,61,14.419,72.21,20.207,62.895L44.369,5.66Z" transform="translate(23.54 27.878)" fill="#1f28cf" fill-rule="evenodd"/><path d="M7.824,68.659q14.339,2.127,59.924,7.567H103.29c-.617-21.362-8.209-32.615-26.551-31.924-12.726.483-55.151,6.858-56.208,6.351q-.706-.339,3.808-50.071L7.115,0C7.109,3.57,0,41.7,0,57.925-.012,62.406,1.687,67.748,7.824,68.659Z" transform="translate(12.844 26.307)" fill="#2b44ff" fill-rule="evenodd"/><g transform="matrix(0.97, -0.242, 0.242, 0.97, 36.518, 14.865)"><path d="M22.008,20.6l2.3-4.315A9.777,9.777,0,0,0,20.26,3.054L16.672,1.147A9.777,9.777,0,0,0,3.446,5.194l-2.3,4.315A9.777,9.777,0,0,0,5.194,22.736l3.588,1.907A9.788,9.788,0,0,0,22.008,20.6ZM5.279,16.526a2.444,2.444,0,0,1-1.009-3.307l4-7.518a2.444,2.444,0,0,1,3.307-1.009l8.594,4.572a2.444,2.444,0,0,1,1.009,3.307l-4,7.518A2.444,2.444,0,0,1,13.873,21.1Z" transform="translate(0 0)" fill="#c5cfd6" fill-rule="evenodd"/></g><g transform="translate(0 10.391)"><path d="M34.39,9a1.223,1.223,0,0,1-1.62.6h0a9.88,9.88,0,0,0-3.759-1.1,10.961,10.961,0,0,0-4.358,1.253l-1.033,2.5c0,.006-.006.012-.006.018a.617.617,0,0,1-.807.312L6.787,5.44Q4.871,5.156,1.977,4.8T.424,0H34.9a30.713,30.713,0,0,1,.55,4.823,13.087,13.087,0,0,1-1.027,4.1A.282.282,0,0,1,34.39,9Z" transform="translate(0 0)" fill="#e4e4e4" fill-rule="evenodd"/></g><path d="M32.395,2.139h0A2.142,2.142,0,0,0,30.255,0H2.139A2.142,2.142,0,0,0,0,2.139H0A2.142,2.142,0,0,0,2.139,4.279H30.255A2.134,2.134,0,0,0,32.395,2.139Z" transform="translate(2.441 6.112)" fill="#2f3676" fill-rule="evenodd"/><path d="M77.625,29.95V2.445A2.444,2.444,0,0,0,75.18,0H0V29.95a6.114,6.114,0,0,0,6.112,6.112h65.4A6.107,6.107,0,0,0,77.625,29.95Z" transform="translate(46.449 62.956)" fill="#2f3676" fill-rule="evenodd"/><path d="M6.534,0H0L13.41,81.671a6.112,6.112,0,0,0,6.033,5.122h1.339" transform="translate(31.78 12.224)" fill="#2f3676" fill-rule="evenodd"/><circle cx="11.002" cy="11.002" r="11.002" transform="translate(23.834)" fill="#191847"/><g transform="translate(69.676 1.222)"><path d="M0,46.453A46.453,46.453,0,1,0,46.453,0,46.456,46.456,0,0,0,0,46.453Zm84.349,0a37.9,37.9,0,1,1-37.9-37.9A37.9,37.9,0,0,1,84.349,46.453Z" fill="#191847" fill-rule="evenodd"/><path d="M3.817,59.139,59.139,3.817a1.225,1.225,0,0,0,0-1.73L57.409.358a1.225,1.225,0,0,0-1.73,0L.358,55.679a1.225,1.225,0,0,0,0,1.73l1.73,1.73A1.225,1.225,0,0,0,3.817,59.139Z" transform="translate(16.708 16.708)" fill="#191847" fill-rule="evenodd"/><path d="M1.222,4.89H79.459a1.226,1.226,0,0,0,1.222-1.222V1.222A1.226,1.226,0,0,0,79.459,0H1.222A1.226,1.226,0,0,0,0,1.222V3.667A1.222,1.222,0,0,0,1.222,4.89Z" transform="translate(6.112 44.008)" fill="#191847" fill-rule="evenodd"/><path d="M.358,3.817,55.679,59.139a1.225,1.225,0,0,0,1.73,0l1.73-1.73a1.225,1.225,0,0,0,0-1.73L3.817.358a1.225,1.225,0,0,0-1.73,0L.358,2.087A1.225,1.225,0,0,0,.358,3.817Z" transform="translate(16.708 16.708)" fill="#191847" fill-rule="evenodd"/></g></g><g transform="translate(20.967 56.145)"><path d="M37.878,43.7,18.57,35.7q-8.187-9.618-9.162-8.019c-.972,1.6,1.137,3.019.654,4.205s-4.15,1.064-7.622.795S-.024,33.956.814,34.72a52.434,52.434,0,0,0,13.251,5.324l19.5,14.315Zm78.438-28.886c.874-1.779,7.359-7.176,11.852-10.256,1.8-1.241,1.057-2.824.379-3.239-5.544-3.423-9.2.623-14,2.854-5.257,2.445-4.816-4.462-8.985-2.6,1.277,2.867,4.272,8.209,2.861,11.711q-.944,2.338-12.775,40.524l12.775.049Q114.522,18.455,116.316,14.818Z" transform="translate(0 0)" fill="#b28b67" fill-rule="evenodd"/><path d="M5.788,0,0,7.17C24.039,24.412,32.089,56.954,51.7,73.9l5.287-.9C57.822,44.858,47.486,5.159,5.788,0Z" transform="translate(15.135 34.475)" fill="#e87613" fill-rule="evenodd"/><path d="M31.219,69.679,17.73,67.564C17.73,41.985,3.812,22.615.249,4.645-.063,3.087-.46,0,1.673,0H48.438C46.237,29.644,42.38,51.74,31.219,69.679Z" transform="translate(46.724 41.04)" fill="#dde3e9" fill-rule="evenodd"/><path d="M55.62,0H45.59a125.885,125.885,0,0,0-6.259,12.836H2.523Q-5.628,33.428,12.547,95.027l4.224.238a8.778,8.778,0,0,0,1.253.086c8.392,0,13.092,3.319,18.361,1.705s7.047-6.51,2.121-15.4a7.71,7.71,0,0,0-4.651-3.942Q57.041,45.787,55.62,0Z" transform="translate(60.935 15.368)" fill="#ff9b21" fill-rule="evenodd"/><path d="M13.661,0H0Q3.906,6.565,5.642,21.087,9.85,8.9,13.661,0Z" transform="translate(86.605 28.204)" fill="rgba(0,0,0,0.1)" fill-rule="evenodd"/></g></g></g></g><g transform="translate(516.93 99.572)"><g transform="translate(0.001)"><g transform="translate(178.797 200.914) rotate(180)"><g transform="translate(64.455 155.299)"><g transform="translate(1.216 0)"><path d="M5.024,23.422c-2.8,3.29-4.7,7.323-4.385,11.836C1.551,48.273,19.669,45.409,23.2,38.84S26.3,15.607,21.749,14.433c-1.819-.468-5.687.681-9.622,3.053L14.6,0H0Z" transform="translate(0)" fill="#b28b67" fill-rule="evenodd"/></g><path d="M10.783,7.986a2.929,2.929,0,0,1-1.66.529A3.132,3.132,0,0,1,6.082,5.474,3.618,3.618,0,0,1,7.925,2.1C7.347.967,6.763.152,6.082,0,3.455.268,0,6.8,0,12.164c0,5.869,4.671,10.948,13.381,10.948,7.828,0,10.8-3.23,10.948-6.082-3.351-.924-9.214-1.277-17.638-1.216v-.608l7.3-.608,1.216-3.649C13.271,11.094,11.884,9.768,10.783,7.986Z" transform="translate(0 22.504)" fill="#191847" fill-rule="evenodd"/></g><g transform="translate(9.108 0)"><ellipse cx="49.465" cy="45.366" rx="49.465" ry="45.366" transform="translate(0 0)" fill="#c5cfd6"/><path d="M92.673,0C84.882,17.249,79.244,32.265,76.982,40.19,73.107,53.759,70.164,65.7,69.416,70.156c-1.776,10.631,13.66,11.252,15.7,5.966,3.09-8,8.478-34.272,14.956-73.964ZM2.282,54.13C9.434,56.958,34.468,65.8,46.547,68.3c3.473.718,6.836,1.387,9.993,1.989,9.4,1.794,14.268-15.163,5.218-16.464C39.212,50.584,7.251,47.233,4.52,46.856.682,46.327-2.213,52.354,2.282,54.13Z" transform="translate(46.308 5.887)" fill="#b28b67" fill-rule="evenodd"/><path d="M38.676,60.346,0,80.034v4.288H4.6q56.125-14.3,57.36-18.331c.006-.03.018-.061.024-.085l.055-.073C69.451,55.632,73.891,5.851,75.35,2.123L61.143,0C55.705,20.156,38.317,34.193,38.779,58.333A7.628,7.628,0,0,0,38.676,60.346Z" transform="translate(69.944 20.496)" fill="#7c768c" fill-rule="evenodd"/><path d="M30.581,15.369c-3.54.706-6.8,1.338-9.585,1.831C2.987,20.357-2.268,30,.84,51.034H34.024c5.419-1.557,33.591-13.368,48.206-19.657,9.677-4.16,6.623-19.152,1.143-23.051a.537.537,0,0,0-.3-.474C53.608-4.361,30.289,2.044,22.5,0L18.9,11.361Z" transform="translate(42.574 53.784)" fill="#9690a5" fill-rule="evenodd"/><g transform="matrix(0.438, -0.899, 0.899, 0.438, 42.609, 58.852)"><path d="M1.022,8.874A13.061,13.061,0,0,1,0,4.8,30.56,30.56,0,0,1,.547,0h34.3q1.341,4.425-1.545,4.774t-4.787.639l-15.947,7.11a.608.608,0,0,1-.8-.31c0-.006-.006-.012-.006-.018L10.735,9.707A10.983,10.983,0,0,0,6.4,8.46a9.8,9.8,0,0,0-3.74,1.095h0a1.217,1.217,0,0,1-1.612-.6A.2.2,0,0,0,1.022,8.874Z" transform="translate(0 0)" fill="#e4e4e4" fill-rule="evenodd"/></g><g transform="translate(134.413 0.213)"><path d="M1.022,8.874A13.061,13.061,0,0,1,0,4.8,30.56,30.56,0,0,1,.547,0h34.3q1.341,4.425-1.545,4.774t-4.787.639l-15.941,7.1a.608.608,0,0,1-.8-.31c0-.006-.006-.012-.006-.018L10.741,9.695A10.983,10.983,0,0,0,6.4,8.448a9.8,9.8,0,0,0-3.74,1.095h0a1.217,1.217,0,0,1-1.612-.6A.263.263,0,0,1,1.022,8.874Z" transform="translate(0 0)" fill="#e4e4e4" fill-rule="evenodd"/></g></g><g transform="translate(0 31.225)"><path d="M115.015,62.164l21.743-10.321a52.161,52.161,0,0,0,13.952-2.713c.961-.59,2.244-1.91-1.2-2.3s-7.055-.961-7.3-2.208,2.074-2.238,1.429-3.984q-.648-1.743-10.461,6.112l-20.369,4.191ZM21.929,55.558l10.887.122Q21.5,15.821,20.6,13.477C19.247,9.967,22.306,4.7,23.626,1.866c-4.118-1.922-3.783,4.957-8.977,2.445C9.911,2.012,6.341-2.069.77,1.252c-.687.407-1.454,1.971.322,3.23C5.52,7.62,11.882,13.087,12.727,14.87Q14.451,18.519,21.929,55.558Z" transform="translate(0 31.664)" fill="#b28b67" fill-rule="evenodd"/><path d="M54.586,16.342a20.78,20.78,0,0,0,8.2.341,2.737,2.737,0,0,0,1-5.079c.626-.292,1.253-.584,1.885-.87L62.761,0C40.6,6.192,20.126,10.133,8.259,25.113,4.276,30.143,1.606,49.307,0,56.162l5.881,3.85C18.331,43.316,33.78,27.977,54.586,16.342Z" transform="translate(65.16 76.822)" fill="#efdfb1" fill-rule="evenodd"/><path d="M0,1.574q28.683-3.147,45.153,0c1.362.262,1.3,6.125.669,7.724C36,34.24,29.534,52.493,29.534,69.814q-2.7-1.414-9.464-.426C7.961,51.544,2.39,31.059,0,1.574Z" transform="translate(51.074 66.6)" fill="#191847" fill-rule="evenodd"/><path d="M36.968,65.224a2.732,2.732,0,0,0-.821,2.469l.316,1.794a2.741,2.741,0,0,0,2.372,2.244c.207.912.377,1.819.523,2.719,1.229,7.6-.87,15.053-.772,22.37Q23.916,84.312,12.269,53.6L.78,56.983q.657,2.445,1.362,4.823c-1.326.754-2.877,4.2-1.758,4.78A13.5,13.5,0,0,0,4.04,67.851q15.8,47.586,51.673,69.6h6.915C60.591,110.523,88.72,51.728,78.952,1.508,60.9-2.524,35.125,10.023,10.037,0,10.973,20.223,29.669,43.979,36.968,65.224Z" transform="translate(10.555 0)" fill="#ffefbc" fill-rule="evenodd"/><path d="M5.614,46.224,2.475,36.571,8.795,29.34,3.084,23.653,16.9,0,0,23.611,5.614,29.34,0,35.732Z" transform="translate(63.166 90.623)" fill="rgba(0,0,0,0.1)" fill-rule="evenodd"/><path d="M2.433,27.977A2.433,2.433,0,1,0,4.866,30.41,2.432,2.432,0,0,0,2.433,27.977ZM5.474,13.989a2.433,2.433,0,1,0,2.433,2.433A2.432,2.432,0,0,0,5.474,13.989ZM6.082,0A2.433,2.433,0,1,0,8.515,2.433,2.432,2.432,0,0,0,6.082,0Z" transform="translate(73.578 53.522)" fill="rgba(0,0,0,0.4)" fill-rule="evenodd"/></g></g></g></g></g><g transform="translate(1102.054 44.719)"><g transform="translate(0 0)"><g transform="matrix(0.94, 0.342, -0.342, 0.94, 60.305, 0)"><g transform="translate(0.78 3.354)"><path d="M23.891,14.993c.034-4.31-1.1-8.6-4.237-11.849C10.614-6.209-1.386,7.588.131,14.859s12.515,19.73,16.747,17.709c1.685-.806,3.907-4.164,5.4-8.5L31.592,39.01l11.149-9.353Z" transform="translate(0 0)" fill="#b28b67" fill-rule="evenodd"/></g><g transform="translate(0 0)"><path d="M.648,2.644c.129-.369.392-1.136.565-1.478.039-.084.218-.778.235-.784C1.885.215,3.223-.188,3.615.1c.034.017.073.034.1.045.353.134.7.291,1.041.448.75.353,1.489.761,2.211,1.175,1.4.806,2.782,1.685,4.125,2.591,1.371.924,2.7,1.9,4.052,2.843,1.953,1.354,4,2.558,5.95,3.912A13.5,13.5,0,0,1,24.347,14.2c.011.017.022.028.034.045s.011.011.011.017c.134.19.263.381.392.582.106.174.213.341.313.515-1.159-.5-2.289-1.175-3.4-1.785-.106-.062-.218-.123-.325-.185-.269-.09-.537-.174-.806-.257-1.7-.526-3.392-1.047-5.071-1.618A81.087,81.087,0,0,0,6.3,8.739c-.918-.2-1.847-.369-2.765-.576-.52-.118-1.047-.241-1.562-.381C1.605,7.681.167,7.457.01,6.73A18.074,18.074,0,0,1,.648,2.644Z" transform="translate(0 10.157)" fill="#2c2c2c" fill-rule="evenodd"/><path d="M.419,11.435c-.179.291-.493-.325-.4-.711.409-1.78,4.411-5.659,8.765-8A23.516,23.516,0,0,1,19.029,0a16.243,16.243,0,0,1,8.832,3.112A23.475,23.475,0,0,1,34.483,10.2c.375.616.638,1.276.985,1.892a16.7,16.7,0,0,1,1.119,2.065c.179.459.269.979.47,1.427a3.208,3.208,0,0,0,1.052,1.175A17.488,17.488,0,0,0,40.349,18.3c1.187.666,2.4,1.209,3.526,1.987,1.5,1.035,6.733,4.114,6.6,6.263l-21.6,18.129c-.7-1.942-.532-5.06-1.534-6.924-.593-1.1-2.211-3.218-2.256-3.314-2.328-3.767-2.726-6.168-2.614-7.248s.75-1.925.369-2.463c-1.584-2.228-4.092-3.532-6.33-4.97-2.675-1.713-5.2-3.644-7.886-5.334C7.415,13.691,1.342,9.918.419,11.435Z" transform="translate(0.75 0)" fill="#8991dc" fill-rule="evenodd"/><path d="M.5,2.194c1.657.358,4.953,2.938,7,6.9l-.4.336C4.321,5.754,2.989,4.517,0,2.619ZM16.976,0c2.088,4.534,3.246,8.407,1.041,14.323l-.521.045c1.741-6.537.6-9.3-.968-14.256ZM7.523,1.327c4,5.127,6.828,9.683,7.31,17.765l-.481.2C13.142,10.556,10.842,7.4,7.142,1.6ZM20.653,28.82l-.711.112c3.168-7.64.252-10.108,3.537-15.247l.66.123C21.364,17.334,23.872,22.657,20.653,28.82Z" transform="translate(10.757 4.864)" fill="rgba(0,0,0,0.2)" fill-rule="evenodd"/></g></g><g transform="translate(0 99.297)"><path d="M1151.671-3.09l-45.051,75.32L1072.846,135.9h-7.276L1122.162-3.09Z" transform="translate(-1043.143 3.09)" fill="#997659" fill-rule="evenodd"/><g transform="translate(0 132.377)"><path d="M788.846,21.536a13.092,13.092,0,0,1,1.019,4.064,30.569,30.569,0,0,1-.549,4.786h-34.2q-1.335-4.408,1.539-4.758T761.425,25l15.9-7.086a.605.605,0,0,1,.8.308c0,.006.005.011.005.017l1.024,2.48a10.9,10.9,0,0,0,4.321,1.243,9.756,9.756,0,0,0,3.728-1.091h0a1.21,1.21,0,0,1,1.606.6A.225.225,0,0,1,788.846,21.536Z" transform="translate(-754.694 -17.857)" fill="#e4e4e4" fill-rule="evenodd"/></g><path d="M1084.292,125.715l-14.032-4.243q9.218-27.563,22.6-60.667T1121.6-3.08h39.628a624.07,624.07,0,0,1-36.208,70.77A478.888,478.888,0,0,1,1084.292,125.715Z" transform="translate(-1045.207 3.086)" fill="#db2721" fill-rule="evenodd"/><path d="M1201.372-3.09c4.254,26.469,12.453,60.281,13.226,61.328q.773,1.041,55.725,18.672l-1.573,6.414q-65.529-9.454-69.057-14.67c-3.526-5.217-21.14-46.423-27.963-71.744h29.643Z" transform="translate(-1089.883 3.09)" fill="#b28b67" fill-rule="evenodd"/><path d="M1255.641,71.363,1252.87,81.7q-49.014,4.3-60.063-6.213T1167.62-3.09h37.786q8.958,55.731,10.013,58.076T1255.641,71.363Z" transform="translate(-1088.074 3.09)" fill="#ff4133" fill-rule="evenodd"/><g transform="translate(186.998 75.852) rotate(80)"><path d="M0,8.48A13.058,13.058,0,0,1,.438,4.31,30.609,30.609,0,0,1,2.587,0Q4.375.655,34.72,11.7c-.168,3.067-1.192,4.377-3.073,3.946s-3.448-.778-4.7-1.035L9.589,15.829a.611.611,0,0,1-.649-.56v-.017l-.112-2.681A10.854,10.854,0,0,0,5.19,9.929a9.8,9.8,0,0,0-3.879-.252h0a1.207,1.207,0,0,1-1.3-1.108C.007,8.536,0,8.508,0,8.48Z" transform="translate(0 0)" fill="#e4e4e4" fill-rule="evenodd"/></g></g><g transform="matrix(0.966, 0.259, -0.259, 0.966, 57.942, 28.654)"><path d="M25.742,53.693,14.223,70.983q-1.444,12.426-3.129,11.659c-1.685-.767-.733-3.1-1.78-3.8S5.307,80.28,2.581,82.434s-2.743.325-2.468-.767a52.487,52.487,0,0,1,8-11.726L16.3,47.385Zm91.81-28.081c1.769.845,10.142,1.075,15.549.716,2.172-.14,2.547,1.545,2.267,2.289-2.272,6.05-7.6,5.144-12.728,6.342-5.62,1.315-1.063,6.414-5.474,7.517-.739-3.011-1.64-8.995-4.886-10.853q-2.166-1.243-35.855-24.89L84.982,0Q113.939,23.886,117.552,25.612Z" transform="translate(0 21.387)" fill="#b28b67" fill-rule="evenodd"/><path d="M14.732,0,7.853,1.444C11.228,25.405,10.383,50.962,0,78.125L9.61,83.6c11.385-19.954,23.15-37.137,21.056-56C29.961,21.269,18.4,5.939,14.732,0Z" transform="translate(9.466 6.185)" fill="#c5cfd6" fill-rule="evenodd"/><path d="M58.255,46.193Q34.915,63.152,19.137,68.777c-1.3.465-2.619-1.382-2.838-3.028-3.425-25.59-8.009-47-16.3-61.367Q3.022,4.2,8.4,0C27.437,8.743,42.068,22.937,58.255,46.193Z" transform="translate(17.38 3.213)" fill="#323337" fill-rule="evenodd"/><path d="M4.371.465,0,2.989C2.412,9.515,45.622,91.776,50.895,123.8l53.648-30.974C89.47,69.4,63.583,45.756,40.3,26.9q18.781,4.064,43.372,25.495l8.575-8.357Q53.4,2.622,5.53.257C5.412.174,5.295.084,5.183,0L4.8.224C4.6.213,4.4.207,4.215.2Z" transform="translate(23.302 0)" fill="#dde3e9" fill-rule="evenodd"/></g></g></g><g transform="translate(-261.154 38.531)"><g transform="translate(151.265 33.901)"><path d="M290.438,138.816,274.259,168.87a4.224,4.224,0,0,1-5.336,1.9l-18.985-7.854a4.226,4.226,0,0,1-2.078-5.959l15.953-28.648a4.224,4.224,0,0,1,5.036-1.95l19.211,6.448A4.222,4.222,0,0,1,290.438,138.816Z" transform="translate(-247.326 -126.139)" fill="#e6e6e6"/><path d="M289.219,139.81l-15.5,29.2a2.613,2.613,0,0,1-3.307,1.192l-17.829-7.377a2.618,2.618,0,0,1-1.3-3.673l15.274-27.89a2.612,2.612,0,0,1,3.123-1.222l18.055,6.063A2.619,2.619,0,0,1,289.219,139.81Z" transform="translate(-248.741 -127.604)" fill="#fff"/><circle cx="0.898" cy="0.898" r="0.898" transform="translate(14.819 14.505)" fill="#ffe6bd"/><circle cx="0.898" cy="0.898" r="0.898" transform="translate(20.845 12.292)" fill="#ffe6bd"/><circle cx="0.898" cy="0.898" r="0.898" transform="translate(22.288 16.308)" fill="#ffe6bd"/><circle cx="0.898" cy="0.898" r="0.898" transform="translate(28.651 12.329)" fill="#ffe6bd"/><circle cx="0.898" cy="0.898" r="0.898" transform="translate(33.479 12.909)" fill="#ffe6bd"/><path d="M273.04,149.933l6.027-2.213,1.443,4.016,6.363-3.979,4.829.581" transform="translate(-257.323 -134.529)" fill="none" stroke="#ffad22" stroke-linecap="round" stroke-linejoin="round" stroke-miterlimit="10" stroke-width="0.5"/><path d="M285.94,137.087l9.89,3.294.917-1.387-9.9-3.294Z" transform="translate(-262.338 -129.856)" fill="#cecece"/><g transform="translate(6.335 22.12)"><path d="M280.32,163.057l9.9,3.3.452-.733-9.9-3.294Z" transform="translate(-266.488 -162.33)" fill="#e6e6e6"/><path d="M275.43,171.367l9.9,3.3.452-.733-9.9-3.294Z" transform="translate(-264.587 -165.561)" fill="#e6e6e6"/><path d="M274.14,174.1l9.9,3.3.452-.733-9.9-3.294Z" transform="translate(-264.085 -166.622)" fill="#e6e6e6"/><path d="M272.7,176.723l9.89,3.294.452-.733-9.89-3.295Z" transform="translate(-263.526 -167.641)" fill="#e6e6e6"/><path d="M271.61,179.583l9.89,3.294.452-.727-9.89-3.3Z" transform="translate(-263.102 -168.753)" fill="#e6e6e6"/><path d="M270.2,181.993l5.587,1.962.452-.733-5.587-1.962Z" transform="translate(-262.554 -169.69)" fill="#e6e6e6"/><path d="M259.76,169.453l3.991,1.3.452-.733-3.991-1.3Z" transform="translate(-258.495 -164.814)" fill="#e6e6e6"/><path d="M278.13,166.354l2.592.923.825-1.5-2.592-.923Z" transform="translate(-265.637 -163.31)" fill="#ffad22"/><path d="M257.69,173.124l2.592.923.825-1.5-2.592-.923Z" transform="translate(-257.69 -165.942)" fill="#ffad22"/></g></g><g transform="translate(0)"><g transform="translate(79.926)"><path d="M59.006,59.747c-.623,8.019-3.893,25.378-7.457,27.016L34.85,80.81c.006-.031.018-.061.024-.092A13.134,13.134,0,0,1,28.261,64.5l4.309-12.09a13.143,13.143,0,0,1,16.79-7.964l1.149.41A13.148,13.148,0,0,1,59.006,59.747Z" transform="translate(-15.951 -43.675)" fill="#191847" fill-rule="evenodd"/><g transform="translate(6.962 2.234)"><path d="M-21.342,34.923c-1.54-4.059-1.98-8.514-.153-12.683C-16.238,10.23-.053,19.05,1.066,26.458S-3.836,49.5-8.543,49.073c-1.876-.171-5.153-2.567-8.08-6.143l-3.563,17.389L-34,55.4Z" transform="translate(34 -16.329)" fill="#d4a181" fill-rule="evenodd"/></g><path d="M32.7,64.3c-1.8,7.066-4.841,14.785-7.4,15.959L8.61,74.3c4.829-16.5,11.589-7.029,17.016-22.248.758-.348,1.479-.7,2.17-.984l.141-.452q7.5-7.335,14.168-4.957c6.668,2.378,7.665,6.228,8.52,9.5-2.977,4.12-8.423,2.946-14.064,4.169a3.362,3.362,0,1,0-4,4.914C32.613,64.266,32.655,64.278,32.7,64.3Z" transform="translate(-8.61 -44.221)" fill="#191847" fill-rule="evenodd"/></g><g transform="translate(0 98.589)"><path d="M57.57,114.769q21.995,6.152,37.951,6.149a51.077,51.077,0,0,0,29.644-9.474q-21.527-6.317-35.451-6.314T57.57,114.769Z" transform="translate(2.161 -51.857)" fill="#fe7ce4" fill-rule="evenodd"/><path d="M117,94.82a3.4,3.4,0,0,1-.355-.7C114.682,88.94,83.289,33.026,80.16,22.8h35.347c2.378,7.775,13.08,56.55,14.59,66.281,4.755,15.354,14.535,65.065,15.788,68.512,1.314,3.625-6.082,7.4-8.05,2.946-3.136-7.09-10.6-26.7-13.93-38.672C120.782,110.645,118.239,100.541,117,94.82Z" transform="translate(-6.621 -19.849)" fill="#ba8b72" fill-rule="evenodd"/><path d="M45.365,101.652c-14.351,3.625-66.849,10.183-70.456,11.216-3.7,1.057-6.956-6.583-2.378-8.233a378.353,378.353,0,0,1,39.552-11.2c9.792-2,18.734-3.625,24.73-4.578-.5-16.864-2.824-57.314-1.3-66.049H66.788c-1.461,8.38-13.807,69.508-16.1,75.626C49.955,100.619,47.779,101.584,45.365,101.652Z" transform="translate(36.095 -19.853)" fill="#d4a181" fill-rule="evenodd"/><g transform="translate(12.439 81.087) rotate(80)"><path d="M1.027,3.713A13.126,13.126,0,0,0,0,7.808a30.712,30.712,0,0,0,.55,4.823H35.023q1.348-4.447-1.553-4.8t-4.81-.642L12.646.052a.611.611,0,0,0-.807.312c0,.006-.006.012-.006.018L10.8,2.882A11.038,11.038,0,0,1,6.442,4.135a9.851,9.851,0,0,1-3.759-1.1h0a1.223,1.223,0,0,0-1.62.6C1.051,3.658,1.039,3.683,1.027,3.713Z" transform="translate(0 0)" fill="#e4e4e4" fill-rule="evenodd"/></g><g transform="translate(127.937 136.396)"><path d="M-37.813,45.844a13.126,13.126,0,0,0-1.027,4.1,30.711,30.711,0,0,0,.55,4.823H-3.817q1.348-4.447-1.553-4.8t-4.81-.642l-16.026-7.145a.611.611,0,0,0-.807.312c0,.006-.006.012-.006.018l-1.033,2.5A11.038,11.038,0,0,1-32.41,46.26a9.851,9.851,0,0,1-3.759-1.1h0a1.223,1.223,0,0,0-1.62.6A.2.2,0,0,1-37.813,45.844Z" transform="translate(38.84 -42.125)" fill="#e4e4e4" fill-rule="evenodd"/></g><path d="M68.078,20.929q20.675-5.914,39.118,0c4.279,19.522,14.675,27.267,16.5,57.2-20.782,10.324-46.453-7.365-67.846,2.708C49.742,66.746,58.3,32.824,68.078,20.929Z" transform="translate(3.627 -17.972)" fill="#fed7ff" fill-rule="evenodd"/></g><g transform="translate(24.74 37.367)"><path d="M84.142,82.369l20.873-2.848q10.415-7.3,10.965-5.483c.544,1.815-1.864,2.659-1.693,3.948s7.182,3.7,7.182,3.7A29.162,29.162,0,0,1,111.188,83.8L85.682,93.922ZM8.766,88.09l13.386.049Q.138,137.676-.806,140.014c-1.412,3.5,1.577,8.844,2.861,11.711-4.169,1.864-3.722-5.043-8.985-2.6-4.8,2.231-8.453,6.277-14,2.854-.685-.422-1.43-2,.379-3.239,4.5-3.087,10.978-8.484,11.852-10.256Q-6.909,134.864,8.766,88.09Z" transform="translate(21.678 -42.585)" fill="#d4a181" fill-rule="evenodd"/><path d="M88.1,27.81l10.476.7c2.579,23.349,16.637,38.1,48.115,33.1l4.181,30.066c-29.418,3.8-55.218-7.976-60.5-39.864C89,43.561,87.921,34.974,88.1,27.81Z" transform="translate(-20.993 -24.754)" fill="#afb9c5" fill-rule="evenodd"/><path d="M49.679,22.822l15.88,3.637c0,27.309,8.7,44.735,13.16,64.808H35.841c-.605,6.937-.978,14.07-1.167,21.393H2.56Q13.47,54.587,48.628,22.81h1.039Z" transform="translate(12.255 -22.81)" fill="#c5cfd6" fill-rule="evenodd"/><path d="M63.77,71.07q-1.659,25.525,1.95,38.959H57.01A209.9,209.9,0,0,1,63.77,71.07Z" transform="translate(-8.914 -41.572)" fill="rgba(0,0,0,0.1)" fill-rule="evenodd"/></g></g></g><g transform="translate(887.846 11.422)"><g transform="translate(0 0)"><g transform="translate(0 0)"><g transform="translate(177.72 81.999) rotate(-173)"><g transform="translate(77.421 0)"><path d="M5.2,24.245C2.294,27.649.332,31.82.664,36.5,1.612,49.969,20.358,47.005,24.01,40.2s3.217-24.046-1.5-25.259c-1.877-.483-5.885.7-9.959,3.157L15.107,0H0Z" transform="translate(0)" fill="#915b3c" fill-rule="evenodd"/></g><path d="M92.82,24.72c-1.992.326-7.351.549-8.341.549-.634,0-1.316-.145-1.69.435-.308.477-.193,1.28-.284,1.829-.109.64-.26,1.274-.41,1.9a19.481,19.481,0,0,1-2.01,5.106,15.7,15.7,0,0,1-7.436,6.73,23.848,23.848,0,0,1-11.293,1.551c-4.05-.326-7.72-1.666-11.546-2.927a24.175,24.175,0,0,0-11.274-1.086c-3.845.591-6.742,2.674-9.983,4.647A18.638,18.638,0,0,1,17.52,46.5,21.184,21.184,0,0,1,7.459,42.682,16.444,16.444,0,0,1,.97,35.318c-1.418-3.44-1.418-7.219.917-10.26,3.386-4.406,9.663-5.547,14.89-5.432A28.31,28.31,0,0,1,25.62,21.25c3.8,1.34,7.092,3.609,10.653,5.45a27.516,27.516,0,0,0,5.209,2.082c1.756.495,3.489.724,5.076-.338a24.01,24.01,0,0,1,5.112-2.927,16.659,16.659,0,0,1,5.77-1.026c3.827.03,7.6,1.219,11.317,2.022,3.03.652,6.277,1.3,9.367.676,1.292-.26,3.175-.8,3.639-2.143-7.84-1.424-10.918-11.118-8.709-18.233C74.248,2.974,81.419-1.517,84.2.5c1.768,1.28.694,2.957,0,4.068-1.328,2.125-1.787,4.853.676,6.331,2.118,1.274,4.352-1.75,4.394-1.75.585.048,5.619,2.9,9.09,7.05,3.422-.205,3.941,2.052,3.126,3.9S95.572,24.267,92.82,24.72Z" transform="translate(0 23.323)" fill="#5c3d1c" fill-rule="evenodd"/></g><g transform="translate(26.505 124.023)"><path d="M157.65-28.88,134.588,50.572l-10.846,59.655H112.86L123.724-28.88Z" transform="translate(-88.407 28.88)" fill="#784931" fill-rule="evenodd"/><path d="M109.754-28.88c-1.611,41.277-.972,63.79-.616,67.538s2.4,28.868,16.332,72.831H114.148C95.7,69.313,89.257,44.2,87.145,38.658S78.78,10.6,69.66-28.88Z" transform="translate(-30.155 28.88)" fill="#915b3c" fill-rule="evenodd"/><path d="M159.252-28.88q-9,41.012-31.119,130.923H112.21C111.033,40.517,116.037.024,124.7-28.88h34.554Z" transform="translate(-89.514 28.88)" fill="#a3b8bc" fill-rule="evenodd"/><path d="M113.061-28.88c-1.575,41.277,2.5,81.939,15.155,131.569H111.232C92.751,61.146,79.5,20.678,70.45-28.88h42.611Z" transform="translate(-33.377 28.88)" fill="#c5cfd6" fill-rule="evenodd"/><g transform="translate(59.168 137.216)"><path d="M17.14,2.265,16.518-7.809q-5.5,1.6-13.749-1.261Q-6.112-2.778-19.58-.481h0A1.26,1.26,0,0,0-20.612.973a1.051,1.051,0,0,0,.03.133l.863,3.048h35.6Z" transform="translate(20.63 9.07)" fill="#191847" fill-rule="evenodd"/></g><g transform="translate(0 137.216)"><path d="M17.14,2.265,16.518-7.809q-5.5,1.6-13.749-1.261Q-6.112-2.778-19.58-.481h0A1.26,1.26,0,0,0-20.612.973a1.051,1.051,0,0,0,.03.133l.863,3.048h35.6Z" transform="translate(20.63 9.07)" fill="#191847" fill-rule="evenodd"/></g></g><g transform="translate(131.127 181.992) rotate(-170)"><path d="M98.584,55.992l20.08-14.745a53.769,53.769,0,0,0,13.646-5.486c.863-.785,1.907-2.378-1.672-2.106s-7.357.4-7.852-.815,1.672-2.68.676-4.328q-1-1.648-9.434,8.263L94.148,45.02Zm-77.092-.513,13.152-.054Q22.458,16.1,21.492,13.689C20.037,10.08,23.116,4.581,24.437,1.63,20.146-.289,20.6,6.821,15.185,4.3,10.242,2,6.482-2.16.772,1.358.072,1.793-.7,3.423,1.158,4.7c4.629,3.175,11.3,8.733,12.21,10.562Q15.206,19.016,21.492,55.479Z" transform="translate(0 0)" fill="#915b3c" fill-rule="evenodd"/><path d="M.047,75.167l5.444.936C25.687,58.66,33.98,25.144,58.737,7.388L52.78,0C9.831,5.323-.816,46.2.047,75.167Z" transform="translate(58.829 35.508)" fill="#1f28cf" fill-rule="evenodd"/><path d="M0,0H48.158c2.2,0,1.787,3.175,1.467,4.78-3.67,18.505-18,38.453-18,64.8L17.726,71.757C6.247,53.282,2.269,30.528,0,0Z" transform="translate(35.144 42.274)" fill="#dde3e9" fill-rule="evenodd"/><path d="M22.5,80.032a7.943,7.943,0,0,0-4.792,4.056C12.632,93.25,14.467,98.3,19.893,99.949S30.159,98.193,38.8,98.193a8.5,8.5,0,0,0,1.292-.091l4.352-.247Q63.159,34.427,54.766,13.218h-37.9A128.782,128.782,0,0,0,10.417,0H.084Q-1.374,47.15,22.5,80.032Z" transform="translate(13.031 15.838)" fill="#2b44ff" fill-rule="evenodd"/><path d="M8.257,21.716Q10.049,6.751,14.069,0H0Q3.938,9.162,8.257,21.716Z" transform="translate(29.887 29.062)" fill="rgba(0,0,0,0.1)" fill-rule="evenodd"/></g></g></g></g></g></g></svg>