<svg xmlns="http://www.w3.org/2000/svg" width="18" height="18" viewBox="0 0 18 18">
  <g id="Group_1383" data-name="Group 1383" transform="translate(-0.617 0.018)">
    <circle id="Ellipse_286" data-name="Ellipse 286" cx="9" cy="9" r="9" transform="translate(0.617 -0.018)" fill="#00c389"/>
    <path id="Path_1030" data-name="Path 1030" d="M625.614,3681.184h.6a.544.544,0,1,0,0-1.083h-.6v-1.083h.6a.544.544,0,1,0,0-1.083h-.805a3.317,3.317,0,0,0-1.352-1.6l.933-.845a.48.48,0,0,0,0-.765.6.6,0,0,0-.844,0l-1.257,1.14a3.9,3.9,0,0,0-.853-.1h0a3.9,3.9,0,0,0-.853.1l-1.257-1.14a.6.6,0,0,0-.844,0,.48.48,0,0,0,0,.765l.933.845a3.317,3.317,0,0,0-1.352,1.6h-.8a.544.544,0,1,0,0,1.083h.6v1.083h-.6a.544.544,0,1,0,0,1.083h.6v1.082h-.6a.544.544,0,1,0,0,1.083h.805a3.574,3.574,0,0,0,3.373,2.165h0a3.575,3.575,0,0,0,3.374-2.165h.805a.544.544,0,1,0,0-1.083h-.6Zm-2.985,1.082h-1.194a.544.544,0,1,1,0-1.082h1.194a.544.544,0,1,1,0,1.082Zm0-2.165h-1.194a.544.544,0,1,1,0-1.083h1.194a.544.544,0,1,1,0,1.083Z" transform="translate(-612.155 -3671.445)" fill="#fff"/>
  </g>
</svg>
