<svg xmlns="http://www.w3.org/2000/svg" width="149.313" height="219.168" viewBox="0 0 149.313 219.168"><g transform="translate(0.007 0.007)"><g transform="translate(62.577 -0.007)"><g transform="translate(8.301 10.138)"><path d="M74.965,15.212c1.958-3.975,2.83-8.457,1.382-12.866C72.168-10.36,54.882-2.964,53.029,4.454s2.75,23.872,7.575,23.894c1.922.007,5.481-2.1,8.8-5.452l1.936,18,14.507-3.669Z" transform="translate(-52.61 4.539)" fill="#b28b67" fill-rule="evenodd"/></g><path d="M86.167,11.694A3.235,3.235,0,0,1,87.8,8.912a3.04,3.04,0,0,1,.788-.284c.1-.022.131,0,.16-.08a.923.923,0,0,0-.011-.244,4.281,4.281,0,0,1,.7-2.451A5.559,5.559,0,0,1,92.29,3.5a4.848,4.848,0,0,1,2.017-.226,7.862,7.862,0,0,1,1.05.164c.106.022.46.175.551.135s.241-.35.306-.434a5.894,5.894,0,0,1,3.3-1.995,6.771,6.771,0,0,1,4.289-.058,7.839,7.839,0,0,1,.883.423c.15.084.3.171.441.263.088.058.171.117.255.175.142.106.135.153.263.022a3.1,3.1,0,0,1,1.82-.923,4.609,4.609,0,0,1,1.247.033,2.574,2.574,0,0,0,.624.131c.135-.033.372-.306.5-.39a4.756,4.756,0,0,1,2.276-.806,6.173,6.173,0,0,1,2.509.321,3.175,3.175,0,0,1,1.039.554c.135.113.263.233.4.336.084.058.233.1.3.186a5.118,5.118,0,0,1,.861-.671A2.437,2.437,0,0,1,118.6.448a5.6,5.6,0,0,1,2.535.981,6.088,6.088,0,0,1,1.065.868c.153.157.3.321.441.489a2.1,2.1,0,0,0,.2.263c.1.091.153.08.3.091a4.169,4.169,0,0,1,3.5,2.469c.018.04.066.215.1.233s.175-.026.23-.033a4.789,4.789,0,0,1,.562-.04,4.642,4.642,0,0,1,1.028.1,5.088,5.088,0,0,1,3.144,2.272,6.032,6.032,0,0,1,.923,4.026,4.114,4.114,0,0,1-.15.66c-.044.131-.066.139.011.248s.212.226.306.343a5.805,5.805,0,0,1,.766,1.233,6.5,6.5,0,0,1,.66,2.3,3.411,3.411,0,0,1-.1,1.1,3.113,3.113,0,0,1-.2.532c-.044.088-.091.175-.142.259a1.245,1.245,0,0,0-.095.146c-.055.124-.095.044-.015.186a7.052,7.052,0,0,0,.434.565c.139.193.27.39.394.594a9.875,9.875,0,0,1,.675,1.273,4.391,4.391,0,0,1,.365,2.713,2.69,2.69,0,0,1-.522,1.076,3.036,3.036,0,0,1-.416.423c-.077.066-.186.113-.208.208s.091.27.131.372a6.519,6.519,0,0,1,.616,2.746,3.88,3.88,0,0,1-.985,2.381,4.79,4.79,0,0,1-4.61,1.306,5.2,5.2,0,0,1-1.218-.449c-.525,1.273-2.17,1.652-3.41,1.641a5.32,5.32,0,0,1-3.964-1.882,2.253,2.253,0,0,1-3.585.423,2.923,2.923,0,0,1-.532-.879c-.069-.168-.1-.346-.157-.514a2.612,2.612,0,0,0-.416-.58,3.641,3.641,0,0,1-.594-1.218,6.609,6.609,0,0,1-.124-.7,2.494,2.494,0,0,0-.222-.587,2.869,2.869,0,0,0,1.138-.445,2.344,2.344,0,0,0,.744-.868,5.478,5.478,0,0,0,.6-2.422c.088-1.82-.635-3.793-2.571-4.292a9.008,9.008,0,0,0-4.161.821c-.934.474-1.506,2.947-1.51,3.165,0,.135.055.288-.04.4-.212.252-.715.036-.945-.077a3.515,3.515,0,0,1-1.017-.821,13.1,13.1,0,0,1-1.7-2.3c-.365-.635-.667-1.309-1.09-1.911a3.27,3.27,0,0,0-1.678-1.313,11.526,11.526,0,0,0-2.4-.332,5.532,5.532,0,0,1-2.29-.6,2.761,2.761,0,0,1-.441-.3c-.106-.091-.237-.281-.376-.321-.215-.062-.416.292-.551.434a7.4,7.4,0,0,0-1.5,2.491,12.774,12.774,0,0,0-.729,2.7,7.042,7.042,0,0,1-.394,2.2,3.9,3.9,0,0,1-2.206.74,2.931,2.931,0,0,1-1.5-.751,1.679,1.679,0,0,1-.412-1.047c-.011-.23.026-.456.018-.682a2.055,2.055,0,0,1,.036-.558A1.321,1.321,0,0,1,91,21.176a3.822,3.822,0,0,1-1.149-.945,5.147,5.147,0,0,1-.824-1.4,1.879,1.879,0,0,1-.051-1.24,3.15,3.15,0,0,1,.8-1.087,6.649,6.649,0,0,1-1.783-1.171A4.844,4.844,0,0,1,86.167,11.694Z" transform="translate(-86.165 0.007)" fill="#191847" fill-rule="evenodd"/></g><g transform="translate(-0.007 30.058)"><g transform="translate(149.313 189.102) rotate(180)"><g transform="translate(0 0)"><g transform="translate(0 0)"><path d="M17.308,77.685h48.4L72.047,0H0Z" fill="#c5cfd6" fill-rule="evenodd"/><path d="M17.308,77.685H32.191L41.1,0H0Z" fill="rgba(0,0,0,0.1)" fill-rule="evenodd"/></g><path d="M42.522,88.379c5.16,3.1,13.818-.883,13.811-5.313-.018-13.26-12.119-75.749-12.749-79.7s-7.4-4.993-7.793-.015c-.627,7.925-1.791,35.36-.627,48.062.481,5.241,1,10.233,1.51,14.69q-9.524-17.2-29.459-49.251L0,20.15q8.5,28,13.938,39.536C20.145,72.85,25.969,84.127,28.416,88.1,32.271,94.341,38.978,92.161,42.522,88.379Z" transform="translate(79.09 2.614)" fill-rule="evenodd"/><path d="M0,5.8,24.762,64.466C30.7,74.009,47.329,62.525,45.3,56.99,40.714,44.422,17.352,3.742,15.984,0Z" transform="translate(78.874 27.322)" fill="#2e3192" fill-rule="evenodd"/><g transform="matrix(0.866, -0.5, 0.5, 0.866, 72.016, 19.061)"><path d="M1.05,9.146A13.461,13.461,0,0,1,0,4.945,31.52,31.52,0,0,1,.565,0H35.9q1.379,4.551-1.59,4.916t-4.931.656l-16.3,5.4c-.317.142-.813,1.918-.955,1.6,0,0,0,.007,0,0L11.065,10A11.272,11.272,0,0,0,6.6,8.72c-.93,0-3.14,4.905-4.781,5.66h0c-.627.288-.449-4.518-.737-5.149C1.072,9.2,1.061,9.176,1.05,9.146Z" transform="translate(0 0)" fill-rule="evenodd"/></g><g transform="translate(112.976 0)"><path d="M1.05,9.146A13.461,13.461,0,0,1,0,4.945,31.52,31.52,0,0,1,.565,0H35.9q1.379,4.551-1.59,4.916t-4.931.656l-17.25,7.006c-.317.142.142.317,0,0,0,0-.751,2.422-.751,2.418L11.068,10A11.271,11.271,0,0,0,6.6,8.723,10.125,10.125,0,0,0,2.75,9.85L1.462,13.26c-.627.288-.088-3.4-.376-4.03A.834.834,0,0,1,1.05,9.146Z" transform="translate(0)" fill-rule="evenodd"/></g><path d="M106.984,59.145c0-16.644-7.9-55.465-7.91-59.13L82.069,0q3.736,51.962,2.648,52.522C83.63,53.08,40.2,48.186,27.18,48.186,8.4,48.186.631,60.031,0,81.971H37.205c7.575-.81,47.088-8.782,61.763-11.52C105.248,69.276,106.984,63.729,106.984,59.145Z" transform="translate(29.445 22.027)" fill="#0071bc" fill-rule="evenodd"/></g><g transform="translate(21.443 79.041)"><path d="M30.723,46.894,34.4,9.583a4.645,4.645,0,0,0-3.7-5.007L8.591.094A4.642,4.642,0,0,0,3.044,4.255L.017,40.143a4.638,4.638,0,0,0,3.4,4.865l21.462,5.9A4.639,4.639,0,0,0,30.723,46.894Z" transform="translate(79.831 58.983)" fill="#e6e6e6"/><path d="M25.9,43.5,29.679,7.381a2.873,2.873,0,0,0-2.287-3.114L6.624.058A2.874,2.874,0,0,0,3.192,2.611L.012,37.391a2.871,2.871,0,0,0,2.1,3.031L22.28,45.968A2.871,2.871,0,0,0,25.9,43.5Z" transform="translate(81.958 61.188)" fill="#fff"/><path d="M0,9.584l9.551,5.248q2.013,7.647,4.807,7.7c1.433.667-1.076-5.711,1.652-5.219,2.418.438,4.179.828,4.179.828s.937-3.06-.835-5.321c-3.315-4.227-2.943-5.029-7.3-6.871A37.3,37.3,0,0,1,.543,0Z" transform="translate(85.06 44.35)" fill="#b28b67" fill-rule="evenodd"/><path d="M0,8.621,21.746,20.532a53.861,53.861,0,0,0,10.689,10c1.072.449,2.947.718,1.193-2.4s-3.457-6.466-2.564-7.425,3.122.379,4.187-1.214q1.067-1.592-11.418-5.033L8.03,0Z" transform="translate(59.338 60.827)" fill="#b28b67" fill-rule="evenodd"/><path d="M2.472,14.191a53.421,53.421,0,0,1,28.61,8.566l4.256-9.493C27.861,5.847,17.351-.251,8.161.008A8.306,8.306,0,0,0,2.472,14.191Z" transform="translate(37.943 52.446)" fill="#07ccd1" fill-rule="evenodd"/><path d="M50.67,51.418Q62.8,48.393,91.347,58.551,98.431,43.9,97.893,37.662c-16.327-8.53-30.32-12.33-41.851-12.582.365-6.842-.467-13.351-3.264-19.3C47.03-6.447,13.355,4.876,2.035,2.648c-7.09,23.026,6.619,32.384,6.63,47.117C8.676,65.9,21.633,90.735,23.537,90.735H40.922C41.881,78.412,46.706,64.831,50.67,51.418Z" transform="translate(0 0)" fill="#00edff" fill-rule="evenodd"/><path d="M.018,0,11.054,3.063l-.015,1.823L0,1.823Z" transform="translate(89.414 98.874)" fill="#e6e6e6"/><g transform="translate(86.482 68.751)"><path d="M.036,0,11.076,3.06,11.039,4,0,.945Z" transform="translate(9.361 13.781)" fill="#e6e6e6"/><path d="M.036,0,11.072,3.063l-.033.945L0,.945Z" transform="translate(9.752 7.319)" fill="#e6e6e6"/><path d="M.036,0,11.072,3.06l-.036.948L0,.945Z" transform="translate(10.058 5.317)" fill="#e6e6e6"/><path d="M.033,0,11.072,3.06,11.035,4,0,.945Z" transform="translate(10.237 3.315)" fill="#e6e6e6"/><path d="M.036,0,11.076,3.063l-.036.945L0,.945Z" transform="translate(10.7 1.309)" fill="#e6e6e6"/><path d="M.033,0l6.3,1.637-.036.945L0,.945Z" transform="translate(15.751 0.733)" fill="#e6e6e6"/><path d="M.036,0,4.475,1.265l-.036.945L0,.945Z" transform="translate(0 4.515)" fill="#e6e6e6"/><path d="M.033,0,4.471,1.262l-.033.945L0,.945Z" transform="translate(0.306 2.513)" fill="#e6e6e6"/><path d="M.168,0,3.093.748,2.928,2.622,0,1.874Z" transform="translate(17.731 13.162)" fill="#00c389"/><path d="M.168,0,3.093.744,2.928,2.622,0,1.874Z" transform="translate(2.236 0)" fill="#00c389"/></g><circle cx="0.988" cy="0.988" r="0.988" transform="translate(104.217 89.655)" fill="#b2eddc"/><circle cx="0.988" cy="0.988" r="0.988" transform="translate(97.933 92.857)" fill="#b2eddc"/><circle cx="0.988" cy="0.988" r="0.988" transform="translate(95.832 88.667)" fill="#b2eddc"/><circle cx="0.988" cy="0.988" r="0.988" transform="translate(89.414 93.845)" fill="#b2eddc"/><circle cx="0.988" cy="0.988" r="0.988" transform="translate(84.071 93.845)" fill="#b2eddc"/><path d="M20.145.988l-6.284,3.2L11.761,0,5.343,5.179H0" transform="translate(85.06 89.655)" fill="none" stroke="#00c389" stroke-linecap="round" stroke-linejoin="round" stroke-miterlimit="10" stroke-width="1"/></g></g><path d="M165.89,217.43" transform="translate(-105.39 -168.199)" fill="#fff"/><path d="M71.735,521H53.42l1.306,7.122,17.009.015Z" transform="translate(-33.936 -361.062)" fill="#ccc"/><path d="M143.049,505.98l15.988-5.8-2.414-5.718-17.162,5.762Z" transform="translate(-88.598 -344.201)" fill="#ccc"/></g></g></svg>