<svg xmlns="http://www.w3.org/2000/svg" width="249.733" height="247.411" viewBox="0 0 249.733 247.411">
  <g id="Group_2580" data-name="Group 2580" transform="translate(8.623)">
    <path id="Path_2412" data-name="Path 2412" d="M260.133,17.2,276.324,0l-5.189,22.142,21.6-.718-9.624,11.343,12.092,6.5-15.65,6.186,5.388,18.49L268.419,52.636,256.211,72.85l-3.625-24.494-21.592-1.976,18.358-14.223-21.242-7.5,20.024-.541L245.878,4.59Z" transform="translate(-131.837)" fill="rgba(255,173,34,0.8)" opacity="0.2"/>
    <g id="Group_2571" data-name="Group 2571" transform="translate(126.64 25.35)">
      <path id="Path_2413" data-name="Path 2413" d="M308.016,89.256l-5.344-15.5q-7.125-6.859-5.831-7.55c1.294-.687,2.3,1.028,3.248.7s1.019-5.082.975-7.816,1.112-1.87,1.67-1.179c1.489,2.88,2.667,8.3,3.536,12.513l10.258,15.943Z" transform="translate(-296.643 -57.211)" fill="#f9e4d7" fill-rule="evenodd"/>
      <path id="Coat-Back_1_" d="M333.769,139.962c-12.876-7.732-18.039-23.338-25.119-40.038l8.064-3.394c12.105,19.523,27.778,32.306,44.474,41.678l-2.4,5C353.292,142.661,338.094,142.555,333.769,139.962Z" transform="translate(-303.33 -79.108)" fill="#191847" fill-rule="evenodd"/>
      <g id="Group_2570" data-name="Group 2570" transform="translate(28.816 14.69)">
        <g id="humaaan-1_1_" transform="translate(0 0)">
          <g id="Group_2565" data-name="Group 2565" transform="matrix(0.966, -0.259, 0.259, 0.966, 0.034, 8.612)">
            <g id="Head_2_" transform="translate(0 10.092)">
              <path id="Path_2414" data-name="Path 2414" d="M14.469,36.385,3.432,33.093,9.214,20.54c-3.509.891-6.691.877-7.962.115-3.181-1.91.226-14.494,4.36-18.619S24.089-.153,21.869,9.812a12.816,12.816,0,0,1-5.96,7.883Z" transform="translate(0 0)" fill="#f9e4d7" fill-rule="evenodd"/>
            </g>
            <path id="hair_1_" d="M.479,10.558c-.213.182-.47.363-.479.674a1.725,1.725,0,0,0,.191.709,3.458,3.458,0,0,0,1.041,1.192c1.564,1.276,3.531,1.976,5.011,3.359A6.542,6.542,0,0,1,8.1,21.436c1.334-.275,2.955-.51,4.077.452.908.78.789,2.242.341,3.274a4.116,4.116,0,0,1-2.176,2.184,2.546,2.546,0,0,0-.532.253c-.129.1-.106.195-.071.341a5.631,5.631,0,0,0,.5,1.245A3.293,3.293,0,0,0,13.028,30.7a10.555,10.555,0,0,0,1.715-.031,9.913,9.913,0,0,0,1.728-.253,4.551,4.551,0,0,0,2.823-2.26A13.675,13.675,0,0,0,20.7,24.183a17.049,17.049,0,0,0,.386-4.342,10.225,10.225,0,0,0-.82-3.913,7.068,7.068,0,0,0,4.072-.913,12.812,12.812,0,0,0,3.722-4.75,7.157,7.157,0,0,0,.465-2.942A4.372,4.372,0,0,0,26.759,4.43c-.1-.066-.217-.106-.31-.177s-.089-.142-.1-.27a2.9,2.9,0,0,0-.266-.882,3.993,3.993,0,0,0-1.316-1.515A4.618,4.618,0,0,0,22.887.774a3.465,3.465,0,0,0-1.91.146c-.239.106-.417.23-.656.084s-.434-.332-.682-.461A4.417,4.417,0,0,0,17.844.008a3.468,3.468,0,0,0-1.808.363,5.131,5.131,0,0,0-1.409,1.2A12.513,12.513,0,0,0,12.252,4.78a8.129,8.129,0,0,0-.625,4.147,15.15,15.15,0,0,0-4.772-.873A14.832,14.832,0,0,0,.479,10.558Z" transform="translate(4.719 0)" fill="#f46e33" fill-rule="evenodd"/>
          </g>
          <g id="Group_2568" data-name="Group 2568" transform="translate(0 86.967)">
            <path id="Leg_2_" d="M350.33,74.611l11.339,105.918,9.008-2.145,1.972-46.556,2.84-63.208Z" transform="translate(-342.951 -67.548)" fill="#ccc" fill-rule="evenodd"/>
            <path id="Path_2415" data-name="Path 2415" d="M350.21,73.276c15.229,27.206,24.689,42.533,27.446,46.2s15.5,19.262,38.217,46.787l9.332-2.22q-29.63-44.438-31.238-48.448c-1.072-2.676-6.367-18.991-14.015-49.4Z" transform="translate(-342.884 -66.2)" fill="#b3b3b3" fill-rule="evenodd"/>
            <g id="Group_2566" data-name="Group 2566" transform="translate(65.426 90.472)">
              <path id="Shoe_1_" d="M420.488,65.42l-.736-.616L416.5,70.21l-11.68,14.011-1.476-1.227q5-10.867,5.72-19.6l6.456-7.741,8.051,6.084Z" transform="translate(-403.34 -55.65)" fill="#191847" fill-rule="evenodd"/>
            </g>
            <g id="Group_2567" data-name="Group 2567" transform="translate(0 110.322)">
              <path id="Path_2416" data-name="Path 2416" d="M154.507,110.526v-.962l-6.239.962H130.03v-1.919q11.552-3.117,18.721-8.157h10.08l.479,10.08h-4.8Z" transform="translate(-130.03 -100.45)" fill="#191847" fill-rule="evenodd"/>
            </g>
          </g>
          <g id="Group_2569" data-name="Group 2569" transform="translate(1.329 39.243)">
            <path id="Skin_2_" d="M412.859,221.708c.66,1.343,5.561,5.424,8.964,7.754,1.365.935.8,2.131.284,2.45-4.192,2.588-6.952-.474-10.581-2.162-3.975-1.848-3.638,3.372-6.793,1.963.966-2.167,3.23-6.2,2.162-8.853q-.711-1.768-9.655-30.64l9.655-.04Q411.5,218.965,412.859,221.708Z" transform="translate(-360.247 -147.581)" fill="#f7d8c1" fill-rule="evenodd"/>
            <path id="Shirt_1_" d="M350.374,147.86H315.019c-1.617,0-1.312-2.331-1.077-3.509,2.694-13.585,13.213-28.23,13.213-47.571l10.2-1.6C345.792,108.748,348.708,125.452,350.374,147.86Z" transform="translate(-313.753 -93.561)" fill="#00c389" fill-rule="evenodd"/>
            <path id="Coat-Front_1_" d="M363.59,106.482a5.831,5.831,0,0,0,3.518-2.978c3.727-6.726,2.379-10.431-1.6-11.645s-7.537,1.289-13.882,1.289a6.241,6.241,0,0,0-.948.066l-3.195.182q-13.738,46.565-7.577,62.136h27.827a94.54,94.54,0,0,0,4.732,9.7h7.581Q381.119,130.623,363.59,106.482Z" transform="translate(-327.253 -91.526)" fill="#2f3676" fill-rule="evenodd"/>
            <path id="Shade_1_" d="M386.067,199.99q-1.316,10.987-4.267,15.943h10.329Q389.244,209.206,386.067,199.99Z" transform="translate(-351.649 -151.93)" fill="rgba(0,0,0,0.1)" fill-rule="evenodd"/>
          </g>
        </g>
      </g>
    </g>
    <g id="Group_2572" data-name="Group 2572" transform="translate(75.713 24.113)">
      <path id="Path_2417" data-name="Path 2417" d="M268.17,83.908l11.459-15.048c1.192-4.121,2.645-11.077,4.356-13.825.607-.642,1.83-1.413,1.569,1.307a74.914,74.914,0,0,0-.386,7.865c-.022,1.9.944,5.552-2.22,8.25l-6.54,15.008Z" transform="translate(-229.86 -54.42)" fill="#f7d8c1" fill-rule="evenodd"/>
      <path id="Clothes-Back_1_" d="M182.9,144.087l-1.192-4.032c22-9.208,33.538-44.381,41.806-47.443,3.031-1.125,4.883.948,5.694-.332l4.533,4.883c-.944,1.032,1.21,2.734.35,6.934S209.869,140.861,182.9,144.087Z" transform="translate(-181.71 -75.495)" fill="#e5e4ea" fill-rule="evenodd"/>
    </g>
    <g id="Group_2579" data-name="Group 2579" transform="translate(-8.623 56.937)">
      <g id="Group_2578" data-name="Group 2578" transform="translate(0)">
        <g id="humaaan-10_1_">
          <g id="Group_2573" data-name="Group 2573" transform="translate(80.564)">
            <g id="Head_1_" transform="translate(0 1.39)">
              <path id="Path_2418" data-name="Path 2418" d="M5.6,100.257A12.5,12.5,0,0,1,4.05,90.792c2.574-9.575,15.668-4.8,17.343.607s-1.063,17.777-4.63,17.99c-1.422.084-4.143-1.334-6.735-3.678l-.7,13.4L-1.56,116.993Z" transform="translate(1.56 -85.304)" fill="#f7d8c1" fill-rule="evenodd"/>
            </g>
            <path id="Hair_1_2" data-name="Hair_1_" d="M76.337,121.756c-1.639.536-2.991,1.883-4.653,3.664a2.712,2.712,0,0,0-.957-.381,2.772,2.772,0,0,0-2.814,4.294c-.8.767-1.688,1.555-2.685,2.357-2.663-2.4-3.882-8.113,0-12.646,4.471-9.722,17.281-.647,20.32-1.839C85.407,121.025,82.921,123.64,76.337,121.756Z" transform="translate(-59.209 -114.497)" fill="#42210b" fill-rule="evenodd"/>
          </g>
          <g id="Group_2576" data-name="Group 2576" transform="translate(0 70.733)">
            <path id="Leg_1_" d="M120.87,78.82l11.272,60.687,5.641,50.549,5.9,1.148L141.133,82.772Z" transform="translate(-48.426 -77.185)" fill="#2b44ff" fill-rule="evenodd"/>
            <path id="Path_2419" data-name="Path 2419" d="M38.107,76.85c-4.1,19.753-12.757,45.737-13.55,46.862q-.791,1.123-44.257,23.954l3.212,5.136Q32.9,135.594,35.625,132.547C38.35,129.5,51.218,99.071,60.279,81.175Z" transform="translate(29.857 -76.088)" fill="#2b44ff" fill-rule="evenodd"/>
            <g id="Group_2574" data-name="Group 2574" transform="matrix(0.643, 0.766, -0.766, 0.643, 9.698, 68.043)">
              <path id="shoe_1_2" data-name="shoe_1_" d="M1.644,1.117A9.976,9.976,0,0,0,.288,4.01,22.946,22.946,0,0,0,0,7.67q1.422.279,25.58,4.989,1.642-3.1-.456-3.784c-1.4-.456-2.557-.846-3.478-1.17L10.789.084a.461.461,0,0,0-.642.111s0,.009-.009.009L9.013,1.91a8.28,8.28,0,0,1-3.412.3A7.493,7.493,0,0,1,2.969.846h0a.923.923,0,0,0-1.289.213C1.666,1.081,1.653,1.1,1.644,1.117Z" transform="translate(0 0)" fill="#e4e4e4" fill-rule="evenodd"/>
            </g>
            <g id="Group_2575" data-name="Group 2575" transform="translate(86.407 110.189)">
              <path id="Path_2420" data-name="Path 2420" d="M-63.765,119.075a9.883,9.883,0,0,0-.775,3.1,23.008,23.008,0,0,0,.417,3.647H-38.06q1.017-3.356-1.174-3.625c-1.458-.177-2.672-.341-3.638-.483l-12.114-5.4a.464.464,0,0,0-.611.235s0,.009,0,.013l-.78,1.888a8.332,8.332,0,0,1-3.292.944,7.48,7.48,0,0,1-2.845-.833h0a.926.926,0,0,0-1.227.456A.164.164,0,0,1-63.765,119.075Z" transform="translate(64.54 -116.271)" fill="#e4e4e4" fill-rule="evenodd"/>
            </g>
            <path id="Pant_1_" d="M111.04,180.105l28.624,2.424L137.621,82.446l-25.106-4.9Z" transform="translate(-42.952 -76.478)" fill="#4d4d4d" fill-rule="evenodd"/>
            <path id="Path_2421" data-name="Path 2421" d="M-3.53,140.828l14.144,25.35q35.24-26.061,41.948-34.8t18.9-50.739L43.195,75.13q-9.438,37.2-10.51,38.811T-3.53,140.828Z" transform="translate(20.852 -75.13)" fill="#666" fill-rule="evenodd"/>
          </g>
          <g id="Group_2577" data-name="Group 2577" transform="translate(23.933 21.354)">
            <path id="Skin_1_" d="M20.995,141.38l10.293,2.047q-19.162,35.6-20.236,37.242c-1.613,2.468-.1,7,.452,9.389-3.487.8-2.114-4.418-6.527-3.337-4.028.988-7.444,3.536-11.2.084-.461-.425-.8-1.746.775-2.424,3.921-1.684,9.717-4.839,10.657-6.066Q7.128,175.811,20.995,141.38Z" transform="translate(6.61 -112.273)" fill="#f7d8c1" fill-rule="evenodd"/>
            <path id="Clothes-Front_1_" d="M79.5,86.191c-6.292,29.723,9.571,40.712,3.376,51.918-5.113,9.252-37.717,13.909-41.111,3.2a30.657,30.657,0,0,1-.527-14.436q-3.184,5.543-5.2,9.6c-2.317,4.661-7.723,4.422-8.091,6.319L21.4,139.54c.97-2.486-2.047-4.378-.049-9.97Q34.783,92,63.9,79.6l.687-2.539a1.853,1.853,0,0,1,2.264-1.307h0l12.637,3.385A1.846,1.846,0,0,1,80.792,81.4h0Z" transform="translate(-8.571 -75.689)" fill="#f7f5fc" fill-rule="evenodd"/>
          </g>
        </g>
      </g>
    </g>
  </g>
</svg>
