<svg xmlns="http://www.w3.org/2000/svg" width="180.849" height="229.799" viewBox="0 0 180.849 229.799"><g transform="translate(0.147 0.005)"><g transform="translate(140.224 31.455)"><path d="M287.334,67.224,272.32,95.114a3.919,3.919,0,0,1-4.952,1.764L249.75,89.589a3.922,3.922,0,0,1-1.929-5.53l14.8-26.585a3.919,3.919,0,0,1,4.674-1.809l17.828,5.984A3.919,3.919,0,0,1,287.334,67.224Z" transform="translate(-247.326 -55.459)" fill="#e6e6e6"/><path d="M286.464,68.417l-14.385,27.1a2.425,2.425,0,0,1-3.069,1.106l-16.546-6.846a2.43,2.43,0,0,1-1.2-3.409l14.175-25.882a2.424,2.424,0,0,1,2.9-1.134l16.756,5.627A2.432,2.432,0,0,1,286.464,68.417Z" transform="translate(-248.901 -57.09)" fill="#fff"/><circle cx="0.834" cy="0.834" r="0.834" transform="translate(13.752 13.46)" fill="#ffe6bd"/><circle cx="0.834" cy="0.834" r="0.834" transform="translate(19.344 11.413)" fill="#ffe6bd"/><circle cx="0.834" cy="0.834" r="0.834" transform="translate(20.683 15.139)" fill="#ffe6bd"/><circle cx="0.834" cy="0.834" r="0.834" transform="translate(26.588 11.441)" fill="#ffe6bd"/><circle cx="0.834" cy="0.834" r="0.834" transform="translate(31.069 11.986)" fill="#ffe6bd"/><path d="M273.04,79.1l5.593-2.048,1.339,3.727,5.9-3.7,4.481.545" transform="translate(-258.455 -64.803)" fill="none" stroke="#ffad22" stroke-linecap="round" stroke-linejoin="round" stroke-miterlimit="10" stroke-width="1"/><path d="M285.94,66.312l9.178,3.063.851-1.288-9.183-3.057Z" transform="translate(-264.037 -59.601)" fill="#cecece"/><g transform="translate(5.879 20.528)"><path d="M280.32,92.331l9.183,3.057.42-.675L280.74,91.65Z" transform="translate(-267.484 -91.65)" fill="#e6e6e6"/><path d="M275.43,100.641l9.183,3.057.42-.675L275.85,99.96Z" transform="translate(-265.368 -95.246)" fill="#e6e6e6"/><path d="M274.14,103.371l9.183,3.057.42-.675-9.183-3.063Z" transform="translate(-264.809 -96.428)" fill="#e6e6e6"/><path d="M272.7,105.995l9.178,3.063.42-.681-9.178-3.057Z" transform="translate(-264.186 -97.566)" fill="#e6e6e6"/><path d="M271.61,108.861l9.178,3.057.42-.681-9.178-3.057Z" transform="translate(-263.714 -98.804)" fill="#e6e6e6"/><path d="M270.2,111.271l5.184,1.821.42-.681-5.184-1.821Z" transform="translate(-263.104 -99.847)" fill="#e6e6e6"/><path d="M259.76,98.731l3.7,1.208.42-.681-3.7-1.208Z" transform="translate(-258.586 -94.42)" fill="#e6e6e6"/><path d="M278.13,95.565l2.4.856.766-1.39-2.4-.862Z" transform="translate(-266.536 -92.741)" fill="#ffad22"/><path d="M257.69,102.345l2.4.856.766-1.4-2.4-.856Z" transform="translate(-257.69 -95.675)" fill="#ffad22"/></g></g><g transform="translate(-0.147 -0.005)"><g transform="translate(74.167)"><path d="M56.737-12.09c-.579,7.442-3.613,23.551-6.92,25.071l-15.5-5.525c.006-.028.017-.057.023-.085A12.189,12.189,0,0,1,28.206-7.683l4-11.22a12.2,12.2,0,0,1,15.581-7.391l1.066.38A12.2,12.2,0,0,1,56.737-12.09Z" transform="translate(-16.782 27.005)" fill="#191847" fill-rule="evenodd"/><g transform="translate(6.461 2.073)"><path d="M-22.253-37.1a15.358,15.358,0,0,1-.142-11.77c4.878-11.146,19.9-2.961,20.936,3.914s-4.549,21.384-8.917,20.987c-1.741-.159-4.782-2.377-7.5-5.695l-3.307,16.137L-34-18.094Z" transform="translate(34 54.351)" fill="#d4a181" fill-rule="evenodd"/></g><path d="M30.97-7.763C29.3-1.206,26.477,5.958,24.106,7.047L8.61,1.528C13.091-13.781,19.364-4.995,24.4-19.118c.7-.323,1.373-.652,2.014-.913l.13-.42q6.96-6.807,13.148-4.6c6.188,2.206,7.113,5.78,7.907,8.82-2.762,3.823-7.816,2.734-13.052,3.868a3.092,3.092,0,0,0-1.617-1.316,3.121,3.121,0,0,0-3.988,1.889A3.121,3.121,0,0,0,30.834-7.8C30.885-7.791,30.924-7.774,30.97-7.763Z" transform="translate(-8.61 26.393)" fill="#191847" fill-rule="evenodd"/></g><g transform="translate(0 91.496)"><path d="M57.57,43.395Q77.981,49.1,92.788,49.1a47.4,47.4,0,0,0,27.51-8.792q-19.977-5.862-32.9-5.859T57.57,43.395Z" transform="translate(-2.143 14.981)" fill="#fe7ce4" fill-rule="evenodd"/><path d="M114.346,18.965a3.151,3.151,0,0,1-.329-.647C112.2,13.508,83.064-38.38,80.16-47.87h32.8C115.169-40.655,125.1,4.609,126.5,13.639c4.413,14.248,13.488,60.38,14.651,63.579,1.22,3.364-5.644,6.863-7.47,2.734a351.616,351.616,0,0,1-12.927-35.888C117.857,33.645,115.5,24.274,114.346,18.965Z" transform="translate(-11.92 50.608)" fill="#ba8b72" fill-rule="evenodd"/><path d="M39.959,25.305c-13.318,3.369-62.036,9.45-65.383,10.408-3.437.981-6.455-6.109-2.206-7.64a351.114,351.114,0,0,1,36.7-10.391c9.087-1.855,17.385-3.364,22.95-4.248C31.559-2.216,29.4-39.754,30.816-47.86H59.84c-1.356,7.777-12.813,64.5-14.94,70.182C44.219,24.347,42.2,25.243,39.959,25.305Z" transform="translate(35.632 50.604)" fill="#d4a181" fill-rule="evenodd"/><g transform="translate(11.549 75.245) rotate(80)"><path d="M.953,3.452A12.181,12.181,0,0,0,0,7.252a28.5,28.5,0,0,0,.51,4.475H32.5Q33.752,7.6,31.061,7.275t-4.464-.6L11.724.048a.567.567,0,0,0-.749.289c0,.006-.006.011-.006.017l-.959,2.32A10.243,10.243,0,0,1,5.967,3.837,9.142,9.142,0,0,1,2.479,2.816h0a1.135,1.135,0,0,0-1.5.556A.185.185,0,0,1,.953,3.452Z" transform="translate(0 0)" fill="#e4e4e4" fill-rule="evenodd"/></g><g transform="translate(118.722 126.576)"><path d="M-37.887-25.093a12.181,12.181,0,0,0-.953,3.8,28.5,28.5,0,0,0,.51,4.475H-6.339q1.251-4.126-1.441-4.453t-4.464-.6L-27.116-28.5a.567.567,0,0,0-.749.289c0,.006-.006.011-.006.017l-.959,2.32a10.243,10.243,0,0,1-4.044,1.163,9.142,9.142,0,0,1-3.488-1.021h0a1.135,1.135,0,0,0-1.5.556A.21.21,0,0,1-37.887-25.093Z" transform="translate(38.84 28.545)" fill="#e4e4e4" fill-rule="evenodd"/></g><path d="M67.05-49.954q19.186-5.488,36.3,0c3.971,18.117,13.619,25.3,15.315,53.08-19.285,9.58-43.108-6.835-62.961,2.513C50.034-7.435,57.975-38.916,67.05-49.954Z" transform="translate(-0.512 52.698)" fill="#fed7ff" fill-rule="evenodd"/></g><g transform="translate(22.955 34.677)"><path d="M76.523,11.073,95.893,8.43q9.665-6.773,10.176-5.088c.5,1.685-1.73,2.467-1.571,3.664s6.665,3.437,6.665,3.437a27.062,27.062,0,0,1-9.541,1.957l-23.67,9.393ZM6.574,16.383,19,16.428Q-1.432,62.4-2.309,64.568c-1.31,3.25,1.463,8.208,2.655,10.868-3.868,1.73-3.454-4.68-8.338-2.411-4.453,2.07-7.845,5.825-12.989,2.649-.635-.391-1.327-1.86.352-3.006,4.175-2.864,10.187-7.873,11-9.518Q-7.972,59.78,6.574,16.383Z" transform="translate(21.678 25.852)" fill="#d4a181" fill-rule="evenodd"/><path d="M88.1-42.86l9.722.647c2.394,21.668,15.44,35.355,44.651,30.72l3.88,27.9c-27.3,3.528-51.242-7.4-56.149-36.994C88.936-28.243,87.932-36.218,88.1-42.86Z" transform="translate(-25.823 45.702)" fill="#afb9c5" fill-rule="evenodd"/><path d="M46.287-47.859l14.736,3.375c0,25.343,8.071,41.515,12.212,60.142H33.445c-.562,6.438-.908,13.057-1.083,19.853H2.56Q12.685-18.38,45.311-47.87h.964Z" transform="translate(11.188 47.87)" fill="#c5cfd6" fill-rule="evenodd"/><path d="M63.283.4q-1.54,23.687,1.809,36.154H57.01A194.708,194.708,0,0,1,63.283.4Z" transform="translate(-12.377 26.979)" fill="rgba(0,0,0,0.1)" fill-rule="evenodd"/></g></g></g></svg>