<svg xmlns="http://www.w3.org/2000/svg" width="55" height="55" viewBox="0 0 55 55">
  <g id="Group_1266" data-name="Group 1266" transform="translate(-1265 -1807)">
    <circle id="Ellipse_131" data-name="Ellipse 131" cx="27.5" cy="27.5" r="27.5" transform="translate(1265 1807)" fill="#00c389"/>
    <g id="Group_1250" data-name="Group 1250" transform="translate(1639.734 2090.246)">
      <path id="Path_1001" data-name="Path 1001" d="M-354.249-260.679l2.348,2.348,5.961-5.961a1.745,1.745,0,0,1,2.529.181,1.9,1.9,0,0,1,0,2.348l-7.225,7.225a1.746,1.746,0,0,1-2.529,0l-3.613-3.613a1.756,1.756,0,0,1,.181-2.529,1.9,1.9,0,0,1,2.348,0Z" transform="translate(3.181 3.987)" fill="#fff"/>
      <path id="Path_1002" data-name="Path 1002" d="M-335.895-269.7a3.623,3.623,0,0,1,3.613,3.613v21.675a3.623,3.623,0,0,1-3.613,3.613H-357.57a3.623,3.623,0,0,1-3.613-3.613v-21.675a3.623,3.623,0,0,1,3.613-3.613Zm-21.675,3.613v21.675h21.675v-21.675Z" transform="translate(0 0)" fill="#fff"/>
    </g>
  </g>
</svg>
