<svg xmlns="http://www.w3.org/2000/svg" width="55" height="55" viewBox="0 0 55 55">
  <g id="Group_1291" data-name="Group 1291" transform="translate(450.744 813.429)">
    <path id="Path_1007" data-name="Path 1007" d="M-423.244-813.429a27.5,27.5,0,0,0-27.5,27.5,27.5,27.5,0,0,0,27.5,27.5,27.5,27.5,0,0,0,27.5-27.5A27.5,27.5,0,0,0-423.244-813.429Z" transform="translate(0 0)" fill="#8d5fd6"/>
    <path id="Path_1008" data-name="Path 1008" d="M-459.216-256.437a12.115,12.115,0,0,0-12.1,12.1c0,5.054,2.389,8.676,6.051,13.831a48.176,48.176,0,0,1,6.066,10.372h.063a49.468,49.468,0,0,1,5.972-10.275c3.41-4.552,6.048-7.562,6.048-13.927A12.114,12.114,0,0,0-459.216-256.437Zm0,18.143a6.049,6.049,0,0,1-6.044-6.042,6.049,6.049,0,0,1,6.044-6.042,6.049,6.049,0,0,1,6.042,6.042A6.049,6.049,0,0,1-459.216-238.294Z" transform="translate(36.468 -547.149)" fill="#fff"/>
  </g>
</svg>
