<svg xmlns="http://www.w3.org/2000/svg" width="122.79" height="269.159" viewBox="0 0 122.79 269.159"><g transform="translate(-0.003 0.008)"><g transform="translate(17.894 127.506)"><path d="M85.85,215.15,69.19,346.127H80.628L96.3,290.553l21.484-75.4Z" transform="translate(-46.076 -215.15)" fill="#191847" fill-rule="evenodd"/><path d="M97.19,215.15c10.514,37.177,17.5,58.376,19.759,63.592s13.1,27.677,32.531,67.385h11.847q-22.891-62.086-23.671-67.385c-.522-3.532-2.217-24.726-2.714-63.592Z" transform="translate(-57.482 -215.15)" fill="#2f3676" fill-rule="evenodd"/><g transform="translate(68.748 129.199)"><path d="M104.415,246.6V245.41l-7.7,1.185H74.19v-2.371Q88.449,240.376,97.3,234.15h12.446l.593,12.446Z" transform="translate(-74.19 -234.15)" fill-rule="evenodd"/></g><g transform="translate(0 129.199)"><path d="M-127.585,246.6V245.41l-7.7,1.185H-157.81v-2.371q14.259-3.849,23.114-10.075h12.446l.593,12.446Z" transform="translate(157.81 -234.15)" fill-rule="evenodd"/></g></g><g transform="translate(0.003 -0.008)"><g transform="translate(0 3.426)"><g transform="translate(99.067 130.803) rotate(180)"><g transform="translate(5.706 77.893)"><g transform="translate(5.312 0)"><path d="M5.921,23.25c-2.59,3.331-4.261,7.343-3.757,11.729-.925-8.06,11.983,23.677,22.147,2.513,3.147-6.555,2.015-22.782-2.477-23.73-1.79-.379-5.512.913-9.251,3.4L14.23,0,0,.64Z" fill="#efd9ca" fill-rule="evenodd"/></g><path d="M1.466,19.913a4.448,4.448,0,0,0-.847,1.766,17.386,17.386,0,0,0-.5,1.985A4.333,4.333,0,0,0,.939,27.54a4.469,4.469,0,0,0,3.023,1.15,5.408,5.408,0,0,0,2.092-.362c.658-.249,1.215-.717,1.855-1.013A8.526,8.526,0,0,0,9.093,31.44a4.154,4.154,0,0,0,3.183,1.879,6.147,6.147,0,0,0,3.734-.93,9.68,9.68,0,0,0,.836-.551,2.435,2.435,0,0,1,.729-.444c.3-.083.462.083.67.3a4.972,4.972,0,0,0,.8.658,4.533,4.533,0,0,0,4.273.539,3.96,3.96,0,0,0,1.671-1.328c.373-.533-2.91-3.657-2.382-4.042.225-.166.4.03.616.172.326.213.64.444.966.652a4.191,4.191,0,0,0,1.488.593c.77.142,1.825.053,2-.954a4.209,4.209,0,0,0-.059-1.156c-.059-.516-.119-1.037-.19-1.553-.053-.391-.113-.77-.2-1.156a1.74,1.74,0,0,1-.113-.794c.1-.261.616-.136.83-.16a3.266,3.266,0,0,0,1.245-.332,1.335,1.335,0,0,0,.729-.741,1.261,1.261,0,0,0-.006-.664,1.885,1.885,0,0,1,.012-.682c.593.261,2.62.8,2.827-.243a1.629,1.629,0,0,0-.3-1.013,9.184,9.184,0,0,0-1-1.381c-.759-.895,1.885.634.936-.012a1.628,1.628,0,0,0,.3-2.744,2.025,2.025,0,0,0-1.5-.362,3.5,3.5,0,0,1-.61.077,2.086,2.086,0,0,0-.284-.083,8.172,8.172,0,0,0-2.258.391,7.44,7.44,0,0,0-3.384,1.968,1.063,1.063,0,0,1-.782.4c-.3.012-.593-.059-.895-.053a6.4,6.4,0,0,0-2.2.723,8.432,8.432,0,0,0-.865-2.934c-.362-.711-1.055-.782-1.736-.818-2.175-.107-4.332.219-6.5.314,2.074-.569,4.232-.859,6.288-1.511.93-.3,1.416-5.891,1-6.312-.693-.693-2.46,3.426-2.845,2.5a4.53,4.53,0,0,1-4.362,2.009A3.17,3.17,0,0,1,9.662,7.171a5.866,5.866,0,0,1,2.756-1.944A10.246,10.246,0,0,1,10.86,2.3a2.136,2.136,0,0,0-1.12-1.173,1.279,1.279,0,0,1-.569-.2c-.2-.184-.249-.4-.492-.551a2.631,2.631,0,0,0-3.248.4,2.134,2.134,0,0,0,.2,2.785C4.637,4.03,2.829,4.652,3.3,6.2c-2.175.243-2.43,3.8.61,6.253-1.565.978-2.94,3.266-1.825,5.174.865,1.458-2.134,2.27-.616,2.282" transform="translate(0 19.57)" fill="#333" fill-rule="evenodd"/></g><g transform="translate(0 0)"><path d="M27.783,47.46l9.239-34.291a4.394,4.394,0,0,0-2.679-5.251L14.378.291A4.4,4.4,0,0,0,8.546,3.313L.136,36.377A4.394,4.394,0,0,0,2.554,41.45L21.691,50.3A4.382,4.382,0,0,0,27.783,47.46Z" transform="translate(61.892 65.861)" fill="#e6e6e6"/><path d="M23.332,43.763,32.477,10.6a2.723,2.723,0,0,0-1.654-3.266L12.072.179a2.722,2.722,0,0,0-3.6,1.855L.088,34.043A2.726,2.726,0,0,0,1.576,37.2l17.987,8.315A2.728,2.728,0,0,0,23.332,43.763Z" transform="translate(64.014 68.029)" fill="#fff"/><path d="M0,8.872l8.107,6.389Q8.8,22.719,11.4,23.2c1.233.847-.119-5.506,2.353-4.623,2.193.782,4.2,2.548,6.252,2.311,1.808-1.12.095-3.752-1.215-6.14-2.442-4.463-.925-4.581-6.976-7.4A35.4,35.4,0,0,1,1.985,0Z" transform="translate(73.929 51.952)" fill="#e8cebf" fill-rule="evenodd"/><path d="M0,6.8,18.467,21.306A51.1,51.1,0,0,0,26.9,32.317c.93.587,2.643,1.132,1.488-2.051s-2.228-6.578-1.245-7.337,2.857.842,4.1-.48q1.245-1.325-9.885-6.478L8.842,0Z" transform="translate(47.484 64.528)" fill="#e8cebf" fill-rule="evenodd"/><path d="M1.512,12.447A50.563,50.563,0,0,1,26.914,24.9l5.452-8.208C26.534,8.594,17.662,1.269,9.033.078A7.867,7.867,0,0,0,1.512,12.447Z" transform="translate(28.726 53.308)" fill="#dd4b19" fill-rule="evenodd"/><path d="M37.759,53.392c7.87-.628,24.6,3.437,41.332,12.724q8.9-12.588,9.364-18.5C74.521,37.106,52.2,31.849,41.469,29.822c1.4-6.335,5.132-14.467,3.443-20.458C41.439-2.957,14.556,3.84,4.327,0-5.878,20.417,5.477,31.292,3.2,45.059c-2.5,15.077,5.749,40.3,7.533,40.6l16.245,2.7C29.776,76.986,31.969,65.311,37.759,53.392Z" fill="#f46e33" fill-rule="evenodd"/><path d="M.3,0,10.14,4.575l-.3,1.7L0,1.7Z" transform="translate(70.728 103.501)" fill="#e6e6e6"/><g transform="translate(76.305 98.41)"><path d="M.178,0l9.838,4.575-.178.877L0,.877Z" transform="translate(0 2.762)" fill="#e6e6e6"/><path d="M.45,0,3.07,1.156,2.62,2.88,0,1.731Z" transform="translate(7.77 3.503)" fill="#00c389"/><path d="M.444,0l2.62,1.15L2.614,2.88,0,1.725Z" transform="translate(4.042 1.814)" fill="#ffad22"/><path d="M.45,0,3.064,1.156,2.62,2.88,0,1.731Z" transform="translate(0.29 0.148)" fill="#fd2f58"/><circle cx="0.936" cy="0.936" r="0.936" transform="translate(9.376 1.15)" fill="#f2f2f2"/><circle cx="0.936" cy="0.936" r="0.936" transform="translate(6.602 0)" fill="#f2f2f2"/></g><g transform="translate(79.114 87.897)"><path d="M.184,0l9.838,4.575-.184.877L0,.877Z" transform="translate(0 2.762)" fill="#e6e6e6"/><path d="M.444,0l2.62,1.15L2.62,2.88,0,1.725Z" transform="translate(7.776 3.503)" fill="#00c389"/><path d="M.444,0l2.62,1.156L2.62,2.88,0,1.731Z" transform="translate(4.042 1.808)" fill="#ffad22"/><path d="M.444,0l2.62,1.15L2.62,2.88,0,1.725Z" transform="translate(0.296 0.148)" fill="#fd2f58"/><circle cx="0.936" cy="0.936" r="0.936" transform="translate(9.382 1.144)" fill="#f2f2f2"/><circle cx="0.936" cy="0.936" r="0.936" transform="translate(6.602 0)" fill="#f2f2f2"/></g><g transform="translate(82.563 76.008)"><path d="M.184,0l9.838,4.575-.184.877L0,.877Z" transform="translate(0 2.762)" fill="#e6e6e6"/><path d="M.444,0l2.62,1.156L2.62,2.88,0,1.731Z" transform="translate(7.776 3.503)" fill="#00c389"/><path d="M.444,0l2.62,1.15L2.62,2.88,0,1.725Z" transform="translate(4.042 1.814)" fill="#ffad22"/><path d="M.444,0l2.62,1.156L2.614,2.88,0,1.731Z" transform="translate(0.296 0.148)" fill="#fd2f58"/><circle cx="0.936" cy="0.936" r="0.936" transform="translate(9.382 1.15)" fill="#f2f2f2"/><circle cx="0.936" cy="0.936" r="0.936" transform="translate(6.602 0)" fill="#f2f2f2"/></g></g></g></g><path d="M127.934,151.715c7.77-.172,17.519,2.916,17.519,2.916l1.221,7.835-9.251-1.541-13.993.113Z" transform="translate(-50.281 -61.793)" fill="#fff"/><path d="M141.21,125.275s9.785.759,12.357,2.057l-1.191-6.733L140.12,118.56Z" transform="translate(-57.079 -48.29)" fill="#fff" fill-rule="evenodd"/><path d="M33.963,118.488,23.479,137.417l-5.559-3.994s3.8-16.63,9.364-18.5Z" transform="translate(-7.302 -46.807)" fill="#fff"/><path d="M72.12,117.62" transform="translate(-29.38 -47.907)" fill="#fff"/><path d="M69.532,94.52l-5.452,8.2,3.277,4.9,5.209-10.573Z" transform="translate(-26.105 -38.497)" fill="#ccc"/><path d="M103.794,13.817c9.678,1.173,6.235,6.567,27.067,13.957.99.35,4.3,3.283,3.082-1.8,0,0,7.141-16.091-3.5-22.7-15.688-9.755-25.532,5.381-25.532,5.381l-5.506,2.2a.929.929,0,0,0-.19,1.778A18.5,18.5,0,0,0,103.794,13.817Z" transform="translate(-40.18 0.008)" fill="#ff8500" fill-rule="evenodd"/></g></g></svg>