<svg xmlns="http://www.w3.org/2000/svg" width="130" height="281.678" viewBox="0 0 130 281.678">
  <g id="Group_1975" data-name="Group 1975" transform="translate(0 0.001)">
    <g id="Group_1964" data-name="Group 1964" transform="translate(0 131.745)">
      <g id="Group_1963" data-name="Group 1963">
        <path id="Leg_1_" d="M53,210.01l17.333,79.181L81.142,348.65H91.988L81.161,210.01Z" transform="translate(-19.752 -210.01)" fill="#f2f2f2" fill-rule="evenodd"/>
        <path id="Path_1592" data-name="Path 1592" d="M23.88,210.01c1.606,41.134-4.674,63.574-5.031,67.312S16.453,306.092,2.57,349.9H13.856c18.387-42.031,24.8-67.061,26.912-72.582S49.105,249.369,58.2,210.01Z" transform="translate(-0.958 -210.01)" fill="#f2f2f2" fill-rule="evenodd"/>
        <path id="Pant_1_" d="M52.21,210.01c5.978,27.251,10.671,70.744,25.369,130.484H93.444C94.617,279.173,89.63,238.817,81,210.01H52.21Z" transform="translate(-19.457 -210.01)" fill="#c6afea" fill-rule="evenodd"/>
        <path id="Path_1593" data-name="Path 1593" d="M24.082,210.01c1.568,41.134-8.143,81.666-20.752,131.124H20.262C38.68,299.731,51.885,259.4,60.906,210.01Z" transform="translate(-1.241 -210.01)" fill="#af9ad8" fill-rule="evenodd"/>
        <g id="Group_1961" data-name="Group 1961" transform="translate(0 136.758)">
          <path id="Shoe_1_" d="M-84,240.3l.621-10.037q5.467,1.6,13.695-1.255,8.845,6.267,22.276,8.557h0a1.261,1.261,0,0,1,1.029,1.449,1,1,0,0,1-.031.132l-.859,3.036H-82.758Z" transform="translate(84 -229.01)" fill="#424242" fill-rule="evenodd"/>
        </g>
        <g id="Group_1962" data-name="Group 1962" transform="translate(58.969 136.758)">
          <path id="Path_1594" data-name="Path 1594" d="M-84,240.3l.621-10.037q5.467,1.6,13.695-1.255,8.845,6.267,22.276,8.557h0a1.261,1.261,0,0,1,1.029,1.449,1,1,0,0,1-.031.132l-.859,3.036H-82.758Z" transform="translate(84 -229.01)" fill="#424242" fill-rule="evenodd"/>
        </g>
      </g>
    </g>
    <g id="Group_1974" data-name="Group 1974" transform="translate(15.103 -0.001)">
      <g id="Group_1973" data-name="Group 1973">
        <g id="Group_1966" data-name="Group 1966" transform="translate(21.527)">
          <g id="Group_1965" data-name="Group 1965">
            <g id="Head_1_" transform="translate(0 4.391)">
              <path id="Path_1595" data-name="Path 1595" d="M12.526-3.2C10.08-6.924,8.65-11.291,9.553-15.876c2.6-13.205,20.777-7.961,23.544-.784s.207,24.177-4.6,24.8c-1.92.245-5.734-1.424-9.46-4.354L19.327,22,4.39,20.132Z" transform="translate(-4.39 24.001)" fill="#f7d8c1" fill-rule="evenodd"/>
            </g>
            <path id="Hair_1_" d="M66.322,28.048c-.834-8.576-5.464-14.93-4.184-18.556a5.706,5.706,0,0,1,4.931-4.1Q69.817-1.766,79.64.577c9.824,2.346,15.382,7.239,11.624,16.016-2.415-.3-5.219-1.537-9.435-.546-1.336.314-2.434,1.675-3.293,4.071l-1.819-.226q-2.1-4.724-4.824-3.883t-1.876,5.508l-1.757,6.769Z" transform="translate(-59.704 0.001)" fill="#b3b3b3" fill-rule="evenodd"/>
          </g>
        </g>
        <g id="Group_1972" data-name="Group 1972" transform="translate(0 24.159)">
          <g id="Group_1970" data-name="Group 1970" transform="translate(77.419)">
            <path id="Path_1596" data-name="Path 1596" d="M174.507,38.7,151.2,45.085a4.978,4.978,0,0,0-3.695,5.263l3.306,38.995a5.059,5.059,0,0,0,6.054,4.536L180.9,89a4.98,4.98,0,0,0,4.034-5.433l-3.977-40.507A5.054,5.054,0,0,0,174.507,38.7Z" transform="translate(-147.486 -38.511)" fill="#e6e6e6"/>
            <path id="Path_1597" data-name="Path 1597" d="M175.557,43.484l-21.906,6.054a3.166,3.166,0,0,0-2.3,3.306L154.83,90.6a3.076,3.076,0,0,0,3.695,2.748L181.1,88.758a3.051,3.051,0,0,0,2.465-3.362l-4.09-39.214A3.116,3.116,0,0,0,175.557,43.484Z" transform="translate(-148.924 -40.323)" fill="#fff"/>
            <path id="Path_1598" data-name="Path 1598" d="M164.3,52.746l11.995-3.306V51.4L164.3,54.71Z" transform="translate(-153.752 -42.584)" fill="#e6e6e6"/>
            <g id="Group_1967" data-name="Group 1967" transform="translate(5.454 14.478)">
              <path id="Path_1599" data-name="Path 1599" d="M156.18,64.9l11.988-3.306.056,1.01-11.988,3.356Z" transform="translate(-156.18 -61.59)" fill="#e6e6e6"/>
              <path id="Path_1600" data-name="Path 1600" d="M170.73,65.854l3.143-.784.22,2.02-3.193.841Z" transform="translate(-161.602 -62.887)" fill="#fd2f58"/>
              <path id="Path_1601" data-name="Path 1601" d="M163.5,67.824l3.137-.784.226,2.014-3.193.784Z" transform="translate(-158.908 -63.621)" fill="#ffad22"/>
              <path id="Path_1602" data-name="Path 1602" d="M156.18,69.694l3.193-.784.169,2.02-3.143.784Z" transform="translate(-156.18 -64.318)" fill="#00c389"/>
              <circle id="Ellipse_433" data-name="Ellipse 433" cx="1.066" cy="1.066" r="1.066" transform="translate(3.664 7.653)" fill="#f2f2f2"/>
              <circle id="Ellipse_434" data-name="Ellipse 434" cx="1.066" cy="1.066" r="1.066" transform="translate(0.301 8.438)" fill="#f2f2f2"/>
            </g>
            <g id="Group_1968" data-name="Group 1968" transform="translate(6.684 26.912)">
              <path id="Path_1603" data-name="Path 1603" d="M158.14,84.716l11.988-3.306.056,1.01L158.2,85.782Z" transform="translate(-158.14 -81.41)" fill="#e6e6e6"/>
              <path id="Path_1604" data-name="Path 1604" d="M172.61,85.684,175.8,84.9l.169,2.014-3.193.841Z" transform="translate(-163.533 -82.711)" fill="#fd2f58"/>
              <path id="Path_1605" data-name="Path 1605" d="M165.38,87.611l3.193-.841.163,2.076-3.193.784Z" transform="translate(-160.838 -83.408)" fill="#ffad22"/>
              <path id="Path_1606" data-name="Path 1606" d="M158.14,89.491l3.193-.841.169,2.07-3.193.784Z" transform="translate(-158.14 -84.108)" fill="#00c389"/>
              <circle id="Ellipse_435" data-name="Ellipse 435" cx="1.066" cy="1.066" r="1.066" transform="translate(3.613 7.66)" fill="#f2f2f2"/>
              <circle id="Ellipse_436" data-name="Ellipse 436" cx="1.066" cy="1.066" r="1.066" transform="translate(0.251 8.444)" fill="#f2f2f2"/>
            </g>
            <g id="Group_1969" data-name="Group 1969" transform="translate(8.365 40.977)">
              <path id="Path_1607" data-name="Path 1607" d="M160.82,107.192l11.988-3.362V104.9L160.82,108.2Z" transform="translate(-160.82 -103.83)" fill="#e6e6e6"/>
              <path id="Path_1608" data-name="Path 1608" d="M175.29,108.151l3.193-.841.169,2.076-3.193.784Z" transform="translate(-166.213 -105.127)" fill="#fd2f58"/>
              <path id="Path_1609" data-name="Path 1609" d="M168.06,110.064l3.193-.784.163,2.014-3.193.841Z" transform="translate(-163.518 -105.861)" fill="#ffad22"/>
              <path id="Path_1610" data-name="Path 1610" d="M160.82,111.934l3.137-.784.226,2.02-3.193.841Z" transform="translate(-160.82 -106.558)" fill="#00c389"/>
              <circle id="Ellipse_437" data-name="Ellipse 437" cx="1.066" cy="1.066" r="1.066" transform="translate(3.613 7.71)" fill="#f2f2f2"/>
              <circle id="Ellipse_438" data-name="Ellipse 438" cx="1.066" cy="1.066" r="1.066" transform="translate(0.251 8.494)" fill="#f2f2f2"/>
            </g>
          </g>
          <path id="Path_1611" data-name="Path 1611" d="M106.02,105.264l21.775-11.926A53.9,53.9,0,0,1,138.5,83.32c1.073-.445,2.955-.721,1.2,2.4s-3.463,6.474-2.566,7.434,3.124-.383,4.191,1.217q1.063,1.6-11.436,5.044L114.062,113.9Z" transform="translate(-54.613 -55.109)" fill="#f7d8c1" fill-rule="evenodd"/>
          <g id="Group_1971" data-name="Group 1971" transform="translate(0 18.33)">
            <path id="Skin_1_" d="M160.38,126.768l9.567-5.257q2.014-7.66,4.812-7.71c1.437-.665-1.06,5.784,1.656,5.226s5.47-1.073,5.47-1.073c-.013,1.763.558,3.13-1.217,5.4-3.319,4.228-1.424,5.157-8.218,7.051a37.267,37.267,0,0,0-11.524,5.96Z" transform="translate(-74.872 -84.882)" fill="#f7d8c1" fill-rule="evenodd"/>
            <path id="Sleeve_1_" d="M87.642,109.132a53.52,53.52,0,0,0,28.65-8.582l4.26,9.5c-7.484,7.428-18.011,13.531-27.214,13.274A8.315,8.315,0,0,1,87.642,109.132Z" transform="translate(-46.843 -79.961)" fill="#c5cfd6" fill-rule="evenodd"/>
            <path id="Clothes_1_" d="M75.142,112.145q12.148,3.03,40.732-7.145c4.73,9.78,6.286,13.613,5.928,17.779-16.348,8.538-35.018,8.739-47.232,6.982.364,6.85,9.435,95.737,6.637,101.7-5.759,12.245-45.732-.646-57.068,1.581-1.2-102.349,14.253-59.283,14.592-119.243C36.286,72.9,43.1,67.73,45.006,67.73l22.157,9.617C68.116,89.687,71.178,98.707,75.142,112.145Z" transform="translate(-24.074 -67.73)" fill="#f7f5fc" fill-rule="evenodd"/>
          </g>
        </g>
        <path id="Path_1612" data-name="Path 1612" d="M76.077,75.8,55.544,63.59,48.01,68.747,72.576,83.188Z" transform="translate(-32.995 -23.698)" fill="#fff" fill-rule="evenodd"/>
        <path id="Path_1613" data-name="Path 1613" d="M131.9,100.55l-4.849,2.767,2.428,12.4,6.687-5.659Z" transform="translate(-62.45 -37.472)" fill="#fff" fill-rule="evenodd"/>
        <path id="Path_1614" data-name="Path 1614" d="M166.619,127.14l-6.4,1.738s5.677,14.924,4.8,19.723l7.528-3.676C172.547,144.919,175.539,145.565,166.619,127.14Z" transform="translate(-74.812 -47.381)" fill="#fff" fill-rule="evenodd"/>
      </g>
    </g>
  </g>
</svg>
