<svg xmlns="http://www.w3.org/2000/svg" width="147.836" height="217.001" viewBox="0 0 147.836 217.001">
  <g id="Group_2213" data-name="Group 2213" transform="translate(0.007 0.007)">
    <g id="Group_2202" data-name="Group 2202" transform="translate(61.959 -0.007)">
      <g id="Head_1_" transform="translate(8.218 10.037)">
        <path id="Path_2002" data-name="Path 2002" d="M74.744,15.017c1.939-3.936,2.8-8.373,1.368-12.739C71.975-10.3,54.859-2.979,53.025,4.365S55.748,28,60.525,28.023c1.9.007,5.427-2.083,8.713-5.4l1.917,17.827,14.364-3.632Z" transform="translate(-52.61 4.539)" fill="#b28b67" fill-rule="evenodd"/>
      </g>
      <path id="hair_1_" d="M86.167,11.579a3.2,3.2,0,0,1,1.618-2.755,3.01,3.01,0,0,1,.78-.282c.1-.022.13,0,.159-.079a.914.914,0,0,0-.011-.242,4.238,4.238,0,0,1,.69-2.426A5.5,5.5,0,0,1,92.23,3.465a4.8,4.8,0,0,1,2-.224,7.784,7.784,0,0,1,1.04.162c.1.022.455.173.545.134s.238-.347.3-.43a5.836,5.836,0,0,1,3.271-1.975,6.7,6.7,0,0,1,4.246-.058,7.762,7.762,0,0,1,.874.419c.148.083.3.17.437.26.087.058.17.116.253.173.141.1.134.152.26.022a3.073,3.073,0,0,1,1.8-.914,4.563,4.563,0,0,1,1.235.032,2.549,2.549,0,0,0,.617.13c.134-.032.368-.3.491-.386a4.709,4.709,0,0,1,2.253-.8,6.112,6.112,0,0,1,2.484.318,3.144,3.144,0,0,1,1.029.549c.134.112.26.231.4.332.083.058.231.1.292.184a5.068,5.068,0,0,1,.852-.664,2.413,2.413,0,0,1,1.361-.289,5.544,5.544,0,0,1,2.51.971,6.028,6.028,0,0,1,1.054.859c.152.155.3.318.437.484a2.079,2.079,0,0,0,.2.26c.1.09.152.079.3.09a4.128,4.128,0,0,1,3.47,2.445c.018.04.065.213.1.231s.173-.025.227-.032a4.741,4.741,0,0,1,.556-.04,4.6,4.6,0,0,1,1.018.1,5.038,5.038,0,0,1,3.113,2.25,5.972,5.972,0,0,1,.914,3.986,4.071,4.071,0,0,1-.148.654c-.043.13-.065.137.011.246s.209.224.3.339a5.749,5.749,0,0,1,.758,1.22,6.437,6.437,0,0,1,.654,2.275,3.376,3.376,0,0,1-.1,1.094,3.083,3.083,0,0,1-.195.527c-.043.087-.09.173-.141.256a1.237,1.237,0,0,0-.094.144c-.054.123-.094.043-.014.184a6.982,6.982,0,0,0,.43.56c.137.191.267.386.39.589a9.774,9.774,0,0,1,.668,1.26,4.348,4.348,0,0,1,.361,2.686,2.663,2.663,0,0,1-.516,1.065,3.007,3.007,0,0,1-.412.419c-.076.065-.184.112-.206.206s.09.267.13.368a6.455,6.455,0,0,1,.61,2.719,3.842,3.842,0,0,1-.975,2.358,4.742,4.742,0,0,1-4.564,1.293,5.148,5.148,0,0,1-1.206-.444c-.52,1.26-2.148,1.636-3.376,1.625a5.268,5.268,0,0,1-3.925-1.863,2.231,2.231,0,0,1-3.549.419,2.9,2.9,0,0,1-.527-.87c-.069-.166-.1-.343-.155-.509a2.586,2.586,0,0,0-.412-.574,3.606,3.606,0,0,1-.589-1.206,6.545,6.545,0,0,1-.123-.7,2.469,2.469,0,0,0-.22-.581,2.841,2.841,0,0,0,1.127-.441,2.321,2.321,0,0,0,.737-.859,5.424,5.424,0,0,0,.6-2.4c.087-1.8-.628-3.755-2.546-4.25a8.919,8.919,0,0,0-4.12.812c-.924.469-1.491,2.918-1.495,3.134,0,.134.054.285-.04.4-.209.249-.708.036-.935-.076a3.48,3.48,0,0,1-1.007-.812,12.966,12.966,0,0,1-1.679-2.278c-.361-.628-.661-1.3-1.08-1.892a3.237,3.237,0,0,0-1.661-1.3,11.412,11.412,0,0,0-2.372-.329,5.478,5.478,0,0,1-2.268-.592,2.734,2.734,0,0,1-.437-.3c-.1-.09-.235-.278-.372-.318-.213-.061-.412.289-.545.43a7.322,7.322,0,0,0-1.484,2.466,12.648,12.648,0,0,0-.722,2.676,6.973,6.973,0,0,1-.39,2.177,3.865,3.865,0,0,1-2.185.733,2.9,2.9,0,0,1-1.48-.744,1.662,1.662,0,0,1-.408-1.036c-.011-.227.025-.451.018-.675a2.035,2.035,0,0,1,.036-.552,1.308,1.308,0,0,1,.625-.823,3.784,3.784,0,0,1-1.137-.935,5.1,5.1,0,0,1-.816-1.383,1.861,1.861,0,0,1-.051-1.228,3.119,3.119,0,0,1,.787-1.076,6.583,6.583,0,0,1-1.766-1.159A4.8,4.8,0,0,1,86.167,11.579Z" transform="translate(-86.165 0.007)" fill="#603813" fill-rule="evenodd"/>
    </g>
    <g id="Group_2212" data-name="Group 2212" transform="translate(-0.007 29.761)">
      <g id="Group_2211" data-name="Group 2211">
        <g id="Group_2210" data-name="Group 2210">
          <g id="Group_2209" data-name="Group 2209" transform="translate(147.836 187.233) rotate(180)">
            <g id="Group_2206" data-name="Group 2206" transform="translate(0 0)">
              <g id="Group_2203" data-name="Group 2203" transform="translate(0 0)">
                <g id="Seat_1_">
                  <path id="Seat-Stuff_1_" d="M17.137,76.917H65.056L71.335,0H0Z" fill="#c5cfd6" fill-rule="evenodd"/>
                  <path id="Path_2003" data-name="Path 2003" d="M17.137,76.917H31.873L40.694,0H0Z" fill="rgba(0,0,0,0.1)" fill-rule="evenodd"/>
                </g>
              </g>
              <path id="Skin_1_" d="M42.1,87.5c5.109,3.069,13.681-.874,13.674-5.261-.018-13.129-12-75-12.623-78.911s-7.326-4.943-7.716-.014c-.621,7.846-1.773,35.01-.621,47.587.477,5.189.989,10.132,1.495,14.544Q26.881,48.422,7.142,16.686L0,19.95Q8.417,47.676,13.8,59.1c6.146,13.035,11.912,24.2,14.335,28.132C31.952,93.409,38.592,91.249,42.1,87.5Z" transform="translate(78.308 2.588)" fill-rule="evenodd"/>
              <path id="LegLower_1_" d="M0,5.745,24.517,63.828c5.875,9.449,22.344-1.921,20.34-7.4C40.311,43.983,17.18,3.7,15.826,0Z" transform="translate(78.095 27.052)" fill="#2e3192" fill-rule="evenodd"/>
              <g id="Group_2204" data-name="Group 2204" transform="matrix(0.866, -0.5, 0.5, 0.866, 71.304, 18.873)">
                <path id="shoe_1_" d="M1.04,9.056A13.328,13.328,0,0,1,0,4.9,31.208,31.208,0,0,1,.56,0H35.545q1.365,4.506-1.574,4.867t-4.882.65L12.952,10.869c-.314.141-.805,1.9-.946,1.585,0,0,0,.007,0,0L10.955,9.9a11.16,11.16,0,0,0-4.42-1.267c-.921,0-3.109,4.857-4.734,5.6h0c-.621.285-.444-4.474-.729-5.1C1.062,9.114,1.051,9.085,1.04,9.056Z" transform="translate(0)" fill="#4d4d4d" fill-rule="evenodd"/>
              </g>
              <g id="Group_2205" data-name="Group 2205" transform="translate(111.859)">
                <path id="Path_2004" data-name="Path 2004" d="M1.04,9.056A13.328,13.328,0,0,1,0,4.9,31.208,31.208,0,0,1,.56,0H35.545Q36.91,4.506,33.97,4.867t-4.882.65L12.01,12.454c-.314.141.141.314,0,0,0,0-.744,2.4-.744,2.394L10.959,9.9a11.16,11.16,0,0,0-4.42-1.267A10.025,10.025,0,0,0,2.723,9.753L1.448,13.129c-.621.285-.087-3.365-.372-3.99A.827.827,0,0,1,1.04,9.056Z" transform="translate(0)" fill="#4d4d4d" fill-rule="evenodd"/>
              </g>
              <path id="Leg-and-Butt_1_" d="M105.927,58.56c0-16.48-7.825-54.917-7.832-58.546L81.258,0q3.7,51.449,2.621,52c-1.076.552-44.073-4.293-56.968-4.293C8.316,47.71.625,59.437,0,81.16H36.837c7.5-.8,46.623-8.695,61.153-11.407C104.208,68.591,105.927,63.1,105.927,58.56Z" transform="translate(29.154 21.809)" fill="#0071bc" fill-rule="evenodd"/>
            </g>
            <g id="Group_2208" data-name="Group 2208" transform="translate(21.231 78.26)">
              <path id="Path_2005" data-name="Path 2005" d="M30.42,46.43,34.063,9.488A4.6,4.6,0,0,0,30.4,4.53L8.506.093a4.6,4.6,0,0,0-5.492,4.12l-3,35.534a4.592,4.592,0,0,0,3.362,4.817l21.25,5.842A4.593,4.593,0,0,0,30.42,46.43Z" transform="translate(79.042 58.399)" fill="#e6e6e6"/>
              <path id="Path_2006" data-name="Path 2006" d="M25.645,43.069,29.386,7.308a2.845,2.845,0,0,0-2.264-3.084L6.558.057a2.845,2.845,0,0,0-3.4,2.528L.012,37.021a2.843,2.843,0,0,0,2.076,3L22.06,45.514A2.843,2.843,0,0,0,25.645,43.069Z" transform="translate(81.148 60.583)" fill="#fff"/>
              <path id="Path_2007" data-name="Path 2007" d="M0,9.489l9.457,5.2q1.993,7.572,4.759,7.622c1.419.661-1.065-5.655,1.636-5.167,2.394.433,4.138.82,4.138.82a6.331,6.331,0,0,0-.827-5.268c-3.282-4.185-2.914-4.979-7.229-6.8A36.934,36.934,0,0,1,.538,0Z" transform="translate(84.219 43.912)" fill="#b28b67" fill-rule="evenodd"/>
              <path id="Path_2008" data-name="Path 2008" d="M0,8.536,21.531,20.329a53.329,53.329,0,0,0,10.583,9.9c1.062.444,2.918.711,1.181-2.372s-3.423-6.4-2.538-7.352,3.091.376,4.145-1.2q1.056-1.576-11.305-4.983L7.951,0Z" transform="translate(58.752 60.225)" fill="#b28b67" fill-rule="evenodd"/>
              <path id="Sleeve_1_" d="M2.447,14.05a52.893,52.893,0,0,1,28.327,8.482l4.214-9.4C27.585,5.789,17.179-.248,8.08.008A8.224,8.224,0,0,0,2.447,14.05Z" transform="translate(37.568 51.927)" fill="#e6e6e6" fill-rule="evenodd"/>
              <path id="Clothes_1_" d="M50.169,50.909q12.008-3,40.275,7.063,7.014-14.5,6.481-20.683C80.759,28.844,66.9,25.081,55.487,24.832c.361-6.774-.462-13.219-3.232-19.108-5.691-12.107-39.033-.9-50.241-3.1C-5,25.421,8.569,34.686,8.579,49.274,8.59,65.248,21.419,89.837,23.3,89.837H40.517C41.467,77.637,46.244,64.19,50.169,50.909Z" fill="#f7f5fc" fill-rule="evenodd"/>
              <path id="Path_2009" data-name="Path 2009" d="M.018,0,10.944,3.033,10.93,4.838,0,1.805Z" transform="translate(88.53 97.897)" fill="#e6e6e6"/>
              <g id="Group_2207" data-name="Group 2207" transform="translate(85.627 68.072)">
                <path id="Path_2010" data-name="Path 2010" d="M.036,0l10.93,3.029-.036.935L0,.935Z" transform="translate(9.269 13.645)" fill="#e6e6e6"/>
                <path id="Path_2011" data-name="Path 2011" d="M.036,0,10.962,3.033l-.033.935L0,.935Z" transform="translate(9.655 7.247)" fill="#e6e6e6"/>
                <path id="Path_2012" data-name="Path 2012" d="M.036,0,10.962,3.029l-.036.939L0,.935Z" transform="translate(9.959 5.265)" fill="#e6e6e6"/>
                <path id="Path_2013" data-name="Path 2013" d="M.032,0l10.93,3.029-.036.935L0,.935Z" transform="translate(10.136 3.282)" fill="#e6e6e6"/>
                <path id="Path_2014" data-name="Path 2014" d="M.036,0l10.93,3.033-.036.935L0,.935Z" transform="translate(10.594 1.296)" fill="#e6e6e6"/>
                <path id="Path_2015" data-name="Path 2015" d="M.032,0,6.268,1.621l-.036.935L0,.935Z" transform="translate(15.595 0.726)" fill="#e6e6e6"/>
                <path id="Path_2016" data-name="Path 2016" d="M.036,0,4.43,1.253l-.036.935L0,.935Z" transform="translate(0 4.47)" fill="#e6e6e6"/>
                <path id="Path_2017" data-name="Path 2017" d="M.032,0,4.427,1.249l-.032.935L0,.935Z" transform="translate(0.303 2.488)" fill="#e6e6e6"/>
                <path id="Path_2018" data-name="Path 2018" d="M.166,0l2.9.74L2.9,2.6,0,1.856Z" transform="translate(17.556 13.031)" fill="#00c389"/>
                <path id="Path_2019" data-name="Path 2019" d="M.166,0l2.9.737L2.9,2.6,0,1.856Z" transform="translate(2.213)" fill="#00c389"/>
              </g>
              <circle id="Ellipse_532" data-name="Ellipse 532" cx="0.979" cy="0.979" r="0.979" transform="translate(103.186 88.769)" fill="#b2eddc"/>
              <circle id="Ellipse_533" data-name="Ellipse 533" cx="0.979" cy="0.979" r="0.979" transform="translate(96.965 91.939)" fill="#b2eddc"/>
              <circle id="Ellipse_534" data-name="Ellipse 534" cx="0.979" cy="0.979" r="0.979" transform="translate(94.885 87.79)" fill="#b2eddc"/>
              <circle id="Ellipse_535" data-name="Ellipse 535" cx="0.979" cy="0.979" r="0.979" transform="translate(88.53 92.917)" fill="#b2eddc"/>
              <circle id="Ellipse_536" data-name="Ellipse 536" cx="0.979" cy="0.979" r="0.979" transform="translate(83.24 92.917)" fill="#b2eddc"/>
              <path id="Path_2020" data-name="Path 2020" d="M19.946.979l-6.221,3.17L11.645,0,5.29,5.127H0" transform="translate(84.219 88.769)" fill="none" stroke="#00c389" stroke-linecap="round" stroke-linejoin="round" stroke-miterlimit="10" stroke-width="1"/>
            </g>
          </g>
        </g>
        <path id="Path_2021" data-name="Path 2021" d="M165.89,217.43" transform="translate(-105.988 -168.686)" fill="#fff"/>
        <path id="Path_2022" data-name="Path 2022" d="M71.553,521H53.42l1.293,7.052,16.841.014Z" transform="translate(-34.128 -362.643)" fill="#ccc"/>
        <path id="Path_2023" data-name="Path 2023" d="M143.013,505.867l15.83-5.745-2.39-5.662-16.992,5.705Z" transform="translate(-89.101 -345.686)" fill="#ccc"/>
      </g>
    </g>
  </g>
</svg>
