<svg xmlns="http://www.w3.org/2000/svg" width="55" height="55" viewBox="0 0 55 55">
  <g id="Group_1290" data-name="Group 1290" transform="translate(450.744 813.429)">
    <circle id="Ellipse_226" data-name="Ellipse 226" cx="25.941" cy="25.941" r="25.941" transform="translate(-449.188 -811.87)" fill="#fff"/>
    <path id="Path_1007" data-name="Path 1007" d="M-423.244-813.429a27.5,27.5,0,0,0-27.5,27.5,27.5,27.5,0,0,0,27.5,27.5,27.5,27.5,0,0,0,27.5-27.5A27.5,27.5,0,0,0-423.244-813.429Zm16.992,18.554a4.215,4.215,0,0,1,4.216,4.216,4.217,4.217,0,0,1-4.216,4.219,4.219,4.219,0,0,1-4.219-4.219A4.217,4.217,0,0,1-406.252-794.875Zm-16.533-4.084a8.3,8.3,0,0,1,8.294,8.3,8.3,8.3,0,0,1-8.294,8.3,8.3,8.3,0,0,1-8.3-8.3A8.3,8.3,0,0,1-422.785-798.958Zm-16.555,4.084a4.215,4.215,0,0,1,4.216,4.216,4.217,4.217,0,0,1-4.216,4.219,4.219,4.219,0,0,1-4.219-4.219A4.217,4.217,0,0,1-439.34-794.875Zm-2.7,20.331a21.88,21.88,0,0,1-3.165-8.671c4.364-1.972,12.279-1.2,13.855,2.3C-435.96-779.829-439.92-777.745-442.04-774.544Zm18.794,10.615a22.084,22.084,0,0,1-16.346-7.246c3.534-9.27,29.158-9.27,32.692,0A22.1,22.1,0,0,1-423.247-763.929Zm18.791-10.618c-2.052-3.1-5.83-5.148-10.249-6.262,1.43-3.473,8.97-4.337,13.439-2.568A21.83,21.83,0,0,1-404.456-774.546Z" transform="translate(0 0)" fill="#8d5fd6"/>
  </g>
</svg>
