<svg xmlns="http://www.w3.org/2000/svg" width="18" height="18" viewBox="0 0 18 18">
  <g id="Group_1381" data-name="Group 1381" transform="translate(0.018 0.33)">
    <circle id="Ellipse_271" data-name="Ellipse 271" cx="9" cy="9" r="9" transform="translate(-0.018 -0.33)" fill="#00b2ff"/>
    <g id="Group_1245" data-name="Group 1245" transform="translate(2.248 2.997)">
      <g id="emoji_people-24px" data-name="emoji people-24px" transform="translate(0 0)">
        <g id="Bounding_Box" data-name="Bounding Box" transform="translate(0 0)">
          <rect id="Rectangle_625" data-name="Rectangle 625" width="14" height="12" transform="translate(-0.265 -0.327)" fill="none"/>
          <rect id="Rectangle_626" data-name="Rectangle 626" width="14" height="12" transform="translate(-0.265 -0.327)" fill="none"/>
        </g>
        <g id="Flat" transform="translate(2.532 0.749)">
          <g id="Group_1272" data-name="Group 1272" transform="translate(0 0)">
            <circle id="Ellipse_71" data-name="Ellipse 71" cx="1" cy="1" r="1" transform="translate(3.203 -0.076)" fill="#fff"/>
            <path id="Path_2073" data-name="Path 2073" d="M-1338.141-720.389a1.618,1.618,0,0,0-1.232-.58h-1.327a2.624,2.624,0,0,1-2.57-2.167.523.523,0,0,0-.512-.444h0a.523.523,0,0,0-.528.517.563.563,0,0,0,.005.078,3.675,3.675,0,0,0,2.564,2.909v6.419a.522.522,0,0,0,.522.522h0a.523.523,0,0,0,.522-.522v-2.611h1.045v2.611a.523.523,0,0,0,.522.522h0a.522.522,0,0,0,.522-.522v-5.719l1.692,1.692a.522.522,0,0,0,.736,0h0a.522.522,0,0,0,0-.736Z" transform="translate(1344.309 723.711)" fill="#fff"/>
          </g>
        </g>
      </g>
    </g>
  </g>
</svg>
