<svg xmlns="http://www.w3.org/2000/svg" width="55" height="55" viewBox="0 0 55 55">
    <g id="Group_1289" data-name="Group 1289" transform="translate(473.876 813.429)">
        <circle id="Ellipse_225" data-name="Ellipse 225" cx="25.941" cy="25.941" r="25.941"
                transform="translate(-472.316 -811.87)" fill="#fff"/>
        <path id="Path_1006" data-name="Path 1006"
              d="M-446.376-813.429a27.5,27.5,0,0,0-27.5,27.5,27.5,27.5,0,0,0,27.5,27.5,27.5,27.5,0,0,0,27.5-27.5A27.5,27.5,0,0,0-446.376-813.429Zm.58,5.5a10.421,10.421,0,0,1,10.42,10.423,10.42,10.42,0,0,1-10.42,10.42,10.422,10.422,0,0,1-10.422-10.42A10.423,10.423,0,0,1-445.8-807.929Zm-.58,44a22.007,22.007,0,0,1-19.242-11.36c6.908-8.643,31.575-8.643,38.486,0A22.011,22.011,0,0,1-446.376-763.929Z"
              transform="translate(0 0)" fill="#8d5fd6"/>
    </g>
</svg>
