<svg xmlns="http://www.w3.org/2000/svg" width="55" height="55" viewBox="0 0 55 55">
  <g id="Group_1288" data-name="Group 1288" transform="translate(-1603 -1806)">
    <circle id="Ellipse_223" data-name="Ellipse 223" cx="27.5" cy="27.5" r="27.5" transform="translate(1603 1806)" fill="#ff8500"/>
    <path id="Path_1005" data-name="Path 1005" d="M-105.718-910.824h-3.565v-1.782a1.685,1.685,0,0,0-1.782-1.782,1.684,1.684,0,0,0-1.782,1.782v1.782h-7.129v-1.782a1.685,1.685,0,0,0-1.782-1.782,1.684,1.684,0,0,0-1.782,1.782v1.782h-3.565a3.575,3.575,0,0,0-3.565,3.565v21.388a3.575,3.575,0,0,0,3.565,3.565h21.388a3.575,3.575,0,0,0,3.565-3.565V-907.26A3.575,3.575,0,0,0-105.718-910.824Zm-21.388,3.565h3.565v1.782a1.684,1.684,0,0,0,1.782,1.782,1.685,1.685,0,0,0,1.782-1.782v-1.782h7.129v1.782a1.684,1.684,0,0,0,1.782,1.782,1.685,1.685,0,0,0,1.782-1.782v-1.782h3.565v7.129h-21.388Zm21.388,21.388h-21.388v-10.694h21.388Z" transform="translate(1746.411 2730.348)" fill="#fff"/>
  </g>
</svg>
