<svg xmlns="http://www.w3.org/2000/svg" width="147.609" height="213.244" viewBox="0 0 147.609 213.244"><g transform="translate(1550.708 529.002)"><g transform="translate(-1473.75 -518.864)"><path d="M-1529.634-505.719c2.878-3.385,4.829-7.53,4.505-12.171.6,8.533-11.493-25.492-23.175-3.686-3.6,6.758-3.2,23.888,1.486,25.1,1.869.478,5.85-.7,9.9-3.143l-2.542,17.985h15.013Z" transform="translate(1550.708 529)" fill="#d1ab8c" fill-rule="evenodd"/></g><path d="M-1389.153-510.921a4.752,4.752,0,0,0,.979-1.81,19.243,19.243,0,0,0,.625-2.058,4.567,4.567,0,0,0-.684-4.122,4.722,4.722,0,0,0-3.125-1.356,5.892,5.892,0,0,0-2.217.283c-.708.23-1.315.7-2,.985a8.866,8.866,0,0,0-1.056-4.4,4.368,4.368,0,0,0-3.237-2.135,6.48,6.48,0,0,0-3.974.8,9.167,9.167,0,0,0-.908.513,2.514,2.514,0,0,1-.79.43c-.324.077-.478-.106-.69-.342a5.409,5.409,0,0,0-.849-.708,4.79,4.79,0,0,0-4.476-.767,4.154,4.154,0,0,0-1.822,1.321c-.419.548,2.9,3.986,2.318,4.37-.242.159-.419-.053-.637-.212-.336-.236-.648-.513-.991-.731a4.526,4.526,0,0,0-1.539-.69c-.808-.183-1.917-.142-2.146.914a4.234,4.234,0,0,0,0,1.221c.041.548.083,1.091.13,1.645.036.407.089.82.159,1.221a1.762,1.762,0,0,1,.077.837c-.112.271-.655.118-.879.13a3.534,3.534,0,0,0-1.327.295,1.418,1.418,0,0,0-.8.743,1.414,1.414,0,0,0,0,.7,1.932,1.932,0,0,1-.041.714c-.607-.3-2.719-.961-2.984.13a1.7,1.7,0,0,0,.265,1.079,8.955,8.955,0,0,0,.985,1.492c.755.979-1.952-.755-.985-.029a1.723,1.723,0,0,0-.9,2.258,1.736,1.736,0,0,0,.454.619,2.147,2.147,0,0,0,1.545.454,3.378,3.378,0,0,1,.643-.053,2.457,2.457,0,0,0,.295.1,8.856,8.856,0,0,0,2.394-.3,7.957,7.957,0,0,0,3.656-1.911,1.109,1.109,0,0,1,.843-.389c.313,0,.625.094.938.1a7.289,7.289,0,0,0,2.353-.654,8.943,8.943,0,0,0,.79,3.143c.348.767,1.073.873,1.793.944,2.282.218,4.57,0,6.852,0-2.211.513-4.494.708-6.693,1.3-.991.265-1.769,6.133-1.344,6.6.7.761,2.748-3.5,3.09-2.5a4.779,4.779,0,0,1,4.688-1.9,3.344,3.344,0,0,1,1.993,4.83,6.17,6.17,0,0,1-2.99,1.922c.814.843,1.032,2.093,1.5,3.155a2.231,2.231,0,0,0,1.12,1.286,1.353,1.353,0,0,1,.59.236c.195.2.242.425.49.6a2.757,2.757,0,0,0,3.432-.265,2.25,2.25,0,0,0-.071-2.943c1.061-.442,3-1.032,2.577-2.665,2.294-.147,2.736-3.88-.354-6.6,1.7-.955,3.255-3.3,2.17-5.366-.837-1.586,2.359-2.294.76-2.382" transform="translate(-52.476 -1.292)" fill="#191847" fill-rule="evenodd"/><g transform="translate(-1475.028 -393.315)"><path d="M-1496.054-529h-48.313l-6.333,77.555h71.93Z" transform="translate(1550.7 529)" fill="#c5cfd6" fill-rule="evenodd"/><path d="M-1474.562-529h-14.86l-8.9,77.555h41.036Z" transform="translate(1529.208 529)" fill="#e6e6e6" fill-rule="evenodd"/></g><path d="M-1514.647-323.969c-5.148-3.09-13.8.879-13.793,5.307,0,13.233,12.1,75.627,12.731,79.572s7.389,4.983,7.784,0c.631-7.908,1.793-35.3.631-47.983-.483-5.23-1-10.219-1.51-14.66q9.509,17.178,29.414,49.168l7.212-3.29q-8.483-27.96-13.9-39.474c-6.18-13.144-12.012-24.4-14.453-28.364C-1504.41-329.925-1511.109-327.749-1514.647-323.969Z" transform="translate(-9.137 -82.631)" fill-rule="evenodd"/><path d="M-1465.519-266.764l-24.72-58.562c-5.92-9.529-22.526,1.934-20.509,7.46,4.582,12.543,27.9,53.154,29.272,56.893Z" transform="translate(-16.327 -82.07)" fill="#333" fill-rule="evenodd"/><path d="M-1450.823-215.088a13.973,13.973,0,0,1,3.007,3.09,30.581,30.581,0,0,1,1.975,4.558l-30.546,17.661q-3.458-3.255-1.079-5.048c1.586-1.2,2.9-2.205,3.933-3.031l11.387-12.8c.2-.283-.254-2.058,0-1.863l-.955-5.272,3.155,6.976a11.231,11.231,0,0,0,4.5-1.12c.8-.466.265-5.808,1.309-7.277h0c.4-.56,2.642,3.68,3.2,4.081Z" transform="translate(-29.655 -127.089)" fill-rule="evenodd"/><path d="M-1515.487-189.373a13.216,13.216,0,0,1,1.032,4.193,31.723,31.723,0,0,1-.56,4.942h-35.257q-1.371-4.546,1.586-4.912c1.975-.236,3.6-.46,4.924-.655l17.219-6.994c.313-.142-.141-.313,0,0,0,0,1.84-5.926,1.846-5.92l-.773,8.5a11.229,11.229,0,0,0,4.452,1.28,10.018,10.018,0,0,0,3.851-1.126l.684-6.321c.631-.289.684,6.31.973,6.935Z" transform="translate(0 -135.52)" fill-rule="evenodd"/><path d="M-1531.38-320.673c0,16.611,7.89,55.377,7.9,59.033h16.995q-3.724-51.878-2.642-52.435c1.079-.56,44.439,4.328,57.441,4.328,18.752,0,26.506-11.847,27.137-33.724h-37.156c-7.566.808-47.01,8.757-61.664,11.5C-1529.646-330.786-1531.38-325.249-1531.38-320.673Z" transform="translate(-7.931 -76.127)" fill="#4d4d4d" fill-rule="evenodd"/><path d="M-1526.442-483.356l-3.674,37.25a4.636,4.636,0,0,0,3.691,4.995l22.078,4.476a4.635,4.635,0,0,0,5.466-3.615c.035-.177.059-.36.077-.537l3.025-35.829a4.629,4.629,0,0,0-3.4-4.859l-21.423-5.891a4.637,4.637,0,0,0-5.7,3.243,4.344,4.344,0,0,0-.141.772Z" transform="translate(-8.44 -17.016)" fill="#e6e6e6"/><path d="M-1521.906-480.231l-3.774,36.047a2.863,2.863,0,0,0,2.282,3.09l20.733,4.2a2.863,2.863,0,0,0,3.373-2.241,3.276,3.276,0,0,0,.047-.336l3.178-34.721a2.875,2.875,0,0,0-2.093-3.031L-1518.3-482.7a2.863,2.863,0,0,0-3.52,2,2.592,2.592,0,0,0-.083.466Z" transform="translate(-10.263 -18.956)" fill="#fff"/><path d="M-1497.05-401.538l-9.535-5.242q-2.008-7.633-4.8-7.684c-1.427-.666,1.079,5.7-1.651,5.213-2.418-.436-4.812-1.928-6.9-1.321-1.687,1.48.548,3.915,2.323,6.18,3.308,4.216,1.757,4.605,8.527,6.492a37,37,0,0,1,11.487,5.938Z" transform="translate(-12.381 -46.977)" fill="#b29279" fill-rule="evenodd"/><path d="M-1461.708-434.19l-21.7-11.888a53.436,53.436,0,0,0-10.673-9.989c-1.073-.448-2.943-.714-1.191,2.388s3.45,6.457,2.577,7.418-3.09-.383-4.181,1.209q-1.053,1.592,11.4,5.024l15.774,14.418Z" transform="translate(-22.054 -29.815)" fill="#b29279" fill-rule="evenodd"/><path d="M-1427.95-419.974a53.286,53.286,0,0,1-28.564-8.556l-4.246,9.476c7.466,7.406,17.956,13.492,27.137,13.233A8.286,8.286,0,0,0-1427.95-419.974Z" transform="translate(-36.907 -41.225)" fill="#dd4b19" fill-rule="evenodd"/><path d="M-1455.3-415.565q-12.109,3-40.594-7.123-7.068,14.621-6.534,20.857c16.3,8.515,30.269,12.307,41.779,12.56-.366,6.829.466,13.327,3.255,19.265,5.744,12.207,39.362.9,50.666,3.125,7.082-22.986-6.6-32.332-6.616-47.039,0-16.11-12.949-40.9-14.854-40.9h-17.366C-1446.524-442.513-1451.347-428.962-1455.3-415.565Z" transform="translate(-19.796 -30.438)" fill="#f46e33" fill-rule="evenodd"/><path d="M-1495.779-471.993l-11.021-3.06.024-1.816,11.016,3.055Z" transform="translate(-18.016 -21.391)" fill="#e6e6e6"/><path d="M-1504.719-465.676l-11.021-3.06.035-.943,11.021,3.055Z" transform="translate(-14.348 -24.341)" fill="#e6e6e6"/><path d="M-1513.471-463.676l-2.919-.749.165-1.875,2.919.749Z" transform="translate(-14.081 -25.728)" fill="#00c389"/><path d="M-1506.391-461.786l-2.919-.749.165-1.875,2.925.749Z" transform="translate(-16.986 -26.503)" fill="#ffad22"/><path d="M-1499.291-459.956l-2.919-.749.165-1.875,2.919.749Z" transform="translate(-19.899 -27.254)" fill="#fd2f58"/><circle cx="0.991" cy="0.991" r="0.991" transform="translate(-1530.471 -488.554)" fill="#f2f2f2"/><circle cx="0.991" cy="0.991" r="0.991" transform="translate(-1527.387 -487.841)" fill="#f2f2f2"/><path d="M-1506.579-446.316l-11.021-3.055.035-.949,11.021,3.06Z" transform="translate(-13.585 -32.285)" fill="#e6e6e6"/><path d="M-1515.345-444.312l-2.925-.743.171-1.875,2.919.749Z" transform="translate(-13.31 -33.675)" fill="#00c389"/><path d="M-1508.261-442.422l-2.919-.749.165-1.869,2.919.743Z" transform="translate(-16.219 -34.451)" fill="#ffad22"/><path d="M-1501.171-440.592l-2.919-.743.165-1.875,2.925.749Z" transform="translate(-19.128 -35.202)" fill="#fd2f58"/><circle cx="0.991" cy="0.991" r="0.991" transform="translate(-1531.58 -477.138)" fill="#f2f2f2"/><circle cx="0.991" cy="0.991" r="0.991" transform="translate(-1528.49 -476.419)" fill="#f2f2f2"/><path d="M-1509.179-424.352l-11.021-3.055.035-.943,11.021,3.055Z" transform="translate(-12.518 -41.299)" fill="#e6e6e6"/><path d="M-1517.941-422.342l-2.919-.743.171-1.875,2.919.749Z" transform="translate(-12.247 -42.69)" fill="#00c389"/><path d="M-1510.865-420.456l-2.925-.749.171-1.875,2.919.749Z" transform="translate(-15.148 -43.461)" fill="#ffad22"/><path d="M-1503.771-418.616l-2.919-.749.165-1.875,2.925.749Z" transform="translate(-18.061 -44.216)" fill="#fd2f58"/><circle cx="0.991" cy="0.991" r="0.991" transform="translate(-1533.107 -464.183)" fill="#f2f2f2"/><circle cx="0.991" cy="0.991" r="0.991" transform="translate(-1530.017 -463.469)" fill="#f2f2f2"/><path d="M-1385.406-379.268c8.043-1.545,18.717,0,18.717,0l2.624,7.931h-9.866l-14.53,2.536Z" transform="translate(-66.573 -61.156)" fill="#fff"/><path d="M-1377.25-408.231s10.3-.9,13.2,0l-2.4-6.8h-13.1Z" transform="translate(-70.229 -46.764)" fill="#fff" fill-rule="evenodd"/><path d="M-1488.337-397.783l-7.625,21.482-6.469-3.19s1.073-17.926,6.552-20.84Z" transform="translate(-19.809 -52.796)" fill="#fff"/><path d="M-1456.518-428.53l-4.252,9.476,4.252,4.517,3.591-11.888Z" transform="translate(-36.903 -41.225)" fill="#ccc"/><path d="M-1472.43-334.168l.342,23.977,12.419,1.144-1.958-27.2Z" transform="translate(-32.119 -79.089)" fill="#ccc"/><path d="M-1501.91-216.76h-18.28l1.3,7.112,16.977.018Z" transform="translate(-12.522 -128.117)" fill="#ccc"/><path d="M-1463.495-221.645l15.957-5.8-2.412-5.708-17.13,5.749Z" transform="translate(-34.314 -121.392)" fill="#ccc"/><path d="M-1423.623-511.588c10.261-.454,7.619,5.749,30.552,9.83,1.091.195,5.042,2.665,2.89-2.412,0,0,4.635-17.962-7.56-22.992-18-7.424-25.61,10-25.61,10l-5.343,3.243a.979.979,0,0,0-.672,1.209.99.99,0,0,0,.778.7A19.533,19.533,0,0,0-1423.623-511.588Z" transform="translate(-49.773)" fill="#f46e33" fill-rule="evenodd"/></g></svg>