<svg xmlns="http://www.w3.org/2000/svg" width="261" height="278.324" viewBox="0 0 261 278.324"><g transform="translate(-327 -1158)"><g transform="translate(327 1158)"><circle cx="130.5" cy="130.5" r="130.5" fill="rgba(253,47,88,0.1)"/><g transform="translate(4304.705 189.617)"><rect width="181.387" height="225.804" rx="20" transform="translate(-4266.705 -150.887)" fill="#e6e6e6"/><rect width="154.178" height="200.666" rx="11.217" transform="translate(-4253.1 -138.318)" fill="#fff"/><rect width="63.244" height="10.306" rx="1.999" transform="translate(-4207.633 -129.805)" fill="#ccc"/><g transform="translate(-4239.255 -100.291)"><rect width="63.244" height="5.153" rx="1.999" transform="translate(0 0)" fill="#f2f2f2"/><circle cx="5.318" cy="5.318" r="5.318" transform="translate(0 26.924)" fill="#f2f2f2"/><circle cx="5.318" cy="5.318" r="5.318" transform="translate(16.738 26.924)" fill="#f2f2f2"/></g><g transform="translate(-4239.255 -43.523)"><rect width="63.244" height="5.153" rx="1.999" transform="translate(0 0)" fill="#f2f2f2"/><circle cx="5.318" cy="5.318" r="5.318" transform="translate(0 26.924)" fill="#f2f2f2"/><circle cx="5.318" cy="5.318" r="5.318" transform="translate(16.738 26.924)" fill="#f2f2f2"/></g><g transform="translate(-4239.255 13.245)"><rect width="63.244" height="5.153" rx="1.999" transform="translate(0)" fill="#f2f2f2"/><rect width="51.287" height="11.164" rx="1.999" transform="translate(0 10.306)" fill="#8d5fd6"/><circle cx="5.318" cy="5.318" r="5.318" transform="translate(0 26.924)" fill="#f2f2f2"/><circle cx="5.318" cy="5.318" r="5.318" transform="translate(16.738 26.924)" fill="#f2f2f2"/></g><circle cx="5.582" cy="5.582" r="5.582" transform="translate(-4239.255 -89.985)" fill="#8d5fd6"/><circle cx="5.582" cy="5.582" r="5.582" transform="translate(-4239.255 -33.217)" fill="#f3effb"/><circle cx="5.582" cy="5.582" r="5.582" transform="translate(-4222.78 -33.217)" fill="#f3effb"/><circle cx="5.582" cy="5.582" r="5.582" transform="translate(-4206.88 -33.217)" fill="#8d5fd6"/><circle cx="5.582" cy="5.582" r="5.582" transform="translate(-4190.693 -33.217)" fill="#f3effb"/><circle cx="5.582" cy="5.582" r="5.582" transform="translate(-4142.642 -33.217)" fill="#f3effb"/><circle cx="5.582" cy="5.582" r="5.582" transform="translate(-4174.219 -33.217)" fill="#f3effb"/><circle cx="5.582" cy="5.582" r="5.582" transform="translate(-4158.319 -33.217)" fill="#f3effb"/></g><g transform="translate(-16 -23)"><circle cx="36" cy="36" r="36" transform="translate(193 30)" fill="#fd2f58"/><g transform="translate(216.055 54.055)"><g transform="translate(-12.477 -12.477)"><g transform="translate(0 0)"><rect width="49" height="49" transform="translate(0.422 0.422)" fill="none"/><rect width="49" height="49" transform="translate(0.422 0.422)" fill="none"/></g><g transform="translate(8.913 4.224)"><g transform="translate(0 0)"><circle cx="4" cy="4" r="4" transform="translate(12.509 0.198)" fill="#fff"/><path d="M-1319.462-710.725a6.519,6.519,0,0,0-4.965-2.336h-5.344a10.57,10.57,0,0,1-10.351-8.731,2.106,2.106,0,0,0-2.062-1.789h0a2.106,2.106,0,0,0-2.125,2.083,2.285,2.285,0,0,0,.021.316,14.806,14.806,0,0,0,10.331,11.719V-683.6a2.1,2.1,0,0,0,2.1,2.1h0a2.1,2.1,0,0,0,2.1-2.1v-10.52h4.208v10.52a2.1,2.1,0,0,0,2.1,2.1h0a2.1,2.1,0,0,0,2.1-2.1v-23.038l6.817,6.817a2.1,2.1,0,0,0,2.967,0h0a2.1,2.1,0,0,0,0-2.967Z" transform="translate(1344.309 723.893)" fill="#fff"/></g></g></g></g></g></g><g transform="translate(5541.427 1469.215)"><path d="M-5334.558-57.229l85.141-72.89c7.952-29.478,8.859-43.03,18.368-49.446,9.115-6.175,5.909-4.627,9.677-9.419,32.808-41.725,47.18-40.326,28.983-16.9-32.7,42.108,14.089,30.244,3.412,54.1-5.768,10.888-18.862,17.257-27.772,19.374l-50.186,80.1Z" transform="translate(150.461)" fill="#d4a181" fill-rule="evenodd"/><path d="M-5135.521-127.123c.828.676.847-3.314,13.86-13.77l35.276,34.2c-31.4,81.92-80.437,58.32-105.8,48.736C-5255.141-89.789-5166.341-105.131-5135.521-127.123Z" transform="translate(0 14.432)" fill="#c5cfd6" fill-rule="evenodd"/></g></g></svg>