<svg id="Illustration_in_a_circle_Secondary_Button_Arrow" data-name="Illustration in a circle + Secondary Button + Arrow" xmlns="http://www.w3.org/2000/svg" width="261" height="264.534" viewBox="0 0 261 264.534">
  <circle id="Ellipse_78" data-name="Ellipse 78" cx="130.5" cy="130.5" r="130.5" fill="rgba(253,47,88,0.1)"/>
  <g id="Group_1371" data-name="Group 1371" transform="translate(4304.705 189.617)">
    <rect id="Rectangle_1023" data-name="Rectangle 1023" width="181.387" height="225.804" rx="20" transform="translate(-4266.705 -150.887)" fill="#e6e6e6"/>
    <rect id="Rectangle_1024" data-name="Rectangle 1024" width="154.178" height="200.666" rx="11.217" transform="translate(-4253.1 -138.318)" fill="#fff"/>
    <rect id="Rectangle_1025" data-name="Rectangle 1025" width="63.244" height="10.306" rx="1.999" transform="translate(-4207.633 -129.805)" fill="#ccc"/>
    <g id="Group_1371-2" data-name="Group 1371" transform="translate(-4239.255 -100.291)">
      <rect id="Rectangle_1026" data-name="Rectangle 1026" width="63.244" height="5.153" rx="1.999" transform="translate(0 0)" fill="#f2f2f2"/>
      <circle id="Ellipse_272" data-name="Ellipse 272" cx="5.318" cy="5.318" r="5.318" transform="translate(0 26.924)" fill="#f2f2f2"/>
      <circle id="Ellipse_273" data-name="Ellipse 273" cx="5.318" cy="5.318" r="5.318" transform="translate(16.738 26.924)" fill="#f2f2f2"/>
    </g>
    <g id="Group_1372" data-name="Group 1372" transform="translate(-4239.255 -43.523)">
      <rect id="Rectangle_1027" data-name="Rectangle 1027" width="63.244" height="5.153" rx="1.999" transform="translate(0 0)" fill="#f2f2f2"/>
      <circle id="Ellipse_274" data-name="Ellipse 274" cx="5.318" cy="5.318" r="5.318" transform="translate(0 26.924)" fill="#f2f2f2"/>
      <circle id="Ellipse_275" data-name="Ellipse 275" cx="5.318" cy="5.318" r="5.318" transform="translate(16.738 26.924)" fill="#f2f2f2"/>
    </g>
    <g id="Group_1373" data-name="Group 1373" transform="translate(-4239.255 13.245)">
      <rect id="Rectangle_1028" data-name="Rectangle 1028" width="63.244" height="5.153" rx="1.999" transform="translate(0)" fill="#f2f2f2"/>
      <rect id="Rectangle_1029" data-name="Rectangle 1029" width="51.287" height="11.164" rx="1.999" transform="translate(0 10.306)" fill="#8d5fd6"/>
      <circle id="Ellipse_276" data-name="Ellipse 276" cx="5.318" cy="5.318" r="5.318" transform="translate(0 26.924)" fill="#f2f2f2"/>
      <circle id="Ellipse_277" data-name="Ellipse 277" cx="5.318" cy="5.318" r="5.318" transform="translate(16.738 26.924)" fill="#f2f2f2"/>
    </g>
    <circle id="Ellipse_278" data-name="Ellipse 278" cx="5.582" cy="5.582" r="5.582" transform="translate(-4239.255 -89.985)" fill="#8d5fd6"/>
    <circle id="Ellipse_279" data-name="Ellipse 279" cx="5.582" cy="5.582" r="5.582" transform="translate(-4239.255 -33.217)" fill="#f3effb"/>
    <circle id="Ellipse_280" data-name="Ellipse 280" cx="5.582" cy="5.582" r="5.582" transform="translate(-4222.78 -33.217)" fill="#f3effb"/>
    <circle id="Ellipse_281" data-name="Ellipse 281" cx="5.582" cy="5.582" r="5.582" transform="translate(-4206.88 -33.217)" fill="#8d5fd6"/>
    <circle id="Ellipse_282" data-name="Ellipse 282" cx="5.582" cy="5.582" r="5.582" transform="translate(-4190.693 -33.217)" fill="#f3effb"/>
    <circle id="Ellipse_283" data-name="Ellipse 283" cx="5.582" cy="5.582" r="5.582" transform="translate(-4142.642 -33.217)" fill="#f3effb"/>
    <circle id="Ellipse_284" data-name="Ellipse 284" cx="5.582" cy="5.582" r="5.582" transform="translate(-4174.219 -33.217)" fill="#f3effb"/>
    <circle id="Ellipse_285" data-name="Ellipse 285" cx="5.582" cy="5.582" r="5.582" transform="translate(-4158.319 -33.217)" fill="#f3effb"/>
  </g>
  <g id="Group_1372-2" data-name="Group 1372" transform="translate(-16 -23)">
    <circle id="Ellipse_271" data-name="Ellipse 271" cx="36" cy="36" r="36" transform="translate(193 30)" fill="#fd2f58"/>
    <g id="Group_1245" data-name="Group 1245" transform="translate(216.055 54.055)">
      <g id="emoji_people-24px" data-name="emoji people-24px" transform="translate(-12.477 -12.477)">
        <g id="Bounding_Box" data-name="Bounding Box" transform="translate(0 0)">
          <rect id="Rectangle_625" data-name="Rectangle 625" width="49" height="49" transform="translate(0.422 0.422)" fill="none"/>
          <rect id="Rectangle_626" data-name="Rectangle 626" width="49" height="49" transform="translate(0.422 0.422)" fill="none"/>
        </g>
        <g id="Flat" transform="translate(8.913 4.224)">
          <g id="Group_1272" data-name="Group 1272" transform="translate(0 0)">
            <circle id="Ellipse_71" data-name="Ellipse 71" cx="4" cy="4" r="4" transform="translate(12.509 0.198)" fill="#fff"/>
            <path id="Path_2073" data-name="Path 2073" d="M-1319.462-710.725a6.519,6.519,0,0,0-4.965-2.336h-5.344a10.57,10.57,0,0,1-10.351-8.731,2.106,2.106,0,0,0-2.062-1.789h0a2.106,2.106,0,0,0-2.125,2.083,2.285,2.285,0,0,0,.021.316,14.806,14.806,0,0,0,10.331,11.719V-683.6a2.1,2.1,0,0,0,2.1,2.1h0a2.1,2.1,0,0,0,2.1-2.1v-10.52h4.208v10.52a2.1,2.1,0,0,0,2.1,2.1h0a2.1,2.1,0,0,0,2.1-2.1v-23.038l6.817,6.817a2.1,2.1,0,0,0,2.967,0h0a2.1,2.1,0,0,0,0-2.967Z" transform="translate(1344.309 723.893)" fill="#fff"/>
          </g>
        </g>
      </g>
    </g>
  </g>
</svg>
