<svg xmlns="http://www.w3.org/2000/svg" width="55" height="55" viewBox="0 0 55 55"><g transform="translate(-513.15 -1807)"><circle cx="27.5" cy="27.5" r="27.5" transform="translate(513.15 1807)" fill="#8d5fd6"/><g transform="translate(527.595 1820.495)"><g transform="translate(0 17.539)"><path d="M2.624,30.99H9.711a1.524,1.524,0,0,1,1.524,1.516h0v1.839a1.524,1.524,0,0,1-1.516,1.524H2.624A1.524,1.524,0,0,1,1.1,34.353h0V32.514A1.531,1.531,0,0,1,2.624,30.99Z" transform="translate(-1.1 -25.734)" fill="#fff"/><path d="M1.11,32.911V25.824A1.524,1.524,0,0,1,2.626,24.3H4.465a1.524,1.524,0,0,1,1.524,1.516h0V32.9a1.524,1.524,0,0,1-1.516,1.524H2.626A1.507,1.507,0,0,1,1.11,32.911Z" transform="translate(-1.102 -24.3)" fill="#fff"/></g><g transform="translate(27.678 10.131) rotate(180)"><path d="M1.524,0H8.611a1.524,1.524,0,0,1,1.524,1.516h0V3.355A1.524,1.524,0,0,1,8.619,4.879H1.524A1.524,1.524,0,0,1,0,3.363H0V1.524A1.531,1.531,0,0,1,1.524,0Z" transform="translate(0 5.249)" fill="#fff"/><path d="M0,8.611V1.524A1.524,1.524,0,0,1,1.516,0H3.355A1.524,1.524,0,0,1,4.879,1.516h0V8.6a1.524,1.524,0,0,1-1.516,1.524H1.524A1.519,1.519,0,0,1,0,8.611Z" transform="translate(0 0)" fill="#fff"/></g><g transform="translate(10.131 0) rotate(90)"><path d="M1.524,0H8.6a1.524,1.524,0,0,1,1.524,1.516h0V3.355A1.524,1.524,0,0,1,8.611,4.879H1.524A1.524,1.524,0,0,1,0,3.363H0V1.524A1.531,1.531,0,0,1,1.524,0Z" transform="translate(0 5.249)" fill="#fff"/><path d="M0,8.611V1.524A1.524,1.524,0,0,1,1.516,0H3.355A1.524,1.524,0,0,1,4.879,1.516h0V8.6a1.524,1.524,0,0,1-1.516,1.524H1.524A1.519,1.519,0,0,1,0,8.611Z" transform="translate(0 0)" fill="#fff"/></g><g transform="translate(17.547 27.678) rotate(-90)"><path d="M1.524,0H8.611a1.524,1.524,0,0,1,1.524,1.516h0V3.355A1.524,1.524,0,0,1,8.619,4.879H1.524A1.524,1.524,0,0,1,0,3.363H0V1.524A1.531,1.531,0,0,1,1.524,0Z" transform="translate(0 5.256)" fill="#fff"/><path d="M0,8.611V1.524A1.524,1.524,0,0,1,1.516,0H3.355A1.524,1.524,0,0,1,4.879,1.516h0V8.6a1.524,1.524,0,0,1-1.516,1.524H1.524A1.524,1.524,0,0,1,0,8.611Z" transform="translate(0 0)" fill="#fff"/></g></g></g></svg>