<svg xmlns="http://www.w3.org/2000/svg" width="55" height="55" viewBox="0 0 55 55"><g transform="translate(-836 -368)"><g transform="translate(836 368)"><circle cx="27.5" cy="27.5" r="27.5" fill="#fd2f58"/><g transform="translate(6.858 6.858)"><path d="M29.735,13.919A15.816,15.816,0,1,1,13.919,29.735,15.834,15.834,0,0,1,29.735,13.919m0-4.879A20.695,20.695,0,1,0,50.43,29.735,20.692,20.692,0,0,0,29.735,9.04Z" transform="translate(-9.04 -9.04)" fill="#fff"/><g transform="translate(18.242 8.694)"><path d="M43.213,38.4,32.523,33.8a1.906,1.906,0,0,1-1.153-1.745V19.48h3.808V30.792L44.715,34.9Z" transform="translate(-31.37 -19.48)" fill="#fff"/></g></g></g></g></svg>